<svg version="1.1" id="Слой_1" xmlns="http://www.w3.org/2000/svg" xmlns:xlink="http://www.w3.org/1999/xlink" x="0" y="0" viewBox="0 0 1560.4 1608.3" xml:space="preserve"><style>.st3{fill:#e8a789}.st4{opacity:.7;fill:#e5ad97;enable-background:new}.st5{fill:#e2e2e2}.st6{fill:#586589}.st7{fill:#fff}.st8{fill:#4e5878}.st10{fill:#c9c8c8}.st12{opacity:.5;fill:#e5ad97;enable-background:new}.st13{fill:#21313b}.st14{opacity:.5;fill:#12242d;enable-background:new}.st15{fill:#e08773}.st20{fill:#291d11}.st22{enable-background:new;opacity:.4;fill:#bee2fa}.st23{fill:none;stroke:#542c0f;stroke-width:18.3;stroke-miterlimit:10}.st26{fill:#fafadf}.st27{fill:#d6d5d5}.st29{opacity:.5;fill:#76acc2;enable-background:new}</style><path d="M581.5 368.3c159.3-45.1 332.2-52.7 489.7 2 297.7 103.3 506 374.9 488.2 644.5-9.3 139.9-71.1 296.9-154 412.4-223.4 311.3-838.3 156.2-1145.1-23.5-347.9-203.7-322.1-605.9-70-827.1C291.9 487.5 430.5 411 581.5 368.3z" fill="#7291cb"/><defs><path id="SVGID_1_" d="M644.5-57c165.7-70 367.1-6.4 523.6 52.3 295.8 110.9 487.8 445.4 449.5 794.2-19.9 181-63.9 422.6-157 577.7-250.9 417.8-936.5 208.6-1235.8 0-339.4-236.5-243.4-736.4 30-1040.2C365 204.5 487.5 9.4 644.5-57z"/></defs><clipPath id="SVGID_2_"><use xlink:href="#SVGID_1_" overflow="visible"/></clipPath><g clip-path="url(#SVGID_2_)"><path d="M1123.5 482.6c-6.6 33.6-54.3 79.4-88.4 53.7-35.1-26.4-18-156.5 13.4-185.5 64.6-59.6 84.6 82.5 75 131.8z" fill="#12242d"/><path class="st3" d="M831.1 1137.6s-30.4-54.9 17.5-101.9c35.9-35.3 72-3.4 88 14.4 42.9 47.7 110 108.5 154.3 170.5 45.5 63.7 67.4 85 57.6 96.3-11 12.8-57.2 56.6-75.3 49.1-71.3-29.4-175.3-112.4-242.1-228.4z"/><path class="st4" d="M848.6 1035.7c-47.9 47-17.5 101.9-17.5 101.9 41.9 72.8 98.5 132.5 152.4 174.3 44-20.7 75.8-59.6 98.6-103.2-44-57.9-105.3-114-145.5-158.6-16-17.8-52.1-49.7-88-14.4z"/><path class="st5" d="M833.7 1018.4c-55.6 54.6-20.3 118.3-20.3 118.3 37.6 65.3 87.7 121.5 138.6 166 70.7 1.6 121.9-104.4 129.1-112.8-47.8-56.6-105.5-110.6-145.2-154.8-18.6-20.6-60.5-57.6-102.2-16.7z"/><path class="st6" d="M1068 1174.7c-5.9-6.7-11.9-13.4-18-20-38.7 66.9-83.3 108.8-127.8 120.4 7.1 6.9 14.2 13.6 21.4 20.1 44.6-16.9 86.8-57.8 124.4-120.5z"/><path class="st3" d="M1124 1358.4s-31.8 24.9-67.2-1.1c-26.5-19.5-3.5-54.6 9.4-70.9 34.5-43.8 112.4-154.3 163.4-202.5 22-20.8 56.2 14.9 50.9 30.6-20.5 61.3-71.9 166.1-156.5 243.9z"/><path class="st3" d="M1229.6 1098.1c-13.9-7.5-14.2-52.2-15.2-57.8-.9-5.1-.2-19.6.8-24.4.4-1.8 2.6-3.2 6-1.9 13.5 5 16.5 30.5 17.4 31 5-5.3 7.7-16.9 8.1-17.2 4.7-16.6 13.7-47.8 16.6-60.8 1.2-5.3 5.4-10.9 9.6-9.9 3 .7 6.9 5 5.5 11.3-5.2 22.9-10.7 58-10.1 58.2 7.3-15.5 21.4-45.1 26.4-57.4 2.1-5.1 7.2-9.9 11.2-8.3 2.9 1.1 6.1 5.8 3.7 11.8-5.3 13.9-20.1 61.6-18.8 62.3 10.2-14.9 24.9-36.5 30.9-46.5 2.8-4.7 8.7-8.8 12.5-6.7 2.7 1.5 5.2 6.5 1.9 12-6.8 11.8-18.9 34.6-29.1 51.7.7.6 27.5-23.6 37.2-33.7 3.8-4 8.8-3.4 10.8-1.7 2.7 2.3.8 8-2.4 11.4-8.2 8.6-27.7 31.4-37 42.4-2.8 9.1-12.8 27.1-17 33.5-6.8 10.3-11.1 14.1-16.8 15.6l-11.2 3.6c-.2-.3-24.8.7-41-18.5zM474 1982.5c-27.3 48.2-62.7 252.5-47.4 264.6 13.1 10.4 81.7 27.5 86.5 19.9 17.8-28.3 95.7-233.7 95.7-233.7s9.9-40.3-33.7-60.2c-64-29-89.8-10.5-101.1 9.4z"/><path class="st7" d="M438 2108.3c-12.8 65.8-20 132.1-11.5 138.9 13.1 10.4 81.7 27.5 86.5 19.9 9-14.3 33.2-73.6 55.1-128.9 0 0-23.1 6.4-45.7 2-60.3-15.1-84.4-31.9-84.4-31.9z"/><path class="st3" d="M608.1 2033.4c25.6-49.1 100-256.6 84.3-268.3-13.4-10-185-52.5-189.5-44.8-16.8 28.9-31.2 266.9-31.2 266.9s-8.6 40.6 35.8 59c64.8 26.8 90 7.4 100.6-12.8zm250.5-11.3c-8.4 54.7 30.9 258.3 49.5 264.2 15.9 5.1 86.2-3.3 88-12 6.6-32.8 6.6-252.5 6.6-252.5s-5-41.2-52.9-44.3c-70.1-4.5-87.7 21.9-91.2 44.6z"/><path class="st7" d="M869.6 2152.4c11.4 66 28.2 130.6 38.5 133.9 15.9 5.1 86.2-3.3 88-12 3.3-16.5 5-80.6 5.8-140.1 0 0-19.4 14.2-42 18.1-61.8 7.3-90.3.1-90.3.1z"/><path class="st3" d="M1002 2022.1c6.5-55 2.5-275.4-16.3-280.7-16.1-4.6-191.6 16.5-193.1 25.3-5.4 33 65.5 260.6 65.5 260.6s6.4 41 54.3 42.5c70.2 2 86.9-25 89.6-47.7z"/><path class="st8" d="M1031.2 1944.4s-42.8 31.7-106.6 49.7c-69.2 19.5-103.2 9.3-103.2 9.3l-88.3-246.9s-92.7-64.4-43.4-136.9c31.5-46.3 310-66.5 310-66.5l31.5 391.3z"/><path class="st6" d="M650.3 2016.8s-52.7 7.4-117.4-7.5c-70.1-16.1-95-41.3-95-41.3l40.9-259s-50.5-100.9 27.5-141c49.9-25.6 303.9 90.3 303.9 90.3l-159.9 358.5z"/><path d="M1026.4 1648.3c-76.7-259.7 13.3-567.2-144.5-647.5-30.8-15.6-85.8-17.5-141.1-17.5-58 0-130.3-3.4-166.4 14.8-161.3 81.3-33.9 390.5-119.2 650.3-14 42.2 583.7 42.5 571.2-.1z" fill="#efefef"/><path class="st3" d="M497.6 1039.8s50.7-37.1 103.3 4.5c39.5 31.2 12.4 71-3.2 89.2-41.9 48.5-93.8 122.7-149.8 174.5-57.5 53.1-75.8 77.5-88.3 69.3-14.1-9.3-63.3-49.6-58.2-68.6 20.2-74.5 89.6-188.1 196.2-268.9z"/><path class="st4" d="M600.9 1044.3c-52.7-41.6-103.3-4.5-103.3-4.5-66.9 50.7-119.1 114.4-153.8 173.1 26 41.1 68.6 67.7 114.8 84.8 51.9-50.9 99.9-118.8 139.1-164.2 15.6-18.2 42.7-58 3.2-89.2z"/><path class="st7" d="M616.2 1027.4c-61.1-48.3-119.9-5.3-119.9-5.3-60.1 45.5-109.5 102.2-147.3 158.3 7.3 70.3 118.9 107.8 128.1 113.9 50.2-54.6 96.4-118.5 135.3-163.5 18.2-21 49.6-67.2 3.8-103.4z"/><path class="st6" d="M490.6 1279.4c5.9-6.7 11.8-13.5 17.6-20.4-71.2-30-118.3-68.9-135.5-111.7-6 7.9-11.8 15.8-17.3 23.8 22.4 42.1 68.2 79 135.2 108.3zM727 1050.1l50.8 48.6 13.7-62.1z"/><path class="st10" d="M884.1 2321.3s-1.8 40.7 11.3 44.4l166.8 5.2 27.5-5.5-13.6-23.5-192-20.6z"/><path class="st8" d="M884.1 2298.7c0-21.2-1.5-43.1 3.7-50.4 5.5-7.7 10.8 23.1 53.3 18.5 38.2-4.2 55.8-17.4 55.8-17.4v-13.2s3.4 8.1 45.2 8.1c13.5 0 32.7-8.1 32.7-8.1l10.2 113.9-130.7-2.7c-3.8.3-7.9.5-12.4.5-65.9-.3-57.8-22-57.8-49.2z"/><path class="st7" d="M1072.3 2236.3c.2 0 4.8-3.8 6.6-4 62.1-5.1 100.8 35.8 100.8 79.9 0 8.2-1.6 16.3-4.6 23.9 0 0-31.6 14-96.2 14.1h-.7l-5.9-113.9z"/><path class="st10" d="M1078.2 2350.2h.7c64.5-.1 96.1-14 96.2-14.1-.6 6.1-2 15-4.1 20.6 0 0-30.2 13.9-92.1 14.1h-16.7l16-20.6z"/><path class="st7" d="M1055.8 2266.8c-.8-.1-1.6-.2-2.4-.5-4.5-1.4-8.2-4.5-10.3-8.6-.8-1.4-1.3-3-1.7-4.6-.4-1.8-.5-3.7-.4-5.5.4-2 .6-4 1.8-5.9.9-1.9 2.2-3.5 3.8-4.8 1.3-1.2 2.9-2 4.5-2.6 1.3-.5 2.8-.7 4.2-.7 2 0 4.1.4 5.9 1.3.7.3 1.4.7 2.1 1.2 0 0-.5.9-1.2 2.1-.4.6-.8 1.3-1.3 2s-.9 1.5-1.3 2.3c-.4.7-.8 1.5-1 2.3-.1.8-.5 1.3-.4 1.9 0 .2 0 .5-.1.7.1.2.1.4.1.6-.1.3.1.8-.1 1.2 0 .6-.2 1.1-.2 1.9s-.1 1.6-.2 2.4c-.1 1.8-.3 3.8-.6 5.8s-.5 3.8-.8 5.2-.4 2.3-.4 2.3z"/><path class="st6" d="M984.4 2257.3l43-5-26.9-50.7-8.1 11.4z"/><path class="st7" d="M1028.5 2266.8c-.8-.1-1.6-.2-2.4-.5-4.5-1.4-8.2-4.5-10.3-8.6-.8-1.4-1.3-3-1.7-4.6-.4-1.8-.5-3.7-.4-5.5.4-2 .6-4 1.8-5.9.9-1.9 2.2-3.5 3.8-4.8 1.3-1.2 2.9-2 4.5-2.6 1.3-.5 2.8-.7 4.2-.7 2 0 4.1.4 5.9 1.3.7.3 1.5.7 2.1 1.2 0 0-.5.9-1.2 2.1-.4.6-.8 1.3-1.3 2s-.9 1.5-1.3 2.3c-.4.7-.8 1.5-1 2.3-.1.8-.5 1.3-.4 1.9 0 .2 0 .5-.1.7.1.2.1.4.1.6-.1.3.1.8-.1 1.2 0 .6-.2 1.1-.2 1.9s-.1 1.6-.2 2.4c-.1 1.8-.3 3.8-.6 5.8s-.5 3.8-.8 5.2-.4 2.3-.4 2.3z"/><path class="st10" d="M386.9 2282.6s-17.5 36.8-6.8 45.3l151.9 69.3 27.5 5.6-3.5-27-169.1-93.2z"/><path class="st8" d="M395.6 2261.8c8.2-19.6 15.3-40.4 22.9-45 8.1-5 1 25.5 42 37.7 36.9 10.9 58.2 5.6 58.2 5.6l5.1-12.1s0 8.8 38.6 25c12.5 5.2 33.3 5.1 33.3 5.1l-34.7 109-119.5-53c-3.7-1.2-7.5-2.6-11.7-4.3-60.6-26-44.8-42.9-34.2-68z"/><path class="st7" d="M593.3 2277c.2.1 5.9-1.7 7.6-1.1 59.2 19.3 79.1 72 62.1 112.7-3.2 7.6-7.8 14.4-13.5 20.3 0 0-34.5.7-94.2-24.2l-.6-.3 38.6-107.4z"/><path class="st10" d="M554.7 2384.4l.6.3c59.6 24.9 94 24.2 94.2 24.2-2.9 5.4-7.6 13.1-11.8 17.4 0 0-33.2 1.2-90.4-22.7l-15.3-6.5 22.7-12.7z"/><path class="st7" d="M566.3 2298.8c-.7-.4-1.4-.8-2-1.4-3.6-3-5.8-7.3-6.2-12-.2-1.6-.1-3.2.2-4.8.3-1.8.9-3.6 1.8-5.2 1.2-1.7 2.1-3.5 3.9-4.8 1.5-1.4 3.3-2.4 5.3-2.9 1.7-.6 3.4-.8 5.2-.6 1.4.1 2.8.4 4.1 1 1.9.8 3.6 2 4.9 3.5.6.6 1 1.2 1.5 1.9 0 0-.8.7-1.9 1.5-.6.4-1.2.9-1.9 1.3-.7.5-1.4 1.1-2.1 1.7-.6.6-1.4 1-1.8 1.7s-1 1-1.1 1.6l-.3.6c0 .2-.1.4-.2.6-.2.2-.2.8-.5 1.1-.2.5-.6.9-.9 1.6s-.7 1.4-1.2 2.1c-.8 1.6-1.8 3.4-2.7 5.1s-2 3.3-2.8 4.5-1.3 1.9-1.3 1.9z"/><path class="st6" d="M504.1 2262.4l41.6 12.1-5.2-57.2-11.9 7.4z"/><path class="st7" d="M541.1 2288.3c-.7-.4-1.4-.8-2-1.4-3.6-3-5.8-7.3-6.2-12-.2-1.6-.1-3.2.2-4.8.3-1.8.9-3.6 1.8-5.2 1.2-1.7 2.1-3.5 3.9-4.8 1.5-1.4 3.3-2.4 5.3-2.9 1.7-.5 3.4-.8 5.2-.6 1.4.1 2.8.4 4.1 1 1.9.8 3.6 2 4.9 3.5.6.6 1 1.2 1.5 1.9 0 0-.8.7-1.9 1.5-.6.4-1.2.9-1.9 1.3-.7.5-1.4 1.1-2.1 1.7-.6.6-1.4 1-1.8 1.7s-1 1-1.1 1.6l-.3.6c0 .2-.1.4-.2.6-.2.2-.2.8-.5 1.1-.2.5-.6.9-.9 1.6s-.7 1.4-1.2 2.1c-.8 1.6-1.8 3.4-2.7 5.1s-2 3.3-2.8 4.5-1.3 1.9-1.3 1.9z"/><path class="st8" d="M881.8 1000.8c-30.8-15.6-85.8-17.5-141.1-17.5-58 0-130.3-3.4-166.4 14.8-18.6 9.3 41.5 113.1 84.3 113 37.8-.1 72.7-54.6 108.3-61 36.5-6.6 74.2 44.8 115.2 37.2 25.8-4.8 15.2-78.7-.3-86.5z"/><path class="st6" d="M751.1 1360.7l65.6 36.5 39-50-78.4-269.8h-10.4z"/><path class="st7" d="M751.8 1347.6l64.8 33.4 33.9-51.7-6.7-23.2-33.5 51.1-57.3-29.6zm-303.7 555.3l-4.3 27.5c39.2 22 104.4 42.5 211.4 42.5 4.8 0 9.7 0 14.7-.1l11.6-25.9c-128.3 3.9-197.3-21-233.4-44z"/><path class="st5" d="M1027.6 1899.8l-2.2-27.8c-105.6 57-178 72.9-224.5 74.1l9.2 25.8c47.2-3 113.5-19.2 203.5-64.7 4.6-2.5 9.3-4.9 14-7.4z"/><path fill="#d79c7f" d="M779.7 996.9l-12.8 53.2L665 996.9V804.1h114.7z"/><path class="st4" d="M779.7 910.7l-97.6-48.6c-2.8 1.8-5.6 3.7-8.4 5.5s-5.7 3.6-8.7 5.6v118.3c9.2-17.3 12.3-52.2 27-49.7 41.9 7 68.9 5.3 87.7 1.4v-32.5z"/><path class="st3" d="M1112.1 489.1c0-219.3-148.6-378.9-367.8-378.9S473.7 281.6 473.7 500.9c0 61.1 10.7 116.1 35.3 167.8-9.2 20.4-18 214.2 174.5 256.8 264.4 58.6 431.6-42.1 444.9-171.1 4.9-47.2-25-82.7-24.8-105.1.7-57.2 8.5-99.1 8.5-160.2z"/><path class="st12" d="M744.2 110.2c-86.2 0-146.4 26.5-187.8 72-.4 12.1.6 21.4 4.3 22.5-6.3-1.9-12.9-3.2-19.5-3.7-51.7 71.1-67.5 178.1-67.5 300 0 40.3 4.7 78 14.9 113.8 16.6 25.2 36.2 52.1 56.3 48.8-5-20.4 97.5-118.7 90.8-350.5 4.7 13.6 132.6 137.2 266.3 99.3-26.5 1.7-83-17.2-113-44.9 72.7 33 178.2 47.9 222.1 32.3-22.4-12-77.3-38.1-84-64.9 28.2 25.8 109.5 77.3 181.1 95.4-24-188.4-164.8-320.1-364-320.1z"/><path class="st12" d="M715.9 912.8C523.5 870.2 532.2 676.4 541.4 656 516.8 604.3 512 530.4 512 469.4c0-135.1 19.5-252.1 85.7-321.9-97.4 61.9-124.1 195.2-124.1 353.6 0 61.1 10.7 116.1 35.3 167.8-9.2 20.4-18 214.2 174.5 256.8 187.6 41.6 326.2 3 395.7-69-76.4 50.5-205.4 91-363.2 56.1z"/><path class="st13" d="M625.4 288.2c-5 5 127.5 139.7 266.4 100.4-26.5 1.8-83-17.2-113-44.8 72.7 33 178.2 47.9 222.1 32.3-22.4-12-77.3-38.1-84-64.9 29.1 26.6 114.5 80.5 187.7 96.9 44 9.9 114.7-4 142.8-30.5-90.3-26.9-104-45.1-114.9-78.1-15.5-46.6-26.6-137.9-68.1-184.3C1030.9 77.9 937.6 16.6 839.7 3c-99.1-13.8-206 23.7-229.9 35.5-22 10.9-45.7 34.2-54.7 57.7-3.5 9.1-15.5 81.5-4.8 84.7-43.9-13-64 7-92 39.6-69.2 80.8-56.5 264.1 1.7 343.1 19.4 26.3 46.5 80.7 74.6 76.1-5-20.4 97.9-119 90.8-351.5z"/><path class="st13" d="M565.2 196c-27.4-21.3-35.5-96.5-23.4-124.8-26.9 15.9-33.3 47.1-28.6 78 4.6 30.4 18 40.9 46.3 49.3l5.7-2.5z"/><path class="st14" d="M615 421c-11.5 25.1-30.2 48.2-60.2 49.4-28.4 1.1-63.4-17.8-93-42.1-14-11.5-33.8-33.9-50.3-59.6-2.4 73.5 15.9 150.7 48.5 195 19.4 26.3 46.5 80.7 74.6 76.1-4-16.3 60.5-82.3 83.2-226.1-.8 2.4-1.7 4.9-2.8 7.3z"/><path class="st3" d="M578 660.7c0 45.6-33.6 82.6-75 82.6s-75-37-75-82.6 33.6-82.6 75-82.6 75 37 75 82.6z"/><path class="st15" d="M508.4 707.3l-1.7.4c-1.6.4-3.2.7-4.8.8l-3.6.2c-1.3 0-2.7-.2-4.2-.3-3.4-.4-6.8-1.2-10-2.4-3.9-1.5-7.6-3.5-10.9-5.9-3.8-2.8-7.2-6.2-10-10-3.1-4.1-5.5-8.7-7.1-13.6-1.6-5.1-2.5-10.4-2.6-15.8.1-2.6.3-5.2.7-7.8.4-2.7 1-5.4 1.9-8 1.6-4.9 4-9.5 7.1-13.6 2.8-3.8 6.2-7.2 10-10 3.4-2.5 7-4.5 10.9-6 3.2-1.2 6.6-2 10-2.4 1.5-.1 2.9-.3 4.2-.3l3.5.2c1.6.1 3.2.4 4.8.8l1.7.4-1.6.6c-1 .4-2.6.8-4.4 1.5-4.9 1.8-9.5 4.4-13.6 7.6-2.6 2-5 4.3-7.1 6.8-2.3 2.7-4.3 5.6-6 8.7-1.7 3.3-3 6.7-4 10.3-.4 1.7-.8 3.5-1 5.3-.3 1.9-.4 3.9-.4 5.9 0 3.8.5 7.5 1.4 11.1.9 3.6 2.3 7 4 10.3 1.7 3.1 3.7 6 6 8.7 2.2 2.5 4.5 4.8 7.1 6.8 2.3 1.7 4.8 3.3 7.3 4.7 1.2.6 2.3 1.1 3.4 1.7l3 1.2c1.8.8 3.5 1.2 4.5 1.5l1.5.6z"/><path class="st15" d="M465.4 655.9c-.1 0 1 0 2.9.1s4.2.4 7.1.8c3.3.5 6.6 1.1 9.8 2 3.7 1 7.4 2.2 10.9 3.8 3.5 1.6 6.8 3.5 9.9 5.9 1.3 1.1 2.6 2.3 3.9 3.6 1 1.3 2.1 2.4 2.9 3.6l1.9 3.3c.4.9.8 1.8 1.1 2.7l.8 2.4-1.5-2c-.5-.8-1.1-1.5-1.7-2.2l-2.6-2.5c-1-.9-2.2-1.6-3.4-2.4-1.2-.8-2.7-1.3-4.1-2.1-3.1-1.2-6.3-2-9.6-2.5s-6.6-.6-9.9-.5c-2.9.1-5.8.3-8.6.7-2.5.4-4.5.8-5.9 1.1-1.4.3-2 .5-2.1.5-4.5.5-8.6-2.8-9.1-7.3-.5-4.4 2.7-8.5 7.3-9z"/><path d="M896.1 639.8c3.5 3 6.8 6.3 9.7 9.9 3 3.6 5.8 7.5 8.2 11.5 1.4 2.4 2.7 4.8 3.8 7.3.6 1.4 1.1 2.9 1.5 4.4.6 2.2.7 4.4.2 6.6-.3 1-.9 2-1.5 2.8-.4.5-.9 1-1.4 1.4-.8.7-1.7 1.3-2.6 1.8-1.5.8-3 1.4-4.6 1.8-2.7.8-5.5 1.4-8.3 1.7-4.7.6-9.5.7-14.2.5-4.6-.2-9.2-.8-13.7-1.9 0 0 1.3-.6 3.6-1.3 2.3-.8 5.5-1.9 9.4-3l13-3.8c2.3-.7 4.6-1.4 6.8-2.3.9-.4 1.9-.8 2.8-1.3.2-.1.5-.3.7-.5.1-.1 0 0 0 0-.1 0-.6 1.1-.5 1.1 0-.4-.1-.9-.2-1.3-.2-1.1-.5-2.1-.9-3.2-.8-2.3-1.6-4.6-2.5-6.8-1.7-4.6-3.5-8.9-4.9-12.7-1.4-3.8-2.5-7-3.2-9.3s-1.2-3.4-1.2-3.4z" fill="#e5ad97" opacity=".7"/><path d="M758.7 734.1c-2.8 50.2 46.2 100.5 101.9 100.5s101.9-52.8 101.9-100.5H758.7z" fill="#924a5a"/><path class="st7" d="M758.7 734.1c-.3 6.6.2 13.3 1.6 19.8 5.4 3.6 11.3 6.5 17.4 8.7 1.5.6 4.8-5.3 6.4-4.8 1.8.6 1.9 7.6 3.8 8.1 17.9 5.2 41 8.4 66.3 9 2.3 0 10.7.1 12.5 0 27-.4 51.5-4 70.2-9.7 6.7-9.1 10.5-19.9 11.1-31.1H758.7z"/><path d="M860.6 834.6c18.9 0 36.7-6.1 51.9-15.9-5.8-5.6-12.2-10.5-19.2-14.5-33.7-18.5-84.5-32.6-126.4-30.2 16 33.9 53 60.6 93.7 60.6z" fill="#d57085"/><ellipse class="st12" cx="867.7" cy="866.2" rx="14.4" ry="6.9"/><path class="st4" d="M661.4 548.9s27.8-47.7 78.1-35.8c0 0-15.8 10.1-36.5 22.1-16.7 9.7-41.6 13.7-41.6 13.7zm380.4 1.1s-27.8-47.7-78.1-35.8c0 0 15.8 10.1 36.4 22.1 16.8 9.8 41.7 13.7 41.7 13.7z"/><path class="st13" d="M962.5 511.6c1.1-1.1 2.4-2.1 3.8-2.9 3.4-2.2 7.2-3.9 11.1-5 2.6-.8 5.3-1.3 8-1.7 3-.4 6.1-.5 9.2-.4 1.6.1 3.3.2 4.9.5 1.7.2 3.4.5 5 .9 3.4.8 6.7 1.9 9.9 3.4 1.6.8 3.2 1.5 4.7 2.3s3 1.9 4.4 2.9c3 1.8 5.3 4.5 7.6 6.7 2.3 2.3 4 5.1 5.7 7.5 1.5 2.3 2.7 4.8 3.6 7.5.8 2.4 1.8 4.5 2 6.6s.5 3.9.6 5.4c.1 1.6.2 3.1.1 4.7 0 0-1.6-.9-3.9-2.6-1.2-.8-2.6-1.8-4-3s-3.3-2.2-5-3.5c-1.8-1.4-3.6-2.7-5.6-3.9-2.1-1.2-3.8-2.8-6-3.8s-4.1-2.6-6.4-3.6c-1.1-.6-2.2-1.1-3.3-1.7-1-.7-2.3-1-3.4-1.5-2.2-1.2-4.7-2-7-3l-7.1-2.7c-2.4-.7-4.7-1.7-7-2.3-2.3-.8-4.5-1.4-6.6-2.1l-10.7-3.3c-2.9-.9-4.6-1.4-4.6-1.4zm-221.8 0s-1.7.6-4.4 1.4l-10.7 3.3c-2.1.7-4.3 1.3-6.6 2.1-2.3.6-4.6 1.6-7 2.3l-7.1 2.7c-2.3 1-4.8 1.8-7 3-1.1.5-2.3.9-3.4 1.5s-2.2 1.2-3.3 1.7c-2.3 1-4.3 2.5-6.4 3.6-2.2 1.1-4 2.7-6 3.8-1.9 1.2-3.8 2.5-5.6 3.9-1.7 1.3-3.7 2.3-5 3.5-1.3 1.2-2.8 2.1-4 3-2.3 1.7-3.9 2.6-3.9 2.6-.1-1.6-.1-3.1.1-4.7.1-1.5.3-3.3.6-5.4.3-2.1 1.2-4.2 2-6.6.9-2.6 2.1-5.1 3.6-7.5 1.7-2.4 3.2-5.3 5.7-7.5 2.4-2.2 4.7-4.9 7.6-6.7 1.4-1 2.9-2 4.4-2.9s3.1-1.6 4.7-2.3c3.2-1.5 6.5-2.6 9.9-3.4 1.6-.4 3.3-.7 5-.9 1.6-.3 3.2-.4 4.9-.5 3.1-.1 6.1 0 9.2.4 2.7.3 5.4.9 8 1.7 3.9 1.1 7.7 2.8 11.1 5 1.2.8 2.5 1.8 3.6 2.9z"/><ellipse class="st20" cx="991.1" cy="614.1" rx="22.1" ry="31.6"/><ellipse class="st20" cx="722.3" cy="614.1" rx="22.1" ry="31.6"/><ellipse class="st7" cx="1000.9" cy="601" rx="5.5" ry="9.2"/><ellipse class="st7" cx="730.3" cy="601" rx="5.5" ry="9.2"/><path d="M998.9 368.7l1.2-.1c-.4 0-.8 0-1.2.1zm2.8-.3l2.3-.3c-.8.1-1.6.2-2.3.3z" opacity=".5" fill="#b97443"/><circle class="st22" cx="721.8" cy="591.8" r="122.4"/><circle class="st23" cx="721.8" cy="591.8" r="122.4"/><path class="st22" d="M1152.5 591.8c0 67.6-54.8 122.4-122.4 122.4-67.6 0-122.4-54.8-122.4-122.4 0-67.6 54.8-122.4 122.4-122.4 67.6 0 122.4 54.8 122.4 122.4z"/><path class="st23" d="M1152.5 591.8c0 67.6-54.8 122.4-122.4 122.4-67.6 0-122.4-54.8-122.4-122.4 0-67.6 54.8-122.4 122.4-122.4 67.6 0 122.4 54.8 122.4 122.4z"/><path d="M908.7 611.8c-.6-15.7-62.4-23.3-67.5 7.7" fill="none" stroke="#542c0f" stroke-width="14.64" stroke-linecap="round" stroke-linejoin="round"/><path d="M594.7 589.7l-72.8-9 72.8-9c4.9-.6 9.4 2.9 10.1 7.9s-2.9 9.4-7.9 10.1c-.7.1-1.5.1-2.2 0z" fill="#542c0f"/><path class="st14" d="M1245.3 377c-47.3 18.3-149.6 43.1-264.5-21.2 36.9 21.6 82.3 43 123.8 52.3 44 9.9 114.7-4 142.8-30.5l-2.1-.6zm-303.6-46.2c-8.3-6-16.5-12.5-24.8-19.5 7.9 6.9 16.2 13.4 24.8 19.5zm59.2 45.3l-.4-.2c-30.1-1.2-167.2-8-221.7-32.1 72.7 33 178.2 47.9 222.1 32.3zM555.2 96.2c-2.2 5.7-7.7 35.9-8.9 58.7 2.5 18.4 7.8 37.6 18.9 47.4 20.2 17.7-43.6-54.9 50.6-166.4-2.3 1-4.3 1.9-5.9 2.7-22.1 10.8-45.7 34.1-54.7 57.6z"/><path class="st26" d="M1076.1 1353.4c-2.4-20.4 8.2-110.6 67.9-139.6 24.5-11.9 49.2-23.6 72.6-37.7 21-12.7 43.9-26.8 53-49.3 2.6-6.5-.2-22.8-.2-22.8s45.1 24.3 37 109.2c-1.8 19-4.1 38.5-9.5 56.9-7.3 24.8-23.6 41.9-42.5 58.6-11 9.7-20.2 20.1-32.3 28.7-12.5 8.7-25.5 16.6-38.9 23.7-19.8 10.7-40.1 19.8-63 18.5-8.7-.5-16.2-4.2-23.8-8-6.8-3.4-12.4-7.6-13.6-15.1-1.5-9.6-5.6-13.5-6.7-23.1z"/><path class="st27" d="M1306.3 1213.1c2.2-23.2.5-41.8-3.3-56.6-3-2.4-2.1 12.8-4.8 19.3-9.1 22.5-32 36.6-53 49.3-23.4 14.1-48 25.8-72.6 37.7-54.4 26.4-68 103.4-68.2 132.4 4.9 2.3 10.2 3.8 15.6 4.2 22.9 1.2 43.2-7.8 63-18.5 13.4-7.1 26.4-15 38.9-23.7 12.1-8.6 21.3-18.9 32.3-28.7 18.9-16.7 35.2-33.8 42.5-58.6 5.5-18.3 7.8-37.8 9.6-56.8z"/><path class="st26" d="M1085 1355.7s-78-172.7-314.2-195.4c0 0-83.6-.5-102.9-29.6l-26.5 92.2S788.6 1394.7 799 1401s268.2 85.7 268.2 85.7l17.8-131z"/><path class="st27" d="M1070.6 1394s-77.9-172.6-314.1-195.4c0 0-83.6-.5-102.9-29.6l-26.5 92.2s147.2 171.8 157.6 178.1 268.2 85.7 268.2 85.7l17.7-131z"/><path d="M979 1863.6L658.9 1689s-6.9-3.8-11-8.8c-3.4-4.2-3.6-12.2-3.6-12.2l-46.6-524.1s-1.6-7.1 6.2-12.7c5.1-3.7 14.2-1.1 14.2-1.1l420.5 201.9-59.6 531.6zm47.8 6.4l159.9-282.4 183.6-493.1s3.4-6.5-2.6-13.9c-3.9-4.9-231.4 264.4-231.4 264.4l-109.5 525z" fill="#87c8e4"/><path class="st29" d="M603.9 1131.1c5.1-3.7 14.2-1.1 14.2-1.1l8.5 4.1 51.7 497.8s.2 8 3.6 12.2c4.1 5.1 11 8.8 11 8.8l287.2 200.4-1.1 10.3L658.9 1689s-6.9-3.8-11-8.8c-3.4-4.2-3.6-12.2-3.6-12.2l-46.6-524.1c0-.1-1.6-7.2 6.2-12.8z"/><path class="st29" d="M603.9 1131.1c5.1-3.7 60.1 519.2 60.1 519.2s.2 8 3.6 12.2c4.1 5.1 11 8.8 11 8.8L979 1863.6 658.9 1689s-6.9-3.8-11-8.8c-3.4-4.2-3.6-12.2-3.6-12.2l-46.6-524.1c0-.1-1.6-7.2 6.2-12.8z"/><path opacity=".5" fill="#5aa2cb" d="M949.4 1780.7l-257.5-140.6-29.4-414.9L978.8 1377z"/><path opacity=".2" fill="#fff" d="M973.5 1735.4l33.7-384.1-236.8-111.5z"/><path fill="#92cff6" d="M1026.8 1870l-48.1-6.5 59.6-531.7 98 13.2z"/><path fill="#a5d7f8" d="M1015.3 1855.7l-21.7-3 62.1-518.6 63.2 8.5z"/><path class="st29" d="M1136.3 1345l-109.5 525 62.6-110.6c4.3-16.2 15.2-96.1 18.8-123.2 12.1-89.4 23.7-181.2 62.4-263.7 29.7-63.2 74.8-114 119.6-166.7 24.5-28.7 47-59.1 71.3-88l8.7-23.4s3.4-6.5-2.6-13.9c-3.8-4.8-231.3 264.5-231.3 264.5z"/><path class="st3" d="M315.4 1358.1s-28.7-28.4-7.3-66.8c16.1-28.7 53.7-10.3 71.5.4 47.8 28.8 167.2 92.1 221.4 136.7 23.4 19.2-7.8 57.6-24 54.4-63.4-12.8-173.9-50.6-261.6-124.7z"/><path class="st3" d="M586.9 1430.2c5.7-14.7 50-20.7 55.5-22.3 4.9-1.5 19.4-2.7 24.3-2.2 1.8.2 3.5 2.1 2.7 5.7-3.2 14-28.2 20.2-28.6 21.1 5.9 4.3 17.8 5.5 18.1 5.8 17.1 2.6 49.1 7.6 62.4 8.9 5.5.5 11.5 4 11 8.3-.3 3-4.1 7.4-10.5 6.8-23.3-2.3-58.9-3.3-59-2.7 16.3 5.3 47.4 15.6 60.3 19 5.3 1.4 10.7 5.9 9.7 10-.7 3-5 6.8-11.2 5.1-14.4-3.5-63.6-12.2-64.1-10.8 16 8.2 39.4 20.1 50 24.8 5 2.2 9.8 7.5 8.2 11.5-1.1 2.9-5.8 6-11.7 3.4-12.6-5.2-36.7-14.4-54.9-22.4-.5.8 26.8 24.4 38.1 32.7 4.5 3.3 4.5 8.3 3.1 10.4-2 3-7.8 1.8-11.6-1-9.6-7-34.7-23.5-46.8-31.4-9.4-1.6-28.5-9.3-35.4-12.7-11.1-5.4-15.4-9.3-17.6-14.7l-5-10.7c-.1 0-4.1-24.2 13-42.6z"/></g></svg>