<svg xmlns="http://www.w3.org/2000/svg" width="550.49mm" height="855.96mm" viewBox="0 0 1560.45 2426.35"><defs><clipPath id="a" transform="translate(0 -87.72)"><path d="M644.51 30.72c165.7-70 367.13-6.39 523.6 52.28 295.76 110.91 487.8 445.36 449.51 794.15-19.87 181-63.91 422.63-157 577.71-250.89 417.77-936.45 208.63-1235.8 0-339.44-236.53-243.36-736.4 30-1040.2C365 292.22 487.46 97.07 644.51 30.72z" fill="none"/></clipPath><style>.z{fill:none}.q{fill:#12242d}.f{fill:#e8a789}.g,.o{fill:#e5ad97}.g{opacity:.7}.af,.g,.o,.q{mix-blend-mode:multiply}.h{fill:#e2e2e2}.i{fill:#586589}.j{fill:#fff}.k{fill:#4e5878}.m{fill:#c9c8c8}.af,.o,.q{opacity:.5}.p{fill:#21313b}.r{fill:#e08773}.w{fill:#291d11}.y{fill:#bee2fa;opacity:.4}.z{stroke:#542c0f;stroke-miterlimit:10;stroke-width:18.3px}.ac{fill:#fafadf}.ad{fill:#d6d5d5}.af{fill:#76acc2}</style></defs><g style="isolation:isolate"><path d="M581.49 368.28c159.27-45.11 332.22-52.68 489.73 2 297.72 103.3 506 374.89 488.17 644.53-9.25 139.92-71.06 296.89-154 412.44-223.37 311.27-838.27 156.18-1145.1-23.46-347.93-203.69-322.07-605.94-70-827.1C291.88 487.47 430.54 411 581.49 368.28z" fill="#7291cb"/><g clip-path="url(#a)"><path d="M1123.47 482.6c-6.56 33.6-54.29 79.4-88.4 53.69-35.07-26.43-18-156.48 13.43-185.49 64.62-59.62 84.59 82.48 74.97 131.8z" fill="#12242d"/><path class="f" d="M831.09 1137.63s-30.41-54.9 17.47-101.93c35.9-35.26 72-3.4 88 14.41 42.89 47.66 110 108.47 154.28 170.52 45.46 63.7 67.38 85 57.62 96.32-11 12.83-57.19 56.58-75.34 49.09-71.21-29.41-175.19-112.48-242.03-228.41z"/><path class="g" d="M848.56 1035.7c-47.88 47-17.47 101.93-17.47 101.93 41.94 72.75 98.51 132.53 152.43 174.26 44-20.69 75.77-59.59 98.55-103.2-44-57.87-105.33-114-145.46-158.58-16.04-17.83-52.14-49.67-88.05-14.41z"/><path class="h" d="M833.73 1018.43c-55.57 54.56-20.28 118.27-20.28 118.27 37.64 65.31 87.66 121.49 138.61 166 70.7 1.55 121.9-104.42 129.08-112.82-47.81-56.62-105.48-110.56-145.24-154.75-18.61-20.66-60.51-57.63-102.17-16.7z"/><path class="i" d="M1068 1174.66q-8.87-10.08-18-20c-38.69 66.91-83.25 108.75-127.84 120.37q10.63 10.4 21.42 20.11c44.58-16.86 86.87-57.73 124.42-120.48z"/><path class="f" d="M1124 1358.37s-31.82 24.9-67.17-1.14c-26.49-19.53-3.48-54.55 9.43-70.92 34.53-43.76 112.38-154.3 163.45-202.53 22-20.8 56.19 14.95 50.93 30.6-20.64 61.38-72.05 166.25-156.64 243.99z"/><path class="f" d="M1229.6 1098.07c-13.9-7.49-14.2-52.23-15.16-57.83-.88-5.05-.23-19.62.84-24.4.42-1.82 2.55-3.18 6-1.92 13.49 5 16.46 30.5 17.36 31 5-5.29 7.69-16.92 8.08-17.21 4.73-16.6 13.7-47.77 16.64-60.78 1.2-5.34 5.41-10.9 9.58-9.89 3 .7 6.88 5 5.46 11.28-5.17 22.86-10.72 58-10.12 58.16 7.34-15.53 21.38-45.06 26.39-57.45 2.07-5.07 7.16-9.9 11.16-8.35 2.87 1.1 6.12 5.8 3.67 11.78-5.26 13.89-20.05 61.61-18.8 62.25 10.15-14.88 24.91-36.54 30.89-46.47 2.85-4.7 8.69-8.76 12.46-6.72 2.7 1.46 5.2 6.51 1.87 12-6.78 11.81-18.89 34.63-29.07 51.65.72.63 27.53-23.55 37.17-33.73 3.84-4 8.79-3.43 10.75-1.74 2.73 2.35.82 8-2.44 11.39-8.18 8.62-27.68 31.45-37 42.45-2.8 9.08-12.83 27.14-17 33.54-6.79 10.31-11.13 14.13-16.77 15.64l-11.19 3.61s-24.62 1.01-40.77-18.26zM474 1982.49c-27.27 48.17-62.67 252.47-47.38 264.64 13.06 10.4 81.73 27.51 86.51 19.94 17.78-28.32 95.73-233.73 95.73-233.73s9.94-40.32-33.72-60.17c-63.99-29.08-89.89-10.61-101.14 9.32z"/><path class="j" d="M438 2108.28c-12.76 65.77-20 132.08-11.45 138.86 13.06 10.4 81.73 27.51 86.51 19.94 9-14.28 33.24-73.61 55.1-128.91 0 0-23.13 6.41-45.7 2-60.32-15.09-84.46-31.89-84.46-31.89z"/><path class="f" d="M608.09 2033.35c25.61-49.08 100-256.64 84.26-268.28-13.41-10-185-52.54-189.54-44.82-16.79 28.91-31.24 266.87-31.24 266.87s-8.56 40.64 35.75 59c64.93 26.87 90.18 7.52 100.77-12.77zm250.5-11.28c-8.41 54.72 30.94 258.29 49.54 264.24 15.9 5.1 86.17-3.26 88-12 6.58-32.78 6.63-252.48 6.63-252.48s-5-41.23-52.86-44.3c-70.17-4.55-87.83 21.91-91.31 44.54z"/><path class="j" d="M869.6 2152.42c11.4 66 28.18 130.58 38.54 133.89 15.9 5.1 86.17-3.26 88-12 3.32-16.54 5-80.62 5.81-140.07 0 0-19.36 14.19-42 18.1-61.87 7.25-90.35.08-90.35.08z"/><path class="f" d="M1002 2022.07c6.54-55 2.46-275.41-16.34-280.73-16.07-4.55-191.64 16.49-193.12 25.31-5.44 32.99 65.46 260.63 65.46 260.63s6.41 41 54.35 42.46c70.22 2.1 86.97-24.94 89.65-47.67z"/><path class="k" d="M1031.24 1944.38s-42.76 31.74-106.62 49.7c-69.19 19.46-103.2 9.31-103.2 9.31l-88.29-246.88s-92.71-64.37-43.4-136.92c31.51-46.34 310-66.46 310-66.46z"/><path class="i" d="M650.31 2016.8s-52.74 7.36-117.39-7.48c-70.06-16.09-95-41.3-95-41.3l40.85-259s-50.51-100.93 27.54-141c49.86-25.57 303.89 90.25 303.89 90.25z"/><path d="M1026.36 1648.28c-76.66-259.74 13.35-567.22-144.53-647.51-30.77-15.63-85.83-17.49-141.11-17.49-58 0-130.34-3.41-166.42 14.75-161.3 81.25-33.9 390.53-119.23 650.25-13.88 42.27 583.87 42.65 571.29 0z" fill="#efefef"/><path class="f" d="M497.61 1039.75s50.65-37.06 103.31 4.54c39.49 31.2 12.41 71-3.24 89.16-41.9 48.53-93.8 122.72-149.8 174.46-57.49 53.1-75.83 77.52-88.32 69.25-14.11-9.31-63.31-49.63-58.16-68.58 20.23-74.38 89.6-187.96 196.21-268.83z"/><path class="g" d="M600.92 1044.28c-52.66-41.6-103.31-4.54-103.31-4.54-66.91 50.74-119.12 114.36-153.75 173.1 26.05 41.07 68.63 67.69 114.76 84.82 51.88-50.92 99.86-118.81 139.06-164.22 15.65-18.16 42.73-57.96 3.24-89.16z"/><path class="j" d="M616.2 1027.4c-61.11-48.28-119.89-5.26-119.89-5.26-60.06 45.54-109.52 102.22-147.3 158.35 7.34 70.34 118.9 107.84 128.14 113.9 50.17-54.55 96.44-118.52 135.3-163.52 18.17-21.06 49.55-67.28 3.75-103.47z"/><path class="i" d="M490.61 1279.41q8.88-10.06 17.57-20.36c-71.23-30-118.34-68.94-135.46-111.72q-9 11.85-17.27 23.77c22.35 42.13 68.19 78.96 135.16 108.31zm236.36-229.32l50.79 48.61 13.73-62.08-64.52 13.47z"/><path class="m" d="M884.13 2321.28s-1.85 40.72 11.26 44.4l166.85 5.16 27.53-5.53-13.61-23.54z"/><path class="k" d="M884.1 2298.71c0-21.23-1.47-43.15 3.73-50.39 5.55-7.74 10.76 23.13 53.3 18.5 38.22-4.16 55.83-17.39 55.83-17.39v-13.15s3.38 8.15 45.23 8.15c13.5 0 32.72-8.15 32.72-8.15l10.15 113.91-130.73-2.67c-3.85.33-7.92.54-12.44.52-65.89-.4-57.79-22.1-57.79-49.33z"/><path class="j" d="M1072.31 2236.28c.22 0 4.76-3.81 6.58-4 62.09-5.12 100.82 35.79 100.83 79.93a64.84 64.84 0 01-4.6 23.91s-31.56 14-96.21 14.08h-.67z"/><path class="m" d="M1078.24 2350.2h.67c64.53-.12 96.08-14 96.2-14.07-.58 6.09-2 15-4.1 20.62 0 0-30.2 13.95-92.09 14.05h-16.67z"/><path class="j" d="M1055.82 2266.81a10.29 10.29 0 01-2.37-.51 17.63 17.63 0 01-10.34-8.64 16.19 16.19 0 01-1.65-4.55 19.24 19.24 0 01-.39-5.51c.42-2 .62-4 1.78-5.91a13.2 13.2 0 013.76-4.75 13 13 0 014.54-2.56 11.13 11.13 0 014.18-.66 12.71 12.71 0 015.89 1.34 11.29 11.29 0 012.08 1.18s-.46.91-1.19 2.11c-.37.59-.77 1.34-1.26 2a15.29 15.29 0 00-1.26 2.34 8.71 8.71 0 00-1 2.25c-.14.75-.54 1.3-.41 1.87a1.7 1.7 0 01-.07.67 1.56 1.56 0 01.09.61c-.09.27.08.81-.08 1.19 0 .58-.17 1.06-.18 1.85s-.14 1.55-.24 2.44c-.14 1.79-.33 3.81-.55 5.75s-.53 3.79-.81 5.19-.52 2.3-.52 2.3z"/><path class="i" d="M984.42 2257.25l43.01-4.91-26.89-50.78-8.15 11.45-7.97 44.24z"/><path class="j" d="M1028.5 2266.81a10.29 10.29 0 01-2.37-.51 17.6 17.6 0 01-10.35-8.64 16.18 16.18 0 01-1.65-4.55 19.25 19.25 0 01-.39-5.51c.42-2 .62-4 1.78-5.91a13.16 13.16 0 013.76-4.75 12.92 12.92 0 014.54-2.56 11.13 11.13 0 014.18-.66 12.71 12.71 0 015.89 1.34 11.28 11.28 0 012.11 1.22s-.46.91-1.19 2.11c-.37.59-.77 1.34-1.26 2a15.13 15.13 0 00-1.26 2.34 8.64 8.64 0 00-1 2.25c-.14.75-.54 1.3-.41 1.87a1.71 1.71 0 01-.07.67 1.56 1.56 0 01.09.61c-.09.27.08.81-.07 1.19 0 .58-.17 1.06-.18 1.85s-.13 1.55-.24 2.44c-.14 1.79-.33 3.81-.55 5.75s-.53 3.8-.8 5.19-.56 2.26-.56 2.26z"/><path class="m" d="M386.88 2282.61s-17.46 36.84-6.78 45.31l151.9 69.3 27.53 5.55-3.45-27z"/><path class="k" d="M395.57 2261.83c8.21-19.58 15.34-40.36 22.94-45 8.11-5 1 25.49 42 37.67 36.85 10.95 58.21 5.56 58.21 5.56l5.09-12.15s0 8.83 38.56 25c12.45 5.22 33.32 5.14 33.32 5.14l-34.71 109-119.52-53c-3.68-1.19-7.51-2.56-11.68-4.34-60.62-25.9-44.78-42.77-34.21-67.88z"/><path class="j" d="M593.29 2277.03c.2.09 5.86-1.67 7.6-1.1 59.24 19.3 79.12 72 62.06 112.7a64.87 64.87 0 01-13.49 20.28s-34.5.67-94.17-24.23l-.61-.27z"/><path class="m" d="M554.67 2384.41l.61.27c59.56 24.85 94 24.24 94.15 24.24-2.89 5.39-7.61 13.07-11.76 17.43 0 0-33.24 1.18-90.36-22.67l-15.31-6.46z"/><path class="j" d="M566.26 2298.84a10.25 10.25 0 01-2-1.39 17.61 17.61 0 01-6.19-12 16.16 16.16 0 01.24-4.84 19.32 19.32 0 011.77-5.23c1.16-1.68 2.14-3.49 3.92-4.76a13.19 13.19 0 015.31-2.92 12.85 12.85 0 015.17-.6 11.08 11.08 0 014.11 1 12.68 12.68 0 014.91 3.52 11.13 11.13 0 011.46 1.89s-.77.66-1.91 1.48c-.57.4-1.24.93-1.93 1.34a15.12 15.12 0 00-2.07 1.67c-.63.61-1.43 1-1.81 1.68s-1 1-1.1 1.57a1.67 1.67 0 01-.32.59 1.52 1.52 0 01-.15.6c-.18.21-.24.78-.53 1.06-.2.54-.57.91-.88 1.64s-.73 1.38-1.17 2.15c-.82 1.59-1.78 3.39-2.73 5.09s-2 3.29-2.75 4.48-1.35 1.98-1.35 1.98z"/><path class="i" d="M504.11 2262.4l41.56 12.11-5.16-57.23-11.94 7.41-24.46 37.71z"/><path class="j" d="M541.06 2288.28a10.25 10.25 0 01-2-1.39 17.6 17.6 0 01-6.19-12 16.15 16.15 0 01.24-4.84 19.21 19.21 0 011.77-5.23c1.16-1.68 2.13-3.49 3.92-4.76a13.2 13.2 0 015.31-2.93 12.89 12.89 0 015.17-.6 11.12 11.12 0 014.11 1 12.72 12.72 0 014.91 3.52 11.19 11.19 0 011.46 1.89s-.77.66-1.91 1.48c-.57.4-1.23.93-1.93 1.34a15.07 15.07 0 00-2.07 1.67c-.63.61-1.43 1-1.81 1.68s-1 1-1.1 1.57a1.69 1.69 0 01-.32.59 1.58 1.58 0 01-.15.6c-.19.21-.24.78-.53 1.06-.2.54-.57.91-.88 1.64s-.73 1.38-1.16 2.15c-.82 1.59-1.78 3.39-2.73 5.09s-2 3.29-2.75 4.47-1.36 2-1.36 2z"/><path class="k" d="M881.83 1000.78c-30.77-15.64-85.83-17.5-141.11-17.5-58 0-130.34-3.41-166.42 14.75-18.56 9.34 41.48 113.09 84.33 113 37.78-.05 72.66-54.57 108.3-61 36.54-6.56 74.2 44.78 115.18 37.17 25.8-4.72 15.16-78.56-.28-86.42z"/><path class="i" d="M751.1 1360.66l65.56 36.57 39.05-50.04-78.41-269.76h-10.37l-15.83 283.23z"/><path class="j" d="M751.83 1347.61l64.76 33.4 33.91-51.73-6.72-23.14-33.46 51.05-57.37-29.59-1.12 20.01zm-303.68 555.32l-4.34 27.49c39.18 22 104.38 42.53 211.41 42.53q7.21 0 14.69-.13l11.56-25.91c-128.24 3.9-197.29-21.04-233.32-43.98z"/><path class="h" d="M1027.64 1899.81l-2.24-27.85c-105.61 57-178 72.86-224.49 74.06l9.22 25.77c47.17-3 113.5-19.18 203.45-64.73q6.94-3.5 14.06-7.25z"/><path fill="#d79c7f" d="M779.69 996.93l-12.76 53.16-101.95-53.16V804.11h114.71v192.82z"/><path class="g" d="M779.69 910.68l-97.57-48.56c-2.79 1.83-5.57 3.73-8.42 5.49s-5.73 3.6-8.72 5.6v118.28c9.17-17.27 12.26-52.17 27-49.69 41.87 7 68.91 5.27 87.68 1.4z"/><path class="f" d="M1112.08 489.13c0-219.29-148.56-378.92-367.85-378.92S473.74 281.61 473.74 500.9c0 61.08 10.7 116.14 35.33 167.84-9.22 20.43-18 214.21 174.46 256.84 264.42 58.57 431.61-42.05 444.93-171.08 4.87-47.17-25-82.71-24.75-105.11.59-57.27 8.37-99.19 8.37-160.26z"/><path class="o" d="M744.23 110.21c-86.22 0-146.43 26.5-187.79 72-.42 12.08.58 21.36 4.27 22.46a93.8 93.8 0 00-19.48-3.73c-51.67 71.09-67.5 178.14-67.5 300 0 40.3 4.7 78 14.94 113.79 16.63 25.17 36.23 52.05 56.33 48.8-5-20.44 97.49-118.72 90.77-350.45 4.73 13.65 132.62 137.2 266.35 99.32-26.49 1.74-83-17.22-112.95-44.85 72.71 33 178.16 47.88 222.09 32.34-22.36-12-77.31-38.08-84-64.91 28.21 25.8 109.46 77.27 181.14 95.36-24.19-188.45-165-320.13-364.17-320.13z"/><path class="o" d="M715.93 912.76c-192.41-42.63-183.67-236.41-174.45-256.84-24.63-51.7-29.4-125.58-29.4-186.64 0-135.15 19.46-252.08 85.71-321.94-97.36 61.94-124.05 195.24-124.05 353.56 0 61.08 10.7 116.14 35.33 167.84-9.22 20.43-18 214.21 174.46 256.84 187.58 41.55 326.2 3 395.7-69-76.52 50.58-205.57 91.12-363.3 56.18z"/><path class="p" d="M625.42 288.22c-5 5 127.53 139.74 266.37 100.41-26.49 1.75-83-17.22-113-44.84 72.71 33 178.16 47.88 222.09 32.34-22.36-12-77.31-38.08-84-64.91 29.08 26.59 114.52 80.47 187.74 96.94 44 9.91 114.7-4 142.78-30.51-90.3-26.85-104-45.1-114.94-78.08-15.46-46.63-26.62-137.92-68.11-184.29C1030.92 77.91 937.57 16.64 839.7 3.01c-99.1-13.8-206 23.67-229.87 35.5-22 10.93-45.69 34.22-54.69 57.65-3.49 9.1-15.54 81.52-4.79 84.72-43.9-13-64 7-92 39.64-69.16 80.76-56.46 264.14 1.65 343.12 19.39 26.33 46.48 80.66 74.62 76.12-5-20.48 97.88-119.02 90.8-351.54z"/><path class="p" d="M565.18 195.99c-27.43-21.34-35.52-96.54-23.41-124.83-26.9 15.87-33.28 47.1-28.62 78 4.58 30.44 18 40.89 46.29 49.28z"/><path class="q" d="M615 420.95c-11.54 25.09-30.19 48.24-60.18 49.44-28.36 1.14-63.41-17.79-93-42.1-14-11.51-33.8-33.87-50.26-59.64-2.42 73.48 15.9 150.67 48.53 195 19.39 26.33 46.48 80.66 74.62 76.12-4-16.32 60.46-82.31 83.24-226.09-.95 2.45-1.86 4.89-2.95 7.27z"/><path class="f" d="M578 660.73c0 45.62-33.6 82.6-75 82.6s-75-37-75-82.6 33.59-82.59 75-82.59 75 36.98 75 82.59z"/><path class="r" d="M508.37 707.33l-1.67.39a26.17 26.17 0 01-4.76.77l-3.6.19c-1.29 0-2.68-.17-4.2-.28a45.48 45.48 0 01-10-2.36 46.16 46.16 0 01-10.91-5.94 46.91 46.91 0 01-10-10 49.69 49.69 0 01-7.11-13.63 54.18 54.18 0 01-2.59-15.77 59.47 59.47 0 01.68-7.79 47.26 47.26 0 011.9-8 49.75 49.75 0 017.06-13.63 47 47 0 0110-10 46.29 46.29 0 0110.92-5.95 45.26 45.26 0 0110-2.36c1.52-.11 2.91-.26 4.2-.28l3.54.2a27.13 27.13 0 014.83.77l1.66.39-1.62.56c-1 .37-2.58.75-4.42 1.54a51.94 51.94 0 00-13.65 7.64 50.6 50.6 0 00-7.14 6.78 47 47 0 00-6 8.69 50.13 50.13 0 00-4 10.25 51 51 0 00-1 5.28 47 47 0 00-.43 5.86 50.29 50.29 0 001.39 11.14 49.77 49.77 0 004 10.26 47 47 0 006 8.7 50.61 50.61 0 007.14 6.79 62.76 62.76 0 007.29 4.74c1.18.58 2.32 1.08 3.37 1.66l2.95 1.22c1.8.79 3.46 1.18 4.48 1.54z"/><path class="r" d="M465.38 655.89c-.1 0 1.05 0 2.86.12s4.23.36 7.14.77a88.67 88.67 0 019.84 2 67.72 67.72 0 0110.86 3.82 48.49 48.49 0 019.86 5.9 50.08 50.08 0 013.85 3.59c1 1.31 2.13 2.43 2.9 3.64l1.94 3.35a24 24 0 011.07 2.74l.84 2.36-1.47-2a22.35 22.35 0 00-1.71-2.22l-2.6-2.48c-1-.86-2.24-1.56-3.41-2.4s-2.72-1.35-4.1-2.06a41.77 41.77 0 00-9.57-2.47 58 58 0 00-9.88-.51 76.88 76.88 0 00-8.61.72c-2.49.37-4.55.75-5.93 1.07s-2 .52-2.08.52a8.283 8.283 0 11-1.79-16.47z"/><path d="M896.09 639.76a71.48 71.48 0 019.69 9.9 93.55 93.55 0 018.22 11.52 58 58 0 013.77 7.34 29.89 29.89 0 011.54 4.43 13.08 13.08 0 01.23 6.63 9.81 9.81 0 01-1.52 2.85 12.12 12.12 0 01-1.42 1.44 16.51 16.51 0 01-2.6 1.76 26.43 26.43 0 01-4.56 1.84 49.23 49.23 0 01-8.25 1.71 81.79 81.79 0 01-14.22.48 66.75 66.75 0 01-13.74-1.94s1.31-.55 3.6-1.35 5.54-1.88 9.41-3l13-3.75c2.29-.68 4.63-1.43 6.76-2.25a26 26 0 002.77-1.3 5.51 5.51 0 00.71-.5c.11-.07 0 0 0 0-.13 0-.61 1.07-.5 1.13a6.26 6.26 0 00-.2-1.29 32.48 32.48 0 00-.9-3.16c-.76-2.25-1.64-4.57-2.54-6.83-1.74-4.56-3.54-8.86-4.91-12.67s-2.5-7-3.22-9.35-1.12-3.64-1.12-3.64z" fill="#e5ad97" opacity=".7"/><path d="M758.68 734.09c-2.79 50.24 46.16 100.49 101.89 100.49s101.86-52.76 101.92-100.49z" fill="#924a5a"/><path class="j" d="M758.68 734.09a77.27 77.27 0 001.56 19.81 78.71 78.71 0 0017.43 8.68c1.51.56 4.8-5.32 6.4-4.79 1.77.58 1.88 7.57 3.77 8.11 17.94 5.15 41 8.45 66.32 9 2.32.05 10.68.06 12.51 0 27-.43 51.53-4 70.15-9.66a57.65 57.65 0 0011.14-31.14z"/><path d="M860.56 834.58c18.89 0 36.66-6.07 51.92-15.94a97.38 97.38 0 00-19.16-14.5c-33.69-18.48-84.47-32.62-126.4-30.23 16.01 33.95 53.01 60.67 93.64 60.67z" fill="#d57085"/><ellipse class="o" cx="867.68" cy="866.23" rx="14.43" ry="6.86"/><path class="g" d="M661.36 548.86s27.79-47.74 78.13-35.84c0 0-15.78 10.09-36.45 22.11-16.78 9.76-41.68 13.73-41.68 13.73zm380.46 1.16s-27.82-47.74-78.13-35.84c0 0 15.78 10.09 36.44 22.11 16.78 9.76 41.69 13.73 41.69 13.73z"/><path class="p" d="M962.48 511.58a21.27 21.27 0 013.77-2.89 41.85 41.85 0 0111.13-5 47.74 47.74 0 018-1.67 54.68 54.68 0 019.19-.4 44.09 44.09 0 014.88.5 28.63 28.63 0 015 .9 51.16 51.16 0 019.89 3.36c1.59.77 3.21 1.46 4.73 2.35s2.95 1.94 4.38 2.92c3 1.81 5.29 4.45 7.62 6.73s4 5.12 5.65 7.52a33.93 33.93 0 013.63 7.47c.83 2.44 1.77 4.51 2 6.64s.48 3.89.61 5.36a31.69 31.69 0 01.08 4.67s-1.6-.93-3.93-2.6c-1.15-.84-2.56-1.82-4-3s-3.3-2.23-5-3.53a56.06 56.06 0 00-5.58-3.86c-2.07-1.16-3.8-2.79-6.05-3.83s-4.12-2.59-6.43-3.59c-1.1-.57-2.24-1.08-3.29-1.74s-2.31-1-3.44-1.52c-2.2-1.22-4.65-2-7-3l-7.1-2.65c-2.4-.69-4.71-1.68-7-2.3-2.29-.78-4.52-1.45-6.63-2.1l-10.68-3.33c-2.73-.85-4.43-1.41-4.43-1.41zm-221.79 0s-1.7.56-4.41 1.41l-10.68 3.29c-2.11.65-4.34 1.31-6.63 2.1-2.31.62-4.62 1.62-7 2.3l-7.1 2.65c-2.31 1-4.75 1.77-7 3-1.13.53-2.35.92-3.44 1.52s-2.19 1.17-3.29 1.74c-2.3 1-4.25 2.47-6.43 3.59s-4 2.67-6.05 3.83a56 56 0 00-5.58 3.86c-1.72 1.3-3.67 2.3-5 3.53s-2.84 2.14-4 3c-2.32 1.67-3.93 2.6-3.93 2.6a31.69 31.69 0 01.08-4.67c.13-1.47.26-3.31.61-5.36s1.17-4.19 2-6.64a33.93 33.93 0 013.62-7.47c1.7-2.4 3.23-5.3 5.65-7.52s4.65-4.93 7.62-6.73c1.44-1 2.87-2 4.39-2.92s3.14-1.58 4.73-2.35a51.18 51.18 0 019.89-3.36 28.64 28.64 0 015-.9 44.11 44.11 0 014.88-.5 54.68 54.68 0 019.19.4 47.72 47.72 0 018 1.67 41.86 41.86 0 0111.13 5 21.28 21.28 0 013.75 2.93z"/><ellipse class="w" cx="991.14" cy="614.13" rx="22.09" ry="31.62"/><ellipse class="w" cx="722.33" cy="614.13" rx="22.09" ry="31.62"/><ellipse class="j" cx="1000.93" cy="600.97" rx="5.49" ry="9.15"/><ellipse class="j" cx="730.33" cy="600.97" rx="5.49" ry="9.15"/><path d="M998.91 368.65l1.23-.13c-.43.04-.86.08-1.23.13zm2.75-.29l2.31-.26c-.77.08-1.55.18-2.31.26z" style="mix-blend-mode:multiply" fill="#b97443" opacity=".5"/><circle class="y" cx="721.82" cy="591.82" r="122.41"/><circle class="z" cx="721.82" cy="591.82" r="122.41"/><path class="y" d="M1152.53 591.82a122.41 122.41 0 11-122.39-122.41 122.41 122.41 0 01122.39 122.41z"/><path class="z" d="M1152.53 591.82a122.41 122.41 0 11-122.39-122.41 122.41 122.41 0 01122.39 122.41z"/><path d="M908.73 611.8c-.58-15.67-62.42-23.34-67.53 7.69" stroke-linecap="round" stroke-linejoin="round" stroke-width="14.64" stroke="#542c0f" fill="none"/><path d="M594.69 589.73l-72.81-9 72.81-9a9.022 9.022 0 112.2 17.91 9.42 9.42 0 01-2.2.09z" fill="#542c0f"/><path class="q" d="M1245.33 377.03c-47.26 18.3-149.62 43.08-264.53-21.17 36.87 21.6 82.31 43 123.82 52.31 44 9.91 114.7-4 142.78-30.51zm-303.59-46.27c-8.25-6-16.54-12.51-24.85-19.55a267.48 267.48 0 0024.85 19.55zm59.19 45.36l-.42-.22c-30.08-1.22-167.2-8-221.68-32.12 72.72 32.99 178.17 47.89 222.1 32.34zM555.15 96.16c-2.18 5.67-7.66 35.89-8.9 58.67 2.48 18.38 7.8 37.64 18.94 47.4 20.17 17.67-43.57-54.9 50.6-166.44-2.33 1-4.34 1.92-5.94 2.72-22.04 10.92-45.7 34.22-54.7 57.65z"/><path class="ac" d="M1076.06 1353.39c-2.42-20.44 8.2-110.6 67.91-139.56 24.53-11.9 49.16-23.6 72.55-37.73 21-12.68 43.92-26.79 53-49.31 2.62-6.5-.21-22.82-.21-22.82s45.12 24.34 37 109.15c-1.83 19-4.14 38.49-9.52 56.87-7.31 24.84-23.6 41.9-42.47 58.63-11 9.72-20.15 20.11-32.26 28.66a382.65 382.65 0 01-38.91 23.68c-19.78 10.68-40.08 19.78-63 18.53-8.71-.47-16.16-4.21-23.77-8-6.76-3.39-12.39-7.56-13.57-15.05-1.52-9.58-5.62-13.48-6.75-23.05z"/><path class="ad" d="M1306.29 1213.11c2.23-23.15.46-41.76-3.25-56.64-3-2.43-2.14 12.83-4.77 19.32-9.09 22.52-32 36.62-53 49.31-23.38 14.12-48 25.83-72.55 37.73-54.36 26.37-68 103.43-68.22 132.45a44.58 44.58 0 0015.64 4.2c22.92 1.24 43.21-7.85 63-18.53a382.65 382.65 0 0038.86-23.67c12.12-8.56 21.3-18.94 32.26-28.66 18.87-16.73 35.16-33.79 42.47-58.63 5.42-18.39 7.73-37.88 9.56-56.88z"/><path class="ac" d="M1085 1355.69s-78-172.65-314.16-195.41c0 0-83.56-.52-102.88-29.55l-26.48 92.22s147.17 171.77 157.61 178.14 268.22 85.68 268.22 85.68z"/><path class="ad" d="M1070.58 1394.04s-77.94-172.64-314.13-195.37c0 0-83.56-.52-102.88-29.55l-26.48 92.22s147.17 171.78 157.61 178.14 268.22 85.68 268.22 85.68z"/><path d="M979 1863.57l-320.08-174.62s-6.93-3.78-11-8.85c-3.42-4.24-3.62-12.21-3.62-12.21l-46.59-524.11s-1.59-7.13 6.2-12.73c5.08-3.65 14.15-1.14 14.15-1.14l420.53 201.92zm47.82 6.45l159.87-282.45 183.6-493.1s3.42-6.46-2.61-13.92c-3.94-4.86-231.37 264.44-231.37 264.44z" fill="#87c8e4"/><path class="af" d="M603.91 1131.05c5.08-3.65 14.15-1.14 14.15-1.14l8.52 4.09 51.72 497.84s.2 8 3.62 12.21c4.09 5.07 11 8.85 11 8.85l287.22 200.38-1.14 10.29-320.08-174.62s-6.93-3.78-11-8.85c-3.42-4.24-3.62-12.21-3.62-12.21l-46.59-524.11s-1.58-7.13 6.2-12.73z"/><path class="af" d="M603.91 1131.05C609 1127.4 664 1650.28 664 1650.28s.2 8 3.63 12.21c4.09 5.06 11 8.85 11 8.85L979 1863.57l-320.08-174.62s-6.93-3.78-11-8.85c-3.42-4.24-3.62-12.21-3.62-12.21l-46.59-524.11s-1.58-7.13 6.2-12.73z"/><path fill="#5aa2cb" opacity=".5" d="M949.37 1780.65l-257.49-140.51-29.35-414.93 316.22 151.83-29.38 403.61z"/><path opacity=".2" fill="#fff" d="M973.52 1735.43l33.69-384.11-236.77-111.57 203.08 495.68z"/><path fill="#92cff6" d="M1026.82 1870.01l-48.13-6.48 59.61-531.75 98.01 13.21-109.49 525.02z"/><path fill="#a5d7f8" d="M1015.3 1855.67l-21.71-2.93 62.11-518.61 63.22 8.51-103.62 513.03z"/><path class="af" d="M1136.31 1344.99l-109.5 525 62.6-110.58c4.31-16.22 15.18-96.1 18.85-123.24 12.1-89.41 23.66-181.18 62.39-263.72 29.65-63.2 74.83-114 119.64-166.65 24.47-28.73 47-59.12 71.3-88l8.71-23.39s3.42-6.46-2.61-13.92c-3.94-4.8-231.38 264.5-231.38 264.5z"/><path class="f" d="M315.39 1358.08s-28.69-28.45-7.3-66.78c16.06-28.73 53.68-10.3 71.54.45 47.75 28.76 167.18 92.12 221.45 136.73 23.39 19.21-7.78 57.62-24 54.36-63.46-12.8-173.95-50.63-261.69-124.76z"/><path class="f" d="M586.88 1430.15c5.69-14.73 50-20.65 55.47-22.3 4.9-1.51 19.44-2.69 24.31-2.22 1.85.18 3.48 2.13 2.66 5.7-3.24 14-28.19 20.15-28.56 21.12 5.88 4.28 17.75 5.51 18.09 5.85 17.07 2.61 49.12 7.6 62.39 8.88 5.45.52 11.49 4 11 8.26-.32 3-4.08 7.45-10.5 6.84-23.33-2.26-58.92-3.35-59-2.74 16.32 5.34 47.39 15.55 60.3 19 5.29 1.41 10.72 5.86 9.69 10-.73 3-5 6.8-11.23 5.12-14.44-3.47-63.63-12.16-64.12-10.84 16 8.2 39.38 20.12 50 24.82 5 2.24 9.78 7.52 8.23 11.52-1.11 2.86-5.8 6-11.7 3.36-12.57-5.24-36.73-14.4-54.9-22.36-.53.79 26.82 24.36 38.13 32.65 4.49 3.3 4.5 8.29 3.07 10.45-2 3-7.79 1.82-11.6-1-9.58-7-34.68-23.51-46.76-31.41-9.36-1.64-28.54-9.32-35.41-12.69-11.08-5.44-15.41-9.26-17.62-14.67l-5-10.65s-4.03-24.26 13.06-42.69z"/></g></g></svg>