<svg xmlns="http://www.w3.org/2000/svg" xmlns:xlink="http://www.w3.org/1999/xlink" width="2629.56" height="851.22"><defs><linearGradient id="a" x1="728.21" y1="385.37" x2="2629.56" y2="385.37" gradientUnits="userSpaceOnUse"><stop offset="0" stop-color="#40d5e6"/><stop offset="1" stop-color="#57f"/></linearGradient><linearGradient id="b" x1="302.79" y1="797.03" x2="302.79" y2="654.7" gradientUnits="userSpaceOnUse"><stop offset="0" stop-color="#ff9f55"/><stop offset="1" stop-color="#ffd255"/></linearGradient><linearGradient id="c" x1="297.76" y1="476.11" x2="297.76" y2="673.14" xlink:href="#a"/><linearGradient id="d" x1="433.36" y1="485.56" x2="433.36" y2="338.26" gradientTransform="rotate(-180 433.36 427.115)" xlink:href="#b"/><linearGradient id="e" x1="264.77" y1="89.52" x2="264.77" y2="255" xlink:href="#a"/><linearGradient id="f" x1="389.68" y1="7.92" x2="389.68" y2="140.28" xlink:href="#a"/><linearGradient id="g" x1="-9741.64" y1="544.13" x2="-10023.95" y2="544.13" gradientTransform="matrix(1 0 0 -1 11967.37 1088.25)" xlink:href="#b"/><linearGradient id="h" x1="-9609.02" y1="779.23" x2="-9888.6" y2="779.23" gradientTransform="matrix(1 0 0 -1 11794.84 1558.47)" xlink:href="#b"/><linearGradient id="i" x1="2196.62" y1="632.09" x2="2196.62" y2="746.83" gradientTransform="rotate(-180 2196.615 672.885)" gradientUnits="userSpaceOnUse"><stop offset="0" stop-color="#609ff0"/><stop offset="1" stop-color="#5a3f9e"/></linearGradient><style>.d{fill:#ff9f55}.e{fill:#eff7fe}.g{fill:#5284fc}.m{fill:#f08533}.n{fill:#fae6de}.r{fill:#eea886}.t{fill:#e8e8e8}.v{fill:#152b3d}.w{fill:#323657}.x{fill:#254380}.y{fill:#353a3d}.aa{fill:#fb5}.ac{fill:#213a70}.ad{fill:#ffca55}.af{fill:#a77860}.ai{fill:#303669}.ak{fill:#de9673}.an{fill:#eea987}.ap{fill:#464240}.aq{fill:#6e6760}.ar{fill:#292929}.as{fill:#434975}.at{fill:#ffc955}.au{fill:#1d3b54}.av{fill:#cfa345}</style></defs><g style="isolation:isolate"><path d="M2250.8 253.32a377 377 0 00-177 43.87c-103.14-140.44-269.39-231.63-456.95-231.63-223.91 0-417.48 129.94-509.45 318.5a269.65 269.65 0 00-108.46-22.66c-149.52 0-270.72 121.2-270.72 270.69a269.47 269.47 0 0010 73.1h1884.25a376.43 376.43 0 007.09-73.1c0-209.18-169.56-378.77-378.76-378.77z" fill="url(#a)"/><path d="M70.12 676.09h502V808.8h-502a36.63 36.63 0 01-36.62-36.63v-59.45a36.63 36.63 0 0136.62-36.63z" fill="url(#b)"/><path class="d" d="M658.28 689.75v105.4h8.8v13.66H303.25a36.63 36.63 0 01-36.63-36.63v-59.46a36.63 36.63 0 0136.63-36.63h363.84v13.66z"/><path class="e" d="M330.11 689.75h328.16v105.39H330.11a36.63 36.63 0 01-36.63-36.63v-32.13a36.63 36.63 0 0136.63-36.63z"/><path d="M46 521.75h549.5v154.33H46a46 46 0 01-46-46v-62.31a46 46 0 0146-46.02z" fill="url(#c)"/><path class="g" d="M693 537.64v122.57h7.58v15.89H401.71a46 46 0 01-46-46v-62.3a46 46 0 0146-46h298.87v15.89z"/><path class="e" d="M424.84 537.63H693V660.2H424.84a46 46 0 01-46-46v-30.54a46 46 0 0146-46.03z"/><path d="M249.44 332.5h417.65v189.22H249.44a49.8 49.8 0 01-49.8-49.8v-89.61a49.8 49.8 0 0149.8-49.81z" transform="rotate(180 433.36 427.115)" fill="url(#d)"/><path class="d" d="M124.81 352v150.25h-7.64v19.48h297.77a49.81 49.81 0 0049.8-49.8v-89.61a49.81 49.81 0 00-49.8-49.8H117.17V352z"/><path class="e" d="M388.14 502.23H124.82V351.98h263.32a49.5 49.5 0 0149.5 49.5v51.26a49.51 49.51 0 01-49.5 49.49z"/><path d="M69.52 143.25h442.86v189.21H69.52a52.36 52.36 0 01-52.35-52.36v-84.5a52.36 52.36 0 0152.35-52.35z" fill="url(#e)"/><path class="g" d="M591.64 162.73V313h8.09v19.48H283.88a52.36 52.36 0 01-52.36-52.36v-84.5a52.36 52.36 0 0152.36-52.36h315.86v19.48z"/><path class="e" d="M311.15 162.72h280.49V313H311.15A52.14 52.14 0 01259 260.85v-46a52.14 52.14 0 0152.15-52.13z"/><path d="M174.57 0h462.72v143.19H174.57a32.5 32.5 0 01-32.5-32.5V32.5A32.5 32.5 0 01174.57 0z" fill="url(#f)"/><path class="g" d="M716.55 14.74v113.72h8.09v14.74H388.93a32.5 32.5 0 01-32.5-32.5V32.5A32.5 32.5 0 01388.93 0h335.72v14.74z"/><path class="e" d="M413.62 14.74h302.92v113.71H413.62A32.5 32.5 0 01381.12 96V47.24a32.5 32.5 0 0132.5-32.5z"/><path d="M1922.88 473.14h400.6v142h-400.6a26.18 26.18 0 01-26.18-26.18v-89.64a26.18 26.18 0 0126.18-26.18z" transform="rotate(180 2110.095 544.125)" fill="url(#g)"/><path d="M1789.13 730.65h488.21v97.16h-488.21a18.81 18.81 0 01-18.81-18.81v-59.53a18.81 18.81 0 0118.81-18.82z" transform="rotate(180 2023.83 779.235)" fill="url(#h)"/><path class="m" d="M1718.31 741.27v75.92h-12.89v10.61h229.05a13 13 0 0013-13v-71.14a13 13 0 00-13-13h-229.05v10.62z"/><path class="n" d="M1923.37 817.19h-205.05v-75.92h205.05a12.5 12.5 0 0112.5 12.5v50.93a12.5 12.5 0 01-12.5 12.49z"/><path class="m" d="M1828.39 487.76V600.5h-7v14.62h290.27a27.06 27.06 0 0027.06-27.06v-87.85a27.06 27.06 0 00-27.06-27.06h-290.25v14.61z"/><path class="n" d="M2096.83 600.5h-268.44V487.75h268.44a27.06 27.06 0 0127.06 27.06v58.63a27.06 27.06 0 01-27.06 27.06z"/><path d="M2016.67 615.12H2410v115.53h-393.33a33.45 33.45 0 01-33.45-33.45v-48.63a33.45 33.45 0 0133.45-33.45z" transform="rotate(180 2196.615 672.885)" fill="url(#i)"/><path d="M1914.91 627v91.75h-7v11.89h283.88a33.45 33.45 0 0033.45-33.45v-48.62a33.45 33.45 0 00-33.45-33.45h-283.85V627z" fill="#495da1"/><path class="n" d="M2177.87 718.77h-263v-91.75h263a33.45 33.45 0 0133.45 33.45v24.84a33.45 33.45 0 01-33.45 33.46z"/><path d="M2073.94 659.17H1961.3v-2.9h112.64zm52.8 8.82h-120.28v-2.9h120.28zm-268.7 95.83H1745.4v-2.9h112.64zm52.8 8.81h-120.28v-2.9h120.28zm12.04 8.06h-49.76v-2.9h49.76zm157.48-213.8h-120.28v-2.9h120.28zm-80.43 8.05h-49.76v-2.9h49.76z" fill="#deccc5"/><path class="r" d="M1968 583.11c0-1.45 1.55-3.67 4-1.76s-.57 8.9-2.54 8.28-1.46-5.02-1.46-6.52z"/><rect x="801.99" y="49.8" width="903.96" height="625.73" rx="53.24" ry="53.24" style="mix-blend-mode:hard-light" fill="#fff"/><path class="t" d="M1250.28 42.83h7.39v639.98h-7.39z"/><path d="M863.02 115.74h332.14v12.55H863.02zm0 46.01h332.14v12.55H863.02zm0 46.02h332.14v12.55H863.02zm0 46.02h332.14v12.55H863.02zm0 46.02h332.14v12.56H863.02zm0 46.02h332.14v12.56H863.02zm0 46.02h332.14v12.55H863.02zm0 46.02h332.14v12.55H863.02zm0 46.02h332.14v12.55H863.02zm0 46.01h332.14v12.56H863.02zm0 46.02h332.14v12.56H863.02zm447.9-460.18h332.14v12.55h-332.14zm0 46.01h332.14v12.55h-332.14zm0 46.02h332.14v12.55h-332.14zm0 46.02h332.14v12.55h-332.14zm0 46.02h332.14v12.56h-332.14zm0 46.02h332.14v12.56h-332.14zm0 46.02h332.14v12.55h-332.14zm0 46.02h332.14v12.55h-332.14zm0 46.02h332.14v12.55h-332.14zm0 46.01h332.14v12.56h-332.14zm0 46.02h332.14v12.56h-332.14z" fill="#c1dbd1"/><path class="r" d="M994.79 225.09s5-8.83-3-32.51c-7.74-22.9-34.54-20.82-43.06-6.15s-5.64 23.78 6.9 40.34 33.95 5.89 39.16-1.68zm-62.25 407.32s-1.33 9.72-1.49 11.18-14.75-.86-14.75-.86l-1.18-11.58s15.6-.15 17.42 1.26z"/><path class="v" d="M931.2 642.35s4.62 5.86 9.09 8.41 11.5 3.57 14.14 6.21c1.91 1.91 7 10.12-11.62 10s-27.52 1.16-29.51-2 2.88-23.25 2.88-23.25 4.55 1.28 15.02.63z"/><path class="r" d="M1033.54 632.41s-1.33 9.72-1.49 11.18-14.75-.86-14.75-.86l-1.18-11.58s15.6-.15 17.42 1.26z"/><path class="v" d="M1032.2 642.35s4.62 5.86 9.09 8.41 20.92 4.65 23.56 7.29c1.91 1.91 5.08 9.59-21 8.87-18.56-.51-27.52 1.16-29.51-2s2.88-23.25 2.88-23.25a76.94 76.94 0 0014.98.68z"/><path class="w" d="M937.45 390.31S930 413.56 931 433.58s-3.87 41.95-5.85 62.87c-2.21 23.33-11.26 78.55-11.59 91s1.4 52.32 1.4 52.32l18.12.44s15.21-96.54 19.15-106.39 23.48-80.08 24.14-88-38.92-55.51-38.92-55.51z"/><path class="w" d="M1012.56 387.89s11 61.45 12.31 73.71 2.19 59.32 2.85 67 4.38 100.26 7.88 111.64h-20.2s-20.74-67.32-20.74-99.17-13.73-69.24-22.6-90.25-29.16-21.51-34.61-60.5c0-.01 67.73-14.79 75.11-2.43z"/><path class="r" d="M987.46 231.34s-2.28 6.63 0 11.36-29.11 1.89-29.11 1.89 1.42-9.78-2.68-17.82 31.79 4.57 31.79 4.57z"/><path class="w" d="M936 395.38s11.29 11.6 77.57-1.81l-1-5.68-75.35 2.84z"/><path class="r" d="M992.21 244.24s11.59 1.18 14.91 1.81 25.61-4 30.18-4.46 24.08-13.84 24.71-15.42 11.87-30 12.5-36.18 10.94-3 10.06 1.26c-1.65 7.93-3.78 27.18-4.94 32.76-1.26 6-4.63 19.67-6.52 21.35s-19.45 15-36.65 20.72a146.19 146.19 0 00-30.13 14h-84.74s-33-47.11-33.67-54.21 23-54.27 27.75-60.19 11.58 1.93 11.58 1.93-14.18 41.6-16.07 47.52 16.49 31.9 21.54 32 18-1.58 23.77-1.81a40.34 40.34 0 0011.83-2.76z"/><path class="x" d="M1028.73 275.71s-10.37 6.9-11.32 18.73a245.33 245.33 0 01-6.62 36.91c-1.89 6.39 1.66 52.76 2.13 56.07s-65.57 11.18-75.71 3.31c0 0-2.84-43.3-4-55.6S926.32 293 924.43 289s-24.84-36.21-25.79-40.46c0 0 11.87-18.93 20.39-19.17 0 0 13.53 15.85 17.94 16.56s31.45-4.25 31.45-4.29 3 4 18.64-.71c0 0 18.68 2.11 21.72 2.5 3.68.47 29.26-3.21 29.26-3.21s10.26 17.33 8.46 26.08z"/><path class="r" d="M1073.92 193.7s2.32-11-.47-14.11c-1.59-1.79-5.4-6.54-5.75-7.23s-4.45-3.05-4.45-4.18 4-2.53 7.5.7 5.67 3.92 7.06 3.57 3.4-11.94 3.57-14.82 1.28-10.46 3.08-9.94 1.71 3.84 1.71 3.84 2.09-5.75 3.49-4.62 1.22 3.92 1.22 3.92 2.61-3.23 3.31-.87a8.14 8.14 0 010 4.45s2.7-1.48 2.88 2.18-.79 14.38-2.7 18.21-9.09 13.87-10 17.78-10.45 1.12-10.45 1.12zm-148.98-19.26s7.88-13.25 10.57-14.43 6.47-1.85 9.78-4.22 7.69-4.34 7.45-5.13-4.14-.47-8.32 1.34-6 .94-6.41 0 2.23-7.63 3.49-9.21 10.25-10.62 8.75-12-7.33 3.63-8.28 4.65c0 0 4.65-9.78 2.84-10.25s-5.21 3-5.21 3 .39-8.36-8.6 5.21c0 0 1.89-4.5-.87-3s-5.44 9.94-6.31 14.2-4.8 17.83-8.16 21.1 9.28 8.74 9.28 8.74z"/><path class="y" d="M955.67 226.77s4.15.37 13-2.68 9.49-18.5 11.4-16.67c3.9 3.73 7.58 1.16 9.05-1.05 0 0-4.31-5.68-2.31-8.41a21.17 21.17 0 015.25-4.73s-6.21-29.95-34.49-16.3c-33.13 15.98-1.9 49.84-1.9 49.84z"/><path class="x" d="M987.46 242.71l-1-4.33s-18-.37-27.89 1.06l-1 5.17s12.58 5.72 29.89-1.9z"/><path class="r" d="M983 203.64c-1.64-2.72-7.7-4.56-8.41 3.15-.55 6 10.83 12.51 10.94 6.94s-1.43-8.28-2.53-10.09z"/><path d="M1074.34 191.21s6.51.16 9.67 3a6.49 6.49 0 01-.53 3.24s-5.64-2.63-10-3.13c.04.02.11-2.32.86-3.11z" fill="#e55353"/><circle class="y" cx="1079.44" cy="193.92" r="2.8" transform="rotate(-22.89 1079.223 193.94)"/><path class="aa" d="M896.81 669.71h176.85l-55.74 171.18 5.22 1.7 58.07-178.36H892.83L835.3 840.89l5.22 1.7 56.29-172.88z"/><path class="aa" d="M957 840.89l-55.74-171.18h176.86l56.29 172.88 5.21-1.7-57.52-176.66H893.71l58.08 178.36 5.21-1.7z"/><path class="aa" d="M880.35 718.13h216.46v5.48H880.35zm-22.3 59.52h258.98v5.48H858.05z"/><path d="M1642.69 584.22c-.06 145.64-4.14 174.15-40.71 206.79-14.32 12.78-40.66 39.33-116.66 52.54-22.82 4-50.1 6.74-82.87 7.57a276.22 276.22 0 01-36.87-1.37 192.46 192.46 0 01-26.07-4.56c-83.53-20.93-89.77-92.5-53.23-152.71a347.08 347.08 0 0132.32-44.26c17.89-21.1 37.08-39.85 54.45-57.35 16-16.12 30.49-31.19 41-46.06a115.66 115.66 0 0011-18.76q1-2.23 2-4.4c2.25-4.74 4.56-9.28 6.9-13.63 4.39-8.18 8.85-15.65 13.16-22.33 3.44-5.34 6.77-10.18 9.88-14.47a239.28 239.28 0 0118.59-23s1-.47 2.81-1.22c1-.4 2.19-.89 3.61-1.44l1.82-.69 2-.73 2-.69 2.53-.84 1.58-.5 1-.3.37-.11a165.71 165.71 0 0141.91-7.37c48.02-1.74 107.54 21.93 107.48 149.89z" fill="#4373cf"/><path class="ac" d="M1448.37 803.48s1.2 9.76 2.78 14.07 10.2 14.25 6.56 23.8c-3.95 10.36-21.17.37-28.19-2.79s-5.42-8.89-6.17-15.91-4.18-7.21-2.91-12.15 8.95-14.39 8.95-14.39z"/><path class="r" d="M1432.71 791s-4.41 6.17-4.29 6.34 18.88 11.59 20.19 7.89a38.17 38.17 0 001.47-7.21z"/><path class="ac" d="M1369.1 810.38a71 71 0 00-10.87 12.73c-5.14 7.71-18.78 8.12-19.37 18.64s18.55 10.85 28.6 7.42 11.57-13.71 17.64-16.28 9.23-4.65 8.76-9.67-3.83-13.16-3.83-13.16a41.4 41.4 0 01-6 1.45 49.66 49.66 0 01-14.93-1.13z"/><path class="ad" d="M1438 525.24s-3.85 22.9-7 38c-1.26 6.13-2.4 11-3.1 12.52-.89 1.92-8.12 9.68-17 18.79-15.52 16-36 36.1-36 36.1l-8-15.22s18.21-21.35 30.56-35.6c5.72-6.59 10.17-11.66 11-12.4 2.58-2.31 5.58-25.06 9.79-43.81s12.65-29.11 12.65-29.11z"/><path class="r" d="M1411 594.57c-15.52 16-36 36.1-36 36.1l-8-15.22s18.21-21.35 30.56-35.6c3.69 1.85 10.64 6.28 13.44 14.72zm-41 208.8l-.9 7a34.56 34.56 0 0020.94-.31l.22-6.23z"/><path class="ad" d="M1511.42 627.57c.57 2-105.51 0-105.51 0s29.35-21.36 31.25-27.07-7.47-39.94-8.7-51.08c-1-8.91-3.43-48.8 2.45-54.89 6.14-6.37 28.26-13 28.26-13l32.24 1.2a50.7 50.7 0 019.13 2.88c3.8 1.77 25.56 9.51 29.09 20.38s-21.71 45.82-21.71 45.82 0 1.57-.12 4.14c-.1 3.43-.24 8.65-.37 14.3-.17 7.33-.32 15.39-.32 21.29-.01 13.82 3.73 33.99 4.31 36.03z"/><path class="t" d="M1511.42 627.57s14.43 21.19 14.63 35.66-25.61 62.93-29.51 69.86c-11.74 20.84-43.95 65.79-43.95 65.79s-5.55-.14-22.87-6.87c0 0 21.42-59.38 24.14-65.54 11.52-26.14 17.95-44.69 14.07-49.17s-14.43-9-17.48-11.63-56.31 10.06-61.89 11.51c-14.45 3.75-7.86 28.89-4.67 40.16 5.35 18.86 10 87 10 87s-10.29 4.38-27.53.68c0 0-33.85-123-34.94-135.18s-1.62-32.39 81.79-47.71z"/><path class="r" d="M1468 411.43s-28-6.31-21.6 28.91 13.12 38 30 30.7 15.38-29.86 16.22-40.92-15.68-18.3-24.62-18.69z"/><path class="r" d="M1460.6 490.53s12.4 13.14 32 1.2c0 0-4.38-28.48-2.08-42.35S1465 470.87 1465 470.87c.37.19.61 1.52.66 3.4a38.08 38.08 0 01-.29 5.64c-.62 4.62-2.06 9.49-4.77 10.62z"/><path d="M1491.28 448.2s-.72-11.1-4.78-11.45-4.68 4.12-4.68 4.12l-4.09.77s1.29-9.73-2.75-11.43-26.22 5.36-29.47 2.5-1.72-22.59 4.16-25.29 22.1-8.75 34-.7c0 0 9.27-1.06 10.64 6.42s-.51 29.49-3.03 35.06z" fill="#3a3f47"/><path class="af" d="M1465.32 479.91c20.21-6.23 21.73-18.4 21.75-18.59-6.66 11.44-21.46 12.95-21.46 12.95a38.08 38.08 0 01-.29 5.64z"/><path class="r" d="M1500.86 485.72s-14.8 29.46-38.71 27.56-4.08-31.52-3-31.79 24.53-6.12 41.71 4.23z"/><path class="ad" d="M1393.77 626.08s73.26 9 117.65 1.49L1426.6 617s-.5 2.13-32.83 9.08z"/><path class="r" d="M1448.56 613.64l-5.46 2.76s1.24 8.67 4.23 11.3l6.12-1.56s-1.26-9.51-4.89-12.5z"/><path class="ad" d="M1533.34 595.88c-1.09 1.26-15.5 7.06-31.77 13.32-22.23 8.56-47.3 16.66-47.3 16.66l-5.71-12.24s26.26-14.27 44-24.27c8.38-4.73 14.86-8.5 15.78-9.37 2.85-2.72 3.59-7.07 1.5-14.67s-6.93-42.52-7.47-46.6 1.36-14.95 11.55-15.49 15.38 2.33 15.38 2.33 2.56 1.06 4.46 25.79 2.16 61.55-.42 64.54z"/><path d="M1507.79 555.91c-.1 3.43-.24 8.65-.37 14.3-9.95-24.38-4.2-43.83-4.1-44.16-1.08 6.62 4.39 29.53 4.47 29.86zm-76.79 7.35c-1.26 6.13-2.4 11-3.1 12.52-3.4-16.44-.34-37.49-.34-37.49.44 10.05 3.44 24.97 3.44 24.97z" fill="#c9a043"/><path class="r" d="M1501.57 609.21c-22.23 8.56-48.11 16.93-48.11 16.93l-4.9-12.5s26.26-14.27 44-24.27c0-.01 6.44 3.14 9.01 19.84z"/><path fill="#444c94" d="M1446.98 626.86l-104.13-1.53 52.57 26.69 51.56-25.16z"/><path class="ai" d="M1395.42 652.02l51.56-19.97v-5.19l-55.63 20.07 4.07 5.09z"/><path class="r" d="M1444.28 616.59s-6.5-1-11-2.06c-3.48-.81-12.13.31-14.33 2.54s-9.21 17.79-10.54 18.74.68 3.15 3 2c0 0 2.14 6.81 7.41 4.26s8.85-8.11 11.62-9.09 18.84-5.92 18.84-5.92-.85-12.13-5-10.47z"/><path class="r" d="M1420.54 616a45.45 45.45 0 00-5.27 2.92c-1.09.9-5.51 4.21-6.58 5s1.62 3 9.52-.43 2.33-7.49 2.33-7.49z"/><path class="ai" d="M1395.42 652.02l-30.97-84.57-99.85 1.63 29.52 77.94 101.3 5z"/><ellipse cx="1324.93" cy="608.65" rx="8.47" ry="12.33" transform="rotate(-26.58 1324.667 608.594)" fill="#518afa"/><path class="r" d="M1481.92 436.17c.37-3.11 6.51-4.25 7 .41s-2.79 12.84-5.12 12-2.39-8.12-1.88-12.41z"/><ellipse class="ad" cx="1485.31" cy="441.07" rx="8.02" ry="11.44"/><path class="ad" d="M1488.28 434.08l-3.56-.57c0-.18 2.74-17.7-4-25.39-2.15-2.46-6.66-5.5-10.39-5.4h4.11c4.8-.12 7.42 1.45 9 3 8.42 8.48 4.97 27.58 4.84 28.36zm-20.8 30.92l-.71-1.44c13.56-6.72 17.74-20.36 17.78-20.49l1.54.46a38 38 0 01-18.61 21.47z"/><circle class="ad" cx="1467.12" cy="464.27" r="2.67"/><path class="ak" d="M768 519.23s12 .73 15.42 2.61 26.16-5.3 26.58-7a3.75 3.75 0 000-2.47h-44.69z"/><path class="ak" d="M713.94 466.09s-3.84 30.21 0 34.16c14.68 15.13 69.06 13.93 69.06 13.93v6.15s-82.72 10.32-90.41-5.73c-9.24-19.28-5.65-50.72-5.65-50.72z"/><path fill="#2f4563" d="M686.64 784.4l4.91-5.6-8.87-9.28-7.49 5.25 11.45 9.63z"/><path d="M675.19 774.77s10.13 7.63 12.94 7.93 4.15 1.56 3.81 5.85 4.12 22.36 7.22 22.65 13.66.35 15.57 7.31-33.49 5.49-35.73-.21-17.43-33.37-15.63-35.59 6.63-7.23 11.82-7.94z" fill="#1e2d40"/><path class="w" d="M740.16 558.58s66.15 115.23 39.3 139.07c-10.53 9.35-20.67 17.8-35.24 30.32-7.75 6.65-17.1 14.35-28.18 25.89l-.46.48c-7.91 8.24-14.43 15.21-16.44 17.36l-.19.2-.22.24-7.36 7-10.8-9.5s12.24-16.94 19.15-30c9.69-18.26 26-39.73 33.5-45.72 12.91-10.26 16.45-12.27 16.45-22.08 0-10.52-60.63-69.3-60.63-69.3s-8.8-36.79 12.21-46.41c20.47-9.31 38.91 2.45 38.91 2.45z"/><path class="an" d="M689.71 802.25s-.42-5.31.48-8.7-13.69-1.45-13.69-1.45-1.88 14.17-1.34 17.42 14.55-7.27 14.55-7.27z"/><path class="w" d="M692.44 793.57l-19.67 3.54s-1.42-25.11-1.16-44.34c.28-20.67-.77-36.93 5.55-53.38 5.91-15.39 4.56-21.26 5.08-31.76s-5-64.62-5-64.62-6.72-24.23 8.84-41.32c15.16-16.66 54.37-.07 54.37-.07s-8.17 73.92-27.78 119.64c-5.55 12.94-2.55 20.8-9.63 40.8-.04.01-10.81 43.61-10.6 71.51z"/><path class="an" d="M709.56 415.48a22.67 22.67 0 00-2.33 6.33 53.93 53.93 0 00-1.08 6.75 78.88 78.88 0 00-.4 8.59s-26.24-5.71-21.94-11.83 1.77-24.67 1.77-24.67 27.42 9.1 23.98 14.83z"/><path class="r" d="M724.33 364.92s6.72 5.84 3.71 22.64c0 0 1.49 13.39 3.54 15.72s-5.5 3.2-6.3 4.88-2.3 9.55-7.56 14.29-31.33-9.56-32.6-17.63-19.33-42.7 9.26-44.29 29.95 4.39 29.95 4.39z"/><path class="ad" d="M742.31 488.94c-.53 1.69 1.47 27.55 1.29 29.78-1 12.23 2.16 30.82 3.4 37.48.3 1.57.46 2.38.46 2.38-28.34 13.86-67.75 12.65-67.75 12.65.14-1.07 5.64-14.39 5.78-15.41 2.33-16.64 5.78-24.23 4.84-35.48-.52-6.32-2.13-12.93-5.46-21.12-9.62-23.64-9.1-39.39-7.53-52.38s5.46-20.4 5.46-20.4l23.95 2.56c5.08 5.63 9.6 8.63 24 21.45 15.41 13.65 18.1 17.79 11.56 38.49z"/><path d="M674.28 805.84s13.85-3.94 14.26-4.32.5-1.23 2.41-.46 2.7 3.66 4.58 4.58 13.3 4.26 19.56 7.34c2.26 1.11 11.84 4.76 13.22 7.81s1 7.63-15.5 6.54-34.44 1.23-38-.57-1.47-16.16-.53-20.92z" fill="#23344a"/><path class="ap" d="M728.76 381.52s3.21-34.9-30.63-28.67-16.4 44.38-11.84 56.81c0 0-.55-19.31 15.74-19.94s19.66-4.4 26.73-8.2z"/><path class="an" d="M699.39 384.82c-2-3.54-9-1.65-8.23 3.74s6.4 10.79 8.25 8.17 2.97-6.73-.02-11.91zm.77 68.58s-2.79 29.9 1.05 33.86c14.68 15.12 72.62 15.41 72.62 15.41l2.77 8.69s-86.12 5.86-93.81-10.18c-9.24-19.28-5.65-50.72-5.65-50.72z"/><path class="ap" d="M687.41 361.44s-13-12.5-22.3 1.66 11 33.92 19.22 22.19a26.12 26.12 0 003.08-23.85z"/><path class="af" d="M707.23 421.8a53.93 53.93 0 00-1.08 6.75c-8.72-4-15.24-16.11-15.24-16.11 6.31 5.44 16.32 9.36 16.32 9.36z"/><path class="aq" d="M749.67 511.36h82.14v4.59h-82.14z"/><path class="aq" d="M827.665 513.816l36.997-73.336 4.098 2.067-36.997 73.336z"/><path class="an" d="M761.74 502.67s12-.92 15.42-3.32 26.16 6.75 26.58 8.86a6 6 0 010 3.15H759z"/><path class="ad" d="M682.81 426.44l1.68-4.58 23 4.58v4.07l-24.68-4.07z"/><path class="an" d="M700.12 453.79s2.47-17.33-9.6-18.85-13.39 15.58-13.39 15.58z"/><path class="ar" d="M1922.72 645.93s-.59 7.65-2.36 10.62-7.54 20.55-10 25-12.37 7.65-11.9 15.52 18.69 9.11 23.75 5.34 21.49-27.37 23.37-30.79 2.59-15.07-.82-18.38-7.14-10.16-7.07-11.76-12.97 1.25-14.97 4.45z"/><path class="as" d="M1943.88 411.82s-32.83 43.22-38.49 56-15.39 31-15.39 37 5 30.13 7.54 34.7 19.8 82.48 20.74 87.48 4.44 18.91 4.44 18.91l15-4.45s1.55-69-1.12-82.71-10.74-33.57-9.49-39.81 21.36-23.59 35.19-32.87 30.16-23.89 31.1-39-6.68-32.11-6.68-32.11-15.66-11.05-42.84-3.14z"/><path class="as" d="M1907 407.94s-9.42 13.92-14.14 17.35-37.46 34.7-46.89 50-12.64 17.58-10.68 24.2 4.79 24.43 6.91 29S1871.79 642 1871.79 642s11.29 2.86 14.59-2.16c0 0-6.44-47.25-4.79-64.37s-1.69-42-8.9-54.6-2.16-21 6.08-26.67 53.82-31.5 53.82-31.5 55.28-76.45-25.59-54.76z"/><path class="ar" d="M1872.17 641.48s-.24 2.74-1.06 3.08-13.78 19.52-16.26 22.26-18 7.19-18.26 9 2.12 12.1 14.84 12.33 23.33-10.73 28.51-14.84 20.19-8.62 14.26-18.72-7.83-14.73-7.83-14.73z"/><path class="as" d="M1942.75 651a66.39 66.39 0 00-6.61 15.27c-2.59 8.9-12.72 20.43-19.67 20.09s-5.79-5.43-5.79-5.43 7.38-20.25 10.48-26.76c.51-1.08 1.21-6.13 1.56-8.22.19-1.12 10.37-5.25 15-4.45-.04-.02 4 8.07 5.03 9.5zm-88.47 16.32s2.34 6.2 8.23 5.07 12.49-7.75 15.91-11.51 13.26-10.68 13.26-10.68l-5.3-10.33-14.14.86z"/><path class="at" d="M1907.37 406.82s-10.14 13.38-13.44 16-32.17 26.08-49.78 55.5c0 0 56.63-1.92 88.16 32.93 0 0 30.58-25.37 34-27.91s25.37-15.47 27.1-36.17-6.68-32.11-6.68-32.11-62-14.32-79.36-8.24z"/><path class="at" d="M1900.21 346.94c7.47 12.63 8.72 57.12 6.83 61.4 0 0 42.93 13.2 80.16 7.92 0 0-1.86-4-3.7-9.35l-2.4-6.88c-2.65-7.55-5.59-15.68-7.15-19.37-3.3-7.8-2.12-20.89.47-25.42s17.91-38.5 17.91-38.5 8.25-24.16-5.89-31.71a109 109 0 00-27.29-10.11l-24.89-1.72s-5.43 1-12.73 1.63-14.85 1.89-16.38 14-3 18.45-4.6 21.64-8.82 22.13-.34 36.47z"/><path class="at" d="M1977.31 280.72s14.6 2 21 13.25 6 26.38 7.42 32.42 10.05 62.4 8.48 67.27-7.7 13.08-17 12.08-46.65-20.47-46.65-20.47 5-14.59 5-17.61l36 12.58s-8.64-58.88-9.74-65.42-8.09-28.3-4.51-34.1zm-62.5-4.78s-11.16 2.27-17.42 11.5c-4.36 6.42-4.71 20.67-5.34 23.36s-9 33.07-9 33.07l23.25 15.58z"/><path class="au" d="M1904.14 334.61l81.53-24.15 3.3 2.68 6.75 64.08-91.58 34.39v-77zm8.95-103.17s7.73 37.32 2.23 47.61c0 0 16.86-6.19 20.17-13s-22.4-34.61-22.4-34.61z"/><path class="r" d="M1931.65 259.91a589.444 589.444 0 001.23 14.06 146.63 146.63 0 01.59 16s12 12.86 25.69-15c0 0-5.75-11.49-1.42-27.14s-26.09 12.08-26.09 12.08z"/><path class="r" d="M1931.88 186s-21.21 2.06-22.17 29.28 10.61 49.59 14.55 52.91 24.77-2.18 28.23-16.69 9.64-25.55 7.24-37.35-1.89-31.86-27.85-28.15z"/><path class="au" d="M1909.92 225.51s-9.32-32.64 18.1-42.12 39.51 9.79 43.53 21.66 4.62 46.66 4.62 46.66-16.79 19.86-27.48 25.8c0 0 5.35-37.77-1.05-63.55 0 0-22.39 6.68-38 4.58.02 0 .16 5.53.28 6.97z"/><path class="af" d="M1932.45 268.6c.14 1.69.29 3.51.43 5.38 12.33-6.53 15.12-14.15 15.12-14.15-8.21 8.09-15.55 8.77-15.55 8.77z"/><path class="av" d="M1900.3 311s-13 22.15-10.14 36.59 12.73 6 12.73 6-13.18-16.37-2.59-42.59z"/><path class="au" d="M1898.95 411.61l-52.93-45.97-14.77-75.31 64.17 44.35 3.53 76.93z"/><path class="au" d="M1904.14 411.61h-5.19l-3.53-76.93 8.72-.07v77z"/><path class="r" d="M1955.27 370.11s-6.87-2.46-7.59-2.95-1.71-7.71-5.1-10.47-7.83-5.71-8.68-7-2.77 2.52.23 5.81 3 5.88-4.37 4.24c-4.11-.91-17.57-9-17.41-5.94.09 1.81 13.29 9.08 13.29 9.08s-14.67-6.76-15.55-6c-1.73 1.42 12.75 8.79 13.39 9 0 0-12.94-5-13.53-3.81-.74 1.44 12.31 6.62 12.1 6.82 0 0-10.34-3.83-10.6-2.87-.35 1.26 8.43 5.42 10.23 6s20.59 7.28 23.79 7.63 5.86 3.72 5.86 3.72z"/><path class="at" d="M1952.72 367.36s-4.16 9.65-4.87 16.61c0 0 23.43 12.22 38.62 18.29l11.77-25.51-2.51.46-4 1.48s-30.2-8.69-39.01-11.33z"/><path class="as" d="M1870.73 637.86s-1 9.55-2.57 10.35 15.62-3.21 2.57-10.35z"/><path class="av" d="M1964.53 392.34c.38.31 12.74 10.09 19 14.56l-2.4-6.88z"/><path class="au" d="M1846.02 365.64l-19.98-72.98 5.21-2.33 14.77 75.31z"/><path class="r" d="M1845.38 363.31a55.91 55.91 0 01-3.41-7.39c-1.54-4.13-6.11-19.59-5.18-20.26s12.77 2 14.42 4.42-2.76 2.15-2.76 2.15 6.26 2.26 5.35 4-4.66.24-4.66.24 4.93 2.28 3.75 3.68-3.67.76-3.67.76 4.44 1.71 3.44 3.32-8.66 1.44-8.05 3.13a29.45 29.45 0 01.77 5.95z"/></g></svg>