<svg xmlns="http://www.w3.org/2000/svg" xmlns:xlink="http://www.w3.org/1999/xlink" width="2827.73" height="1734.73"><defs><linearGradient id="a" x1="1274.74" y1="610.76" x2="1274.74" y2="1354.51" gradientUnits="userSpaceOnUse"><stop offset="0" stop-color="#dbdbe6"/><stop offset="1" stop-color="#fff"/></linearGradient><linearGradient id="b" x1="926.33" y1="1315.08" x2="926.33" y2="548.92" gradientUnits="userSpaceOnUse"><stop offset="0" stop-color="#fcfcfc"/><stop offset="1" stop-color="#fdfdfd"/></linearGradient><linearGradient id="c" x1="1023.72" y1="1565.45" x2="1023.72" y2="677.37" xlink:href="#b"/><linearGradient id="d" x1="1181.17" y1="1565.45" x2="1181.17" y2="677.37" xlink:href="#b"/><linearGradient id="e" x1="1338.81" y1="1565.45" x2="1338.81" y2="677.37" xlink:href="#b"/><linearGradient id="f" x1="1497.39" y1="1565.45" x2="1497.39" y2="677.37" xlink:href="#b"/><linearGradient id="g" x1="1625.16" y1="1565.45" x2="1625.16" y2="677.37" xlink:href="#b"/><linearGradient id="h" x1="1536.93" y1="1565.45" x2="1536.93" y2="677.37" xlink:href="#b"/><linearGradient id="i" x1="855.54" y1="1315.08" x2="855.54" y2="548.92" xlink:href="#b"/><linearGradient id="j" x1="940.08" y1="1213.93" x2="1638.4" y2="1213.93" xlink:href="#a"/><linearGradient id="k" x1="486.82" y1="1620.88" x2="486.82" y2="1464.67" gradientUnits="userSpaceOnUse"><stop offset="0" stop-color="#ff9f55"/><stop offset="1" stop-color="#ffd255"/></linearGradient><linearGradient id="l" x1="481.31" y1="1268.67" x2="481.31" y2="1484.91" gradientUnits="userSpaceOnUse"><stop offset="0" stop-color="#40d5e6"/><stop offset="1" stop-color="#57f"/></linearGradient><linearGradient id="m" x1="630.13" y1="1279.05" x2="630.13" y2="1117.38" gradientTransform="rotate(-180 630.125 1214.9)" xlink:href="#k"/><linearGradient id="n" x1="445.1" y1="844.39" x2="445.1" y2="1026.01" xlink:href="#l"/><linearGradient id="o" x1="582.19" y1="754.83" x2="582.19" y2="900.1" xlink:href="#l"/><linearGradient id="p" x1="1258.54" y1="762.34" x2="1280.08" y2="828.7" xlink:href="#k"/><linearGradient id="q" x1="1427.12" y1="1122.31" x2="1427.12" y2="1031.93" xlink:href="#k"/><linearGradient id="r" x1="-9400.51" y1="1165.91" x2="-9352.43" y2="1165.91" gradientTransform="matrix(-1 0 0 1 -7958.95 0)" xlink:href="#k"/><linearGradient id="s" x1="-9349.46" y1="962.93" x2="-9303.58" y2="962.93" gradientTransform="matrix(-1 0 0 1 -7958.95 0)" xlink:href="#k"/><linearGradient id="t" x1="-9259.21" y1="1409.51" x2="-9503.08" y2="1409.51" gradientTransform="matrix(1 0 0 -1 11266.4 2819.03)" xlink:href="#k"/><linearGradient id="u" x1="-9144.65" y1="1612.6" x2="-9386.16" y2="1612.6" gradientTransform="matrix(1 0 0 -1 11117.37 3225.2)" xlink:href="#k"/><linearGradient id="v" x1="-9680.57" y1="1520.74" x2="-9219.94" y2="1520.74" gradientTransform="matrix(1 0 0 -1 11415.88 3041.47)" gradientUnits="userSpaceOnUse"><stop offset="0" stop-color="#609ff0"/><stop offset="1" stop-color="#5a3f9e"/></linearGradient><linearGradient id="w" x1="1449.64" y1="662.05" x2="1490.25" y2="787.17" xlink:href="#k"/><linearGradient id="x" x1="1461.54" y1="698.73" x2="1478.34" y2="750.49" xlink:href="#k"/><style>.m{fill:#fff}.p{fill:#ff9f55}.q{fill:#eff7fe}.s{fill:#5284fc}.z{fill:#eb4747}.aa{fill:#e8734d}.ab{fill:#eea886}.ad{fill:#214361}.ag{fill:#323657}.ah{fill:#918783}.ai{fill:#706865}.ak{fill:#bfb2ac}.ao{fill:#48753a}.ap{fill:#538742}.ba{fill:#ffa855}.be{fill:#f08533}.bf{fill:#fae6de}</style></defs><path fill="url(#a)" d="M809.36 1142.38V987.75h60.24V884.33h70.28v86.35h54.22v-123.5h-11.04V827.1h124.5v21.08h-12.04v118.48h29.11v28.12h53.22V777.9l53.22-53.22 18.07 18.08h17.68v301.22h60.64v-24.1l46.18-46.19h37.15v70.29h38.16V863.24h61.25v130.53h50.2v98.4h66.27V983.73h113.46v158.65H809.36z"/><path fill="url(#b)" d="M912.77 884.33h27.11v258.05h-27.11z"/><path fill="url(#c)" d="M1051.67 827.1v226.25H992.1v54.22h-52.22v34.81h155.64v-294.2h12.04V827.1h-55.89z"/><path fill="url(#d)" d="M1231.07 724.68v356.45h-52.22v-86.35h-29.12v76.31h-54.21v71.29h171.3V742.76h-17.68l-18.07-18.08z"/><path fill="url(#e)" d="M1373.64 973.69v95.39l-33.38 33.38h-25.86v17.32h-47.58v22.6h143.97V973.69h-37.15z"/><path fill="url(#f)" d="M1484.59 863.24h25.6v279.13h-25.6z"/><path fill="url(#g)" d="M1740.13 983.73h-63.19v118.48h-18.14v23.43h-148.6v16.74h229.93V983.73z"/><path fill="url(#h)" d="M1560.4 993.77h-19.58v111.96l-27.36 27.36h46.94V993.77z"/><path fill="url(#i)" d="M841.48 987.75h28.11v154.63h-28.11z"/><path d="M1074.66 1133.32s79.68-36.22 96-25.35 90.54-13.12 143.06-2 83.3 36.83 134 12.19 110.46-15.19 119.51 0 21.73 8.35 79.68 0 54.32-4.72 130.38 15.19 126.05 19.92 126.05 19.92h-828.68z" fill="#fafafa"/><path d="M964.22 1176.18s18.11-66.4 112.27-33.8 114.69 72.43 251.1 67.6 196.78 60.36 252.31 59.15 58.5 25.35 58.5 25.35H940.08z" fill="url(#j)"/><path d="M1696.92 1724.34h-714v-78.84s34.16-62.21 90.17-75.69a91.48 91.48 0 0143 0 117.36 117.36 0 0132.2 13.25c99.27 58.08 184.5-13.14 251.87 71.35s138.35-26.9 257.68 42.38a246.38 246.38 0 0139.08 27.55z" fill="#e7e7e7"/><circle class="m" cx="2018.84" cy="470.32" r="6.32"/><circle class="m" cx="2305.31" cy="827.1" r="6.32"/><circle class="m" cx="1882.04" cy="316.86" r="6.32"/><circle class="m" cx="1921.91" cy="627.13" r="11.94"/><circle class="m" cx="1328.32" cy="129.11" r="9.88"/><circle class="m" cx="1979.14" cy="243.24" r="4.54" transform="rotate(-76.5 1979.086 243.28)"/><circle class="m" cx="1828.98" cy="424.74" r="9.66" transform="rotate(-76.5 1828.975 424.745)"/><circle class="m" cx="1921.91" cy="129.11" r="6.32"/><circle class="m" cx="2002.8" cy="9.66" r="4.54" transform="rotate(-76.5 2002.843 9.635)"/><circle class="m" cx="1828.98" cy="760.84" r="4.54" transform="rotate(-76.5 1829.066 760.82)"/><circle class="m" cx="1756.65" cy="9.66" r="9.66" transform="rotate(-76.5 1756.653 9.658)"/><circle class="m" cx="2202.62" cy="651.01" r="11.94"/><circle class="m" cx="1646.9" cy="201.45" r="11.94"/><circle class="m" cx="2156.66" cy="21.6" r="11.94"/><circle class="m" cx="2129.22" cy="310.54" r="4.54" transform="rotate(-76.5 2129.183 310.566)"/><circle class="m" cx="2431.45" cy="760.84" r="4.54" transform="rotate(-76.5 2431.606 760.78)"/><circle class="m" cx="1304.39" cy="564.28" r="4.54" transform="rotate(-76.5 1304.452 564.265)"/><circle class="m" cx="2655.48" cy="718.36" r="4.54" transform="rotate(-76.5 2655.459 718.373)"/><circle class="m" cx="1607.05" cy="378.28" r="4.54" transform="rotate(-76.5 1607.137 378.25)"/><path fill="#eef6fa" d="M0 1525.41h2827.73v209.32H0z"/><path d="M231.48 1488.15h550.89v145.65H231.48a40.2 40.2 0 01-40.2-40.2v-65.25a40.2 40.2 0 0140.2-40.2z" fill="url(#k)"/><path class="p" d="M877 1503.15v115.67h9.66v15H487.34a40.2 40.2 0 01-40.2-40.2v-65.26a40.2 40.2 0 0140.2-40.2h399.3v15z"/><path class="q" d="M516.81 1503.14H877v115.67H516.81a40.2 40.2 0 01-40.2-40.2v-35.27a40.2 40.2 0 0140.2-40.2z"/><path d="M205 1318.76h603.1v169.38H205a50.51 50.51 0 01-50.51-50.51v-68.37a50.51 50.51 0 0150.51-50.5z" fill="url(#l)"/><path class="s" d="M915.08 1336.2v134.52h8.32v17.44h-328a50.51 50.51 0 01-50.51-50.51v-68.37a50.51 50.51 0 0150.51-50.51h328v17.44z"/><path class="q" d="M620.78 1336.19h294.29v134.51H620.78a50.51 50.51 0 01-50.51-50.51v-33.5a50.51 50.51 0 0150.51-50.5z"/><path d="M428.27 1111.07h458.37v207.66H428.27a54.66 54.66 0 01-54.66-54.66v-98.34a54.66 54.66 0 0154.66-54.66z" transform="rotate(180 630.125 1214.9)" fill="url(#m)"/><path class="p" d="M291.5 1132.45v164.92h-8.39v21.38h326.8a54.66 54.66 0 0054.66-54.66v-98.35a54.66 54.66 0 00-54.66-54.66h-326.8v21.38z"/><path class="q" d="M580.49 1297.36h-289v-164.92h289a54.33 54.33 0 0154.33 54.36v56.25a54.33 54.33 0 01-54.33 54.31z"/><path d="M230.82 903.35h486V1111h-486a57.46 57.46 0 01-57.46-57.46v-92.72a57.46 57.46 0 0157.46-57.47z" fill="url(#n)"/><path class="s" d="M803.84 924.74v164.92h8.88V1111H466.08a57.46 57.46 0 01-57.46-57.46v-92.72a57.46 57.46 0 0157.46-57.46h346.65v21.38z"/><path class="q" d="M496 924.73h307.84v164.91H496a57.22 57.22 0 01-57.22-57.22V982A57.22 57.22 0 01496 924.73z"/><path d="M346.11 746.15h507.83V903.3H346.11a35.67 35.67 0 01-35.67-35.67v-85.82a35.67 35.67 0 0135.67-35.66z" fill="url(#o)"/><path class="s" d="M940.93 762.33v124.8h8.88v16.18H581.37a35.67 35.67 0 01-35.67-35.67v-85.82a35.67 35.67 0 0135.67-35.67h368.44v16.18z"/><path class="q" d="M608.47 762.32h332.45v124.8H608.47a35.67 35.67 0 01-35.67-35.67V798a35.67 35.67 0 0135.67-35.68z"/><path d="M1256.27 836.43l-48.58-42.35a9.57 9.57 0 1112.58-14.43l34.35 29.95 49-54.64a9.57 9.57 0 1114.25 12.78z" fill="url(#p)"/><path d="M1294.24 1563.93s7.52 11.37 13.07 15.34 34.92 20.1 39.94 20.9 33.49 5.66 33.41 10.15c-.16 9.13-20.57 10-47 8.68s-63.9 2.24-67.34-.9-4.22-16.34-1.31-29.3a82 82 0 001.59-24.47zm-80.84 55.82c-1.35 6.78-49.17 6.95-54.32-2.32s-45.36-37.69-47.21-48.54c-.81-4.73.87-9.93 3.95-16.43 4-8.4 10.69-16.66 18.74-20.54 14.79-7.13 24.49 23.67 24.49 23.67s2.25 10.71 4.36 14.42 18 31.74 24.34 33.85 27.93 4.44 25.65 15.89z" fill="#ebdddd"/><path d="M1089 1231.4s27.62 3.82 36.4.08 55.67 28 55.59 33-1.54 7.1-1.54 7.1l-100.83-21.92z" fill="#eea987"/><path class="z" d="M1251.44 1341.56l-41.91 94.28c-2.93 6.61-5.67 12.77-8.06 18.14l-6.72 15.12c-11.11 25-31.15 86.5-31.15 86.5s-30.95-5.75-32.14-23.21c0 0 22.82-38.29 22.82-64.87s3.57-104.89 29-121.82c30.94-20.64 51.05-24.55 68.16-4.14z"/><path class="z" d="M1025.33 1237s5.16 5.16 9.52 6.35 77.37 6.75 111.1 17.86 78.56 18.25 86.9 27.78 22.22 61.9 21.82 71.82 38.05 190.11 41.79 203.15c2 6.92-31.74 4.89-31.74 4.89s-45.25-112.43-54.09-130.67c-16.25-33.53-17.06-74.6-23-80.95s-72.22-20.63-110.31-20.63-123.4 3.17-132.53-2-66.26-42.85-42.46-93.25 123-4.35 123-4.35z"/><path class="aa" d="M1114.35 934.2s-32.17 87.65-53.38 114.23-12.56-72-12.56-72 36.8-57.43 65.94-42.23z"/><path class="aa" d="M1128.6 928.39s19.36-65.25-54.69-69.48c-73.32-4.2-19.83 80.65-62.59 117.49-18.57 16-33.92 32.87-39.86 53.15 0 0-10.49 29.84 2 65.44 16.77 48.07 102.17-193.58 155.14-166.6z"/><path class="ab" d="M1089.86 875.63c14.13 3.38 43 19.38 37 57.7a119.77 119.77 0 01-8.7 16.75c-4.69 7.12-4.39 32.23-6.55 32.83s-10.14-.14-10.14-.14-15.46 22.84-24.24 20-40.26-19.44-46.92-55.38 2.48-85.39 59.55-71.76z"/><path class="ab" d="M1068.64 987.86s-2.12 3.21-4.88 8.1c-1.41 2.49-3 5.42-4.54 8.57-4.28 8.73-8.35 19.2-8 27.05 0 0-21.53 1.09-28.94-31 0 0 15.3-27.85 11.93-48.42s34.43 35.7 34.43 35.7z"/><path class="aa" d="M1126.89 933.33s-27.11 8.84-50.47 5.43-44.42 15.59-44.42 15.59-21.71-52.85 15.94-79.52 96.35 16.87 78.95 58.5z"/><path class="ab" d="M1067.38 935c1.14-4.38-1.8-12.31-10.65-8.44s-5.28 27.32 1.14 27 8.33-14.01 9.51-18.56z"/><path d="M1063.76 996c-1.41 2.49-3 5.42-4.54 8.57-14.81-16.82-19.88-33.48-19.88-33.48 7.66 12.37 24.42 24.91 24.42 24.91z" fill="#a77860"/><path class="ad" d="M1086.49 1117.07c-9.67 17.88-21.22 15.69-24.66 30s.41 16.72-13.34 36.82a113.81 113.81 0 00-7.16 12.2c-.26.51-.53 1-.78 1.54-1.22 2.43-2.38 4.89-3.47 7.34-2 4.53-3.83 9-5.37 13.11-4 10.72-6.39 18.93-6.39 18.93s-75.79 24.6-123 4.36c0 0 28.17-49.59 40.47-65.86s30.15-109.12 32.93-128.56 29-57.27 51.25-56.47l29.28 20.56s19.59 51.65 25.15 59.59 14.9 28.3 5.09 46.44z"/><path d="M1040.74 1197.24l-.18.36c-1.22 2.43-2.38 4.89-3.47 7.34-2 4.53-3.83 9-5.37 13.11-18.66-2.76-53.78-28.76-53.78-28.76l44-72.75-18.67 59.55c5.68 1.61 20.48 9.25 22.33 12.46s15.14 8.69 15.14 8.69z" fill="#1b374f"/><path class="ad" d="M1025.73 1007.82c11.57 4.13 32.07 21.51 19.27 52.2s-20.2 51.89-24.7 59.54-30.68 60.61-30.68 60.61 25.92 7.62 37.83 15.55 67.59 32.07 67.59 32.07l-13.76 22.89S964 1226.84 955 1217.76s.26-54.84 3.7-72.83 21.69-88.35 22-96.29 14.86-51.64 45.03-40.82z"/><path class="ad" d="M1032.44 1238.35s-7.93 124.82-15.27 128.34c-9.69 4.64-87.34 3.45-108.07-22.7s-23.49-74-6.78-102.65 130.12-2.99 130.12-2.99z"/><path d="M1209.53 1435.84c-2.93 6.61-5.67 12.77-8.06 18.14-9-28.92-8.25-77.25-8.25-77.25a274.59 274.59 0 0016.31 59.11z" fill="#ab3434"/><path class="ag" d="M1354.68 1176.26h-168.73l-.12-14.18 168.73-1.28.12 15.46z"/><path class="ag" d="M1338.933 1171.418l46.84-153.21 14.03 4.29-46.841 153.209z"/><path class="ah" d="M1128.39 1614.47l-3.6 10.13-152.25-47.17 6.7-21.81 149.15 58.85z"/><path class="ai" d="M1652.81 1201.47h14.39v443.48h-14.39z"/><path fill="#b59074" d="M1755.86 1201.47h-581.64v-25.22h581.64z"/><path class="ai" d="M1269.56 1644.96h-14.4v-443.48h14.4z"/><path class="ah" d="M965.99 1353.76h17.3v218.42h-17.3z"/><path class="ag" d="M836.45 1330.12H1086a22.58 22.58 0 0122.58 22.58v7.37H836.45v-30 .05z"/><path class="ag" d="M978.07 1234.58s-6.86 27.75 25.45 34.05 72 14.35 72 64.19h-112z"/><path class="ag" d="M836.45 1360.07L741.3 960.19s172-26.87 192.5 50.37 54.2 306.68 95.2 320.87-192.55 28.64-192.55 28.64z"/><circle class="ak" cx="1128.39" cy="1628.57" r="14.23"/><path class="ah" d="M822.22 1614.47l3.61 10.13 152.24-47.17-7.3-20.52-148.55 57.56z"/><path class="ah" d="M1021.13 1623.52v11.79l-48.59-57.88 6.7-21.81 41.89 67.9z"/><circle class="ak" cx="1008.11" cy="1628.57" r="14.23"/><circle class="ak" cx="822.22" cy="1628.57" r="14.23"/><path d="M1583.66 1001a50.89 50.89 0 10-43.55-24.53 50.91 50.91 0 0043.55 24.53z" fill="#36572b"/><path d="M1635.36 996.46a35.62 35.62 0 0035.64-35.63q0-1.7-.16-3.37a35.63 35.63 0 10-35.46 39z" fill="#45613c"/><path d="M1582.83 952.79s-2.84 23.64-3.78 55.79 24.59 32.15 24.59 32.15v117.77h17.72s-.42-120.13 8.41-129.8 8.83-55.48 8.83-55.48l-5-2.94s7.57 54.22-26.9 62.21-21.44-77.34-21.44-77.34z" fill="#925e2e"/><path class="ao" d="M1571.05 958.31c29.22-5.46 48.47-18.09 58.87-29.45a50.91 50.91 0 10-89.81 47.63c1.41-6.92 8.98-14.08 30.94-18.18z"/><path class="ap" d="M1645.76 970.61c11.81-3.4 19.81-8.08 25.06-13.14a35.62 35.62 0 10-55 33.17c3.65-6.82 11.82-14.81 29.94-20.03z"/><path fill="#877670" d="M1665.82 1103.76h-119.79l6.18 22.23h106.2l7.41-22.23z"/><path fill="#876455" d="M1650.85 1125.99h-88.9l12.35 50.29h67.91l8.64-50.29z"/><path class="ap" d="M1638.59 929.68l3.07.95s4.84-13.14 5.15-14.92-8.22 13.97-8.22 13.97zm29.03.95l-15.24 4.62s.1 1.37 2.1 1.37 13.14-5.99 13.14-5.99zm-5.25 31.94h-3.89s.73 5.78 3.89 9.46 0-9.46 0-9.46z"/><path class="ao" d="M1568.85 889.65c-1.58 1.16 5.57 18.6 5.57 18.6h3.58s-7.58-19.76-9.15-18.6zm16.6 14.29c.63-4.73-3-12.71-3-12.71v12s2.37 5.44 3 .71zm-28.16 68.74c2.21-1.81 2.31-17.67 2.31-17.67l-3.47 1.26s-1.05 18.22 1.16 16.41z"/><path d="M1621.4 1126h-59.45l12.35 50.29h19.47c-11.01-40.48 27.63-50.29 27.63-50.29z" fill="#715346"/><path d="M1577.42 1176.28c4.88-2 12.76-25.07 16.55-37 1.34-4.23 2.17-7.07 2.17-7.07h-44.61c3.85 27.53 13.22 44.06 13.22 44.06z" fill="#9e633a"/><path d="M1581 1118.51c0-1.6 7.16-8.31 10.74-12.69s-1.38-12.69-1.38-12.69c-16 6.61-13.22 25.38-13.22 25.38s3.86 1.6 3.86 0zm-9.08.71h1.93s1.38-32.43-10.46-36.83-11.84-13.22-11.84-13.22-3.58 12.12 2.2 18.45 12.39 13.77 11.29 19.82 6.88 11.78 6.88 11.78z" fill="#97a43c"/><path d="M1594 1139.29c1.34-4.23 2.17-7.07 2.17-7.07h-44.61c3.85 27.53 13.22 44.06 13.22 44.06h2.91c-.56-25.78 16.41-34.28 26.31-36.99z" fill="#82522f"/><path fill="#c67b47" d="M1596.14 1118.51h-44.94l-2.56 13.71h49.32l-1.82-13.71z"/><path d="M1473.44 1036.77l-51.89 116.89-1.39 3.14a14 14 0 01-5.77-.6l1.15-2.58 51.39-115.76-74.93-80.52-11.24-2.44 1.17-5.39 12.93 2.81z" fill="url(#q)"/><path d="M1393.53 1176.26h48a18.55 18.55 0 00-.53-2.92c-1.44-5.7-6.71-17.77-25.4-17.77s-21.72 12.07-22.11 17.77a17.71 17.71 0 00.04 2.92z" fill="url(#r)"/><path d="M1344.62 931.46l3.25 9.19 19.66 55.72a34.42 34.42 0 00-22.91-64.91z" fill="url(#s)"/><path class="ba" d="M1422.76 1153.67v2.56a12.73 12.73 0 01-2.61.57 14 14 0 01-5.77-.6l-.34-.12v-2.47h7.48z"/><path d="M1393.53 1176.26h48a18.55 18.55 0 00-.53-2.92h-47.51a17.71 17.71 0 00.04 2.92z" fill="#ffa555"/><path class="ba" d="M1344.62 931.46l3.25 9.19c11.47 9 29.28 24.69 37.92 40.62a34.42 34.42 0 00-41.17-49.82z"/><path d="M1745.59 1348.2h346v122.63h-346a22.62 22.62 0 01-22.62-22.62v-77.4a22.62 22.62 0 0122.62-22.61z" transform="rotate(180 1907.305 1409.515)" fill="url(#t)"/><path d="M1630.05 1570.64h421.72v83.93h-421.72a16.25 16.25 0 01-16.25-16.25v-51.42a16.25 16.25 0 0116.25-16.26z" transform="rotate(180 1832.785 1612.6)" fill="url(#u)"/><path class="be" d="M1568.87 1579.81v65.58h-11.13v9.17h197.86a11.23 11.23 0 0011.23-11.23v-61.46a11.23 11.23 0 00-11.23-11.23h-197.86v9.17z"/><path class="bf" d="M1746.01 1645.4h-177.13v-65.58h177.13a10.79 10.79 0 0110.79 10.79v44a10.79 10.79 0 01-10.79 10.79z"/><path class="be" d="M1664 1360.82v97.39h-6v12.62h250.74a23.37 23.37 0 0023.38-23.37v-75.89a23.37 23.37 0 00-23.37-23.37h-250.81v12.62z"/><path class="bf" d="M1895.85 1458.21h-231.88v-97.39h231.89a23.37 23.37 0 0123.37 23.37v50.64a23.38 23.38 0 01-23.38 23.38z"/><path d="M1826.61 1470.84h339.77v99.8h-339.77a28.9 28.9 0 01-28.9-28.9v-42a28.9 28.9 0 0128.9-28.9z" transform="rotate(180 1982.04 1520.735)" fill="url(#v)"/><path d="M1738.7 1481.11v79.26h-6v10.27h245.2a28.9 28.9 0 0028.89-28.9v-42a28.9 28.9 0 00-28.89-28.9h-245.23v10.27z" fill="#495da1"/><path class="bf" d="M1965.86 1560.36h-227.15v-79.26h227.15a28.9 28.9 0 0128.9 28.9v21.47a28.9 28.9 0 01-28.9 28.89z"/><path d="M1876.07 1508.89h-97.3v-2.51h97.3zm45.61 7.61h-103.9v-2.51h103.9zm-232.11 82.78h-97.3v-2.51h97.3zm45.62 7.62h-103.9v-2.51h103.9zm10.39 6.96h-42.98v-2.51h42.98zm136.03-184.68h-103.9v-2.51h103.9zm-69.46 6.95h-42.98v-2.51h42.98z" fill="#deccc5"/><path d="M1469.94 793.31a8.68 8.68 0 01-8.68-8.68v-120a8.68 8.68 0 1117.36 0v120a8.68 8.68 0 01-8.68 8.68z" fill="url(#w)"/><path d="M1530 733.29h-120a8.68 8.68 0 110-17.36h120a8.68 8.68 0 110 17.36z" fill="url(#x)"/></svg>