<svg xmlns="http://www.w3.org/2000/svg" width="572.31mm" height="730.27mm" viewBox="0 0 1622.28 2070.06"><defs><clipPath id="a" transform="translate(0 -111.56)"><path d="M506.91 56c165.7-70 504.72-73.63 661.2-15 295.75 111 619.67 540.59 581.37 889.39-19.87 181-195.78 327.44-288.92 482.52-250.89 417.77-956 204.37-1255.32-4.24-339.43-236.54-116.34-662.42 49.55-1035.93C325.43 213.67 349.87 122.32 506.91 56z" fill="none"/></clipPath><style>.ae{fill:none}.f{fill:#e9b99b}.g{fill:#fff}.h{fill:#c9c8c8}.i{fill:#4e5878}.j{fill:#586589}.ai,.l,.p,.s{mix-blend-mode:multiply}.l{fill:#e5ad97;opacity:.7}.m,.p{fill:#e2e2e2}.o{fill:#f2d367}.q{fill:#21293f}.ai{opacity:.5}.w{fill:#cf8d79}.ab{fill:#291d11}.ad{fill:#bee2fa;opacity:.4}.ae{stroke:#542c0f;stroke-miterlimit:10;stroke-width:16.06px}.ai{fill:#f4e2ad}</style></defs><g style="isolation:isolate"><path d="M581.49 302.44c159.27-45.11 332.22-52.68 489.73 2 297.72 103.3 506 374.89 488.17 644.53-9.25 139.92-71.06 296.89-154 412.44-223.39 311.25-838.25 156.17-1145.08-23.47-347.93-203.69-322.07-605.94-70-827.1 101.57-89.17 240.23-165.64 391.18-208.4z" fill="#e9b84c"/><g clip-path="url(#a)"><path d="M385.27 97.63c-60.5 93.45-13.92 198.49-9.8 301.59 2.67 66.6-7.88 160.75-64.28 202.65-23.3 17.31-62.08 33.87-92.22 29.26-18.81-2.88-34.25-14-40.47-38.3-19.68 36.51-7.7 104.61 19.25 136.44 35.79 42.27 85.35 47 138 40.18 143-18.47 184.67-144.74 168.43-280.31-8.72-72.66-21.74-124.58 30.21-179.39 47-49.6 105.7-126.84 66.93-187.61C565.17 65.5 425 36.28 385.27 97.63zM862.5 28.2c117.11 22 185.87 124.05 211.88 191.5 11.44 29.68.09 99.37-33.77 112.42-26 10-25.18-52.08-29.15-67.1-9.36-35.41-47.52-127.56-67.21-158.8-8.49-13.47-73.04-64.69-81.75-78.02z" fill="#1a2238"/><path class="f" d="M501 1680.66c-23.93 42.27-55 221.5-41.56 232.17 11.45 9.13 71.7 24.13 75.89 17.5 15.6-24.84 84-205 84-205s8.72-35.37-29.58-52.79c-56.18-25.57-78.91-9.37-88.75 8.12z"/><path class="g" d="M469.44 1791.01c-11.19 57.7-17.51 115.87-10 121.82 11.45 9.13 71.7 24.13 75.89 17.5 7.87-12.53 29.16-64.58 48.34-113.09 0 0-20.29 5.62-40.09 1.78-53-13.27-74.14-28.01-74.14-28.01z"/><path class="f" d="M618.62 1725.27c22.46-43.06 87.69-225.16 73.92-235.36-11.76-8.73-162.33-46.09-166.29-39.32-14.73 25.36-27.42 234.13-27.42 234.13s-7.5 35.65 31.38 51.74c56.97 23.59 79.12 6.62 88.41-11.19zm219.77-9.89c-7.38 48 27.14 226.6 43.47 231.83 13.95 4.47 75.59-2.86 77.16-10.55 5.77-28.76 5.82-221.51 5.82-221.51s-4.38-36.17-46.38-38.87c-61.52-3.97-77.02 19.25-80.07 39.1z"/><path class="g" d="M848 1829.74c10 57.92 24.72 114.56 33.81 117.47 13.95 4.47 75.59-2.86 77.16-10.55 2.91-14.5 4.37-70.72 5.09-122.89 0 0-17 12.45-36.86 15.88-54.2 6.38-79.2.09-79.2.09z"/><path class="f" d="M964.22 1715.37c5.73-48.23 2.16-241.62-14.34-246.29-14.1-4-168.12 14.47-169.43 22.2-4.77 28.94 57.4 228.64 57.4 228.64s5.62 36 47.67 37.26c61.65 1.86 76.34-21.86 78.7-41.81z"/><path class="h" d="M860.8 1977.84s-1.62 35.73 9.89 39l146.38 4.53 24.16-4.85-12-20.65z"/><path class="i" d="M860.78 1958.08c0-18.63-1.3-37.86 3.27-44.21 4.87-6.79 9.44 20.29 46.76 16.23 33.53-3.65 49-15.26 49-15.26v-11.56s3 7.15 39.68 7.15c11.83 0 28.7-7.15 28.7-7.15l8.9 99.94-114.69-2.34c-3.37.28-6.94.47-10.91.45-57.84-.32-50.71-19.36-50.71-43.25z"/><path class="g" d="M1025.89 1903.28c.2 0 4.18-3.34 5.78-3.47 54.47-4.49 88.45 31.4 88.46 70.12a56.7 56.7 0 01-4 21s-27.68 12.25-84.4 12.36h-.59z"/><path class="h" d="M1031.09 2003.25h.59c56.61-.11 84.3-12.3 84.4-12.35-.52 5.34-1.72 13.16-3.6 18.09 0 0-26.5 12.24-80.8 12.33h-14.62z"/><path class="g" d="M1011.43 1930.1a8.91 8.91 0 01-2.08-.45 15.46 15.46 0 01-9.08-7.58 14.35 14.35 0 01-1.45-4 16.89 16.89 0 01-.35-4.83 14.9 14.9 0 011.56-5.18 11.54 11.54 0 013.3-4.17 11.34 11.34 0 014-2.24 9.72 9.72 0 013.66-.58 11.1 11.1 0 015.17 1.18 9.79 9.79 0 011.82 1s-.4.79-1 1.85a33.26 33.26 0 00-2.21 3.8 7.55 7.55 0 00-.9 2c-.12.65-.48 1.13-.36 1.64a1.51 1.51 0 01-.06.58 1.45 1.45 0 01.08.53c-.08.24.07.71-.06 1 0 .51-.15.93-.16 1.62s-.12 1.36-.21 2.14l-.48 5c-.23 1.72-.46 3.33-.71 4.55s-.48 2.14-.48 2.14z"/><path class="j" d="M948.78 1921.71l37.73-4.31-23.59-44.55-7.15 10.05-6.99 38.81z"/><path class="g" d="M987.45 1930.1a9 9 0 01-2.08-.45 15.45 15.45 0 01-9.07-7.58 14.36 14.36 0 01-1.45-4 17.06 17.06 0 01-.34-4.83 14.81 14.81 0 011.55-5.18 11.64 11.64 0 013.3-4.17 11.35 11.35 0 014-2.24 9.74 9.74 0 013.66-.58 11.12 11.12 0 015.16 1.18 10 10 0 011.82 1s-.4.79-1 1.85a33.24 33.24 0 00-2.22 3.8 7.58 7.58 0 00-.9 2c-.12.65-.47 1.13-.36 1.64a1.6 1.6 0 01-.06.58 1.39 1.39 0 01.08.53c-.08.24.07.71-.07 1 0 .51-.15.93-.16 1.62s-.12 1.36-.21 2.14c-.18 1.85-.34 3.57-.48 5-.23 1.72-.47 3.33-.71 4.55s-.46 2.14-.46 2.14z"/><path class="h" d="M424.55 1943.95s-15.32 32.32-6 39.75l133.24 60.79 24.15 4.87-3-23.67z"/><path class="i" d="M432.17 1925.72c7.2-17.18 13.45-35.41 20.12-39.51 7.11-4.37.86 22.36 36.84 33.05 32.33 9.61 51.07 4.88 51.07 4.88l4.47-10.66s0 7.74 33.83 21.94c10.92 4.58 29.23 4.51 29.23 4.51l-30.45 95.6-104.86-46.52c-3.23-1-6.59-2.25-10.24-3.81-53.18-22.65-39.25-37.45-30.01-59.48z"/><path class="g" d="M605.63 1939.06c.18.08 5.15-1.46 6.67-1 52 16.93 69.41 63.17 54.45 98.88a56.81 56.81 0 01-11.84 17.79s-30.27.58-82.62-21.25l-.54-.24z"/><path class="h" d="M571.76 2033.26l.54.24c52.25 21.79 82.49 21.26 82.6 21.26-2.53 4.73-6.67 11.47-10.31 15.29 0 0-29.17 1-79.28-19.89l-13.48-5.67z"/><path class="g" d="M581.92 1958.19a9 9 0 01-1.74-1.22 15.74 15.74 0 01-3.3-3.88 15.55 15.55 0 01-2.13-6.62 14.25 14.25 0 01.21-4.24 17.09 17.09 0 011.55-4.59 15 15 0 013.44-4.18 11.62 11.62 0 014.65-2.56 11.36 11.36 0 014.54-.53 9.8 9.8 0 013.6.88 11.11 11.11 0 014.31 3.08 10 10 0 011.28 1.66s-.68.58-1.68 1.3a33.67 33.67 0 00-3.51 2.64c-.55.53-1.25.85-1.59 1.47s-.87.86-1 1.38a1.4 1.4 0 01-.28.51 1.45 1.45 0 01-.13.53c-.17.19-.21.68-.46.94-.18.48-.5.8-.77 1.43s-.63 1.21-1 1.89l-2.4 4.47c-.88 1.49-1.72 2.89-2.41 3.93s-1.18 1.71-1.18 1.71z"/><path class="j" d="M527.4 1926.22l36.46 10.63-4.53-50.21-10.47 6.5-21.46 33.08z"/><path class="g" d="M559.81 1948.92a9.08 9.08 0 01-1.74-1.22 15.46 15.46 0 01-5.44-10.5 14.25 14.25 0 01.21-4.25 17.11 17.11 0 011.55-4.59 15 15 0 013.44-4.18 11.6 11.6 0 014.65-2.57 11.35 11.35 0 014.54-.53 9.76 9.76 0 013.61.88 11.15 11.15 0 014.31 3.08 10 10 0 011.28 1.66s-.68.58-1.68 1.3a33.1 33.1 0 00-3.51 2.65c-.55.53-1.25.85-1.59 1.47s-.88.86-1 1.38a1.49 1.49 0 01-.28.51 1.42 1.42 0 01-.13.53c-.17.19-.21.68-.46.94-.18.47-.5.8-.77 1.43s-.63 1.21-1 1.89l-2.4 4.47c-.88 1.49-1.71 2.89-2.41 3.93s-1.18 1.72-1.18 1.72z"/><path class="j" d="M435.47 1578.54c-10.42 6.94-32.69 15.61-32.14 31.07.56 15.84 155.67 91.69 311.23 91.69 220.55 0 319.31-83.21 334.8-115.7 11.61-24.35-6.12-17.68-23.74-31.7-21.86-17.4-41.44-68.75-50.72-96.19-14.52-42.93-16.09-90.65-45.37-133.79-16.75-24.67-79.39-10.82-108.21-14.66-56.53-7.52-94.87-5.4-159.62 5.88-52.78 9.2-75.86-25.57-114.17 16.09-32.72 35.59-37.66 125.76-44.52 145.42-9.65 27.71-43.16 85.66-67.54 101.89z"/><path class="g" d="M1036.73 1560.59a53 53 0 01-11.1-6.67 83.75 83.75 0 01-11.54-11.59c-13.49 11.55-33.37 25-61.26 37.8-44.09 20.23-121.23 44.31-238.26 44.31-104.69 0-209.17-35.65-262.65-61.23-5.68 6.51-11.27 11.85-16.44 15.3-2.18 1.45-4.9 3-7.81 4.64 18.75 9.9 42.73 20.26 68.27 29.43 42.37 15.22 127.11 40.76 218.62 40.76 179.44.04 278.44-53.16 322.17-92.75z"/><path d="M506.73 1663.49c12.65 4.41 26.14 8.71 40.29 12.74l111-352.6-2.15-7.52-1.57.23zm195.84 37.67l16.28-377.42-5.14-8.55-54 383.17c14.15 1.47 28.48 2.44 42.86 2.8zm76.96-372.31l-7.1-7 41.82 373.19q21.76-2.87 41.34-6.82zm64.71-18.99l95.65 353.85a367.31 367.31 0 0038.95-18l-126.89-336.13c-2.62.1-5.2.2-7.71.28z" style="mix-blend-mode:multiply" opacity=".3" fill="#4e5878"/><path class="f" d="M872.64 953.44s-48.5-26.07-35.49-83.5c9.75-43.06 51.51-36.69 71.8-31.16 54.26 14.81 132.63 27.83 194.77 52.58 63.79 25.42 90 30.7 88.23 43.71-2 14.69-15.33 68.89-32.29 72-66.52 12.14-182.66.21-287.02-53.63z"/><path class="l" d="M837.16 869.97c-13 57.43 35.49 83.5 35.49 83.5 65.48 33.77 135.59 51 195.17 56.22 22.65-36.16 27.62-79.93 23.73-122.92-59.93-21.8-131.82-34.1-182.6-48-20.29-5.49-62.05-11.86-71.79 31.2z"/><path class="m" d="M818 864.27c-15.1 66.63 41.19 96.89 41.19 96.89 58.77 30.32 122.34 48 181.06 56.7 52.91-32.42 40.39-134.91 41.69-144.52-62.15-19.08-130.3-31.51-180.61-45.24-23.55-6.42-72.01-13.81-83.33 36.17z"/><path class="j" d="M1065 868.35q-11.32-3.22-22.76-6.21c3.21 67.73-9.81 119.75-37.19 149.49q12.79 2.62 25.35 4.67c24.89-33.62 36.69-83.86 34.6-147.95z"/><path class="f" d="M1185.85 995.59s-26.16 23.92-58.83 3.51c-24.49-15.31-6.72-47.48 3.48-62.67 27.27-40.6 87.94-142.52 129.38-188.14 17.84-19.67 50.15 9.3 46.61 23.35-13.98 55.08-51.89 150.27-120.64 223.95z"/><path class="f" d="M1260.72 760.81c-12.66-5.62-18.55-38.4-14.12-40.69 11.55-6 17.64-6.79 18.46-6.43 4-5 5.59-15.32 5.91-15.59 3-14.84 8.77-42.71 10.47-54.29.69-4.75 4-9.9 7.72-9.3 2.66.41 6.35 3.9 5.54 9.5-3 20.35-5.49 51.48-5 51.56 5.39-14.08 15.68-40.85 19.23-52 1.47-4.57 5.6-9.14 9.2-8.06 2.58.77 5.74 4.67 4 10.06-3.66 12.5-13.4 55.24-12.27 55.72 7.88-13.7 19.33-33.64 23.9-42.73 2.18-4.31 7-8.25 10.46-6.72 2.45 1.1 5 5.35 2.44 10.4-5.14 10.78-14.2 31.56-22 47.13.68.5 22.5-22.44 30.26-32 3.08-3.79 7.46-3.59 9.28-2.24 2.55 1.87 1.26 6.91-1.36 10.12-6.58 8.09-22.1 29.37-29.54 39.62-1.84 8.14-9.39 24.61-12.65 30.48-5.25 9.47-8.78 13.1-13.62 14.8l-9.54 3.91s-21.35 2.52-36.77-13.25z"/><path d="M970.71 1386.67c-116.29-267.33 26.57-496.84-111.93-567.29-27-13.72-75.3-15.36-123.8-15.36-50.84 0-114.35-3-146 12.94-141.55 71.25 21.26 321.12-90.72 572.36-15.88 35.64 488.01 33.12 472.45-2.65z" fill="#efefef"/><path class="j" d="M744.1 1135.11l57.5 32.08 34.26-43.9-68.79-236.66h-9.09l-13.88 248.48z"/><path class="g" d="M744.73 1123.66l56.81 29.31 29.75-45.39-5.89-20.3-29.36 44.78-50.33-25.96-.98 17.56z"/><path class="o" d="M689.9 1221.96c9.64-12.43 33.67-19 45.84-28.94a192.75 192.75 0 0041.44-47.32l11.19 13.68-96 78.55s-8.89-7.69-2.47-15.97z"/><path class="p" d="M693.3 1226.12c9.65-12.42 33.67-19 45.84-28.94a192.63 192.63 0 0041.44-47.32l-3.4-4.16a192.75 192.75 0 01-41.44 47.32c-12.17 10-36.19 16.51-45.84 28.94-6.43 8.27 2.43 16 2.43 16l.1-.09a10.16 10.16 0 01.87-11.75z"/><path class="p" d="M691.87 1224.37c9.65-12.42 33.68-19 45.85-28.93a192.7 192.7 0 0041.43-47.32l-2-2.42a192.75 192.75 0 01-41.44 47.32c-12.17 10-36.19 16.51-45.84 28.94-5.47 7.05.14 13.68 1.93 15.49-1.99-3.01-3.92-7.92.07-13.08z"/><path class="q" d="M528.83 1324.83c-6.37 5.21-14.75 5.51-16.32 3.6s.39-10.05 6.77-15.27 14.74-5.51 16.31-3.6-.39 10.06-6.76 15.27z"/><path fill="#db726b" d="M539.394 1278.882l242.587-198.484 26.99 32.985-242.588 198.485z"/><path class="o" d="M526.11 1326.44c7-1.09 14.77-2.54 18.59-3.74 13.78-4.32 21.62-10.73 21.62-10.73l-27-33s-7.44 6.09-15.19 20c-1.85 3.32-4.6 10.23-6.95 16.53z"/><path class="p" d="M801 1103.81l-242.62 198.44s-7.84 6.42-21.62 10.73a160.64 160.64 0 01-18 3.65 21.23 21.23 0 01-4.17 2c-2.54 4.23-3.15 8.48-2.08 9.79 1.4 1.7 8.2 1.64 14.18-2.09a158.87 158.87 0 0018-3.64c13.78-4.32 21.62-10.73 21.62-10.73l242.62-198.45z"/><path class="p" d="M804.17 1107.68l-242.63 198.45s-7.84 6.42-21.62 10.73a158.76 158.76 0 01-18 3.64 20.74 20.74 0 01-9.5 3.13c-.58 2.22-.54 4 .09 4.79 1.4 1.7 8.2 1.64 14.18-2.09a158.87 158.87 0 0018-3.64c13.78-4.32 21.62-10.73 21.62-10.73l242.62-198.45z"/><path class="o" d="M772.23 1153.61l-35.88-43.85 13.7-11.19 35.86 43.85-13.68 11.19z"/><path class="p" d="M760.456 1139.13l13.69-11.188 11.789 14.425-13.69 11.188z"/><path class="p" d="M766.037 1146.173l13.687-11.191 6.159 7.533-13.687 11.19z"/><path class="o" d="M797.65 1129.83l20.91-17.09a17.73 17.73 0 002.49-24.93l-11.49-14a17.72 17.72 0 00-24.93-2.5l-20.91 17.09z"/><g class="s"><path class="m" d="M821 1087.8l-11.41-13.95a17.71 17.71 0 01-2.5 24.94l-20.9 17.09 11.41 13.95 20.91-17.09a17.73 17.73 0 002.49-24.94z"/></g><g class="s"><path class="m" d="M821 1087.8l-6.42-7.85a17.73 17.73 0 01-2.5 24.94l-20.9 17.09 6.42 7.85 20.91-17.09a17.73 17.73 0 002.49-24.94z"/></g><path opacity=".3" fill="#fff" d="M543.691 1284.274l227.76-186.618 3.556 4.339-227.76 186.618z"/><path class="f" d="M521.7 853.57s44.43-32.52 90.63 4c34.65 27.37 10.88 62.3-2.85 78.22-36.75 42.58-82.29 107.67-131.42 153.06-50.44 46.58-66.53 68-77.49 60.76-12.38-8.17-55.55-43.54-51-60.17 17.73-65.27 78.58-164.93 172.13-235.87z"/><path class="l" d="M612.33 857.55c-46.2-36.5-90.63-4-90.63-4-58.7 44.54-104.51 100.35-134.89 151.89 22.86 36 60.21 59.39 100.68 74.41 45.52-44.68 87.61-104.23 122-144.07 13.72-15.93 37.51-50.86 2.84-78.23z"/><path class="g" d="M625.73 842.74c-53.61-42.36-105.18-4.62-105.18-4.62-52.69 40-96.09 89.68-129.22 138.92 6.45 61.71 104.31 94.61 112.41 99.93 44-47.85 84.61-104 118.7-143.46 15.95-18.48 43.51-59.07 3.29-90.77z"/><path class="j" d="M515.56 1063.83q7.78-8.82 15.41-17.86c-62.49-26.31-103.82-60.48-118.85-98q-7.87 10.4-15.15 20.86c19.61 36.94 59.83 69.24 118.59 95z"/><path class="f" d="M361.83 1132.85s-25.17-25-6.4-58.59c14.08-25.21 47.09-9 62.76.39 41.89 25.23 146.68 80.82 194.29 120 20.52 16.85-6.82 50.55-21 47.69-55.74-11.27-152.68-44.46-229.65-109.49z"/><path class="f" d="M600 1196.07c5-12.92 43.89-18.11 48.66-19.57 4.3-1.33 17.05-2.36 21.33-1.95 1.63.16 3.05 1.87 2.33 5-2.84 12.29-24.73 17.68-25.05 18.53 5.16 3.76 26.56 9 26.85 9.26 15 2.29 3.5 18.09 3.45 18.63-1.22 5.78-13.44 12-13.44 12s-7.33 20.33-9.59 19.53c-.47.7-4.45 16.31-15 9.38-8.21-1.43-25-8.18-31.07-11.13-9.72-4.77-13.52-8.13-15.46-12.87l-4.38-9.34s-3.63-21.3 11.37-37.47z"/><path class="j" d="M722.92 862.64l44.56 42.65 12.04-54.47-56.6 11.82z"/><path class="i" d="M858.78 819.38c-27-13.72-75.3-15.36-123.8-15.36-50.84 0-114.35-3-146 12.94-16.28 8.2 36.38 99.22 74 99.17 33.14 0 63.76-47.88 95-53.49 32-5.76 65.1 39.29 101.05 32.61 22.63-4.19 13.29-68.98-.25-75.87z"/><path fill="#d8ac91" d="M769.17 816l-11.19 46.64L668.53 816V646.84h100.64V816z"/><path class="l" d="M769.17 740.33l-85.6-42.6c-2.45 1.61-4.89 3.27-7.4 4.82s-5 3.16-7.64 4.91v103.77c8-15.15 10.75-45.77 23.72-43.6 36.73 6.16 60.45 4.62 76.92 1.22z"/><path class="f" d="M1044.32 364.44c0-192.39-113.87-326.7-306.26-326.7s-237.31 150.33-237.31 342.7c0 53.59 9.39 101.89 31 147.24-8.09 17.95-15.75 187.96 153.06 225.35 232 51.39 359.68-40.08 371.37-153.28 4.27-41.38-21.93-72.56-21.72-92.22.54-50.23 9.86-89.55 9.86-143.09z"/><path class="l" d="M634.13 389.12c208.29-25.31 356.32-158.9 370.35-201.13C955.62 94.85 863.55 37.7 738.06 37.7c-192.41 0-237.31 150.37-237.31 342.76 0 50.46 8.34 96.24 27.35 139.28 6.25-18.57 82.55-164.6 142-181.73-7.9 18.01-15.85 37.12-35.97 51.11z"/><path class="l" d="M703 740.77c-168.8-37.39-161.13-207.4-153.05-225.33-21.61-45.35-31-93.66-31-147.24 0-131.69 21-243.68 96-301.25-89.8 52.78-114.2 171.73-114.2 313.49 0 53.59 9.39 101.89 31 147.24-8.09 17.95-15.75 187.96 153.06 225.35 139.82 31 241.73 10 303.22-36.26-62.57 37.5-158.23 52.09-285.03 24z"/><path class="q" d="M522.67 507.93c4.52-15.5 82-165 142.21-182.39-7.9 18-15.84 37.12-36 51.1 214.8-26.1 365.52-167.36 371.28-204.81 0 0-166.48-336.48-478.38-67.72-145.92 125.77.89 403.82.89 403.82z"/><path d="M522.67 507.93c3-10.22 37.7-78.75 78.27-129.2-6.16-21.6-12.56-31.87-36.56-33.23-25.75-1.46-54.3-4.56-77.63-17-12.83-6.86-21-16.37-27.58-26.9 10.99 106.84 63.5 206.33 63.5 206.33z" style="mix-blend-mode:multiply" opacity=".5" fill="#1a2238"/><path class="f" d="M592.26 516.55c0 37.75-27.8 68.34-62.08 68.34s-62.08-30.59-62.08-68.34 27.8-68.33 62.08-68.33 62.08 30.59 62.08 68.33z"/><path class="w" d="M534.61 555.11l-1.38.32a21.4 21.4 0 01-3.94.64 30.06 30.06 0 01-6.45-.08 35.43 35.43 0 01-8.26-2 37.42 37.42 0 01-9-4.89 38.67 38.67 0 01-8.31-8.25 41.1 41.1 0 01-5.88-11.27 44.7 44.7 0 01-2.14-13 48.76 48.76 0 01.56-6.44 39.12 39.12 0 011.57-6.61 41 41 0 015.88-11.28 38.83 38.83 0 018.31-8.25 37.34 37.34 0 019-4.89 35.22 35.22 0 018.26-2 29.17 29.17 0 016.41-.07 22.63 22.63 0 014 .64l1.37.33-1.35.46c-.87.31-2.13.62-3.65 1.28a51 51 0 00-5.27 2.39 60.1 60.1 0 00-6 3.89 44 44 0 00-5.89 5.65 39 39 0 00-5 7.19 41.43 41.43 0 00-3.33 8.48 42.36 42.36 0 00-.81 4.37 39.6 39.6 0 00-.36 4.85 37.74 37.74 0 004.48 17.71 38.82 38.82 0 005 7.2 43.78 43.78 0 005.9 5.65 58.72 58.72 0 006 3.89 55.24 55.24 0 005.23 2.38c1.49.65 2.87 1 3.71 1.28z"/><path class="w" d="M499 512.54l2.37.1c1.47.08 3.5.29 5.91.64a65.67 65.67 0 0117.12 4.83 32.74 32.74 0 0111.34 7.85 37.38 37.38 0 012.4 3l1.6 2.77a19 19 0 01.89 2.27l.7 2-1.21-1.68a18.49 18.49 0 00-1.42-1.83l-2.12-2.05c-.8-.71-1.85-1.29-2.82-2s-2.25-1.12-3.39-1.7a34.46 34.46 0 00-7.92-2 56.51 56.51 0 00-15.29.17c-2.07.3-3.77.62-4.91.89l-1.72.43h-.09a6.934 6.934 0 11-3.38-13.45 7.11 7.11 0 011.94-.24z"/><path d="M871.29 502.28a61 61 0 018.51 8.68 77.2 77.2 0 017.2 10.13 54.33 54.33 0 013.33 6.43 26.22 26.22 0 011.35 3.89 11.43 11.43 0 01.2 5.82 8.48 8.48 0 01-1.34 2.5 10.39 10.39 0 01-1.24 1.27 14.26 14.26 0 01-2.3 1.54 22.89 22.89 0 01-4 1.62 44.55 44.55 0 01-7.24 1.47 67.49 67.49 0 01-12.47.45 57.09 57.09 0 01-12.05-1.7s4.62-1.86 11.41-3.8l11.35-3.26c2-.56 4.05-1.31 5.92-2a22.3 22.3 0 002.43-1.14 5 5 0 00.63-.44c.1-.06 0 0 0 0s-.54.93-.44 1a5 5 0 00-.18-1.14 28.78 28.78 0 00-.78-2.78c-.69-2-1.37-4-2.2-6-1.58-4-3.13-7.77-4.34-11.1a114 114 0 01-3.75-11.44z" fill="#e5ad97" opacity=".7"/><path d="M750.73 585.04c-2.45 44.08 40.5 88.16 89.39 88.16s89.36-46.29 89.42-88.16z" fill="#924a5a"/><path class="g" d="M750.73 585.04a67.89 67.89 0 001.37 17.4 69 69 0 0015.29 7.62c1.33.49 4.21-4.67 5.61-4.2 1.56.51 1.65 6.64 3.31 7.12 15.74 4.52 35.95 7.41 58.18 7.86h11c23.72-.37 45.2-3.53 61.54-8.48a50.6 50.6 0 009.78-27.32z"/><path d="M840.12 673.2c16.57 0 32.16-5.33 45.55-14a85.68 85.68 0 00-16.8-12.72c-29.56-16.22-74.11-28.61-110.9-26.52 14.03 29.79 46.5 53.24 82.15 53.24z" fill="#d57085"/><ellipse class="l" cx="846.37" cy="700.97" rx="12.66" ry="6.02"/><path class="l" d="M665.36 422.53s24.38-41.88 68.54-31.44c0 0-13.84 8.85-32 19.4-14.7 8.56-36.54 12.04-36.54 12.04zm333.78 1.02s-24.38-41.88-68.55-31.44c0 0 13.85 8.85 32 19.4 14.7 8.56 36.55 12.04 36.55 12.04z"/><path class="q" d="M929.54 389.82a19.18 19.18 0 013.35-2.22 40.51 40.51 0 019.73-3.81 43.38 43.38 0 016.91-1.19 50.29 50.29 0 017.9-.16 51.76 51.76 0 018.46 1.32 45.7 45.7 0 018.46 2.92 40.43 40.43 0 017.82 4.48c2.57 1.53 4.57 3.76 6.6 5.68s3.47 4.31 5 6.33a30.19 30.19 0 013.32 6.29 28.45 28.45 0 011.95 5.61c.42 1.72.62 3.27.81 4.52a31.59 31.59 0 01.35 3.95s-1.28-.87-3.17-2.44c-.93-.79-2.09-1.7-3.23-2.81s-2.78-2.07-4.2-3.31a46.34 46.34 0 00-4.75-3.65c-1.79-1.11-3.29-2.63-5.28-3.63s-3.65-2.45-5.72-3.38a52.7 52.7 0 00-6.08-3c-2-1.09-4.21-1.76-6.32-2.65s-4.32-1.46-6.43-2.23c-2.17-.55-4.25-1.36-6.32-1.82s-4-1.09-5.91-1.56c-3.75-1-7-1.75-9.41-2.31zm-194.54 0l-3.82.93c-2.37.56-5.66 1.33-9.41 2.31-1.88.47-3.86 1-5.91 1.56s-4.16 1.27-6.32 1.82c-2.11.77-4.3 1.4-6.43 2.23s-4.31 1.56-6.31 2.65a52.7 52.7 0 00-6.08 3c-2.07.93-3.81 2.31-5.72 3.38s-3.49 2.53-5.28 3.63a45.87 45.87 0 00-4.75 3.65c-1.43 1.23-3.11 2.16-4.2 3.31s-2.3 2-3.23 2.81c-1.89 1.56-3.17 2.44-3.17 2.44a31.64 31.64 0 01.35-3.95c.19-1.24.39-2.8.81-4.52a28.4 28.4 0 011.95-5.61 30.19 30.19 0 013.32-6.29c1.52-2 2.87-4.47 5-6.33s4-4.15 6.61-5.68a40.43 40.43 0 017.82-4.48 45.69 45.69 0 018.46-2.92 51.66 51.66 0 018.46-1.32 50.3 50.3 0 017.9.16 43.48 43.48 0 016.91 1.19 40.59 40.59 0 019.73 3.81 19.18 19.18 0 013.31 2.22z"/><path class="ab" d="M965.74 468.68a7.06 7.06 0 01.71-.09 18.45 18.45 0 002.11-.52 20.22 20.22 0 006-2.88 10.32 10.32 0 002.47-2.49 6.91 6.91 0 00.79-1.47 6.33 6.33 0 00.47-1.5 11.7 11.7 0 00.1-3.52l.58.83a8.79 8.79 0 011.32 2.49 8.44 8.44 0 01.5 1.92 10.34 10.34 0 01.16 2.3 15.32 15.32 0 01-1.06 5 28.29 28.29 0 01-5 8.08 30.32 30.32 0 01-2.19 2.31c-.61.57-1.06.91-1 .87z"/><ellipse class="ab" cx="954.68" cy="479.79" rx="19.38" ry="27.74"/><ellipse class="ab" cx="718.85" cy="479.79" rx="19.38" ry="27.74"/><ellipse class="g" cx="963.27" cy="468.25" rx="4.82" ry="8.03"/><ellipse class="g" cx="725.87" cy="468.25" rx="4.82" ry="8.03"/><path class="ab" d="M703 480.04c.07 0-.38-.3-1-.87a31.35 31.35 0 01-2.19-2.31 28.25 28.25 0 01-5-8.08 15.3 15.3 0 01-1.06-5 10.33 10.33 0 01.16-2.3 8.43 8.43 0 01.5-1.93 8.79 8.79 0 011.32-2.49l.58-.83a11.67 11.67 0 00.1 3.52 6.35 6.35 0 00.47 1.5 7.39 7.39 0 00.79 1.47 10.21 10.21 0 002.47 2.49 20.2 20.2 0 006 2.88 19.31 19.31 0 002.11.52c.45.07.63 0 .71.09z"/><path d="M961.49 264.8l1.08-.11c-.37.03-.75.06-1.08.11zm2.42-.25l2-.23c-.65.07-1.33.18-2 .23z" style="mix-blend-mode:multiply" fill="#b97443" opacity=".5"/><circle class="ad" cx="710.02" cy="456.99" r="107.39"/><circle class="ae" cx="710.02" cy="456.99" r="107.39"/><path class="ad" d="M1087.89 456.99a107.39 107.39 0 11-107.38-107.4 107.39 107.39 0 01107.38 107.4z"/><path class="ae" d="M1087.89 456.99a107.39 107.39 0 11-107.38-107.4 107.39 107.39 0 01107.38 107.4z"/><path d="M874 474.52c-.52-13.75-54.77-20.47-59.25 6.75" stroke-linecap="round" stroke-linejoin="round" stroke-width="12.85" stroke="#542c0f" fill="none"/><path d="M598.49 455.16l-63.88-7.86 63.88-7.86a7.92 7.92 0 111.93 15.72 8.14 8.14 0 01-1.93 0z" fill="#542c0f"/><path d="M1217.88 457.12c-3.74.78-8 1.37-12.74 4.16a23.64 23.64 0 00-6 4.48c-2.57 2.91-5.18-4-8.41-1.46-.66.52-1.26 1-1.83 1.58l6 28.64a20.51 20.51 0 013-.49 10.64 10.64 0 112.34 9.18c-1 1-1.89 2-2.87 3l5.89 28.17a15.36 15.36 0 004.14-.52 10.65 10.65 0 114.36 13.58c-1.71.94-3.54 1.7-5.2 2.69l4.33 20.71c2.47.18 4.56 1.53 6.69 2.71a10.66 10.66 0 115.58 17c-2.09 1.29-4.84 2.12-7.49 3.21l4.5 21.52a15.39 15.39 0 015.38 1.47 10.64 10.64 0 114.39 15.05c-1.93.59-4 1.06-6 1.69l4.88 23.34a25.71 25.71 0 004.69 3.43 10.66 10.66 0 117.48 14.35 26.83 26.83 0 01-6.92 7.33l3.89 18.59a21.53 21.53 0 015.12.19 10.64 10.64 0 11-1.31 7.79 12.63 12.63 0 01-2 .55l5.91 28.25c2.87.3 5.29 1.8 7.64 3.53a10.64 10.64 0 11-2.13 11.58c-.69.58-1.35 1.17-2 1.8l6.9 33c1.08.13 2.19.33 3.3.57a10.64 10.64 0 113.72 10.79c-1.22 1.51-2.44 3-3.72 4.42l6 28.9c.81.13 1.62.27 2.45.41a10.66 10.66 0 115.29 9.12c-1.59 1.47-3.2 2.91-4.85 4.27l3.92 18.73c.78-.17 1.61-.07 2.13-.17a38.79 38.79 0 004.11 4 10.66 10.66 0 115.38 16 53.5 53.5 0 00-6.51 4.53l2.22 10.64c7.8 1.33 22.26 1.31 30.69-.45l312-65.22-92.36-441.88z" fill="#f9f2b3"/><path class="ai" d="M1496.12 589.96c19.87 69.91 27.9 159-27.82 215.53-47.3 48-121.48 71.14-184.4 90.59-1.65.51-3.23 1-4.76 1.4l.41 2c7.8 1.33 22.26 1.31 30.69-.45l312-65.22-92.36-441.88-87.82 18.36c17.94 59.86 37 119.59 54.06 179.67z"/><path d="M1225.79 494.93l312.03-65.22m-302.46 111.01l312.03-65.23m-302.46 111l312.03-65.21m-302.46 111l312.03-65.22m-302.46 111l312.03-65.22m-302.47 111l312.04-65.22m-302.47 111l312.04-65.22m-302.47 111l312.04-65.22m-302.47 111l312.04-65.22" stroke="#5aa2cb" stroke-width="2.12" fill="#f9f2b3" stroke-miterlimit="10"/><path stroke="#d86375" stroke-width="2.12" fill="#f9f2b3" stroke-miterlimit="10" d="M1248.14 450.79l92.37 441.88"/><path class="ai" d="M1519.63 482.37c.34 1.29.64 2.58.95 3.88 14.6 62.06 20.23 124.9 29 187.86 3.83 27.61 10 56.53 4.57 84.36-13 66.36-71.76 90.68-128.26 109.88-10.9 3.71-50.9 12.12-88.08 24.9l284.47-59.46-92.36-441.88-27 5.64c-2.26 29.22 9.67 56.95 16.71 84.82z"/><path class="f" d="M1257.51 748.75s19.3-16.23 34-33.32c4.88-5.68 5.14-11.52 2.89-14.26-3.15-3.86-10.55-2-16.52.19-14.25 5.19-24.07 13.51-29.46 20.87-3.47 4.74-5.15 9.1-1.22 18.6a12.93 12.93 0 0010.31 7.92z"/></g></g></svg>