<svg xmlns="http://www.w3.org/2000/svg" xmlns:xlink="http://www.w3.org/1999/xlink" width="572.31mm" height="730.27mm" viewBox="0 0 1622.28 2070.06">
  <defs>
    <style>
      .a, .ae, .af {
        fill: none;
      }

      .b {
        isolation: isolate;
      }

      .c {
        fill: #e9b84c;
      }

      .d {
        clip-path: url(#a);
      }

      .e, .v {
        fill: #1a2238;
      }

      .f {
        fill: #e9b99b;
      }

      .g, .t {
        fill: #fff;
      }

      .h {
        fill: #c9c8c8;
      }

      .i, .k {
        fill: #4e5878;
      }

      .j {
        fill: #586589;
      }

      .k, .t {
        opacity: 0.3;
      }

      .ac, .ai, .k, .l, .p, .s, .v, .x {
        mix-blend-mode: multiply;
      }

      .l, .y {
        fill: #e5ad97;
      }

      .l, .x {
        opacity: 0.7;
      }

      .m, .p {
        fill: #e2e2e2;
      }

      .n {
        fill: #efefef;
      }

      .o {
        fill: #f2d367;
      }

      .q {
        fill: #21293f;
      }

      .r {
        fill: #db726b;
      }

      .u {
        fill: #d8ac91;
      }

      .ac, .ai, .v {
        opacity: 0.5;
      }

      .w {
        fill: #cf8d79;
      }

      .z {
        fill: #924a5a;
      }

      .aa {
        fill: #d57085;
      }

      .ab {
        fill: #291d11;
      }

      .ac {
        fill: #b97443;
      }

      .ad {
        fill: #bee2fa;
        opacity: 0.4;
      }

      .ae, .af {
        stroke: #542c0f;
      }

      .ae, .aj, .ak {
        stroke-miterlimit: 10;
      }

      .ae {
        stroke-width: 16.06px;
      }

      .af {
        stroke-linecap: round;
        stroke-linejoin: round;
        stroke-width: 12.85px;
      }

      .ag {
        fill: #542c0f;
      }

      .ah, .aj, .ak {
        fill: #f9f2b3;
      }

      .ai {
        fill: #f4e2ad;
      }

      .aj {
        stroke: #5aa2cb;
      }

      .aj, .ak {
        stroke-width: 2.12px;
      }

      .ak {
        stroke: #d86375;
      }
    </style>
    <clipPath id="a" transform="translate(0 -111.56)">
      <path class="a" d="M506.91,56C672.61-14,1011.63-17.63,1168.11,41,1463.86,152,1787.78,581.59,1749.48,930.39c-19.87,181-195.78,327.44-288.92,482.52-250.89,417.77-956,204.37-1255.32-4.24C-134.19,1172.13,88.9,746.25,254.79,372.74,325.43,213.67,349.87,122.32,506.91,56Z"/>
    </clipPath>
  </defs>
  <title>girl</title>
  <g class="b">
    <g>
      <path class="c" d="M581.49,414c159.27-45.11,332.22-52.68,489.73,2,297.72,103.3,506,374.89,488.17,644.53-9.25,139.92-71.06,296.89-154,412.44C1182,1784.22,567.14,1629.14,260.31,1449.5c-347.93-203.69-322.07-605.94-70-827.1C291.88,533.23,430.54,456.76,581.49,414Z" transform="translate(0 -111.56)"/>
      <g class="d">
        <g>
          <path class="e" d="M385.27,209.19c-60.5,93.45-13.92,198.49-9.8,301.59,2.67,66.6-7.88,160.75-64.28,202.65-23.3,17.31-62.08,33.87-92.22,29.26-18.81-2.88-34.25-14-40.47-38.3C158.82,740.9,170.8,809,197.75,840.83c35.79,42.27,85.35,47,138,40.18,143-18.47,184.67-144.74,168.43-280.31-8.72-72.66-21.74-124.58,30.21-179.39,47-49.6,105.7-126.84,66.93-187.61C565.17,177.06,425,147.84,385.27,209.19Z" transform="translate(0 -111.56)"/>
          <path class="e" d="M862.5,139.76c117.11,22,185.87,124.05,211.88,191.5,11.44,29.68.09,99.37-33.77,112.42-26,10-25.18-52.08-29.15-67.1-9.36-35.41-47.52-127.56-67.21-158.8C935.76,204.31,871.21,153.09,862.5,139.76Z" transform="translate(0 -111.56)"/>
          <g>
            <path class="f" d="M501,1792.22c-23.93,42.27-55,221.5-41.56,232.17,11.45,9.13,71.7,24.13,75.89,17.5,15.6-24.84,84-205,84-205s8.72-35.37-29.58-52.79C533.57,1758.53,510.84,1774.73,501,1792.22Z" transform="translate(0 -111.56)"/>
            <path class="g" d="M469.44,1902.57c-11.19,57.7-17.51,115.87-10,121.82,11.45,9.13,71.7,24.13,75.89,17.5,7.87-12.53,29.16-64.58,48.34-113.09,0,0-20.29,5.62-40.09,1.78C490.58,1917.31,469.44,1902.57,469.44,1902.57Z" transform="translate(0 -111.56)"/>
            <path class="f" d="M618.62,1836.83c22.46-43.06,87.69-225.16,73.92-235.36-11.76-8.73-162.33-46.09-166.29-39.32-14.73,25.36-27.42,234.13-27.42,234.13s-7.5,35.65,31.38,51.74C587.18,1871.61,609.33,1854.64,618.62,1836.83Z" transform="translate(0 -111.56)"/>
          </g>
          <g>
            <path class="f" d="M838.39,1826.94c-7.38,48,27.14,226.6,43.47,231.83,13.95,4.47,75.59-2.86,77.16-10.55,5.77-28.76,5.82-221.51,5.82-221.51s-4.38-36.17-46.38-38.87C856.94,1783.87,841.44,1807.09,838.39,1826.94Z" transform="translate(0 -111.56)"/>
            <path class="g" d="M848,1941.3c10,57.92,24.72,114.56,33.81,117.47,13.95,4.47,75.59-2.86,77.16-10.55,2.91-14.5,4.37-70.72,5.09-122.89,0,0-17,12.45-36.86,15.88C873,1947.59,848,1941.3,848,1941.3Z" transform="translate(0 -111.56)"/>
            <path class="f" d="M964.22,1826.93c5.73-48.23,2.16-241.62-14.34-246.29-14.1-4-168.12,14.47-169.43,22.2-4.77,28.94,57.4,228.64,57.4,228.64s5.62,36,47.67,37.26C947.17,1870.6,961.86,1846.88,964.22,1826.93Z" transform="translate(0 -111.56)"/>
          </g>
          <g>
            <path class="h" d="M860.8,2089.4s-1.62,35.73,9.89,39l146.38,4.53,24.16-4.85-12-20.65Z" transform="translate(0 -111.56)"/>
            <path class="i" d="M860.78,2069.64c0-18.63-1.3-37.86,3.27-44.21,4.87-6.79,9.44,20.29,46.76,16.23,33.53-3.65,49-15.26,49-15.26v-11.56s3,7.15,39.68,7.15c11.83,0,28.7-7.15,28.7-7.15l8.9,99.94-114.69-2.34c-3.37.28-6.94.47-10.91.45C853.65,2112.57,860.78,2093.53,860.78,2069.64Z" transform="translate(0 -111.56)"/>
            <path class="g" d="M1025.89,2014.84c.2,0,4.18-3.34,5.78-3.47,54.47-4.49,88.45,31.4,88.46,70.12a56.7,56.7,0,0,1-4,21s-27.68,12.25-84.4,12.36h-.59Z" transform="translate(0 -111.56)"/>
            <path class="h" d="M1031.09,2114.81h.59c56.61-.11,84.3-12.3,84.4-12.35-.52,5.34-1.72,13.16-3.6,18.09,0,0-26.5,12.24-80.8,12.33h-14.62Z" transform="translate(0 -111.56)"/>
            <path class="g" d="M1011.43,2041.66a8.91,8.91,0,0,1-2.08-.45,15.46,15.46,0,0,1-9.08-7.58,14.35,14.35,0,0,1-1.45-4,16.89,16.89,0,0,1-.35-4.83,14.9,14.9,0,0,1,1.56-5.18,11.54,11.54,0,0,1,3.3-4.17,11.34,11.34,0,0,1,4-2.24,9.72,9.72,0,0,1,3.66-.58,11.1,11.1,0,0,1,5.17,1.18,9.79,9.79,0,0,1,1.82,1s-.4.79-1,1.85a33.26,33.26,0,0,0-2.21,3.8,7.55,7.55,0,0,0-.9,2c-.12.65-.48,1.13-.36,1.64a1.51,1.51,0,0,1-.06.58,1.45,1.45,0,0,1,.08.53c-.08.24.07.71-.06,1,0,.51-.15.93-.16,1.62s-.12,1.36-.21,2.14l-.48,5c-.23,1.72-.46,3.33-.71,4.55S1011.43,2041.66,1011.43,2041.66Z" transform="translate(0 -111.56)"/>
            <polygon class="j" points="948.78 1921.71 986.51 1917.4 962.92 1872.85 955.77 1882.9 948.78 1921.71"/>
            <path class="g" d="M987.45,2041.66a9,9,0,0,1-2.08-.45,15.45,15.45,0,0,1-9.07-7.58,14.36,14.36,0,0,1-1.45-4,17.06,17.06,0,0,1-.34-4.83,14.81,14.81,0,0,1,1.55-5.18,11.64,11.64,0,0,1,3.3-4.17,11.35,11.35,0,0,1,4-2.24,9.74,9.74,0,0,1,3.66-.58,11.12,11.12,0,0,1,5.16,1.18,10,10,0,0,1,1.82,1s-.4.79-1,1.85a33.24,33.24,0,0,0-2.22,3.8,7.58,7.58,0,0,0-.9,2c-.12.65-.47,1.13-.36,1.64a1.6,1.6,0,0,1-.06.58,1.39,1.39,0,0,1,.08.53c-.08.24.07.71-.07,1,0,.51-.15.93-.16,1.62s-.12,1.36-.21,2.14c-.18,1.85-.34,3.57-.48,5-.23,1.72-.47,3.33-.71,4.55S987.45,2041.66,987.45,2041.66Z" transform="translate(0 -111.56)"/>
          </g>
          <g>
            <path class="h" d="M424.55,2055.51s-15.32,32.32-6,39.75l133.24,60.79,24.15,4.87-3-23.67Z" transform="translate(0 -111.56)"/>
            <path class="i" d="M432.17,2037.28c7.2-17.18,13.45-35.41,20.12-39.51,7.11-4.37.86,22.36,36.84,33.05,32.33,9.61,51.07,4.88,51.07,4.88l4.47-10.66s0,7.74,33.83,21.94c10.92,4.58,29.23,4.51,29.23,4.51l-30.45,95.6-104.86-46.52c-3.23-1-6.59-2.25-10.24-3.81C409,2074.11,422.93,2059.31,432.17,2037.28Z" transform="translate(0 -111.56)"/>
            <path class="g" d="M605.63,2050.62c.18.08,5.15-1.46,6.67-1,52,16.93,69.41,63.17,54.45,98.88a56.81,56.81,0,0,1-11.84,17.79s-30.27.58-82.62-21.25l-.54-.24Z" transform="translate(0 -111.56)"/>
            <path class="h" d="M571.76,2144.82l.54.24c52.25,21.79,82.49,21.26,82.6,21.26-2.53,4.73-6.67,11.47-10.31,15.29,0,0-29.17,1-79.28-19.89l-13.48-5.67Z" transform="translate(0 -111.56)"/>
            <path class="g" d="M581.92,2069.75a9,9,0,0,1-1.74-1.22,15.74,15.74,0,0,1-3.3-3.88,15.55,15.55,0,0,1-2.13-6.62,14.25,14.25,0,0,1,.21-4.24,17.09,17.09,0,0,1,1.55-4.59,15,15,0,0,1,3.44-4.18,11.62,11.62,0,0,1,4.65-2.56,11.36,11.36,0,0,1,4.54-.53,9.8,9.8,0,0,1,3.6.88,11.11,11.11,0,0,1,4.31,3.08,10,10,0,0,1,1.28,1.66s-.68.58-1.68,1.3a33.67,33.67,0,0,0-3.51,2.64c-.55.53-1.25.85-1.59,1.47s-.87.86-1,1.38a1.4,1.4,0,0,1-.28.51,1.45,1.45,0,0,1-.13.53c-.17.19-.21.68-.46.94-.18.48-.5.8-.77,1.43s-.63,1.21-1,1.89l-2.4,4.47c-.88,1.49-1.72,2.89-2.41,3.93S581.92,2069.75,581.92,2069.75Z" transform="translate(0 -111.56)"/>
            <polygon class="j" points="527.4 1926.22 563.86 1936.85 559.33 1886.64 548.86 1893.14 527.4 1926.22"/>
            <path class="g" d="M559.81,2060.48a9.08,9.08,0,0,1-1.74-1.22,15.46,15.46,0,0,1-5.44-10.5,14.25,14.25,0,0,1,.21-4.25,17.11,17.11,0,0,1,1.55-4.59,15,15,0,0,1,3.44-4.18,11.6,11.6,0,0,1,4.65-2.57,11.35,11.35,0,0,1,4.54-.53,9.76,9.76,0,0,1,3.61.88,11.15,11.15,0,0,1,4.31,3.08,10,10,0,0,1,1.28,1.66s-.68.58-1.68,1.3a33.1,33.1,0,0,0-3.51,2.65c-.55.53-1.25.85-1.59,1.47s-.88.86-1,1.38a1.49,1.49,0,0,1-.28.51,1.42,1.42,0,0,1-.13.53c-.17.19-.21.68-.46.94-.18.47-.5.8-.77,1.43s-.63,1.21-1,1.89l-2.4,4.47c-.88,1.49-1.71,2.89-2.41,3.93S559.81,2060.48,559.81,2060.48Z" transform="translate(0 -111.56)"/>
          </g>
          <path class="j" d="M435.47,1690.1c-10.42,6.94-32.69,15.61-32.14,31.07.56,15.84,155.67,91.69,311.23,91.69,220.55,0,319.31-83.21,334.8-115.7,11.61-24.35-6.12-17.68-23.74-31.7-21.86-17.4-41.44-68.75-50.72-96.19-14.52-42.93-16.09-90.65-45.37-133.79-16.75-24.67-79.39-10.82-108.21-14.66-56.53-7.52-94.87-5.4-159.62,5.88-52.78,9.2-75.86-25.57-114.17,16.09-32.72,35.59-37.66,125.76-44.52,145.42C493.36,1615.92,459.85,1673.87,435.47,1690.1Z" transform="translate(0 -111.56)"/>
          <path class="g" d="M1036.73,1672.15a53,53,0,0,1-11.1-6.67,83.75,83.75,0,0,1-11.54-11.59c-13.49,11.55-33.37,25-61.26,37.8C908.74,1711.92,831.6,1736,714.57,1736c-104.69,0-209.17-35.65-262.65-61.23-5.68,6.51-11.27,11.85-16.44,15.3-2.18,1.45-4.9,3-7.81,4.64,18.75,9.9,42.73,20.26,68.27,29.43,42.37,15.22,127.11,40.76,218.62,40.76C894,1764.94,993,1711.74,1036.73,1672.15Z" transform="translate(0 -111.56)"/>
          <path class="k" d="M506.73,1775.05c12.65,4.41,26.14,8.71,40.29,12.74l111-352.6-2.15-7.52-1.57.23Z" transform="translate(0 -111.56)"/>
          <path class="k" d="M702.57,1812.72l16.28-377.42-5.14-8.55-54,383.17C673.86,1811.39,688.19,1812.36,702.57,1812.72Z" transform="translate(0 -111.56)"/>
          <path class="k" d="M779.53,1440.41l-7.1-7,41.82,373.19q21.76-2.87,41.34-6.82Z" transform="translate(0 -111.56)"/>
          <path class="k" d="M844.24,1421.42l95.65,353.85a367.31,367.31,0,0,0,38.95-18L851.95,1421.14C849.33,1421.24,846.75,1421.34,844.24,1421.42Z" transform="translate(0 -111.56)"/>
          <g>
            <path class="f" d="M872.64,1065s-48.5-26.07-35.49-83.5c9.75-43.06,51.51-36.69,71.8-31.16,54.26,14.81,132.63,27.83,194.77,52.58,63.79,25.42,90,30.7,88.23,43.71-2,14.69-15.33,68.89-32.29,72C1093.14,1130.77,977,1118.84,872.64,1065Z" transform="translate(0 -111.56)"/>
            <path class="l" d="M837.16,981.53c-13,57.43,35.49,83.5,35.49,83.5,65.48,33.77,135.59,51,195.17,56.22,22.65-36.16,27.62-79.93,23.73-122.92-59.93-21.8-131.82-34.1-182.6-48C888.66,944.84,846.9,938.47,837.16,981.53Z" transform="translate(0 -111.56)"/>
            <path class="m" d="M818,975.83c-15.1,66.63,41.19,96.89,41.19,96.89,58.77,30.32,122.34,48,181.06,56.7,52.91-32.42,40.39-134.91,41.69-144.52-62.15-19.08-130.3-31.51-180.61-45.24C877.78,933.24,829.32,925.85,818,975.83Z" transform="translate(0 -111.56)"/>
            <path class="j" d="M1065,979.91q-11.32-3.22-22.76-6.21c3.21,67.73-9.81,119.75-37.19,149.49q12.79,2.62,25.35,4.67C1055.29,1094.24,1067.09,1044,1065,979.91Z" transform="translate(0 -111.56)"/>
            <path class="f" d="M1185.85,1107.15s-26.16,23.92-58.83,3.51c-24.49-15.31-6.72-47.48,3.48-62.67,27.27-40.6,87.94-142.52,129.38-188.14,17.84-19.67,50.15,9.3,46.61,23.35C1292.51,938.28,1254.6,1033.47,1185.85,1107.15Z" transform="translate(0 -111.56)"/>
            <path class="f" d="M1260.72,872.37c-12.66-5.62-18.55-38.4-14.12-40.69,11.55-6,17.64-6.79,18.46-6.43,4-5,5.59-15.32,5.91-15.59,3-14.84,8.77-42.71,10.47-54.29.69-4.75,4-9.9,7.72-9.3,2.66.41,6.35,3.9,5.54,9.5-3,20.35-5.49,51.48-5,51.56,5.39-14.08,15.68-40.85,19.23-52,1.47-4.57,5.6-9.14,9.2-8.06,2.58.77,5.74,4.67,4,10.06-3.66,12.5-13.4,55.24-12.27,55.72,7.88-13.7,19.33-33.64,23.9-42.73,2.18-4.31,7-8.25,10.46-6.72,2.45,1.1,5,5.35,2.44,10.4-5.14,10.78-14.2,31.56-22,47.13.68.5,22.5-22.44,30.26-32,3.08-3.79,7.46-3.59,9.28-2.24,2.55,1.87,1.26,6.91-1.36,10.12-6.58,8.09-22.1,29.37-29.54,39.62-1.84,8.14-9.39,24.61-12.65,30.48-5.25,9.47-8.78,13.1-13.62,14.8l-9.54,3.91S1276.14,888.14,1260.72,872.37Z" transform="translate(0 -111.56)"/>
          </g>
          <path class="n" d="M970.71,1498.23c-116.29-267.33,26.57-496.84-111.93-567.29-27-13.72-75.3-15.36-123.8-15.36-50.84,0-114.35-3-146,12.94-141.55,71.25,21.26,321.12-90.72,572.36C482.38,1536.52,986.27,1534,970.71,1498.23Z" transform="translate(0 -111.56)"/>
          <g>
            <polygon class="j" points="744.1 1135.11 801.6 1167.19 835.86 1123.29 767.07 886.63 757.98 886.63 744.1 1135.11"/>
            <polygon class="g" points="744.73 1123.66 801.54 1152.97 831.29 1107.58 825.4 1087.28 796.04 1132.06 745.71 1106.1 744.73 1123.66"/>
          </g>
          <g>
            <path class="o" d="M689.9,1333.52c9.64-12.43,33.67-19,45.84-28.94a192.75,192.75,0,0,0,41.44-47.32l11.19,13.68-96,78.55S683.48,1341.8,689.9,1333.52Z" transform="translate(0 -111.56)"/>
            <path class="p" d="M693.3,1337.68c9.65-12.42,33.67-19,45.84-28.94a192.63,192.63,0,0,0,41.44-47.32l-3.4-4.16a192.75,192.75,0,0,1-41.44,47.32c-12.17,10-36.19,16.51-45.84,28.94-6.43,8.27,2.43,16,2.43,16l.1-.09A10.16,10.16,0,0,1,693.3,1337.68Z" transform="translate(0 -111.56)"/>
            <path class="p" d="M691.87,1335.93c9.65-12.42,33.68-19,45.85-28.93a192.7,192.7,0,0,0,41.43-47.32l-2-2.42a192.75,192.75,0,0,1-41.44,47.32c-12.17,10-36.19,16.51-45.84,28.94-5.47,7.05.14,13.68,1.93,15.49C689.81,1346,687.88,1341.09,691.87,1335.93Z" transform="translate(0 -111.56)"/>
            <path class="q" d="M528.83,1436.39c-6.37,5.21-14.75,5.51-16.32,3.6s.39-10.05,6.77-15.27,14.74-5.51,16.31-3.6S535.2,1431.18,528.83,1436.39Z" transform="translate(0 -111.56)"/>
            <rect class="r" x="517.41" y="1286.49" width="313.44" height="42.62" transform="translate(-675.72 610.85) rotate(-39.29)"/>
            <path class="o" d="M526.11,1438c7-1.09,14.77-2.54,18.59-3.74,13.78-4.32,21.62-10.73,21.62-10.73l-27-33s-7.44,6.09-15.19,20c-1.85,3.32-4.6,10.23-6.95,16.53Z" transform="translate(0 -111.56)"/>
            <path class="p" d="M801,1215.37,558.38,1413.81s-7.84,6.42-21.62,10.73a160.64,160.64,0,0,1-18,3.65,21.23,21.23,0,0,1-4.17,2c-2.54,4.23-3.15,8.48-2.08,9.79,1.4,1.7,8.2,1.64,14.18-2.09a158.87,158.87,0,0,0,18-3.64c13.78-4.32,21.62-10.73,21.62-10.73l242.62-198.45Z" transform="translate(0 -111.56)"/>
            <path class="p" d="M804.17,1219.24,561.54,1417.69s-7.84,6.42-21.62,10.73a158.76,158.76,0,0,1-18,3.64,20.74,20.74,0,0,1-9.5,3.13c-.58,2.22-.54,4,.09,4.79,1.4,1.7,8.2,1.64,14.18-2.09a158.87,158.87,0,0,0,18-3.64c13.78-4.32,21.62-10.73,21.62-10.73l242.62-198.45Z" transform="translate(0 -111.56)"/>
            <polygon class="o" points="772.23 1153.61 736.35 1109.76 750.05 1098.57 785.91 1142.42 772.23 1153.61"/>
            <rect class="p" x="764.33" y="1243.06" width="17.68" height="18.63" transform="translate(-618.01 660.35) rotate(-39.26)"/>
            <rect class="p" x="767.15" y="1250.95" width="17.68" height="9.73" transform="translate(-619.69 663.31) rotate(-39.27)"/>
            <path class="o" d="M797.65,1241.39l20.91-17.09a17.73,17.73,0,0,0,2.49-24.93l-11.49-14a17.72,17.72,0,0,0-24.93-2.5l-20.91,17.09Z" transform="translate(0 -111.56)"/>
            <g class="s">
              <path class="m" d="M821,1199.36l-11.41-13.95a17.71,17.71,0,0,1-2.5,24.94l-20.9,17.09,11.41,13.95,20.91-17.09A17.73,17.73,0,0,0,821,1199.36Z" transform="translate(0 -111.56)"/>
            </g>
            <g class="s">
              <path class="m" d="M821,1199.36l-6.42-7.85a17.73,17.73,0,0,1-2.5,24.94l-20.9,17.09,6.42,7.85,20.91-17.09A17.73,17.73,0,0,0,821,1199.36Z" transform="translate(0 -111.56)"/>
            </g>
            <rect class="t" x="512.12" y="1301.91" width="294.45" height="5.61" transform="translate(-677.57 601.81) rotate(-39.33)"/>
          </g>
          <g>
            <path class="f" d="M521.7,965.13s44.43-32.52,90.63,4c34.65,27.37,10.88,62.3-2.85,78.22-36.75,42.58-82.29,107.67-131.42,153.06-50.44,46.58-66.53,68-77.49,60.76-12.38-8.17-55.55-43.54-51-60.17C367.3,1135.73,428.15,1036.07,521.7,965.13Z" transform="translate(0 -111.56)"/>
            <path class="l" d="M612.33,969.11c-46.2-36.5-90.63-4-90.63-4C463,1009.65,417.19,1065.46,386.81,1117c22.86,36,60.21,59.39,100.68,74.41,45.52-44.68,87.61-104.23,122-144.07C623.21,1031.41,647,996.48,612.33,969.11Z" transform="translate(0 -111.56)"/>
            <path class="g" d="M625.73,954.3c-53.61-42.36-105.18-4.62-105.18-4.62-52.69,40-96.09,89.68-129.22,138.92,6.45,61.71,104.31,94.61,112.41,99.93,44-47.85,84.61-104,118.7-143.46C638.39,1026.59,665.95,986,625.73,954.3Z" transform="translate(0 -111.56)"/>
            <path class="j" d="M515.56,1175.39q7.78-8.82,15.41-17.86c-62.49-26.31-103.82-60.48-118.85-98q-7.87,10.4-15.15,20.86C416.58,1117.33,456.8,1149.63,515.56,1175.39Z" transform="translate(0 -111.56)"/>
            <path class="f" d="M361.83,1244.41s-25.17-25-6.4-58.59c14.08-25.21,47.09-9,62.76.39,41.89,25.23,146.68,80.82,194.29,120,20.52,16.85-6.82,50.55-21,47.69C535.74,1342.63,438.8,1309.44,361.83,1244.41Z" transform="translate(0 -111.56)"/>
            <path class="f" d="M600,1307.63c5-12.92,43.89-18.11,48.66-19.57,4.3-1.33,17.05-2.36,21.33-1.95,1.63.16,3.05,1.87,2.33,5-2.84,12.29-24.73,17.68-25.05,18.53,5.16,3.76,26.56,9,26.85,9.26,15,2.29,3.5,18.09,3.45,18.63-1.22,5.78-13.44,12-13.44,12s-7.33,20.33-9.59,19.53c-.47.7-4.45,16.31-15,9.38-8.21-1.43-25-8.18-31.07-11.13-9.72-4.77-13.52-8.13-15.46-12.87l-4.38-9.34S585,1323.8,600,1307.63Z" transform="translate(0 -111.56)"/>
          </g>
          <polygon class="j" points="722.92 862.64 767.48 905.29 779.52 850.82 722.92 862.64"/>
          <path class="i" d="M858.78,930.94c-27-13.72-75.3-15.36-123.8-15.36-50.84,0-114.35-3-146,12.94-16.28,8.2,36.38,99.22,74,99.17,33.14,0,63.76-47.88,95-53.49,32-5.76,65.1,39.29,101.05,32.61C881.66,1002.62,872.32,937.83,858.78,930.94Z" transform="translate(0 -111.56)"/>
          <polygon class="u" points="769.17 816 757.98 862.64 668.53 816 668.53 646.84 769.17 646.84 769.17 816"/>
          <path class="l" d="M769.17,851.89l-85.6-42.6c-2.45,1.61-4.89,3.27-7.4,4.82s-5,3.16-7.64,4.91V922.79c8-15.15,10.75-45.77,23.72-43.6,36.73,6.16,60.45,4.62,76.92,1.22Z" transform="translate(0 -111.56)"/>
          <g>
            <path class="f" d="M1044.32,476c0-192.39-113.87-326.7-306.26-326.7S500.75,299.63,500.75,492c0,53.59,9.39,101.89,31,147.24C523.66,657.19,516,827.2,684.81,864.59c232,51.39,359.68-40.08,371.37-153.28,4.27-41.38-21.93-72.56-21.72-92.22C1035,568.86,1044.32,529.54,1044.32,476Z" transform="translate(0 -111.56)"/>
            <path class="l" d="M634.13,500.68c208.29-25.31,356.32-158.9,370.35-201.13-48.86-93.14-140.93-150.29-266.42-150.29-192.41,0-237.31,150.37-237.31,342.76,0,50.46,8.34,96.24,27.35,139.28,6.25-18.57,82.55-164.6,142-181.73C662.2,467.58,654.25,486.69,634.13,500.68Z" transform="translate(0 -111.56)"/>
            <path class="l" d="M703,852.33C534.2,814.94,541.87,644.93,549.95,627c-21.61-45.35-31-93.66-31-147.24,0-131.69,21-243.68,96-301.25C525.15,231.29,500.75,350.24,500.75,492c0,53.59,9.39,101.89,31,147.24C523.66,657.19,516,827.2,684.81,864.59c139.82,31,241.73,10,303.22-36.26C925.46,865.83,829.8,880.42,703,852.33Z" transform="translate(0 -111.56)"/>
            <path class="q" d="M522.67,619.49c4.52-15.5,82-165,142.21-182.39-7.9,18-15.84,37.12-36,51.1,214.8-26.1,365.52-167.36,371.28-204.81,0,0-166.48-336.48-478.38-67.72C375.86,341.44,522.67,619.49,522.67,619.49Z" transform="translate(0 -111.56)"/>
            <path class="v" d="M522.67,619.49c3-10.22,37.7-78.75,78.27-129.2-6.16-21.6-12.56-31.87-36.56-33.23-25.75-1.46-54.3-4.56-77.63-17-12.83-6.86-21-16.37-27.58-26.9C470.16,520,522.67,619.49,522.67,619.49Z" transform="translate(0 -111.56)"/>
            <g>
              <path class="f" d="M592.26,628.11c0,37.75-27.8,68.34-62.08,68.34s-62.08-30.59-62.08-68.34,27.8-68.33,62.08-68.33S592.26,590.37,592.26,628.11Z" transform="translate(0 -111.56)"/>
              <path class="w" d="M534.61,666.67l-1.38.32a21.4,21.4,0,0,1-3.94.64,30.06,30.06,0,0,1-6.45-.08,35.43,35.43,0,0,1-8.26-2,37.42,37.42,0,0,1-9-4.89,38.67,38.67,0,0,1-8.31-8.25,41.1,41.1,0,0,1-5.88-11.27,44.7,44.7,0,0,1-2.14-13,48.76,48.76,0,0,1,.56-6.44,39.12,39.12,0,0,1,1.57-6.61,41,41,0,0,1,5.88-11.28,38.83,38.83,0,0,1,8.31-8.25,37.34,37.34,0,0,1,9-4.89,35.22,35.22,0,0,1,8.26-2,29.17,29.17,0,0,1,6.41-.07,22.63,22.63,0,0,1,4,.64l1.37.33-1.35.46c-.87.31-2.13.62-3.65,1.28a51,51,0,0,0-5.27,2.39,60.1,60.1,0,0,0-6,3.89,44,44,0,0,0-5.89,5.65,39,39,0,0,0-5,7.19,41.43,41.43,0,0,0-3.33,8.48,42.36,42.36,0,0,0-.81,4.37,39.6,39.6,0,0,0-.36,4.85,37.74,37.74,0,0,0,4.48,17.71,38.82,38.82,0,0,0,5,7.2,43.78,43.78,0,0,0,5.9,5.65,58.72,58.72,0,0,0,6,3.89,55.24,55.24,0,0,0,5.23,2.38c1.49.65,2.87,1,3.71,1.28Z" transform="translate(0 -111.56)"/>
              <path class="w" d="M499,624.1l2.37.1c1.47.08,3.5.29,5.91.64a65.67,65.67,0,0,1,17.12,4.83,32.74,32.74,0,0,1,11.34,7.85,37.38,37.38,0,0,1,2.4,3l1.6,2.77a19,19,0,0,1,.89,2.27l.7,2-1.21-1.68a18.49,18.49,0,0,0-1.42-1.83L536.58,642c-.8-.71-1.85-1.29-2.82-2s-2.25-1.12-3.39-1.7a34.46,34.46,0,0,0-7.92-2,56.51,56.51,0,0,0-15.29.17c-2.07.3-3.77.62-4.91.89l-1.72.43-.09,0a6.93,6.93,0,1,1-3.38-13.45A7.11,7.11,0,0,1,499,624.1Z" transform="translate(0 -111.56)"/>
            </g>
            <g class="x">
              <path class="y" d="M871.29,613.84a61,61,0,0,1,8.51,8.68A77.2,77.2,0,0,1,887,632.65a54.33,54.33,0,0,1,3.33,6.43,26.22,26.22,0,0,1,1.35,3.89,11.43,11.43,0,0,1,.2,5.82,8.48,8.48,0,0,1-1.34,2.5,10.39,10.39,0,0,1-1.24,1.27A14.26,14.26,0,0,1,887,654.1a22.89,22.89,0,0,1-4,1.62,44.55,44.55,0,0,1-7.24,1.47,67.49,67.49,0,0,1-12.47.45,57.09,57.09,0,0,1-12.05-1.7s4.62-1.86,11.41-3.8L874,648.88c2-.56,4.05-1.31,5.92-2a22.3,22.3,0,0,0,2.43-1.14,5,5,0,0,0,.63-.44c.1-.06,0,0,0,0s-.54.93-.44,1a5,5,0,0,0-.18-1.14,28.78,28.78,0,0,0-.78-2.78c-.69-2-1.37-4-2.2-6-1.58-4-3.13-7.77-4.34-11.1A114,114,0,0,1,871.29,613.84Z" transform="translate(0 -111.56)"/>
            </g>
            <g>
              <path class="z" d="M750.73,696.6c-2.45,44.08,40.5,88.16,89.39,88.16s89.36-46.29,89.42-88.16Z" transform="translate(0 -111.56)"/>
              <path class="g" d="M750.73,696.6A67.89,67.89,0,0,0,752.1,714a69,69,0,0,0,15.29,7.62c1.33.49,4.21-4.67,5.61-4.2,1.56.51,1.65,6.64,3.31,7.12,15.74,4.52,35.95,7.41,58.18,7.86,2,0,9.36,0,11,0,23.72-.37,45.2-3.53,61.54-8.48a50.6,50.6,0,0,0,9.78-27.32Z" transform="translate(0 -111.56)"/>
            </g>
            <path class="aa" d="M840.12,784.76c16.57,0,32.16-5.33,45.55-14a85.68,85.68,0,0,0-16.8-12.72c-29.56-16.22-74.11-28.61-110.9-26.52C772,761.31,804.47,784.76,840.12,784.76Z" transform="translate(0 -111.56)"/>
            <ellipse class="l" cx="846.37" cy="700.97" rx="12.66" ry="6.02"/>
            <path class="l" d="M665.36,534.09s24.38-41.88,68.54-31.44c0,0-13.84,8.85-32,19.4C687.2,530.61,665.36,534.09,665.36,534.09Z" transform="translate(0 -111.56)"/>
            <path class="l" d="M999.14,535.11s-24.38-41.88-68.55-31.44c0,0,13.85,8.85,32,19.4C977.29,531.63,999.14,535.11,999.14,535.11Z" transform="translate(0 -111.56)"/>
            <g>
              <path class="q" d="M929.54,501.38a19.18,19.18,0,0,1,3.35-2.22,40.51,40.51,0,0,1,9.73-3.81,43.38,43.38,0,0,1,6.91-1.19,50.29,50.29,0,0,1,7.9-.16,51.76,51.76,0,0,1,8.46,1.32,45.7,45.7,0,0,1,8.46,2.92,40.43,40.43,0,0,1,7.82,4.48c2.57,1.53,4.57,3.76,6.6,5.68s3.47,4.31,5,6.33a30.19,30.19,0,0,1,3.32,6.29,28.45,28.45,0,0,1,1.95,5.61c.42,1.72.62,3.27.81,4.52a31.59,31.59,0,0,1,.35,3.95s-1.28-.87-3.17-2.44c-.93-.79-2.09-1.7-3.23-2.81s-2.78-2.07-4.2-3.31a46.34,46.34,0,0,0-4.75-3.65c-1.79-1.11-3.29-2.63-5.28-3.63s-3.65-2.45-5.72-3.38a52.7,52.7,0,0,0-6.08-3c-2-1.09-4.21-1.76-6.32-2.65s-4.32-1.46-6.43-2.23c-2.17-.55-4.25-1.36-6.32-1.82s-4-1.09-5.91-1.56c-3.75-1-7-1.75-9.41-2.31Z" transform="translate(0 -111.56)"/>
              <path class="q" d="M735,501.38l-3.82.93c-2.37.56-5.66,1.33-9.41,2.31-1.88.47-3.86,1-5.91,1.56s-4.16,1.27-6.32,1.82c-2.11.77-4.3,1.4-6.43,2.23s-4.31,1.56-6.31,2.65a52.7,52.7,0,0,0-6.08,3c-2.07.93-3.81,2.31-5.72,3.38s-3.49,2.53-5.28,3.63a45.87,45.87,0,0,0-4.75,3.65c-1.43,1.23-3.11,2.16-4.2,3.31s-2.3,2-3.23,2.81c-1.89,1.56-3.17,2.44-3.17,2.44a31.64,31.64,0,0,1,.35-3.95c.19-1.24.39-2.8.81-4.52a28.4,28.4,0,0,1,1.95-5.61,30.19,30.19,0,0,1,3.32-6.29c1.52-2,2.87-4.47,5-6.33s4-4.15,6.61-5.68a40.43,40.43,0,0,1,7.82-4.48,45.69,45.69,0,0,1,8.46-2.92,51.66,51.66,0,0,1,8.46-1.32,50.3,50.3,0,0,1,7.9.16,43.48,43.48,0,0,1,6.91,1.19,40.59,40.59,0,0,1,9.73,3.81A19.18,19.18,0,0,1,735,501.38Z" transform="translate(0 -111.56)"/>
            </g>
            <g>
              <path class="ab" d="M965.74,580.24a7.06,7.06,0,0,1,.71-.09,18.45,18.45,0,0,0,2.11-.52,20.22,20.22,0,0,0,6-2.88,10.32,10.32,0,0,0,2.47-2.49,6.91,6.91,0,0,0,.79-1.47,6.33,6.33,0,0,0,.47-1.5,11.7,11.7,0,0,0,.1-3.52l.58.83a8.79,8.79,0,0,1,1.32,2.49,8.44,8.44,0,0,1,.5,1.92,10.34,10.34,0,0,1,.16,2.3,15.32,15.32,0,0,1-1.06,5,28.29,28.29,0,0,1-5,8.08,30.32,30.32,0,0,1-2.19,2.31c-.61.57-1.06.91-1,.87Z" transform="translate(0 -111.56)"/>
              <ellipse class="ab" cx="954.68" cy="479.79" rx="19.38" ry="27.74"/>
              <ellipse class="ab" cx="718.85" cy="479.79" rx="19.38" ry="27.74"/>
              <ellipse class="g" cx="963.27" cy="468.25" rx="4.82" ry="8.03"/>
              <ellipse class="g" cx="725.87" cy="468.25" rx="4.82" ry="8.03"/>
              <path class="ab" d="M703,591.6c.07,0-.38-.3-1-.87a31.35,31.35,0,0,1-2.19-2.31,28.25,28.25,0,0,1-5-8.08,15.3,15.3,0,0,1-1.06-5,10.33,10.33,0,0,1,.16-2.3,8.43,8.43,0,0,1,.5-1.93,8.79,8.79,0,0,1,1.32-2.49l.58-.83a11.67,11.67,0,0,0,.1,3.52,6.35,6.35,0,0,0,.47,1.5,7.39,7.39,0,0,0,.79,1.47,10.21,10.21,0,0,0,2.47,2.49,20.2,20.2,0,0,0,6,2.88,19.31,19.31,0,0,0,2.11.52c.45.07.63,0,.71.09Z" transform="translate(0 -111.56)"/>
            </g>
          </g>
          <g>
            <path class="ac" d="M961.49,376.36l1.08-.11C962.2,376.28,961.82,376.31,961.49,376.36Z" transform="translate(0 -111.56)"/>
            <path class="ac" d="M963.91,376.11l2-.23C965.26,375.95,964.58,376.06,963.91,376.11Z" transform="translate(0 -111.56)"/>
          </g>
          <g>
            <g>
              <circle class="ad" cx="710.02" cy="456.99" r="107.39"/>
              <circle class="ae" cx="710.02" cy="456.99" r="107.39"/>
            </g>
            <g>
              <path class="ad" d="M1087.89,568.55a107.39,107.39,0,1,1-107.38-107.4A107.39,107.39,0,0,1,1087.89,568.55Z" transform="translate(0 -111.56)"/>
              <path class="ae" d="M1087.89,568.55a107.39,107.39,0,1,1-107.38-107.4A107.39,107.39,0,0,1,1087.89,568.55Z" transform="translate(0 -111.56)"/>
            </g>
            <path class="af" d="M874,586.08c-.52-13.75-54.77-20.47-59.25,6.75" transform="translate(0 -111.56)"/>
          </g>
          <path class="ag" d="M598.49,566.72l-63.88-7.86L598.49,551a7.92,7.92,0,1,1,1.93,15.72A8.14,8.14,0,0,1,598.49,566.72Z" transform="translate(0 -111.56)"/>
          <g>
            <path class="ah" d="M1217.88,568.68c-3.74.78-8,1.37-12.74,4.16a23.64,23.64,0,0,0-6,4.48c-2.57,2.91-5.18-4-8.41-1.46-.66.52-1.26,1-1.83,1.58l6,28.64a20.51,20.51,0,0,1,3-.49,10.64,10.64,0,1,1,2.34,9.18c-1,1-1.89,2-2.87,3l5.89,28.17a15.36,15.36,0,0,0,4.14-.52,10.65,10.65,0,1,1,4.36,13.58c-1.71.94-3.54,1.7-5.2,2.69l4.33,20.71c2.47.18,4.56,1.53,6.69,2.71a10.66,10.66,0,1,1,5.58,17c-2.09,1.29-4.84,2.12-7.49,3.21l4.5,21.52a15.39,15.39,0,0,1,5.38,1.47,10.64,10.64,0,1,1,4.39,15.05c-1.93.59-4,1.06-6,1.69l4.88,23.34a25.71,25.71,0,0,0,4.69,3.43,10.66,10.66,0,1,1,7.48,14.35,26.83,26.83,0,0,1-6.92,7.33l3.89,18.59a21.53,21.53,0,0,1,5.12.19,10.64,10.64,0,1,1-1.31,7.79,12.63,12.63,0,0,1-2,.55l5.91,28.25c2.87.3,5.29,1.8,7.64,3.53a10.64,10.64,0,1,1-2.13,11.58c-.69.58-1.35,1.17-2,1.8l6.9,33c1.08.13,2.19.33,3.3.57a10.64,10.64,0,1,1,3.72,10.79c-1.22,1.51-2.44,3-3.72,4.42l6,28.9c.81.13,1.62.27,2.45.41a10.66,10.66,0,1,1,5.29,9.12c-1.59,1.47-3.2,2.91-4.85,4.27l3.92,18.73c.78-.17,1.61-.07,2.13-.17a38.79,38.79,0,0,0,4.11,4,10.66,10.66,0,1,1,5.38,16,53.5,53.5,0,0,0-6.51,4.53l2.22,10.64c7.8,1.33,22.26,1.31,30.69-.45l312-65.22-92.36-441.88Z" transform="translate(0 -111.56)"/>
            <path class="ai" d="M1496.12,701.52c19.87,69.91,27.9,159-27.82,215.53-47.3,48-121.48,71.14-184.4,90.59-1.65.51-3.23,1-4.76,1.4l.41,2c7.8,1.33,22.26,1.31,30.69-.45l312-65.22-92.36-441.88-87.82,18.36C1460,581.71,1479.06,641.44,1496.12,701.52Z" transform="translate(0 -111.56)"/>
            <g>
              <g>
                <line class="aj" x1="1225.79" y1="494.93" x2="1537.82" y2="429.71"/>
                <line class="aj" x1="1235.36" y1="540.72" x2="1547.39" y2="475.49"/>
                <line class="aj" x1="1244.93" y1="586.49" x2="1556.96" y2="521.28"/>
                <line class="aj" x1="1254.5" y1="632.28" x2="1566.53" y2="567.06"/>
                <line class="aj" x1="1264.07" y1="678.06" x2="1576.1" y2="612.84"/>
                <line class="aj" x1="1273.63" y1="723.84" x2="1585.67" y2="658.62"/>
                <line class="aj" x1="1283.2" y1="769.62" x2="1595.24" y2="704.4"/>
                <line class="aj" x1="1292.77" y1="815.4" x2="1604.81" y2="750.18"/>
                <line class="aj" x1="1302.34" y1="861.18" x2="1614.38" y2="795.96"/>
              </g>
              <line class="ak" x1="1248.14" y1="450.79" x2="1340.51" y2="892.67"/>
            </g>
            <path class="ai" d="M1519.63,593.93c.34,1.29.64,2.58.95,3.88,14.6,62.06,20.23,124.9,29,187.86,3.83,27.61,10,56.53,4.57,84.36-13,66.36-71.76,90.68-128.26,109.88-10.9,3.71-50.9,12.12-88.08,24.9l284.47-59.46-92.36-441.88-27,5.64C1500.66,538.33,1512.59,566.06,1519.63,593.93Z" transform="translate(0 -111.56)"/>
          </g>
          <path class="f" d="M1257.51,860.31s19.3-16.23,34-33.32c4.88-5.68,5.14-11.52,2.89-14.26-3.15-3.86-10.55-2-16.52.19-14.25,5.19-24.07,13.51-29.46,20.87-3.47,4.74-5.15,9.1-1.22,18.6A12.93,12.93,0,0,0,1257.51,860.31Z" transform="translate(0 -111.56)"/>
        </g>
      </g>
    </g>
  </g>
</svg>
