<svg xmlns="http://www.w3.org/2000/svg" xmlns:xlink="http://www.w3.org/1999/xlink" width="2827.73" height="1734.72"><defs><linearGradient id="c" x1="1417.8" y1="1198.16" x2="1445.86" y2="1146.76" gradientUnits="userSpaceOnUse"><stop offset="0" stop-color="#fff"/><stop offset="1"/></linearGradient><linearGradient id="d" x1="1953" y1="828.41" x2="1953" y2="2225.05" gradientUnits="userSpaceOnUse"><stop offset="0" stop-color="#f2f2f2"/><stop offset="1" stop-color="#fcfcfc"/></linearGradient><linearGradient id="e" x1="1703.86" y1="1364.53" x2="2634.64" y2="1364.53" gradientUnits="userSpaceOnUse"><stop offset="0" stop-color="#dbdbe6"/><stop offset="1" stop-color="#fff"/></linearGradient><linearGradient id="f" x1="1820.83" y1="-11245.08" x2="1820.83" y2="-10883.78" gradientTransform="matrix(1 0 0 -1 0 -9945.25)" gradientUnits="userSpaceOnUse"><stop offset="0" stop-color="#fcfcfc"/><stop offset="1" stop-color="#fdfdfd"/></linearGradient><linearGradient id="g" x1="1918.23" y1="-11245.08" x2="1918.23" y2="-10883.78" xlink:href="#f"/><linearGradient id="h" x1="2075.67" y1="887.77" x2="2075.67" y2="1613.28" xlink:href="#f"/><linearGradient id="i" x1="2233.31" y1="887.77" x2="2233.31" y2="1613.28" xlink:href="#f"/><linearGradient id="j" x1="2391.9" y1="887.77" x2="2391.9" y2="1613.28" xlink:href="#f"/><linearGradient id="k" x1="2519.67" y1="887.77" x2="2519.67" y2="1613.28" xlink:href="#f"/><linearGradient id="l" x1="2431.44" y1="887.77" x2="2431.44" y2="1613.28" xlink:href="#f"/><linearGradient id="m" x1="1750.05" y1="-11245.08" x2="1750.05" y2="-10883.78" xlink:href="#f"/><linearGradient id="n" x1="1819.37" y1="1768.26" x2="1819.37" y2="271.09" gradientUnits="userSpaceOnUse"><stop offset="0" stop-color="#eeeefa"/><stop offset="1" stop-color="#fff"/></linearGradient><linearGradient id="o" x1="1274.73" y1="610.76" x2="1274.73" y2="1354.52" xlink:href="#e"/><linearGradient id="p" x1="926.31" y1="1315.08" x2="926.31" y2="548.92" xlink:href="#f"/><linearGradient id="q" x1="1023.71" y1="1565.46" x2="1023.71" y2="677.37" xlink:href="#f"/><linearGradient id="r" x1="1181.15" y1="1565.45" x2="1181.15" y2="677.37" xlink:href="#f"/><linearGradient id="s" x1="1338.79" y1="1565.46" x2="1338.79" y2="677.37" xlink:href="#f"/><linearGradient id="t" x1="1497.38" y1="1565.46" x2="1497.38" y2="677.37" xlink:href="#f"/><linearGradient id="u" x1="1625.15" y1="1565.46" x2="1625.15" y2="677.37" xlink:href="#f"/><linearGradient id="v" x1="1536.92" y1="1565.46" x2="1536.92" y2="677.37" xlink:href="#f"/><linearGradient id="w" x1="855.53" y1="1315.08" x2="855.53" y2="548.93" xlink:href="#f"/><linearGradient id="x" x1="2169.25" y1="610.76" x2="2169.25" y2="1354.52" xlink:href="#e"/><linearGradient id="y" x1="1820.83" y1="1565.46" x2="1820.83" y2="677.37" xlink:href="#f"/><linearGradient id="z" x1="1918.23" y1="1565.46" x2="1918.23" y2="677.37" xlink:href="#f"/><linearGradient id="aa" x1="2075.67" y1="1565.45" x2="2075.67" y2="677.37" xlink:href="#f"/><linearGradient id="ab" x1="2233.31" y1="1565.46" x2="2233.31" y2="677.37" xlink:href="#f"/><linearGradient id="ac" x1="2391.9" y1="1565.46" x2="2391.9" y2="677.37" xlink:href="#f"/><linearGradient id="ad" x1="2519.67" y1="1565.46" x2="2519.67" y2="677.37" xlink:href="#f"/><linearGradient id="ae" x1="2431.44" y1="1565.46" x2="2431.44" y2="677.37" xlink:href="#f"/><linearGradient id="af" x1="1750.05" y1="1565.45" x2="1750.05" y2="677.37" xlink:href="#f"/><linearGradient id="ag" x1="2005.68" y1="1558.05" x2="2005.68" y2="885.53" xlink:href="#e"/><linearGradient id="ah" x1="2936.02" y1="-456.64" x2="3261.3" y2="-456.64" gradientTransform="rotate(23.31 -588.586 -5111.899)" gradientUnits="userSpaceOnUse"><stop offset="0" stop-color="#ff9f55"/><stop offset="1" stop-color="#ffd255"/></linearGradient><linearGradient id="ai" x1="3138.1" y1="-716.6" x2="3287.22" y2="-716.6" xlink:href="#ah"/><linearGradient id="aj" x1="1325.5" y1="681.55" x2="1347.04" y2="747.91" xlink:href="#ah"/><linearGradient id="ak" x1="1489.88" y1="447.47" x2="1530.49" y2="572.58" xlink:href="#ah"/><linearGradient id="al" x1="1501.78" y1="484.14" x2="1518.58" y2="535.9" xlink:href="#ah"/><linearGradient id="am" x1="486.81" y1="1620.88" x2="486.81" y2="1464.68" xlink:href="#ah"/><linearGradient id="an" x1="481.29" y1="1268.68" x2="481.29" y2="1484.92" gradientUnits="userSpaceOnUse"><stop offset="0" stop-color="#40d5e6"/><stop offset="1" stop-color="#57f"/></linearGradient><linearGradient id="ao" x1="630.11" y1="1279.05" x2="630.11" y2="1117.39" gradientTransform="rotate(-180 630.11 1214.905)" xlink:href="#ah"/><linearGradient id="ap" x1="445.09" y1="844.39" x2="445.09" y2="1026.01" xlink:href="#an"/><linearGradient id="aq" x1="582.17" y1="754.84" x2="582.17" y2="900.1" xlink:href="#an"/><linearGradient id="ar" x1="1651.14" y1="1662" x2="1651.14" y2="1612.49" xlink:href="#ah"/><linearGradient id="as" x1="1649.4" y1="1550.36" x2="1649.4" y2="1618.9" xlink:href="#an"/><linearGradient id="at" x1="1696.57" y1="1553.65" x2="1696.57" y2="1502.4" gradientTransform="rotate(-180 1696.57 1533.315)" xlink:href="#ah"/><linearGradient id="au" x1="1637.92" y1="1415.87" x2="1637.92" y2="1473.44" xlink:href="#an"/><linearGradient id="av" x1="1681.37" y1="1387.49" x2="1681.37" y2="1433.53" xlink:href="#an"/><linearGradient id="aw" x1="1415.5" y1="1158" x2="1491.03" y2="1158" xlink:href="#ah"/><linearGradient id="az" x1="1417.8" y1="1198.16" x2="1445.86" y2="1146.76" gradientUnits="userSpaceOnUse"><stop offset="0" stop-color="#ffa155"/><stop offset="1" stop-color="#ffa155"/></linearGradient><linearGradient id="ba" x1="1427.33" y1="1125.29" x2="1445.48" y2="1092.04" gradientUnits="userSpaceOnUse"><stop offset=".01" stop-color="#e6e6e6"/><stop offset="1" stop-color="#ffdcc2"/></linearGradient><linearGradient id="bb" x1="1448.65" y1="1125.17" x2="1461.96" y2="1100.79" xlink:href="#ba"/><linearGradient id="bc" x1="1416.3" y1="1125.17" x2="1429.61" y2="1100.79" xlink:href="#ba"/><filter id="b" x="1415.5" y="-9016.71" width="48.46" height="32766" filterUnits="userSpaceOnUse" color-interpolation-filters="sRGB"><feFlood flood-color="#fff" result="bg"/><feBlend in="SourceGraphic" in2="bg"/></filter><filter id="ay" x="1415.5" y="1124.86" width="48.46" height="66.28" filterUnits="userSpaceOnUse" color-interpolation-filters="sRGB"><feFlood flood-color="#fff" result="bg"/><feBlend in="SourceGraphic" in2="bg"/></filter><style>.af{fill:#fafafa}.ai{fill:#fff}.am{fill:#b8d6ff}.as{fill:#ff9f55}.at{fill:#eff7fe}.av{fill:#5284fc}.bf{fill:#c9c5b4}.bg{fill:#292c47}.bi{fill:#de9673}.bk{fill:#eea886}.bm{fill:#ded1c5}.br{fill:#cfc147}.bs{fill:#a09832}.bt{fill:#727643}.co{fill:#d0e5f5}</style><mask id="ax" x="1415.5" y="1124.86" width="48.46" height="66.28" maskUnits="userSpaceOnUse"><g mask="url(#a)" filter="url(#ay)"><path d="M1464 1191.13h-39.23l-9.24-66.28h21.24s-7.63 59.82 27.22 66.28z" style="mix-blend-mode:multiply" fill="url(#c)"/></g></mask></defs><path fill="url(#d)" d="M1078.28 1109.48h1749.44v614.87H1078.28z"/><path fill="url(#e)" d="M1703.86 1155.68v154.63h60.24v103.42h70.29v-86.35h54.22v123.5h-11.04v20.08h124.5v-21.08h-12.05v-118.49h29.12v-28.11h53.22v216.88l53.21 53.22 18.07-18.08h17.69v-301.22h60.63v24.1l46.19 46.19h37.15v-70.29h38.16v180.74h61.24v-130.53h50.21v-98.41h66.27v108.45h113.46v-158.65h-930.78z"/><path fill="url(#f)" d="M1807.28 1155.68h27.11v258.05h-27.11z"/><path fill="url(#g)" d="M1946.18 1470.96v-226.25h-59.58v-54.22h-52.21v-34.81h155.63v294.2h12.05v21.08h-55.89z"/><path fill="url(#h)" d="M2125.57 1573.38v-356.45h-52.21v86.35h-29.12v-76.31h-54.22v-71.29h171.31v399.62h-17.69l-18.07 18.08z"/><path fill="url(#i)" d="M2268.15 1324.37v-95.39l-33.39-33.39h-25.85v-17.32h-47.58v-22.59h143.97v168.69h-37.15z"/><path fill="url(#j)" d="M2379.1 1155.68h25.6v279.13h-25.6z"/><path fill="url(#k)" d="M2634.64 1314.33h-47.19v-118.49h-34.14v-23.42H2404.7v-16.74h229.94v158.65z"/><path fill="url(#l)" d="M2454.91 1304.29h-19.58v-111.96l-27.36-27.36h46.94v139.32z"/><path fill="url(#m)" d="M1735.99 1155.68h28.11v154.63h-28.11z"/><path d="M2827.71 1109v41.42c-2.33.87-4.88 1.71-7.68 2.51-1.82.51-3.71 1.06-5.71 1.53a295.53 295.53 0 01-36 6c-11.72 1.31-39.86 2.29-79.53 3.6-3.57.15-7.24.29-11 .4-43.39 1.49-98.79 3.49-160.85 6.81-3.64.22-7.32.4-11 .62-38.47 2.15-79.28 4.8-121.17 8.19-3.68.33-7.35.62-11 .91-52.85 4.4-107.27 10-160.82 17.11-3.68.51-7.35 1-11 1.49-41.39 5.71-82.19 12.34-121.17 20.13-3.68.73-7.35 1.46-11 2.22-31.67 6.52-62.1 13.8-90.6 22-6.84 1.93-13.61 3.93-20.24 6-5.75 1.78-11.39 3.6-17 5.46-172.46 57.88-254.11 153.79-74.84 314.35 51.32 46 124.09 97.3 222.22 154.52H811v-621.75h2005.42s1.38.69 3.6 1.93c2.04 1.09 4.74 2.65 7.69 4.55z" fill="url(#n)"/><path fill="url(#o)" d="M809.34 1142.38V987.75h60.24V884.33h70.29v86.35h54.22v-123.5h-11.05V827.1h124.51v21.09h-12.05v118.48h29.12v28.11h53.22V777.9l53.21-53.21 18.08 18.07h17.68v301.22h60.63v-24.1l46.19-46.18h37.15v70.28h38.15V863.25h61.25v130.53h50.21v98.4h66.27V983.74h113.46v158.64H809.34z"/><path fill="url(#p)" d="M912.76 884.33h27.11v258.05h-27.11z"/><path fill="url(#q)" d="M1051.66 827.1v226.25h-59.58v54.22h-52.21v34.81h155.63V848.19h12.05V827.1h-55.89z"/><path fill="url(#r)" d="M1231.05 724.69v356.44h-52.21v-86.35h-29.12v76.31h-54.22v71.29h171.31V742.76h-17.68l-18.08-18.07z"/><path fill="url(#s)" d="M1373.63 973.7v95.38l-33.39 33.39h-25.85v17.32h-47.58v22.59h143.97V973.7h-37.15z"/><path fill="url(#t)" d="M1484.58 863.25h25.6v279.13h-25.6z"/><path fill="url(#u)" d="M1740.12 983.74h-63.19v118.48h-18.14v23.43h-148.61v16.73h229.94V983.74z"/><path fill="url(#v)" d="M1560.39 993.78h-19.58v111.95l-27.36 27.36h46.94V993.78z"/><path fill="url(#w)" d="M841.47 987.75h28.11v154.63h-28.11z"/><path fill="url(#x)" d="M1703.86 1142.38V987.75h60.24V884.33h70.29v86.35h54.22v-123.5h-11.04V827.1h124.5v21.09h-12.05v118.48h29.12v28.11h53.22V777.9l53.21-53.21 18.07 18.07h17.69v301.22h60.63v-24.1l46.19-46.18h37.15v70.28h38.16V863.25h61.24v130.53h50.21v98.4h66.27V983.74h113.46v158.64h-930.78z"/><path fill="url(#y)" d="M1807.28 884.33h27.11v258.05h-27.11z"/><path fill="url(#z)" d="M1946.18 827.1v226.25h-59.58v54.22h-52.21v34.81h155.63V848.19h12.05V827.1h-55.89z"/><path fill="url(#aa)" d="M2125.57 724.69v356.44h-52.21v-86.35h-29.12v76.31h-54.22v71.29h171.31V742.76h-17.69l-18.07-18.07z"/><path fill="url(#ab)" d="M2268.15 973.7v95.38l-33.39 33.39h-25.85v17.32h-47.58v22.59h143.97V973.7h-37.15z"/><path fill="url(#ac)" d="M2379.1 863.25h25.6v279.13h-25.6z"/><path fill="url(#ad)" d="M2634.64 983.74h-47.19v118.48h-34.14v23.43H2404.7v16.73h229.94V983.74z"/><path fill="url(#ae)" d="M2454.91 993.78h-19.58v111.95l-27.36 27.36h46.94V993.78z"/><path fill="url(#af)" d="M1735.99 987.75h28.11v154.63h-28.11z"/><path class="af" d="M1074.64 1133.33s79.68-36.22 96-25.35 90.54-13.12 143.06-2 83.3 36.84 134 12.19 110.46-15.2 119.52 0 21.73 8.35 79.68 0 54.33-4.73 130.38 15.19 126.05 19.92 126.05 19.92h-828.69z"/><path class="af" d="M964.21 1176.18s18.11-66.4 112.27-33.8 114.69 72.43 251.1 67.6 196.78 60.36 252.31 59.15 58.5 25.35 58.5 25.35H940.06z"/><path d="M2446.87 1153.27c-8 .23-103.49 3.39-223.93 16.59-3.64.4-7.3.81-11 1.24-93.52 10.61-200.61 27.28-293 53.25q-5.53 1.53-11 3.13a767 767 0 00-80.27 28c-89.15 37.42-146.53 88.26-130.77 157.33 22.87 100.17 140.91 208.68 293.78 311.55h-266.5c-68.56-74.05-123.23-152.45-147.17-229.85-35.33-114.24 6.5-189.32 98.18-239 59.23-32.16 139.27-53.73 232.74-68.45q5.46-.86 11-1.68c88.21-13.27 187.89-20.68 293-25.3 3.66-.17 7.33-.32 11-.47 72.81-3.11 148.12-4.88 223.94-6.34z" fill="url(#ag)"/><path class="af" d="M1554.7 1138.76s56.14 17.2 94.16-13.13 132.19-27.62 173.84 0 92.35 12.09 117.7-1.88 74.24-10 135.81 4.34 61.57-6.22 123.14-4.34 248.09 29.49 248.09 29.49h-918.1z"/><path class="af" d="M2218.6 1153.25s70-55.64 106.28-40.25 69.34 34.6 94.1 18.78 64.39-17.21 75.94-3.2 52.91 5.65 74.52 3.2c58.17-6.61 81.49 21.47 81.49 21.47z"/><path d="M1696.9 1724.35h-714v-78.85s34.16-62.21 90.18-75.69a91.47 91.47 0 0143 0 117.39 117.39 0 0132.2 13.25c99.27 58.08 184.5-13.14 251.87 71.35s138.35-26.9 257.68 42.38a246.21 246.21 0 0139.07 27.56z" fill="#e7e7e7"/><circle class="ai" cx="2018.83" cy="470.32" r="6.32"/><circle class="ai" cx="2305.3" cy="827.1" r="6.32"/><circle class="ai" cx="1882.03" cy="316.87" r="6.32"/><circle class="ai" cx="1921.9" cy="627.13" r="11.94"/><circle class="ai" cx="1328.31" cy="129.11" r="9.88"/><circle class="ai" cx="1828.97" cy="424.74" r="9.66" transform="rotate(-76.5 1829.029 424.715)"/><circle class="ai" cx="1921.9" cy="129.11" r="6.32"/><circle class="ai" cx="2002.79" cy="9.66" r="4.54" transform="rotate(-76.5 2002.799 9.652)"/><circle class="ai" cx="1828.97" cy="760.85" r="4.54" transform="rotate(-76.5 1829.094 760.812)"/><circle class="ai" cx="1756.64" cy="9.66" r="9.66" transform="rotate(-76.5 1756.7 9.612)"/><circle class="ai" cx="2202.61" cy="651.02" r="11.94"/><circle class="ai" cx="1646.89" cy="201.45" r="11.94"/><circle class="ai" cx="2156.65" cy="21.6" r="11.94"/><circle class="ai" cx="2129.21" cy="310.55" r="4.54" transform="rotate(-76.5 2129.193 310.554)"/><circle class="ai" cx="2431.44" cy="760.85" r="4.54" transform="rotate(-76.5 2431.502 760.82)"/><circle class="ai" cx="1304.38" cy="564.28" r="4.54" transform="rotate(-76.5 1304.363 564.287)"/><circle class="ai" cx="2655.47" cy="718.36" r="4.54" transform="rotate(-76.5 2655.48 718.359)"/><circle class="ai" cx="1595.1" cy="602.17" r="11.94"/><circle class="ai" cx="1607.04" cy="378.28" r="4.54" transform="rotate(-76.5 1607.114 378.252)"/><path fill="#eef6fa" d="M0 1525.41h2827.73v209.31H0z"/><path d="M1094.28 643.85a139.33 139.33 0 00.53-38.91l23-15-11-27.67-11-27.67-27 4.91a139.36 139.36 0 00-27.11-27.92l5.66-26.8-27.36-11.74-27.35-11.78-15.59 22.52a139.39 139.39 0 00-38.91-.53l-15-23-27.67 11-27.67 11 4.91 27a139.35 139.35 0 00-27.92 27.11l-26.8-5.66-11.78 27.35-11.72 27.34L817 601a139.39 139.39 0 00-.53 38.91l-23 15 11 27.67 11 27.67 27-4.91a139.41 139.41 0 0027.11 27.92L863.95 760l27.35 11.78 27.35 11.78L934.23 761a139.39 139.39 0 0038.91.53l15 23 27.67-11 27.67-11-4.91-27a139.4 139.4 0 0027.92-27.11l26.8 5.66 11.71-27.3 11.78-27.35zm-179.92 74.39a104.34 104.34 0 11137.11-54.53 104.34 104.34 0 01-137.11 54.53z" fill="url(#ah)"/><path class="am" d="M1639.72 785.22h82.86v6.18h-82.86zm0 8.89h82.86v16.75h-82.86zm13.78-138.79v56.03h-137.36v9.85h137.36v8.71h-137.36v41.39h143.55V655.32h-6.19z" opacity=".44"/><path d="M1226.77 438.61a63.94 63.94 0 00.24-17.84l10.53-6.86-5-12.68-5-12.69-12.36 2.25a63.86 63.86 0 00-12.43-12.8l2.6-12.28-12.54-5.4-12.54-5.4-7.27 10.32a63.94 63.94 0 00-17.84-.24l-6.86-10.53-12.68 5-12.69 5 2.25 12.36a63.87 63.87 0 00-12.8 12.43l-12.29-2.6-5.4 12.54-5.4 12.54 10.32 7.15a63.87 63.87 0 00-.24 17.84l-10.53 6.86 5 12.68 5 12.69 12.36-2.25a63.86 63.86 0 0012.43 12.8l-2.6 12.29 12.54 5.4 12.54 5.4 7.15-10.32a63.9 63.9 0 0017.84.24l6.86 10.53 12.68-5 12.69-5-2.25-12.36a63.86 63.86 0 0012.8-12.43l12.29 2.6 5.4-12.54 5.4-12.54zm-82.48 34.11a47.83 47.83 0 1162.86-25 47.84 47.84 0 01-62.86 24.99z" fill="url(#ai)"/><path d="M1323.23 755.64l-48.58-42.35a9.57 9.57 0 1112.58-14.43l34.35 29.95 49-54.64a9.57 9.57 0 0114.25 12.78z" fill="url(#aj)"/><path d="M1510.18 578.72a8.68 8.68 0 01-8.68-8.68V450a8.68 8.68 0 0117.36 0v120a8.68 8.68 0 01-8.68 8.72z" fill="url(#ak)"/><path d="M1570.2 518.7h-120a8.68 8.68 0 010-17.36h120a8.68 8.68 0 010 17.36z" fill="url(#al)"/><path d="M231.46 1488.16h550.89v145.64H231.46a40.2 40.2 0 01-40.2-40.2v-65.25a40.2 40.2 0 0140.2-40.19z" fill="url(#am)"/><path class="as" d="M877 1503.15v115.67h9.66v15H487.32a40.2 40.2 0 01-40.2-40.2v-65.26a40.2 40.2 0 0140.2-40.2h399.3v15z"/><path class="at" d="M516.79 1503.15H877v115.67H516.79a40.2 40.2 0 01-40.2-40.2v-35.27a40.2 40.2 0 0140.2-40.2z"/><path d="M205 1318.77h603.09v169.38H205a50.51 50.51 0 01-50.51-50.51v-68.37a50.51 50.51 0 0150.51-50.5z" fill="url(#an)"/><path class="av" d="M915.06 1336.21v134.52h8.32v17.44h-328a50.51 50.51 0 01-50.51-50.51v-68.37a50.51 50.51 0 0150.51-50.51h328v17.43z"/><path class="at" d="M620.77 1336.2h294.29v134.51H620.77a50.51 50.51 0 01-50.51-50.51v-33.5a50.51 50.51 0 0150.51-50.5z"/><path d="M428.26 1111.07h458.36v207.66H428.26a54.66 54.66 0 01-54.66-54.66v-98.34a54.66 54.66 0 0154.66-54.66z" transform="rotate(180 630.11 1214.905)" fill="url(#ao)"/><path class="as" d="M291.48 1132.45v164.92h-8.39v21.38h326.8a54.66 54.66 0 0054.66-54.66v-98.35a54.66 54.66 0 00-54.66-54.66h-326.8v21.38z"/><path class="at" d="M580.48 1297.37h-289v-164.92h289a54.33 54.33 0 0154.33 54.36v56.25a54.33 54.33 0 01-54.33 54.31z"/><path d="M230.8 903.36h486V1111h-486a57.46 57.46 0 01-57.46-57.46v-92.72a57.46 57.46 0 0157.46-57.46z" fill="url(#ap)"/><path class="av" d="M803.83 924.74v164.92h8.88V1111H466.06a57.46 57.46 0 01-57.46-57.46v-92.71a57.46 57.46 0 0157.46-57.46h346.65v21.38z"/><path class="at" d="M496 924.73h307.82v164.92H496a57.22 57.22 0 01-57.22-57.22V982A57.22 57.22 0 01496 924.73z"/><path d="M346.09 746.15h507.83V903.3H346.09a35.67 35.67 0 01-35.67-35.67v-85.81a35.67 35.67 0 0135.67-35.67z" fill="url(#aq)"/><path class="av" d="M940.91 762.33v124.8h8.88v16.18H581.35a35.67 35.67 0 01-35.67-35.67v-85.82a35.67 35.67 0 0135.67-35.67H949.8v16.18z"/><path class="at" d="M608.45 762.32H940.9v124.8H608.45a35.67 35.67 0 01-35.67-35.67V798a35.67 35.67 0 0135.67-35.68z"/><path d="M1570.21 1619.93h174.62v46.17h-174.62a12.74 12.74 0 01-12.74-12.74v-20.68a12.74 12.74 0 0112.74-12.75z" fill="url(#ar)"/><path class="as" d="M1774.81 1624.68v36.66h3.06v4.75h-126.56a12.74 12.74 0 01-12.74-12.74v-20.68a12.74 12.74 0 0112.74-12.74h126.57v4.75z"/><path class="at" d="M1660.65 1624.68h114.16v36.66h-114.16a12.74 12.74 0 01-12.74-12.74v-11.18a12.74 12.74 0 0112.74-12.74z"/><path d="M1561.82 1566.24H1753v53.69h-191.18a16 16 0 01-16-16v-21.67a16 16 0 0116-16.02z" fill="url(#as)"/><path class="av" d="M1786.89 1571.76v42.64h2.64v5.53h-104a16 16 0 01-16-16v-21.67a16 16 0 0116-16h104v5.53z"/><path class="at" d="M1693.61 1571.76h93.28v42.64h-93.28a16 16 0 01-16-16v-10.62a16 16 0 0116-16.02z"/><path d="M1632.59 1500.4h145.29v65.82h-145.29a17.33 17.33 0 01-17.33-17.33v-31.17a17.33 17.33 0 0117.33-17.32z" transform="rotate(180 1696.57 1533.315)" fill="url(#at)"/><path class="as" d="M1589.23 1507.18v52.27h-2.66v6.78h103.59a17.32 17.32 0 0017.33-17.33v-31.17a17.32 17.32 0 00-17.33-17.33h-103.59v6.78z"/><path class="at" d="M1680.83 1559.45h-91.6v-52.27h91.6a17.22 17.22 0 0117.22 17.22v17.83a17.22 17.22 0 01-17.22 17.22z"/><path d="M1570 1434.56h154.06v65.82H1570a18.21 18.21 0 01-18.21-18.21v-29.4a18.21 18.21 0 0118.21-18.21z" fill="url(#au)"/><path class="av" d="M1751.63 1441.34v52.27h2.82v6.77h-109.88a18.21 18.21 0 01-18.21-18.21v-29.4a18.21 18.21 0 0118.21-18.21h109.88v6.78z"/><path class="at" d="M1654.05 1441.34h97.58v52.27h-97.58a18.14 18.14 0 01-18.14-18.14v-16a18.14 18.14 0 0118.14-18.13z"/><path d="M1606.54 1384.73h161v49.81h-161a11.31 11.31 0 01-11.31-11.31V1396a11.31 11.31 0 0111.31-11.27z" fill="url(#av)"/><path class="av" d="M1795.08 1389.86v39.56h2.82v5.13h-116.79a11.31 11.31 0 01-11.31-11.31V1396a11.31 11.31 0 0111.31-11.31h116.79v5.13z"/><path class="at" d="M1689.7 1389.86h105.38v39.56H1689.7a11.31 11.31 0 01-11.31-11.31v-16.95a11.31 11.31 0 0111.31-11.3z"/><path d="M1397.74 1637.75l-42.11-280.07 8.11-1.25 42.11 280.08-8.11 1.24zm-51.42 0l-42.11-280.07 8.11-1.25 42.11 280.08-8.11 1.24zm-253.3 0l-8.11-1.24 42.11-280.08 8.11 1.25-42.11 280.07z" fill="#5c5049"/><path class="bf" d="M1368.81 1360.53l33-347.07s-57.7-7.55-92.56-5.69l-52.4 352.76z"/><path class="bf" d="M1256.84 1342.89h111.97v17.64h-111.97zm-73.26 3.5l-17.5-330.75s146-15.86 235.72-2.19z"/><path class="bg" d="M1300.19 908.55s22.55-66.12-20.48-86.62-79.56 9.13-86.46 25.17-5.07 45.19.81 65.52 5 51.28-7.76 61.63-28.64 27.54-27.86 62.54c.49 21.71 85.43-55.53 85.43-55.53z"/><path d="M1242.78 1620.09s-1.34 46.73 5.33 49.54 31.93-13.44 43.07-29.51-14-53.47-18.08-74.1c-1.72-8.64-21.35-24.18-30.92-19.73s-16.56 15.86-16.56 15.86 24.38 16.68 17.16 57.94z" fill="#d4c3bd"/><path class="bi" d="M1225.63 1562.15s8.29 15.94 12.55 28.32 5.06 46.64 7.74 49 23.85-8.3 26.67-21.11-5.76-38.42-13.93-51.89-16.48-20.2-16.48-20.2-14.42 2.82-16.55 15.88z"/><path class="bi" d="M1191.24 1199s11.12 18.78 0 32.45-85.89 51.23-85.34 72.92 14.24 55.65 19.17 64.26 23.08 44.36 32.51 65.28 64 121 74.65 143.56 4.1-90.24 4.1-90.24l-54.55-160 127.46-124.17s-15.43-34.26-118-4.06z"/><path d="M1239.73 987.21s-35.37 7.84-49.4 16-45.21 45.94-45.21 62.16 136.33 31.38 136.33 31.38l25.84 94.34s68.91-16.82 77.11-30.76-27.13-113.2-32.05-134.12-30.7-35-59.41-39a197.14 197.14 0 00-53.21 0z" fill="#d44040"/><path class="bk" d="M1323.32 1202.14s-2.46 16.13 4.1 23 36.79 46.7 20.78 85.86c-14.7 36-43.21 35.27-43.21 35.27h-44.12s12.81 64.73 8.67 107.39-23.59 140.06-24 145-18.65 20.31-24 12.52c0 0-.49-58.65-3.37-80.8s-15.09-110.74-18.78-123.87-25.43-52.91-25.43-57-21.23-68.31 25.12-84.72 62.75-62.31 124.24-62.65z"/><path d="M1199.6 1656.37s-30.43 35.49-27 41.87 33.28 9.63 52 4.14 22.77-50.35 32.55-69c4.09-7.8-1.39-32.23-11.63-34.78s-22.85 1.92-22.85 1.92 8.47 28.31-23.07 55.85z" fill="#e6d3cc"/><path class="bk" d="M1222.7 1600.54s-3.58 17.61-8.05 29.91-25.4 39.44-24.8 43 23.76 8.54 34 .36 19.69-33.49 21.8-49.1-.11-26.07-.11-26.07-12.97-6.91-22.84 1.9z"/><path class="bg" d="M1348.2 1311c-13.88 36.44-43.21 35.27-43.21 35.27h-44.12s-18.4-29.16-63.46-34.17a133.25 133.25 0 00-34 .81l-.46.06c-59.87 8.87-48.31 30.85-48.13 31.42-5-12.15-10.2-31.47-8.94-41.87 5.74-47.4 74.22-57.33 85.34-71s0-32.45 0-32.45c102.57-30.24 118 4.1 118 4.1 4.5-.62 16-7.26 20.92-7.29 0 0 5.13 11.21 8.75 21.33 3.2 8.89 24.37 54.22 9.31 93.79z"/><path class="bm" d="M1305.64 1050.04l15.18 141.09h-199.75l-15.17-141.09h199.74z"/><path class="bm" d="M1303.36 1178.44h33.36v12.69h-33.36z"/><path fill="#bc8551" d="M913.82 1191.13h623.25v19.21H913.82z"/><path class="bk" d="M1261.83 833.2s44.75 13.24 38.36 75.35-35.62 58.91-38.36 59.36-37.45 2.74-48.4-72.61 48.4-62.1 48.4-62.1z"/><path class="bk" d="M1283.16 956.49s-2.37 20.56 1.59 33.35-52.13 13.14-52.09 2.63c0-11.94 5.74-21.92.37-42.39s50.13 6.41 50.13 6.41z"/><path class="bg" d="M1250.28 860.89s24.32 38.68 49.91 47.65c0 0 14-64.91-43.74-78.5s-48.68 65.56-44.37 86.66c0 .01 12.02-31.04 38.2-55.81z"/><path d="M1239.66 959.11s17.71 18.45 40.35 1.93c0 0-1.87 11.79-18.16 13.31s-22.19-15.24-22.19-15.24z" fill="#a77860"/><path d="M1217.67 855.07s12.8-24.79 34.42-25.9 34.47 17.64 34.47 17.64-8.44-21.11-34.44-21.11-34.45 29.37-34.45 29.37z" opacity=".72" fill="#fff"/><path class="bk" d="M1290.48 986.88s-.79 43-34.88 44.26-27-41.23-27-41.23 24.93-10.1 61.88-3.03z"/><path d="M1522.95 1210.34h14.13v441.16h-14.13zm-588.01 0h14.13v441.16h-14.13z" fill="#807066"/><path class="br" d="M1041.57 1141.28s11.94 5.71 8.82 3.11 7.79-17.13 22.84-36.33 5.19-27.51-4.15-49.82c-3.71-8.87-10.22-12.17-16.43-12-9.42.25-18.17 8.44-15.56 17.19 4.33 14.53 10.2 28.54-.7 43.08s4.9 34.41 5.18 34.77z"/><path class="br" d="M1074 1063.17c7.29-3.63 16.11-16.61 8.84-19.72s-1.6-12.46-8.84-12.46-10.88 11.28-6.73 17.57c-.01 0-.57 18.24 6.73 14.61z"/><path class="br" d="M1075.82 1031.28s11.42-9.86 0-11.94-8.3 10.38-7.27 11.94 7.27 0 7.27 0z"/><path class="bs" d="M1030.67 1065.76c8.82-1.56 8.82-10.38 8.82-10.38s-7-13-13-7-4.64 18.94 4.18 17.38z"/><path class="bs" d="M1041.57 1141.28s17.39-31.66 8.3-54c-6.36-15.64-1-32.42 2.77-41.07-9.42.25-18.17 8.44-15.56 17.19 4.33 14.53 10.2 28.54-.7 43.08s4.91 34.44 5.19 34.8z"/><path class="bt" d="M1071.92 1140.89h-51.5l2.19 7.54h47.42l1.89-7.54z"/><path fill="#4b4c37" d="M1060.92 1191.13l4.28-34.18 1.06-8.52h-39.56l5.02 42.7h29.2z"/><path class="bt" d="M1074.14 1084.71l11.4-7.79-11.4 6.23v1.56zm-12.98-51.12l6.22 5.57.53-1.29-6.75-4.28zm15.31 4.54l7.53-1.04h-6.88l-.65 1.04zm-7.52-25.04l2.2 7.52h.91l-3.11-7.52zm8.82 7.52l.65 1.04 4.93-4.15-5.58 3.11zm-3.63-1.04l1.39.52-1.39-4.93v4.41zm-3.38 81.36l4.77 11.93-2.3-11.93h-2.47zm-43.2-45.63l-9.86-6.75 8.99 7.8.87-1.05zm7.61 57.56l-14.19 2.29h14.19v-2.29z"/><path d="M1065.2 1156.95l1.06-8.52h-39.56l5 42.71h9.63c-.77-23.48 16.15-31.68 23.87-34.19z" fill="#444532"/><path fill="#7d776b" d="M1048.63 1124.9l-.32 3.44-1.06 11.25-.27 2.84-.44 4.7-.27 2.84-2.3 24.2-1.48 15.66-.12 1.3h-74.01l-.24-3.72-2.84-44.75-.91-14.32-.12-1.92-.04-.67-.42-6.5 39.29 2.62 2.15.14 6.43.42 21.22 1.42.66.04 14.47.96.62.05z"/><path d="M1039.07 1105.24l12.54-58.22s-22.7 44.21-22.7 62.73 10.16-4.51 10.16-4.51z" fill="#736d38"/><path d="M1033.1 1102s12.54-81.84 3.58-106.34c0 0-17.92 81.57-16.13 109.59s12.55-3.25 12.55-3.25z" fill="#477830"/><path d="M984.71 1109.75c-2.39-14.34-20.92-53.47-20.92-53.47-1.21 20 9 53.47 9 53.47s14.31 14.34 11.92 0z" fill="#92b856"/><path d="M991.28 1108.56c-1.79-16.73-20.91-79.45-20.91-79.45-2.39 16.13 9 79.45 9 79.45s13.7 16.72 11.91 0z" fill="#367031"/><path d="M997.26 1109.15c-1.19-7.17-16.51-118.88-16.51-118.88-6.36 16.73 4.24 115 4.24 115 .62 6.06 13.46 11.05 12.27 3.88z" fill="#5b802a"/><path d="M1003.23 1105.24c0-9.29-11.79-141.85-11.79-141.85-1.63 8.36-6.46 88.09-6.46 88.09l6.3 57.08s11.95 5.97 11.95-3.32z" fill="#4b5e26"/><path d="M1024.8 987.88s-19.79 105.94-18.59 122.56 20.44 23.26 18.59-51.74c0 .01 1.26-57.08 0-70.82z" fill="#3a472d"/><path d="M1020.43 1047s-1.7-33.45-4.67-44.8c0 0-14.32 102-12.53 110.46s14.61-16.17 17.2-65.66z" fill="#6a8f39"/><path d="M1011.75 1072.55c3.14-36.46-11.51-92.43-11.51-92.43-4.18 8.36-6.14 56.8-6.14 56.8s5.54 79.4 9 84.95 5.51-12.87 8.65-49.32z" fill="#46402b"/><path d="M1048.64 1124.9l-.33 3.45-1.06 11.25-.27 2.84-.44 4.7-.27 2.84c-4.26.89-10.74 3.21-18.16 9.14-7.61 6.08-16.22 16-24.45 32h-35.3l-.24-3.72-2.83-44.76-.91-14.31-.12-1.92v-.67l47.45-1.32 21.23-.59h.66l14.46 1z" fill="#706c3a"/><path fill="#858045" d="M962.9 1105.24l-5.48 23.1H1055l-6.16-23.1H962.9z"/><path d="M1486.11 1136.86c-4.32-2.87-10.29-2.19-14.43-1.16l1.51-10.85h-57.69l9.24 66.28H1464l.87-6.19.83-5.95a23.29 23.29 0 0015.55-6.14c6.24-5.71 9.82-14.91 9.82-25.25-.07-6.18-2.72-9.25-4.96-10.74zm-9.15 31.36a16.79 16.79 0 01-10.42 4.44l4.19-30.11c3.08-1 8.92-2.42 11.9-.45.52.35 2.11 1.4 2.11 5.5-.01 8.58-2.84 16.09-7.74 20.61z" fill="url(#aw)"/><g mask="url(#ax)"><path d="M1464 1191.13h-39.23l-9.24-66.28h21.24s-7.63 59.82 27.22 66.28z" fill="url(#az)"/></g><path d="M1442 1079.22s-12.13 4-7.64 14.83 12.23 17.58 4.94 30.81c0 0 13.48-8.11 7.19-21.59s-10.06-17.27-4.49-24.05z" fill="url(#ba)"/><path d="M1459.44 1091.38s-8.9 3-5.6 10.88 9 12.89 3.63 22.6c0 0 9.89-6 5.27-15.84s-7.42-12.69-3.3-17.64z" fill="url(#bb)"/><path d="M1427.09 1091.38s-8.9 3-5.6 10.88 9 12.89 3.63 22.6c0 0 9.89-6 5.27-15.84s-7.39-12.69-3.3-17.64z" fill="url(#bc)"/><path class="am" d="M314.95 672.24h-5.48l16.74-33.84h5.49l-16.75 33.84z"/><path class="am" d="M138.45 669.14h265.61v4.21H138.45zm0 13.65h141.89v24.36H138.45zm171.02-57.78h73.93v13.39h-73.93zm0-6.25h73.93v2.52h-73.93z"/><rect class="co" x="667.34" y="340.1" width="145.58" height="38.82" rx="9.66" ry="9.66"/><rect class="co" x="667.34" y="412.78" width="145.58" height="38.82" rx="9.66" ry="9.66"/><rect class="co" x="667.34" y="485.47" width="145.58" height="38.82" rx="9.66" ry="9.66"/><path class="co" d="M597 253.51C564.57 163 478 107.35 386.83 110.09a216.33 216.33 0 00-197.19 289.09c1.63 4.58 3.42 9.08 5.32 13.48A216.12 216.12 0 00466.14 530C578.62 489.78 637.18 366 597 253.51zM447.9 479a162 162 0 01-203.3-88q-2.15-5-4-10.11A162.17 162.17 0 11447.9 479z"/><path d="M238.49 278l-51.68-16.14a216.6 216.6 0 01200-151.79l1.62 54.12A162.41 162.41 0 00238.49 278z" fill="#78b0de"/><path d="M244.6 391.06L195 412.67c-1.91-4.4-3.69-8.91-5.32-13.48a215.33 215.33 0 01-2.82-137.31L238.49 278a161.44 161.44 0 002.11 102.94q1.85 5.16 4 10.12z" fill="#98c3e6"/><path d="M228.49 466.51A215.18 215.18 0 01195 412.67l49.64-21.61a161.21 161.21 0 0025.13 40.38z" fill="#b5d2eb"/></svg>