<svg xmlns="http://www.w3.org/2000/svg" xmlns:xlink="http://www.w3.org/1999/xlink" width="2827.73" height="1734.72" viewBox="0 0 2827.73 1734.72">
  <defs>
    <style>
      .a {
        mask: url(#a);
        filter: url(#ay);
      }

      .b {
        mix-blend-mode: multiply;
        fill: url(#c);
      }

      .c {
        fill: url(#d);
      }

      .d {
        fill: url(#e);
      }

      .e {
        fill: url(#f);
      }

      .f {
        fill: url(#g);
      }

      .g {
        fill: url(#h);
      }

      .h {
        fill: url(#i);
      }

      .i {
        fill: url(#j);
      }

      .j {
        fill: url(#k);
      }

      .k {
        fill: url(#l);
      }

      .l {
        fill: url(#m);
      }

      .m {
        fill: url(#n);
      }

      .n {
        fill: url(#o);
      }

      .o {
        fill: url(#p);
      }

      .p {
        fill: url(#q);
      }

      .q {
        fill: url(#r);
      }

      .r {
        fill: url(#s);
      }

      .s {
        fill: url(#t);
      }

      .t {
        fill: url(#u);
      }

      .u {
        fill: url(#v);
      }

      .v {
        fill: url(#w);
      }

      .w {
        fill: url(#x);
      }

      .x {
        fill: url(#y);
      }

      .y {
        fill: url(#z);
      }

      .z {
        fill: url(#aa);
      }

      .aa {
        fill: url(#ab);
      }

      .ab {
        fill: url(#ac);
      }

      .ac {
        fill: url(#ad);
      }

      .ad {
        fill: url(#ae);
      }

      .ae {
        fill: url(#af);
      }

      .af {
        fill: #fafafa;
      }

      .ag {
        fill: url(#ag);
      }

      .ah {
        fill: #e7e7e7;
      }

      .ai, .bp {
        fill: #fff;
      }

      .aj {
        fill: #eef6fa;
      }

      .ak {
        fill: url(#ah);
      }

      .al {
        opacity: 0.44;
      }

      .am {
        fill: #b8d6ff;
      }

      .an {
        fill: url(#ai);
      }

      .ao {
        fill: url(#aj);
      }

      .ap {
        fill: url(#ak);
      }

      .aq {
        fill: url(#al);
      }

      .ar {
        fill: url(#am);
      }

      .as {
        fill: #ff9f55;
      }

      .at {
        fill: #eff7fe;
      }

      .au {
        fill: url(#an);
      }

      .av {
        fill: #5284fc;
      }

      .aw {
        fill: url(#ao);
      }

      .ax {
        fill: url(#ap);
      }

      .ay {
        fill: url(#aq);
      }

      .az {
        fill: url(#ar);
      }

      .ba {
        fill: url(#as);
      }

      .bb {
        fill: url(#at);
      }

      .bc {
        fill: url(#au);
      }

      .bd {
        fill: url(#av);
      }

      .be {
        fill: #5c5049;
      }

      .bf {
        fill: #c9c5b4;
      }

      .bg {
        fill: #292c47;
      }

      .bh {
        fill: #d4c3bd;
      }

      .bi {
        fill: #de9673;
      }

      .bj {
        fill: #d44040;
      }

      .bk {
        fill: #eea886;
      }

      .bl {
        fill: #e6d3cc;
      }

      .bm {
        fill: #ded1c5;
      }

      .bn {
        fill: #bc8551;
      }

      .bo {
        fill: #a77860;
      }

      .bp {
        opacity: 0.72;
      }

      .bq {
        fill: #807066;
      }

      .br {
        fill: #cfc147;
      }

      .bs {
        fill: #a09832;
      }

      .bt {
        fill: #727643;
      }

      .bu {
        fill: #4b4c37;
      }

      .bv {
        fill: #444532;
      }

      .bw {
        fill: #7d776b;
      }

      .bx {
        fill: #736d38;
      }

      .by {
        fill: #477830;
      }

      .bz {
        fill: #92b856;
      }

      .ca {
        fill: #367031;
      }

      .cb {
        fill: #5b802a;
      }

      .cc {
        fill: #4b5e26;
      }

      .cd {
        fill: #3a472d;
      }

      .ce {
        fill: #6a8f39;
      }

      .cf {
        fill: #46402b;
      }

      .cg {
        fill: #706c3a;
      }

      .ch {
        fill: #858045;
      }

      .ci {
        fill: url(#aw);
      }

      .cj {
        mask: url(#ax);
      }

      .ck {
        fill: url(#az);
      }

      .cl {
        fill: url(#ba);
      }

      .cm {
        fill: url(#bb);
      }

      .cn {
        fill: url(#bc);
      }

      .co {
        fill: #d0e5f5;
      }

      .cp {
        fill: #78b0de;
      }

      .cq {
        fill: #98c3e6;
      }

      .cr {
        fill: #b5d2eb;
      }

      .cs {
        filter: url(#b);
      }
    </style>
    <filter id="b" x="1415.5" y="-9016.71" width="48.46" height="32766" filterUnits="userSpaceOnUse" color-interpolation-filters="sRGB">
      <feFlood flood-color="#fff" result="bg"/>
      <feBlend in="SourceGraphic" in2="bg"/>
    </filter>
    <mask id="a" x="1415.5" y="-9016.71" width="48.46" height="32766" maskUnits="userSpaceOnUse">
      <g class="cs"/>
    </mask>
    <linearGradient id="c" x1="1417.8" y1="1198.16" x2="1445.86" y2="1146.76" gradientUnits="userSpaceOnUse">
      <stop offset="0" stop-color="#fff"/>
      <stop offset="1"/>
    </linearGradient>
    <linearGradient id="d" x1="1953" y1="828.41" x2="1953" y2="2225.05" gradientUnits="userSpaceOnUse">
      <stop offset="0" stop-color="#f2f2f2"/>
      <stop offset="1" stop-color="#fcfcfc"/>
    </linearGradient>
    <linearGradient id="e" x1="1703.86" y1="1364.53" x2="2634.64" y2="1364.53" gradientUnits="userSpaceOnUse">
      <stop offset="0" stop-color="#dbdbe6"/>
      <stop offset="1" stop-color="#fff"/>
    </linearGradient>
    <linearGradient id="f" x1="1820.83" y1="-11245.08" x2="1820.83" y2="-10883.78" gradientTransform="matrix(1, 0, 0, -1, 0, -9945.25)" gradientUnits="userSpaceOnUse">
      <stop offset="0" stop-color="#fcfcfc"/>
      <stop offset="1" stop-color="#fdfdfd"/>
    </linearGradient>
    <linearGradient id="g" x1="1918.23" y1="-11245.08" x2="1918.23" y2="-10883.78" xlink:href="#f"/>
    <linearGradient id="h" x1="2075.67" y1="887.77" x2="2075.67" y2="1613.28" gradientTransform="matrix(1, 0, 0, 1, 0, 0)" xlink:href="#f"/>
    <linearGradient id="i" x1="2233.31" y1="887.77" x2="2233.31" y2="1613.28" gradientTransform="matrix(1, 0, 0, 1, 0, 0)" xlink:href="#f"/>
    <linearGradient id="j" x1="2391.9" y1="887.77" x2="2391.9" y2="1613.28" gradientTransform="matrix(1, 0, 0, 1, 0, 0)" xlink:href="#f"/>
    <linearGradient id="k" x1="2519.67" y1="887.77" x2="2519.67" y2="1613.28" gradientTransform="matrix(1, 0, 0, 1, 0, 0)" xlink:href="#f"/>
    <linearGradient id="l" x1="2431.44" y1="887.77" x2="2431.44" y2="1613.28" gradientTransform="matrix(1, 0, 0, 1, 0, 0)" xlink:href="#f"/>
    <linearGradient id="m" x1="1750.05" y1="-11245.08" x2="1750.05" y2="-10883.78" xlink:href="#f"/>
    <linearGradient id="n" x1="1819.37" y1="1768.26" x2="1819.37" y2="271.09" gradientUnits="userSpaceOnUse">
      <stop offset="0" stop-color="#eeeefa"/>
      <stop offset="1" stop-color="#fff"/>
    </linearGradient>
    <linearGradient id="o" x1="1274.73" y1="610.76" x2="1274.73" y2="1354.52" xlink:href="#e"/>
    <linearGradient id="p" x1="926.31" y1="1315.08" x2="926.31" y2="548.92" gradientTransform="matrix(1, 0, 0, 1, 0, 0)" xlink:href="#f"/>
    <linearGradient id="q" x1="1023.71" y1="1565.46" x2="1023.71" y2="677.37" gradientTransform="matrix(1, 0, 0, 1, 0, 0)" xlink:href="#f"/>
    <linearGradient id="r" x1="1181.15" y1="1565.45" x2="1181.15" y2="677.37" gradientTransform="matrix(1, 0, 0, 1, 0, 0)" xlink:href="#f"/>
    <linearGradient id="s" x1="1338.79" y1="1565.46" x2="1338.79" y2="677.37" gradientTransform="matrix(1, 0, 0, 1, 0, 0)" xlink:href="#f"/>
    <linearGradient id="t" x1="1497.38" y1="1565.46" x2="1497.38" y2="677.37" gradientTransform="matrix(1, 0, 0, 1, 0, 0)" xlink:href="#f"/>
    <linearGradient id="u" x1="1625.15" y1="1565.46" x2="1625.15" y2="677.37" gradientTransform="matrix(1, 0, 0, 1, 0, 0)" xlink:href="#f"/>
    <linearGradient id="v" x1="1536.92" y1="1565.46" x2="1536.92" y2="677.37" gradientTransform="matrix(1, 0, 0, 1, 0, 0)" xlink:href="#f"/>
    <linearGradient id="w" x1="855.53" y1="1315.08" x2="855.53" y2="548.93" gradientTransform="matrix(1, 0, 0, 1, 0, 0)" xlink:href="#f"/>
    <linearGradient id="x" x1="2169.25" y1="610.76" x2="2169.25" y2="1354.52" xlink:href="#e"/>
    <linearGradient id="y" x1="1820.83" y1="1565.46" x2="1820.83" y2="677.37" gradientTransform="matrix(1, 0, 0, 1, 0, 0)" xlink:href="#f"/>
    <linearGradient id="z" x1="1918.23" y1="1565.46" x2="1918.23" y2="677.37" gradientTransform="matrix(1, 0, 0, 1, 0, 0)" xlink:href="#f"/>
    <linearGradient id="aa" x1="2075.67" y1="1565.45" x2="2075.67" y2="677.37" gradientTransform="matrix(1, 0, 0, 1, 0, 0)" xlink:href="#f"/>
    <linearGradient id="ab" x1="2233.31" y1="1565.46" x2="2233.31" y2="677.37" gradientTransform="matrix(1, 0, 0, 1, 0, 0)" xlink:href="#f"/>
    <linearGradient id="ac" x1="2391.9" y1="1565.46" x2="2391.9" y2="677.37" gradientTransform="matrix(1, 0, 0, 1, 0, 0)" xlink:href="#f"/>
    <linearGradient id="ad" x1="2519.67" y1="1565.46" x2="2519.67" y2="677.37" gradientTransform="matrix(1, 0, 0, 1, 0, 0)" xlink:href="#f"/>
    <linearGradient id="ae" x1="2431.44" y1="1565.46" x2="2431.44" y2="677.37" gradientTransform="matrix(1, 0, 0, 1, 0, 0)" xlink:href="#f"/>
    <linearGradient id="af" x1="1750.05" y1="1565.45" x2="1750.05" y2="677.37" gradientTransform="matrix(1, 0, 0, 1, 0, 0)" xlink:href="#f"/>
    <linearGradient id="ag" x1="2005.68" y1="1558.05" x2="2005.68" y2="885.53" xlink:href="#e"/>
    <linearGradient id="ah" x1="2936.02" y1="-456.64" x2="3261.3" y2="-456.64" gradientTransform="translate(-2070.85 -184.34) rotate(23.31)" gradientUnits="userSpaceOnUse">
      <stop offset="0" stop-color="#ff9f55"/>
      <stop offset="1" stop-color="#ffd255"/>
    </linearGradient>
    <linearGradient id="ai" x1="3138.1" y1="-716.6" x2="3287.22" y2="-716.6" xlink:href="#ah"/>
    <linearGradient id="aj" x1="1325.5" y1="681.55" x2="1347.04" y2="747.91" gradientTransform="matrix(1, 0, 0, 1, 0, 0)" xlink:href="#ah"/>
    <linearGradient id="ak" x1="1489.88" y1="447.47" x2="1530.49" y2="572.58" gradientTransform="matrix(1, 0, 0, 1, 0, 0)" xlink:href="#ah"/>
    <linearGradient id="al" x1="1501.78" y1="484.14" x2="1518.58" y2="535.9" gradientTransform="matrix(1, 0, 0, 1, 0, 0)" xlink:href="#ah"/>
    <linearGradient id="am" x1="486.81" y1="1620.88" x2="486.81" y2="1464.68" gradientTransform="matrix(1, 0, 0, 1, 0, 0)" xlink:href="#ah"/>
    <linearGradient id="an" x1="481.29" y1="1268.68" x2="481.29" y2="1484.92" gradientUnits="userSpaceOnUse">
      <stop offset="0" stop-color="#40d5e6"/>
      <stop offset="1" stop-color="#57f"/>
    </linearGradient>
    <linearGradient id="ao" x1="630.11" y1="1279.05" x2="630.11" y2="1117.39" gradientTransform="translate(1260.22 2429.81) rotate(-180)" xlink:href="#ah"/>
    <linearGradient id="ap" x1="445.09" y1="844.39" x2="445.09" y2="1026.01" xlink:href="#an"/>
    <linearGradient id="aq" x1="582.17" y1="754.84" x2="582.17" y2="900.1" xlink:href="#an"/>
    <linearGradient id="ar" x1="1651.14" y1="1662" x2="1651.14" y2="1612.49" gradientTransform="matrix(1, 0, 0, 1, 0, 0)" xlink:href="#ah"/>
    <linearGradient id="as" x1="1649.4" y1="1550.36" x2="1649.4" y2="1618.9" xlink:href="#an"/>
    <linearGradient id="at" x1="1696.57" y1="1553.65" x2="1696.57" y2="1502.4" gradientTransform="translate(3393.14 3066.63) rotate(-180)" xlink:href="#ah"/>
    <linearGradient id="au" x1="1637.92" y1="1415.87" x2="1637.92" y2="1473.44" xlink:href="#an"/>
    <linearGradient id="av" x1="1681.37" y1="1387.49" x2="1681.37" y2="1433.53" xlink:href="#an"/>
    <linearGradient id="aw" x1="1415.5" y1="1158" x2="1491.03" y2="1158" gradientTransform="matrix(1, 0, 0, 1, 0, 0)" xlink:href="#ah"/>
    <filter id="ay" x="1415.5" y="1124.86" width="48.46" height="66.28" filterUnits="userSpaceOnUse" color-interpolation-filters="sRGB">
      <feFlood flood-color="#fff" result="bg"/>
      <feBlend in="SourceGraphic" in2="bg"/>
    </filter>
    <mask id="ax" x="1415.5" y="1124.86" width="48.46" height="66.28" maskUnits="userSpaceOnUse">
      <g class="a">
        <path class="b" d="M1464,1191.13h-39.23l-9.24-66.28h21.24s-7.63,59.82,27.22,66.28Z"/>
      </g>
    </mask>
    <linearGradient id="az" x1="1417.8" y1="1198.16" x2="1445.86" y2="1146.76" gradientUnits="userSpaceOnUse">
      <stop offset="0" stop-color="#ffa155"/>
      <stop offset="1" stop-color="#ffa155"/>
    </linearGradient>
    <linearGradient id="ba" x1="1427.33" y1="1125.29" x2="1445.48" y2="1092.04" gradientUnits="userSpaceOnUse">
      <stop offset="0.01" stop-color="#e6e6e6"/>
      <stop offset="1" stop-color="#ffdcc2"/>
    </linearGradient>
    <linearGradient id="bb" x1="1448.65" y1="1125.17" x2="1461.96" y2="1100.79" xlink:href="#ba"/>
    <linearGradient id="bc" x1="1416.3" y1="1125.17" x2="1429.61" y2="1100.79" xlink:href="#ba"/>
  </defs>
  <title>women_collage</title>
  <g>
    <rect class="c" x="1078.28" y="1109.48" width="1749.44" height="614.87"/>
    <polygon class="d" points="1703.86 1155.68 1703.86 1310.31 1764.1 1310.31 1764.1 1413.73 1834.39 1413.73 1834.39 1327.38 1888.61 1327.38 1888.61 1450.88 1877.57 1450.88 1877.57 1470.96 2002.07 1470.96 2002.07 1449.88 1990.02 1449.88 1990.02 1331.39 2019.14 1331.39 2019.14 1303.28 2072.36 1303.28 2072.36 1520.16 2125.57 1573.38 2143.64 1555.3 2161.33 1555.3 2161.33 1254.08 2221.96 1254.08 2221.96 1278.18 2268.15 1324.37 2305.3 1324.37 2305.3 1254.08 2343.46 1254.08 2343.46 1434.82 2404.7 1434.82 2404.7 1304.29 2454.91 1304.29 2454.91 1205.88 2521.18 1205.88 2521.18 1314.33 2634.64 1314.33 2634.64 1155.68 1703.86 1155.68"/>
    <g>
      <rect class="e" x="1807.28" y="1155.68" width="27.11" height="258.05"/>
      <polygon class="f" points="1946.18 1470.96 1946.18 1244.71 1886.6 1244.71 1886.6 1190.49 1834.39 1190.49 1834.39 1155.68 1990.02 1155.68 1990.02 1449.88 2002.07 1449.88 2002.07 1470.96 1946.18 1470.96"/>
      <polygon class="g" points="2125.57 1573.38 2125.57 1216.93 2073.36 1216.93 2073.36 1303.28 2044.24 1303.28 2044.24 1226.97 1990.02 1226.97 1990.02 1155.68 2161.33 1155.68 2161.33 1555.3 2143.64 1555.3 2125.57 1573.38"/>
      <polygon class="h" points="2268.15 1324.37 2268.15 1228.98 2234.76 1195.59 2208.91 1195.59 2208.91 1178.27 2161.33 1178.27 2161.33 1155.68 2305.3 1155.68 2305.3 1324.37 2268.15 1324.37"/>
      <rect class="i" x="2379.1" y="1155.68" width="25.6" height="279.13"/>
      <polygon class="j" points="2634.64 1314.33 2587.45 1314.33 2587.45 1195.84 2553.31 1195.84 2553.31 1172.42 2404.7 1172.42 2404.7 1155.68 2634.64 1155.68 2634.64 1314.33"/>
      <polygon class="k" points="2454.91 1304.29 2435.33 1304.29 2435.33 1192.33 2407.97 1164.97 2454.91 1164.97 2454.91 1304.29"/>
      <rect class="l" x="1735.99" y="1155.68" width="28.11" height="154.63"/>
    </g>
    <path class="m" d="M2827.71,1109v41.42c-2.33.87-4.88,1.71-7.68,2.51-1.82.51-3.71,1.06-5.71,1.53a295.53,295.53,0,0,1-36,6c-11.72,1.31-39.86,2.29-79.53,3.6-3.57.15-7.24.29-11,.4-43.39,1.49-98.79,3.49-160.85,6.81-3.64.22-7.32.4-11,.62-38.47,2.15-79.28,4.8-121.17,8.19-3.68.33-7.35.62-11,.91-52.85,4.4-107.27,10-160.82,17.11-3.68.51-7.35,1-11,1.49-41.39,5.71-82.19,12.34-121.17,20.13-3.68.73-7.35,1.46-11,2.22-31.67,6.52-62.1,13.8-90.6,22-6.84,1.93-13.61,3.93-20.24,6-5.75,1.78-11.39,3.6-17,5.46-172.46,57.88-254.11,153.79-74.84,314.35,51.32,46,124.09,97.3,222.22,154.52H811V1102.52H2816.42s1.38.69,3.6,1.93C2822.06,1105.54,2824.76,1107.1,2827.71,1109Z"/>
    <polygon class="n" points="809.34 1142.38 809.34 987.75 869.58 987.75 869.58 884.33 939.87 884.33 939.87 970.68 994.09 970.68 994.09 847.18 983.04 847.18 983.04 827.1 1107.55 827.1 1107.55 848.19 1095.5 848.19 1095.5 966.67 1124.62 966.67 1124.62 994.78 1177.84 994.78 1177.84 777.9 1231.05 724.69 1249.13 742.76 1266.81 742.76 1266.81 1043.98 1327.44 1043.98 1327.44 1019.88 1373.63 973.7 1410.78 973.7 1410.78 1043.98 1448.93 1043.98 1448.93 863.25 1510.18 863.25 1510.18 993.78 1560.39 993.78 1560.39 1092.18 1626.66 1092.18 1626.66 983.74 1740.12 983.74 1740.12 1142.38 809.34 1142.38"/>
    <g>
      <rect class="o" x="912.76" y="884.33" width="27.11" height="258.05"/>
      <polygon class="p" points="1051.66 827.1 1051.66 1053.35 992.08 1053.35 992.08 1107.57 939.87 1107.57 939.87 1142.38 1095.5 1142.38 1095.5 848.19 1107.55 848.19 1107.55 827.1 1051.66 827.1"/>
      <polygon class="q" points="1231.05 724.69 1231.05 1081.13 1178.84 1081.13 1178.84 994.78 1149.72 994.78 1149.72 1071.09 1095.5 1071.09 1095.5 1142.38 1266.81 1142.38 1266.81 742.76 1249.13 742.76 1231.05 724.69"/>
      <polygon class="r" points="1373.63 973.7 1373.63 1069.08 1340.24 1102.47 1314.39 1102.47 1314.39 1119.79 1266.81 1119.79 1266.81 1142.38 1410.78 1142.38 1410.78 973.7 1373.63 973.7"/>
      <rect class="s" x="1484.58" y="863.25" width="25.6" height="279.13"/>
      <polygon class="t" points="1740.12 983.74 1676.93 983.74 1676.93 1102.22 1658.79 1102.22 1658.79 1125.65 1510.18 1125.65 1510.18 1142.38 1740.12 1142.38 1740.12 983.74"/>
      <polygon class="u" points="1560.39 993.78 1540.81 993.78 1540.81 1105.73 1513.45 1133.09 1560.39 1133.09 1560.39 993.78"/>
      <rect class="v" x="841.47" y="987.75" width="28.11" height="154.63"/>
    </g>
    <polygon class="w" points="1703.86 1142.38 1703.86 987.75 1764.1 987.75 1764.1 884.33 1834.39 884.33 1834.39 970.68 1888.61 970.68 1888.61 847.18 1877.57 847.18 1877.57 827.1 2002.07 827.1 2002.07 848.19 1990.02 848.19 1990.02 966.67 2019.14 966.67 2019.14 994.78 2072.36 994.78 2072.36 777.9 2125.57 724.69 2143.64 742.76 2161.33 742.76 2161.33 1043.98 2221.96 1043.98 2221.96 1019.88 2268.15 973.7 2305.3 973.7 2305.3 1043.98 2343.46 1043.98 2343.46 863.25 2404.7 863.25 2404.7 993.78 2454.91 993.78 2454.91 1092.18 2521.18 1092.18 2521.18 983.74 2634.64 983.74 2634.64 1142.38 1703.86 1142.38"/>
    <g>
      <rect class="x" x="1807.28" y="884.33" width="27.11" height="258.05"/>
      <polygon class="y" points="1946.18 827.1 1946.18 1053.35 1886.6 1053.35 1886.6 1107.57 1834.39 1107.57 1834.39 1142.38 1990.02 1142.38 1990.02 848.19 2002.07 848.19 2002.07 827.1 1946.18 827.1"/>
      <polygon class="z" points="2125.57 724.69 2125.57 1081.13 2073.36 1081.13 2073.36 994.78 2044.24 994.78 2044.24 1071.09 1990.02 1071.09 1990.02 1142.38 2161.33 1142.38 2161.33 742.76 2143.64 742.76 2125.57 724.69"/>
      <polygon class="aa" points="2268.15 973.7 2268.15 1069.08 2234.76 1102.47 2208.91 1102.47 2208.91 1119.79 2161.33 1119.79 2161.33 1142.38 2305.3 1142.38 2305.3 973.7 2268.15 973.7"/>
      <rect class="ab" x="2379.1" y="863.25" width="25.6" height="279.13"/>
      <polygon class="ac" points="2634.64 983.74 2587.45 983.74 2587.45 1102.22 2553.31 1102.22 2553.31 1125.65 2404.7 1125.65 2404.7 1142.38 2634.64 1142.38 2634.64 983.74"/>
      <polygon class="ad" points="2454.91 993.78 2435.33 993.78 2435.33 1105.73 2407.97 1133.09 2454.91 1133.09 2454.91 993.78"/>
      <rect class="ae" x="1735.99" y="987.75" width="28.11" height="154.63"/>
    </g>
    <path class="af" d="M1074.64,1133.33s79.68-36.22,96-25.35,90.54-13.12,143.06-2,83.3,36.84,134,12.19,110.46-15.2,119.52,0,21.73,8.35,79.68,0,54.33-4.73,130.38,15.19,126.05,19.92,126.05,19.92H1074.64Z"/>
    <path class="af" d="M964.21,1176.18s18.11-66.4,112.27-33.8,114.69,72.43,251.1,67.6,196.78,60.36,252.31,59.15,58.5,25.35,58.5,25.35H940.06Z"/>
    <path class="ag" d="M2446.87,1153.27c-8,.23-103.49,3.39-223.93,16.59-3.64.4-7.3.81-11,1.24-93.52,10.61-200.61,27.28-293,53.25q-5.53,1.53-11,3.13a767,767,0,0,0-80.27,28c-89.15,37.42-146.53,88.26-130.77,157.33,22.87,100.17,140.91,208.68,293.78,311.55h-266.5c-68.56-74.05-123.23-152.45-147.17-229.85-35.33-114.24,6.5-189.32,98.18-239,59.23-32.16,139.27-53.73,232.74-68.45q5.46-.86,11-1.68c88.21-13.27,187.89-20.68,293-25.3,3.66-.17,7.33-.32,11-.47C2295.74,1156.5,2371.05,1154.73,2446.87,1153.27Z"/>
    <path class="af" d="M1554.7,1138.76s56.14,17.2,94.16-13.13,132.19-27.62,173.84,0,92.35,12.09,117.7-1.88,74.24-10,135.81,4.34,61.57-6.22,123.14-4.34,248.09,29.49,248.09,29.49h-918.1Z"/>
    <path class="af" d="M2218.6,1153.25s70-55.64,106.28-40.25,69.34,34.6,94.1,18.78,64.39-17.21,75.94-3.2,52.91,5.65,74.52,3.2c58.17-6.61,81.49,21.47,81.49,21.47Z"/>
    <path class="ah" d="M1696.9,1724.35h-714V1645.5s34.16-62.21,90.18-75.69a91.47,91.47,0,0,1,43,0,117.39,117.39,0,0,1,32.2,13.25c99.27,58.08,184.5-13.14,251.87,71.35s138.35-26.9,257.68,42.38A246.21,246.21,0,0,1,1696.9,1724.35Z"/>
    <circle class="ai" cx="2018.83" cy="470.32" r="6.32"/>
    <circle class="ai" cx="2305.3" cy="827.1" r="6.32"/>
    <circle class="ai" cx="1882.03" cy="316.87" r="6.32"/>
    <circle class="ai" cx="1921.9" cy="627.13" r="11.94"/>
    <circle class="ai" cx="1328.31" cy="129.11" r="9.88"/>
    <circle class="ai" cx="1828.97" cy="424.74" r="9.66" transform="translate(989.07 2104.06) rotate(-76.5)"/>
    <circle class="ai" cx="1921.9" cy="129.11" r="6.32"/>
    <circle class="ai" cx="2002.79" cy="9.66" r="4.54" transform="translate(1525.87 1954.86) rotate(-76.5)"/>
    <circle class="ai" cx="1828.97" cy="760.85" r="4.54" transform="translate(662.31 2361.76) rotate(-76.5)"/>
    <circle class="ai" cx="1756.64" cy="9.66" r="9.66" transform="translate(1337.26 1715.53) rotate(-76.5)"/>
    <circle class="ai" cx="2202.61" cy="651.02" r="11.94"/>
    <circle class="ai" cx="1646.89" cy="201.45" r="11.94"/>
    <circle class="ai" cx="2156.65" cy="21.6" r="11.94"/>
    <circle class="ai" cx="2129.21" cy="310.55" r="4.54" transform="translate(1330.17 2308.42) rotate(-76.5)"/>
    <circle class="ai" cx="2431.44" cy="760.85" r="4.54" transform="translate(1124.08 2947.53) rotate(-76.5)"/>
    <circle class="ai" cx="1304.38" cy="564.28" r="4.54" transform="translate(451.17 1700.88) rotate(-76.5)"/>
    <circle class="ai" cx="2655.47" cy="718.36" r="4.54" transform="translate(1337.06 3132.77) rotate(-76.5)"/>
    <circle class="ai" cx="1595.1" cy="602.17" r="11.94"/>
    <circle class="ai" cx="1607.04" cy="378.28" r="4.54" transform="translate(864.14 1852.66) rotate(-76.5)"/>
    <rect class="aj" y="1525.41" width="2827.73" height="209.31"/>
    <path class="ak" d="M1094.28,643.85a139.33,139.33,0,0,0,.53-38.91l23-15-11-27.67-11-27.67-27,4.91a139.36,139.36,0,0,0-27.11-27.92l5.66-26.8L1020,473.05l-27.35-11.78-15.59,22.52a139.39,139.39,0,0,0-38.91-.53l-15-23-27.67,11-27.67,11,4.91,27a139.35,139.35,0,0,0-27.92,27.11l-26.8-5.66-11.78,27.35L794.5,585.4,817,601a139.39,139.39,0,0,0-.53,38.91l-23,15,11,27.67,11,27.67,27-4.91a139.41,139.41,0,0,0,27.11,27.92L863.95,760l27.35,11.78,27.35,11.78L934.23,761a139.39,139.39,0,0,0,38.91.53l15,23,27.67-11,27.67-11-4.91-27a139.4,139.4,0,0,0,27.92-27.11l26.8,5.66L1105,686.78l11.78-27.35ZM914.36,718.24a104.34,104.34,0,1,1,137.11-54.53A104.34,104.34,0,0,1,914.36,718.24Z"/>
    <g class="al">
      <rect class="am" x="1639.72" y="785.22" width="82.86" height="6.18"/>
      <rect class="am" x="1639.72" y="794.11" width="82.86" height="16.75"/>
      <polygon class="am" points="1653.5 655.32 1653.5 711.35 1516.14 711.35 1516.14 721.2 1653.5 721.2 1653.5 729.91 1516.14 729.91 1516.14 771.3 1653.5 771.3 1656.6 771.3 1659.69 771.3 1659.69 655.32 1653.5 655.32"/>
    </g>
    <path class="an" d="M1226.77,438.61a63.94,63.94,0,0,0,.24-17.84l10.53-6.86-5-12.68-5-12.69-12.36,2.25a63.86,63.86,0,0,0-12.43-12.8l2.6-12.28-12.54-5.4-12.54-5.4L1173,365.23a63.94,63.94,0,0,0-17.84-.24l-6.86-10.53-12.68,5-12.69,5,2.25,12.36a63.87,63.87,0,0,0-12.8,12.43l-12.29-2.6-5.4,12.54-5.4,12.54,10.32,7.15a63.87,63.87,0,0,0-.24,17.84l-10.53,6.86,5,12.68,5,12.69,12.36-2.25a63.86,63.86,0,0,0,12.43,12.8l-2.6,12.29,12.54,5.4,12.54,5.4,7.15-10.32a63.9,63.9,0,0,0,17.84.24l6.86,10.53,12.68-5,12.69-5-2.25-12.36a63.86,63.86,0,0,0,12.8-12.43l12.29,2.6,5.4-12.54,5.4-12.54Zm-82.48,34.11a47.83,47.83,0,1,1,62.86-25A47.84,47.84,0,0,1,1144.29,472.71Z"/>
    <path class="ao" d="M1323.23,755.64l-48.58-42.35a9.57,9.57,0,1,1,12.58-14.43l34.35,29.95,49-54.64a9.57,9.57,0,0,1,14.25,12.78Z"/>
    <g>
      <path class="ap" d="M1510.18,578.72a8.68,8.68,0,0,1-8.68-8.68V450a8.68,8.68,0,0,1,17.36,0V570A8.68,8.68,0,0,1,1510.18,578.72Z"/>
      <path class="aq" d="M1570.2,518.7h-120a8.68,8.68,0,0,1,0-17.36h120a8.68,8.68,0,0,1,0,17.36Z"/>
    </g>
    <g>
      <path class="ar" d="M231.46,1488.16H782.35a0,0,0,0,1,0,0V1633.8a0,0,0,0,1,0,0H231.46a40.2,40.2,0,0,1-40.2-40.2v-65.25A40.2,40.2,0,0,1,231.46,1488.16Z"/>
      <path class="as" d="M877,1503.15v115.67h9.66v15H487.32a40.2,40.2,0,0,1-40.2-40.2v-65.26a40.2,40.2,0,0,1,40.2-40.2H886.62v15Z"/>
      <path class="at" d="M516.79,1503.15H877a0,0,0,0,1,0,0v115.67a0,0,0,0,1,0,0H516.79a40.2,40.2,0,0,1-40.2-40.2v-35.27A40.2,40.2,0,0,1,516.79,1503.15Z"/>
      <path class="au" d="M205,1318.77H808.09a0,0,0,0,1,0,0v169.38a0,0,0,0,1,0,0H205a50.51,50.51,0,0,1-50.51-50.51v-68.37A50.51,50.51,0,0,1,205,1318.77Z"/>
      <path class="av" d="M915.06,1336.21v134.52h8.32v17.44h-328a50.51,50.51,0,0,1-50.51-50.51v-68.37a50.51,50.51,0,0,1,50.51-50.51h328v17.43Z"/>
      <path class="at" d="M620.77,1336.2H915.06a0,0,0,0,1,0,0v134.51a0,0,0,0,1,0,0H620.77a50.51,50.51,0,0,1-50.51-50.51v-33.5A50.51,50.51,0,0,1,620.77,1336.2Z"/>
      <path class="aw" d="M428.26,1111.07H886.62a0,0,0,0,1,0,0v207.66a0,0,0,0,1,0,0H428.26a54.66,54.66,0,0,1-54.66-54.66v-98.34A54.66,54.66,0,0,1,428.26,1111.07Z" transform="translate(1260.22 2429.81) rotate(180)"/>
      <path class="as" d="M291.48,1132.45v164.92h-8.39v21.38h326.8a54.66,54.66,0,0,0,54.66-54.66v-98.35a54.66,54.66,0,0,0-54.66-54.66H283.09v21.38Z"/>
      <path class="at" d="M345.82,1132.44h289a0,0,0,0,1,0,0v164.92a0,0,0,0,1,0,0h-289A54.33,54.33,0,0,1,291.49,1243v-56.25A54.33,54.33,0,0,1,345.82,1132.44Z" transform="translate(926.3 2429.81) rotate(180)"/>
      <path class="ax" d="M230.8,903.36h486a0,0,0,0,1,0,0V1111a0,0,0,0,1,0,0h-486a57.46,57.46,0,0,1-57.46-57.46V960.82A57.46,57.46,0,0,1,230.8,903.36Z"/>
      <path class="av" d="M803.83,924.74v164.92h8.88V1111H466.06a57.46,57.46,0,0,1-57.46-57.46V960.83a57.46,57.46,0,0,1,57.46-57.46H812.71v21.38Z"/>
      <path class="at" d="M496,924.73H803.82a0,0,0,0,1,0,0v164.92a0,0,0,0,1,0,0H496a57.22,57.22,0,0,1-57.22-57.22V982A57.22,57.22,0,0,1,496,924.73Z"/>
      <path class="ay" d="M346.09,746.15H853.92a0,0,0,0,1,0,0V903.3a0,0,0,0,1,0,0H346.09a35.67,35.67,0,0,1-35.67-35.67V781.82A35.67,35.67,0,0,1,346.09,746.15Z"/>
      <path class="av" d="M940.91,762.33v124.8h8.88v16.18H581.35a35.67,35.67,0,0,1-35.67-35.67V781.82a35.67,35.67,0,0,1,35.67-35.67H949.8v16.18Z"/>
      <path class="at" d="M608.45,762.32H940.9a0,0,0,0,1,0,0v124.8a0,0,0,0,1,0,0H608.45a35.67,35.67,0,0,1-35.67-35.67V798A35.67,35.67,0,0,1,608.45,762.32Z"/>
    </g>
    <g>
      <path class="az" d="M1570.21,1619.93h174.62a0,0,0,0,1,0,0v46.17a0,0,0,0,1,0,0H1570.21a12.74,12.74,0,0,1-12.74-12.74v-20.68A12.74,12.74,0,0,1,1570.21,1619.93Z"/>
      <path class="as" d="M1774.81,1624.68v36.66h3.06v4.75H1651.31a12.74,12.74,0,0,1-12.74-12.74v-20.68a12.74,12.74,0,0,1,12.74-12.74h126.57v4.75Z"/>
      <path class="at" d="M1660.65,1624.68h114.16a0,0,0,0,1,0,0v36.66a0,0,0,0,1,0,0H1660.65a12.74,12.74,0,0,1-12.74-12.74v-11.18A12.74,12.74,0,0,1,1660.65,1624.68Z"/>
      <path class="ba" d="M1561.82,1566.24H1753a0,0,0,0,1,0,0v53.69a0,0,0,0,1,0,0H1561.82a16,16,0,0,1-16-16v-21.67A16,16,0,0,1,1561.82,1566.24Z"/>
      <path class="av" d="M1786.89,1571.76v42.64h2.64v5.53h-104a16,16,0,0,1-16-16v-21.67a16,16,0,0,1,16-16h104v5.53Z"/>
      <path class="at" d="M1693.61,1571.76h93.28a0,0,0,0,1,0,0v42.64a0,0,0,0,1,0,0h-93.28a16,16,0,0,1-16-16v-10.62A16,16,0,0,1,1693.61,1571.76Z"/>
      <path class="bb" d="M1632.59,1500.4h145.29a0,0,0,0,1,0,0v65.82a0,0,0,0,1,0,0H1632.59a17.33,17.33,0,0,1-17.33-17.33v-31.17A17.33,17.33,0,0,1,1632.59,1500.4Z" transform="translate(3393.14 3066.63) rotate(180)"/>
      <path class="as" d="M1589.23,1507.18v52.27h-2.66v6.78h103.59a17.32,17.32,0,0,0,17.33-17.33v-31.17a17.32,17.32,0,0,0-17.33-17.33H1586.57v6.78Z"/>
      <path class="at" d="M1606.46,1507.18h91.6a0,0,0,0,1,0,0v52.27a0,0,0,0,1,0,0h-91.6a17.22,17.22,0,0,1-17.22-17.22V1524.4A17.22,17.22,0,0,1,1606.46,1507.18Z" transform="translate(3287.29 3066.63) rotate(180)"/>
      <path class="bc" d="M1570,1434.56h154.06a0,0,0,0,1,0,0v65.82a0,0,0,0,1,0,0H1570a18.21,18.21,0,0,1-18.21-18.21v-29.4A18.21,18.21,0,0,1,1570,1434.56Z"/>
      <path class="av" d="M1751.63,1441.34v52.27h2.82v6.77H1644.57a18.21,18.21,0,0,1-18.21-18.21v-29.4a18.21,18.21,0,0,1,18.21-18.21h109.88v6.78Z"/>
      <path class="at" d="M1654.05,1441.34h97.58a0,0,0,0,1,0,0v52.27a0,0,0,0,1,0,0h-97.58a18.14,18.14,0,0,1-18.14-18.14v-16A18.14,18.14,0,0,1,1654.05,1441.34Z"/>
      <path class="bd" d="M1606.54,1384.73h161a0,0,0,0,1,0,0v49.81a0,0,0,0,1,0,0h-161a11.31,11.31,0,0,1-11.31-11.31V1396A11.31,11.31,0,0,1,1606.54,1384.73Z"/>
      <path class="av" d="M1795.08,1389.86v39.56h2.82v5.13H1681.11a11.31,11.31,0,0,1-11.31-11.31V1396a11.31,11.31,0,0,1,11.31-11.31H1797.9v5.13Z"/>
      <path class="at" d="M1689.7,1389.86h105.38a0,0,0,0,1,0,0v39.56a0,0,0,0,1,0,0H1689.7a11.31,11.31,0,0,1-11.31-11.31v-16.95A11.31,11.31,0,0,1,1689.7,1389.86Z"/>
    </g>
    <g>
      <g>
        <polygon class="be" points="1397.74 1637.75 1355.63 1357.68 1363.74 1356.43 1405.85 1636.51 1397.74 1637.75"/>
        <polygon class="be" points="1346.32 1637.75 1304.21 1357.68 1312.32 1356.43 1354.43 1636.51 1346.32 1637.75"/>
        <polygon class="be" points="1093.02 1637.75 1084.91 1636.51 1127.02 1356.43 1135.13 1357.68 1093.02 1637.75"/>
        <path class="bf" d="M1368.81,1360.53l33-347.07s-57.7-7.55-92.56-5.69l-52.4,352.76Z"/>
        <rect class="bf" x="1256.84" y="1342.89" width="111.97" height="17.64"/>
        <path class="bf" d="M1183.58,1346.39l-17.5-330.75s146-15.86,235.72-2.19Z"/>
        <path class="bg" d="M1300.19,908.55s22.55-66.12-20.48-86.62-79.56,9.13-86.46,25.17-5.07,45.19.81,65.52,5,51.28-7.76,61.63-28.64,27.54-27.86,62.54c.49,21.71,85.43-55.53,85.43-55.53Z"/>
        <path class="bh" d="M1242.78,1620.09s-1.34,46.73,5.33,49.54,31.93-13.44,43.07-29.51-14-53.47-18.08-74.1c-1.72-8.64-21.35-24.18-30.92-19.73s-16.56,15.86-16.56,15.86S1250,1578.83,1242.78,1620.09Z"/>
        <path class="bi" d="M1225.63,1562.15s8.29,15.94,12.55,28.32,5.06,46.64,7.74,49,23.85-8.3,26.67-21.11-5.76-38.42-13.93-51.89-16.48-20.2-16.48-20.2S1227.76,1549.09,1225.63,1562.15Z"/>
        <path class="bi" d="M1191.24,1199s11.12,18.78,0,32.45-85.89,51.23-85.34,72.92,14.24,55.65,19.17,64.26,23.08,44.36,32.51,65.28,64,121,74.65,143.56,4.1-90.24,4.1-90.24l-54.55-160,127.46-124.17S1293.81,1168.8,1191.24,1199Z"/>
        <path class="bj" d="M1239.73,987.21s-35.37,7.84-49.4,16-45.21,45.94-45.21,62.16,136.33,31.38,136.33,31.38l25.84,94.34s68.91-16.82,77.11-30.76-27.13-113.2-32.05-134.12-30.7-35-59.41-39A197.14,197.14,0,0,0,1239.73,987.21Z"/>
        <path class="bk" d="M1323.32,1202.14s-2.46,16.13,4.1,23,36.79,46.7,20.78,85.86c-14.7,36-43.21,35.27-43.21,35.27h-44.12s12.81,64.73,8.67,107.39-23.59,140.06-24,145-18.65,20.31-24,12.52c0,0-.49-58.65-3.37-80.8s-15.09-110.74-18.78-123.87-25.43-52.91-25.43-57-21.23-68.31,25.12-84.72S1261.83,1202.48,1323.32,1202.14Z"/>
        <path class="bl" d="M1199.6,1656.37s-30.43,35.49-27,41.87,33.28,9.63,52,4.14,22.77-50.35,32.55-69c4.09-7.8-1.39-32.23-11.63-34.78s-22.85,1.92-22.85,1.92S1231.14,1628.83,1199.6,1656.37Z"/>
        <path class="bk" d="M1222.7,1600.54s-3.58,17.61-8.05,29.91-25.4,39.44-24.8,43,23.76,8.54,34,.36,19.69-33.49,21.8-49.1-.11-26.07-.11-26.07S1232.57,1591.73,1222.7,1600.54Z"/>
        <path class="bg" d="M1348.2,1311c-13.88,36.44-43.21,35.27-43.21,35.27h-44.12s-18.4-29.16-63.46-34.17a133.25,133.25,0,0,0-34,.81l-.46.06c-59.87,8.87-48.31,30.85-48.13,31.42-5-12.15-10.2-31.47-8.94-41.87,5.74-47.4,74.22-57.33,85.34-71s0-32.45,0-32.45c102.57-30.24,118,4.1,118,4.1,4.5-.62,16-7.26,20.92-7.29,0,0,5.13,11.21,8.75,21.33C1342.09,1226.1,1363.26,1271.43,1348.2,1311Z"/>
        <polygon class="bm" points="1305.64 1050.04 1320.82 1191.13 1121.07 1191.13 1105.9 1050.04 1305.64 1050.04"/>
        <rect class="bm" x="1303.36" y="1178.44" width="33.36" height="12.69"/>
        <rect class="bn" x="913.82" y="1191.13" width="623.25" height="19.21"/>
        <path class="bk" d="M1261.83,833.2s44.75,13.24,38.36,75.35-35.62,58.91-38.36,59.36-37.45,2.74-48.4-72.61S1261.83,833.2,1261.83,833.2Z"/>
        <path class="bk" d="M1283.16,956.49s-2.37,20.56,1.59,33.35-52.13,13.14-52.09,2.63c0-11.94,5.74-21.92.37-42.39S1283.16,956.49,1283.16,956.49Z"/>
        <path class="bg" d="M1250.28,860.89s24.32,38.68,49.91,47.65c0,0,14-64.91-43.74-78.5s-48.68,65.56-44.37,86.66C1212.08,916.71,1224.1,885.66,1250.28,860.89Z"/>
        <path class="bo" d="M1239.66,959.11s17.71,18.45,40.35,1.93c0,0-1.87,11.79-18.16,13.31S1239.66,959.11,1239.66,959.11Z"/>
        <path class="bp" d="M1217.67,855.07s12.8-24.79,34.42-25.9,34.47,17.64,34.47,17.64-8.44-21.11-34.44-21.11S1217.67,855.07,1217.67,855.07Z"/>
        <path class="bk" d="M1290.48,986.88s-.79,43-34.88,44.26-27-41.23-27-41.23S1253.53,979.81,1290.48,986.88Z"/>
        <rect class="bq" x="1522.95" y="1210.34" width="14.13" height="441.16"/>
        <rect class="bq" x="934.94" y="1210.34" width="14.13" height="441.16"/>
      </g>
      <g>
        <path class="br" d="M1041.57,1141.28h0s11.94,5.71,8.82,3.11,7.79-17.13,22.84-36.33,5.19-27.51-4.15-49.82c-3.71-8.87-10.22-12.17-16.43-12-9.42.25-18.17,8.44-15.56,17.19,4.33,14.53,10.2,28.54-.7,43.08S1041.29,1140.92,1041.57,1141.28Z"/>
        <path class="br" d="M1074,1063.17c7.29-3.63,16.11-16.61,8.84-19.72s-1.6-12.46-8.84-12.46-10.88,11.28-6.73,17.57C1067.26,1048.56,1066.7,1066.8,1074,1063.17Z"/>
        <path class="br" d="M1075.82,1031.28s11.42-9.86,0-11.94-8.3,10.38-7.27,11.94S1075.82,1031.28,1075.82,1031.28Z"/>
        <path class="bs" d="M1030.67,1065.76c8.82-1.56,8.82-10.38,8.82-10.38s-7-13-13-7S1021.85,1067.32,1030.67,1065.76Z"/>
        <path class="bs" d="M1041.57,1141.28h0s17.39-31.66,8.3-54c-6.36-15.64-1-32.42,2.77-41.07-9.42.25-18.17,8.44-15.56,17.19,4.33,14.53,10.2,28.54-.7,43.08S1041.29,1140.92,1041.57,1141.28Z"/>
        <polygon class="bt" points="1071.92 1140.89 1020.42 1140.89 1022.61 1148.43 1070.03 1148.43 1071.92 1140.89"/>
        <polygon class="bu" points="1060.92 1191.13 1065.2 1156.95 1066.26 1148.43 1026.7 1148.43 1031.72 1191.13 1060.92 1191.13"/>
        <polygon class="bt" points="1074.14 1084.71 1085.54 1076.92 1074.14 1083.15 1074.14 1084.71"/>
        <polygon class="bt" points="1061.16 1033.59 1067.38 1039.16 1067.91 1037.87 1061.16 1033.59"/>
        <polygon class="bt" points="1076.47 1038.13 1084 1037.09 1077.12 1037.09 1076.47 1038.13"/>
        <polygon class="bt" points="1068.95 1013.09 1071.15 1020.61 1072.06 1020.61 1068.95 1013.09"/>
        <polygon class="bt" points="1077.77 1020.61 1078.42 1021.65 1083.35 1017.5 1077.77 1020.61"/>
        <polygon class="bt" points="1074.14 1019.57 1075.53 1020.09 1074.14 1015.16 1074.14 1019.57"/>
        <polygon class="bt" points="1070.76 1100.93 1075.53 1112.86 1073.23 1100.93 1070.76 1100.93"/>
        <polygon class="bt" points="1027.56 1055.3 1017.7 1048.55 1026.69 1056.35 1027.56 1055.3"/>
        <polygon class="bt" points="1035.17 1112.86 1020.98 1115.15 1035.17 1115.15 1035.17 1112.86"/>
        <path class="bv" d="M1065.2,1156.95l1.06-8.52H1026.7l5,42.71h9.63C1040.56,1167.66,1057.48,1159.46,1065.2,1156.95Z"/>
      </g>
      <g>
        <polygon class="bw" points="1048.63 1124.9 1048.31 1128.34 1047.25 1139.59 1046.98 1142.43 1046.54 1147.13 1046.27 1149.97 1043.97 1174.17 1042.49 1189.83 1042.37 1191.13 968.36 1191.13 968.12 1187.41 965.28 1142.66 964.37 1128.34 964.25 1126.42 964.21 1125.75 963.79 1119.25 1003.08 1121.87 1005.23 1122.01 1011.66 1122.43 1032.88 1123.85 1033.54 1123.89 1048.01 1124.85 1048.63 1124.9"/>
        <path class="bx" d="M1039.07,1105.24l12.54-58.22s-22.7,44.21-22.7,62.73S1039.07,1105.24,1039.07,1105.24Z"/>
        <path class="by" d="M1033.1,1102s12.54-81.84,3.58-106.34c0,0-17.92,81.57-16.13,109.59S1033.1,1102,1033.1,1102Z"/>
        <path class="bz" d="M984.71,1109.75c-2.39-14.34-20.92-53.47-20.92-53.47-1.21,20,9,53.47,9,53.47S987.1,1124.09,984.71,1109.75Z"/>
        <path class="ca" d="M991.28,1108.56c-1.79-16.73-20.91-79.45-20.91-79.45-2.39,16.13,9,79.45,9,79.45S993.07,1125.28,991.28,1108.56Z"/>
        <path class="cb" d="M997.26,1109.15c-1.19-7.17-16.51-118.88-16.51-118.88-6.36,16.73,4.24,115,4.24,115C985.61,1111.33,998.45,1116.32,997.26,1109.15Z"/>
        <path class="cc" d="M1003.23,1105.24c0-9.29-11.79-141.85-11.79-141.85-1.63,8.36-6.46,88.09-6.46,88.09l6.3,57.08S1003.23,1114.53,1003.23,1105.24Z"/>
        <path class="cd" d="M1024.8,987.88s-19.79,105.94-18.59,122.56,20.44,23.26,18.59-51.74C1024.8,1058.71,1026.06,1001.62,1024.8,987.88Z"/>
        <path class="ce" d="M1020.43,1047s-1.7-33.45-4.67-44.8c0,0-14.32,102-12.53,110.46S1017.84,1096.49,1020.43,1047Z"/>
        <path class="cf" d="M1011.75,1072.55c3.14-36.46-11.51-92.43-11.51-92.43-4.18,8.36-6.14,56.8-6.14,56.8s5.54,79.4,9,84.95S1008.61,1109,1011.75,1072.55Z"/>
        <path class="cg" d="M1048.64,1124.9l-.33,3.45-1.06,11.25-.27,2.84-.44,4.7-.27,2.84c-4.26.89-10.74,3.21-18.16,9.14-7.61,6.08-16.22,16-24.45,32h-35.3l-.24-3.72-2.83-44.76-.91-14.31-.12-1.92,0-.67,47.45-1.32,21.23-.59.66,0,14.46,1Z"/>
        <polygon class="ch" points="962.9 1105.24 957.42 1128.34 1055 1128.34 1048.84 1105.24 962.9 1105.24"/>
      </g>
      <g>
        <path class="ci" d="M1486.11,1136.86c-4.32-2.87-10.29-2.19-14.43-1.16l1.51-10.85H1415.5l9.24,66.28H1464l.87-6.19.83-5.95a23.29,23.29,0,0,0,15.55-6.14c6.24-5.71,9.82-14.91,9.82-25.25C1491,1141.42,1488.35,1138.35,1486.11,1136.86Zm-9.15,31.36a16.79,16.79,0,0,1-10.42,4.44l4.19-30.11c3.08-1,8.92-2.42,11.9-.45.52.35,2.11,1.4,2.11,5.5C1484.73,1156.18,1481.9,1163.69,1477,1168.21Z"/>
        <g class="cj">
          <path class="ck" d="M1464,1191.13h-39.23l-9.24-66.28h21.24s-7.63,59.82,27.22,66.28Z"/>
        </g>
        <path class="cl" d="M1442,1079.22s-12.13,4-7.64,14.83,12.23,17.58,4.94,30.81c0,0,13.48-8.11,7.19-21.59S1436.43,1086,1442,1079.22Z"/>
        <path class="cm" d="M1459.44,1091.38s-8.9,3-5.6,10.88,9,12.89,3.63,22.6c0,0,9.89-6,5.27-15.84S1455.32,1096.33,1459.44,1091.38Z"/>
        <path class="cn" d="M1427.09,1091.38s-8.9,3-5.6,10.88,9,12.89,3.63,22.6c0,0,9.89-6,5.27-15.84S1423,1096.33,1427.09,1091.38Z"/>
      </g>
    </g>
    <g>
      <polygon class="am" points="314.95 672.24 309.47 672.24 326.21 638.4 331.7 638.4 314.95 672.24"/>
      <rect class="am" x="138.45" y="669.14" width="265.61" height="4.21"/>
      <rect class="am" x="138.45" y="682.79" width="141.89" height="24.36"/>
      <rect class="am" x="309.47" y="625.01" width="73.93" height="13.39"/>
      <rect class="am" x="309.47" y="618.76" width="73.93" height="2.52"/>
    </g>
    <rect class="co" x="667.34" y="340.1" width="145.58" height="38.82" rx="9.66" ry="9.66"/>
    <rect class="co" x="667.34" y="412.78" width="145.58" height="38.82" rx="9.66" ry="9.66"/>
    <rect class="co" x="667.34" y="485.47" width="145.58" height="38.82" rx="9.66" ry="9.66"/>
    <g>
      <path class="co" d="M597,253.51C564.57,163,478,107.35,386.83,110.09A216.33,216.33,0,0,0,189.64,399.18c1.63,4.58,3.42,9.08,5.32,13.48A216.12,216.12,0,0,0,466.14,530C578.62,489.78,637.18,366,597,253.51ZM447.9,479a162,162,0,0,1-203.3-88q-2.15-5-4-10.11A162.17,162.17,0,1,1,447.9,479Z"/>
      <path class="cp" d="M238.49,278l-51.68-16.14a216.6,216.6,0,0,1,200-151.79l1.62,54.12A162.41,162.41,0,0,0,238.49,278Z"/>
      <path class="cq" d="M244.6,391.06,195,412.67c-1.91-4.4-3.69-8.91-5.32-13.48a215.33,215.33,0,0,1-2.82-137.31L238.49,278a161.44,161.44,0,0,0,2.11,102.94Q242.45,386.1,244.6,391.06Z"/>
      <path class="cr" d="M228.49,466.51A215.18,215.18,0,0,1,195,412.67l49.64-21.61a161.21,161.21,0,0,0,25.13,40.38Z"/>
    </g>
  </g>
</svg>
