<?xml version="1.0"?>
<svg xmlns="http://www.w3.org/2000/svg" id="Layer_5" enable-background="new 0 0 64 64" height="512px" viewBox="0 0 64 64" width="512px" class=""><g><path d="m49 33h-33.286l-.743.011 1.856 4.176c.447 1.008-.008 2.191-1.015 2.64-.258.115-.531.173-.812.173-.79 0-1.507-.466-1.828-1.188l-2.549-5.735-.223.004-.18.076c-.741.316-1.22 1.038-1.22 1.843v22c0 1.103.897 2 2 2h38c1.103 0 2-.897 2-2v-22c0-1.103-.897-2-2-2zm-19 21c-4.418 0-8-3.582-8-8s3.582-8 8-8 8 3.582 8 8-3.582 8-8 8z" fill="#f0bc5e" data-original="#F0BC5E" class="" data-old_color="#f0bc5e" style="fill:#F4D75C"/><path d="m58 29h-31v-6h2c.042 0 .083-.002.124-.008 5.06-.632 8.876-4.955 8.876-10.054v-4.938c0-1.654-1.346-3-3-3-.817 0-1.583.319-2.156.897-.571.577-.882 1.342-.875 2.154.012 1.36.02 3.211.024 4.947.003 1.068-.411 2.072-1.165 2.828-.754.757-1.759 1.174-2.828 1.174h-2.54c.954-1.063 1.54-2.462 1.54-4 0-3.309-2.691-6-6-6s-6 2.691-6 6c0 1.614.643 3.078 1.684 4.157-4.921.833-8.684 5.114-8.684 10.267 0 .533.054 1.057.133 1.576h-2.133c-2.757 0-5 2.243-5 5v24c0 2.757 2.243 5 5 5h52c2.757 0 5-2.243 5-5v-24c0-2.757-2.243-5-5-5zm-37-20c2.206 0 4 1.794 4 4s-1.794 4-4 4-4-1.794-4-4 1.794-4 4-4zm-2.576 10h9.576c1.604 0 3.112-.625 4.245-1.761 1.132-1.135 1.753-2.643 1.749-4.245-.004-1.741-.012-3.597-.024-4.96-.002-.274.103-.533.295-.728.195-.198.456-.306.735-.306.551 0 1 .449 1 1v4.938c0 4.073-3.033 7.528-7.064 8.062h-2.936c-.552 0-1 .448-1 1v7h-8v-6.421c0-.347-.18-.669-.475-.851-.295-.183-.664-.199-.974-.042-2.19 1.1-3.551 3.299-3.551 5.739 0 .905.186 1.782.554 2.609l3.36 7.56c.224.504-.004 1.097-.507 1.321-.493.216-1.102-.018-1.32-.508l-3.36-7.561c-.483-1.083-.727-2.234-.727-3.422 0-4.645 3.779-8.424 8.424-8.424zm-4.424 8.424c0-1.044.363-2.024 1-2.798v4.374h-.69c-.194-.505-.31-1.031-.31-1.576zm-11 13.576h1c.551 0 1 .448 1 1v8c0 .552-.449 1-1 1h-1zm0 17v-5h1c1.654 0 3-1.346 3-3v-8c0-1.654-1.346-3-3-3h-1v-5c0-1.654 1.346-3 3-3h2.646c.081.22.157.442.253.658l3.36 7.561c.481 1.082 1.557 1.781 2.741 1.781.423 0 .833-.087 1.219-.26 1.51-.672 2.192-2.447 1.521-3.959l-2.568-5.781h37.828v30h-47c-1.654 0-3-1.346-3-3zm58 0c0 1.654-1.346 3-3 3h-3v-30h3c1.654 0 3 1.346 3 3z" data-original="#000000" class="active-path" data-old_color="#000000" style="fill:#030715"/><path d="m57 41h2v10h-2z" data-original="#000000" class="active-path" data-old_color="#000000" style="fill:#030715"/><path d="m51 25c6.065 0 11-4.935 11-11v-2c0-6.065-4.935-11-11-11s-11 4.935-11 11v2c0 6.065 4.935 11 11 11zm-9-13c0-4.962 4.038-9 9-9s9 4.038 9 9v2c0 4.962-4.038 9-9 9s-9-4.038-9-9z" data-original="#000000" class="active-path" data-old_color="#000000" style="fill:#030715"/><path d="m51 7c2.757 0 5 2.243 5 5v2c0 .88-.231 1.744-.668 2.499l1.73 1.002c.614-1.059.938-2.27.938-3.501v-2c0-3.86-3.14-7-7-7s-7 3.14-7 7h2c0-2.757 2.243-5 5-5z" data-original="#000000" class="active-path" data-old_color="#000000" style="fill:#030715"/><path d="m51 21c1.725 0 3.382-.633 4.667-1.783l-1.334-1.49c-.917.821-2.101 1.273-3.333 1.273-2.757 0-5-2.243-5-5h-2c0 3.86 3.14 7 7 7z" data-original="#000000" class="active-path" data-old_color="#000000" style="fill:#030715"/><path d="m51 11c.551 0 1 .449 1 1h2c0-1.654-1.346-3-3-3s-3 1.346-3 3v2c0 1.654 1.346 3 3 3s3-1.346 3-3h-2c0 .551-.449 1-1 1s-1-.449-1-1v-2c0-.551.449-1 1-1z" data-original="#000000" class="active-path" data-old_color="#000000" style="fill:#030715"/><path d="m41.707 38.707-1.414-1.414-3.194 3.194c-1.649-2.117-4.214-3.487-7.099-3.487-4.962 0-9 4.037-9 9s4.038 9 9 9 9-4.037 9-9c0-1.341-.303-2.61-.831-3.755zm-4.707 7.293c0 3.859-3.14 7-7 7s-7-3.141-7-7 3.14-7 7-7c2.334 0 4.399 1.153 5.672 2.914l-5.672 5.672-3.293-3.293-1.414 1.414 4.707 4.707 6.633-6.633c.235.698.367 1.443.367 2.219z" data-original="#000000" class="active-path" data-old_color="#000000" style="fill:#030715"/></g> </svg>
