<svg xmlns="http://www.w3.org/2000/svg" viewBox="0 0 496 496" width="512" height="512" class="hovered-paths"><path data-original="#FFA64D" class="hovered-path" data-old_color="#FFA64D" fill="#f4d75c" d="M368 72h80v416h-80zM64 32h160v144H64z"/><path d="M464 32V0H32v32H0v368h272v56c0 22.056 17.944 40 40 40s40-17.944 40-40v-56h16v-16h-16v-16h16v-16h-16V165.576l-40-60-40 60V352h-16V16h192v80h-32v16h32v16h-48v16h48v16h-32v16h32v16h-48v16h48v16h-32v16h32v16h-48v16h48v16h-32v16h32v16h-48v16h48v16h-32v16h48V48h16v336h-80v16h96V32h-32zM304 176v192h16V176h16v224h-16v-16h-16v16h-16V176h16zm-16 240h48v16h-48v-16zm24 64c-13.232 0-24-10.768-24-24v-8h48v8c0 13.232-10.768 24-24 24zm17.056-320h-34.104L312 134.424 329.056 160zM272 384H16V48h16v320h240v16zm-32-32H48V16h192v336z" data-original="#333333" class="active-path" data-old_color="#333333" fill="#030715"/><path data-original="#333333" class="active-path" data-old_color="#333333" fill="#030715" d="M64 192h160v16H64zm0 32h160v16H64zm0 32h160v16H64zm0 32h160v16H64zm144 32h16v16h-16zm-144 0h128v16H64zm352 96h32v16h-32zm-16 32h48v16h-48z"/></svg>