<?xml version="1.0"?>
<svg xmlns="http://www.w3.org/2000/svg" id="Layer_35" enable-background="new 0 0 64 64" height="512px" viewBox="0 0 64 64" width="512px" class="hovered-paths"><g><path d="m51.121 35.131c-1.388-2.429-2.121-5.268-2.121-8.208v-8.923c0-9.374-7.626-17-17-17s-17 7.626-17 17v8.924c0 2.914-.75 5.782-2.17 8.295-1.971 3.488-2.946 7.461-2.819 11.489.041 1.302.209 2.634.501 3.959l.118.539c1.318-1.253 2.877-2.277 4.625-2.992l10.259-4.197c1.504-.615 2.486-2.078 2.486-3.702v-1.249c-4.903-3.182-8-8.674-8-14.715v-1.395c0-2.4 1.43-4.569 3.636-5.515l3.364-1.441 1.658.829c4.171 2.085 8.769 3.171 13.432 3.171h1.91v4.351c0 6.041-3.097 11.533-8 14.715v1.249c0 1.624.982 3.087 2.485 3.702l10.259 4.197c1.754.718 3.317 1.746 4.638 3.005l.118-.546c.332-1.533.5-3.106.5-4.673 0-3.812-.996-7.57-2.879-10.869z" fill="#f0bc5e" data-original="#F0BC5E" class="hovered-path" data-old_color="#f0bc5e" style="fill:#F4D75C"/><path d="m49.123 47.289-10.259-4.198c-1.133-.463-1.864-1.553-1.864-2.777v-.718c4.921-3.401 8-9.039 8-15.246v-5.35h-2.91c-4.484 0-8.975-1.06-12.985-3.065-.681-.341-1.105-1.027-1.105-1.789v-.146c0-1.103.897-2 2-2s2 .897 2 2h2c0-2.206-1.794-4-4-4s-4 1.794-4 4v.146c0 .388.055.767.16 1.126l-2.917 1.25c-2.577 1.105-4.243 3.631-4.243 6.435v1.395c0 6.206 3.079 11.845 8 15.246v.718c0 1.224-.731 2.313-1.864 2.776l-10.259 4.197c-6 2.454-9.877 8.229-9.877 14.711v1h54v-1c0-6.482-3.877-12.257-9.877-14.711zm-6.247 4.916-5.905 1.181 3.615 3.614-4 4h-2.26l4.503-15.762 3.242 1.326zm-21.752 0 .806-5.641 3.241-1.326 4.503 15.762h-2.26l-4-4 3.614-3.614zm7.376-2.596c1.076.246 2.261.391 3.5.391 1.24 0 2.424-.145 3.5-.391l-3.254 11.391h-.491zm-7.5-25.258v-1.395c0-2.003 1.189-3.807 3.031-4.596l3.167-1.357c.293.286.633.53 1.014.72 4.286 2.144 9.085 3.277 13.878 3.277h.91v3.351c0 7.023-4.406 13.247-11 15.591-6.594-2.344-11-8.567-11-15.591zm7.964 16.445c.864.45 1.772.837 2.719 1.152l.317.106.316-.105c.947-.316 1.855-.702 2.719-1.152.136 1.417.857 2.682 1.978 3.516l-.865 3.029c-2.297.813-5.998.814-8.296 0l-.865-3.029c1.12-.834 1.841-2.1 1.977-3.517zm-13.33 8.343 4.15-1.698-.908 6.354 4.095.819-2.385 2.386 4 4h-7.586v-7h-2v7h-7.965c.373-5.255 3.665-9.842 8.599-11.861zm33.366 11.861v-7h-2v7h-7.586l4-4-2.386-2.386 4.095-.819-.908-6.353 4.15 1.698c4.934 2.018 8.226 6.605 8.599 11.86z" data-original="#000000" class="active-path" style="fill:#323232" data-old_color="#000000"/><circle cx="26" cy="24" r="1" data-original="#000000" class="active-path" style="fill:#323232" data-old_color="#000000"/><circle cx="38" cy="24" r="1" data-original="#000000" class="active-path" style="fill:#323232" data-old_color="#000000"/><path d="m36 32h-2c0 1.103-.897 2-2 2s-2-.897-2-2h-2c0 2.206 1.794 4 4 4s4-1.794 4-4z" data-original="#000000" class="active-path" style="fill:#323232" data-old_color="#000000"/></g> </svg>
