<?xml version="1.0"?>
<svg xmlns="http://www.w3.org/2000/svg" xmlns:xlink="http://www.w3.org/1999/xlink" version="1.1" id="Capa_1" x="0px" y="0px" viewBox="0 0 496 496" style="enable-background:new 0 0 496 496;" xml:space="preserve" width="512px" height="512px" class="hovered-paths"><g><g>
	<path style="fill:#F4D75C" d="M128,160c-35.288,0-64-28.712-64-64s28.712-64,64-64s64,28.712,64,64S163.288,160,128,160z" data-original="#F0BC5E" class="" data-old_color="#F0BC5E"/>
	<path style="fill:#F4D75C" d="M368,128H240V32h128V128z" data-original="#F0BC5E" class="" data-old_color="#F0BC5E"/>
</g><path d="M456,288h-24V48h-32V0H32v48H0v416h176.808c3.712,18.232,19.88,32,39.192,32s35.48-13.768,39.192-32H432v-96h24  c22.056,0,40-17.944,40-40S478.056,288,456,288z M432,320h-32v16h32v16H304v-16h80v-16h-80v-16h128V320z M288,347.056  l-29.264-14.632C257.048,331.576,256,329.88,256,328s1.048-3.576,2.736-4.424L288,308.944V347.056z M400,80V64h16v224h-16V96h-16  v192h-89.888l-42.536,21.264C244.44,312.84,240,320.016,240,328s4.44,15.16,11.576,18.736L294.112,368H384v48H224V16h160v64H400z   M48,16h160v400H48V16z M416,448H240v8c0,13.232-10.768,24-24,24s-24-10.768-24-24v-8H16V64h16v368h368v-64h16V448z M456,352h-8v-48  h8c13.232,0,24,10.768,24,24S469.232,352,456,352z" data-original="#000000" class="hovered-path active-path" style="fill:#030715" data-old_color="#000000"/><rect x="240" y="384" width="128" height="16" data-original="#000000" class="hovered-path active-path" style="fill:#030715" data-old_color="#000000"/><rect x="96" y="176" width="96" height="16" data-original="#000000" class="hovered-path active-path" style="fill:#030715" data-old_color="#000000"/><rect x="64" y="208" width="128" height="16" data-original="#000000" class="hovered-path active-path" style="fill:#030715" data-old_color="#000000"/><rect x="64" y="240" width="128" height="16" data-original="#000000" class="hovered-path active-path" style="fill:#030715" data-old_color="#000000"/><rect x="64" y="272" width="128" height="16" data-original="#000000" class="hovered-path active-path" style="fill:#030715" data-old_color="#000000"/><rect x="240" y="144" width="128" height="16" data-original="#000000" class="hovered-path active-path" style="fill:#030715" data-old_color="#000000"/><rect x="240" y="176" width="128" height="16" data-original="#000000" class="hovered-path active-path" style="fill:#030715" data-old_color="#000000"/><rect x="240" y="208" width="128" height="16" data-original="#000000" class="hovered-path active-path" style="fill:#030715" data-old_color="#000000"/><rect x="240" y="240" width="72" height="16" data-original="#000000" class="hovered-path active-path" style="fill:#030715" data-old_color="#000000"/><rect x="64" y="304" width="128" height="16" data-original="#000000" class="hovered-path active-path" style="fill:#030715" data-old_color="#000000"/><rect x="112" y="336" width="80" height="16" data-original="#000000" class="hovered-path active-path" style="fill:#030715" data-old_color="#000000"/><rect x="64" y="336" width="32" height="16" data-original="#000000" class="hovered-path active-path" style="fill:#030715" data-old_color="#000000"/><rect x="64" y="368" width="128" height="16" data-original="#000000" class="hovered-path active-path" style="fill:#030715" data-old_color="#000000"/><rect x="64" y="176" width="16" height="16" data-original="#000000" class="hovered-path active-path" style="fill:#030715" data-old_color="#000000"/></g> </svg>
