<svg xmlns="http://www.w3.org/2000/svg" xmlns:xlink="http://www.w3.org/1999/xlink" width="509.44" height="400.54" viewBox="0 0 509.44 400.54">
  <defs>
    <style>
      .a {
        fill: none;
      }

      .b {
        isolation: isolate;
      }

      .c {
        fill: #2b2a7b;
      }

      .bn, .d {
        opacity: 0.4;
      }

      .af, .an, .ao, .at, .ay, .bc, .bf, .bn, .d, .f, .h, .s, .y {
        mix-blend-mode: color-burn;
      }

      .d {
        fill: url(#a);
      }

      .e {
        fill: #1b1b63;
      }

      .f, .h, .s {
        opacity: 0.5;
      }

      .f {
        fill: url(#b);
      }

      .g {
        fill: #2d2d91;
      }

      .h {
        fill: url(#c);
      }

      .i {
        clip-path: url(#d);
      }

      .j {
        fill: #fb4161;
      }

      .k {
        fill: url(#e);
      }

      .l, .u, .v, .w {
        opacity: 0.1;
      }

      .ac, .ad, .ae, .ax, .l, .u, .v, .w {
        mix-blend-mode: multiply;
      }

      .m {
        fill: url(#f);
      }

      .n {
        fill: url(#g);
      }

      .o {
        fill: #f24167;
      }

      .p {
        fill: #e5355b;
      }

      .q {
        fill: #ff5c7f;
      }

      .r {
        fill: #d62b58;
      }

      .s {
        fill: url(#h);
      }

      .t {
        fill: #e5cb0e;
      }

      .u {
        fill: url(#i);
      }

      .v {
        fill: url(#j);
      }

      .w {
        fill: url(#k);
      }

      .x {
        fill: #e0700b;
      }

      .y {
        opacity: 0.35;
        fill: url(#l);
      }

      .z {
        fill: #fff;
      }

      .aa {
        clip-path: url(#m);
      }

      .ab {
        fill: url(#n);
      }

      .ac, .ad, .ae {
        opacity: 0.22;
      }

      .ac {
        fill: url(#o);
      }

      .ad {
        fill: url(#p);
      }

      .ae {
        fill: url(#q);
      }

      .af {
        opacity: 0.38;
        fill: url(#r);
      }

      .ag {
        fill: url(#s);
      }

      .ah {
        fill: #abe5ff;
      }

      .ai {
        fill: #1c61bf;
      }

      .aj {
        fill: #164b94;
      }

      .ak {
        fill: #2a7ae8;
      }

      .al {
        fill: #e0e0e0;
      }

      .am {
        fill: #bdbdbd;
      }

      .an {
        fill: url(#t);
      }

      .ao {
        fill: url(#u);
      }

      .ap {
        fill: #eee;
      }

      .aq {
        fill: url(#v);
      }

      .ar {
        fill: url(#w);
      }

      .as {
        fill: url(#x);
      }

      .at {
        opacity: 0.41;
        fill: url(#y);
      }

      .au {
        mix-blend-mode: color-dodge;
        fill: url(#z);
      }

      .av, .ax {
        fill: #616161;
      }

      .aw {
        fill: #b2ebf2;
      }

      .ax {
        opacity: 0.2;
      }

      .az {
        fill: url(#aa);
      }

      .ba {
        fill: url(#ab);
      }

      .bb {
        fill: url(#ac);
      }

      .bc, .bf {
        opacity: 0.54;
      }

      .bc {
        fill: url(#ad);
      }

      .bd {
        fill: url(#ae);
      }

      .be {
        fill: url(#af);
      }

      .bf {
        fill: url(#ag);
      }

      .bg {
        fill: #757575;
      }

      .bh {
        fill: #424242;
      }

      .bi {
        fill: url(#ah);
      }

      .bj {
        fill: url(#ai);
      }

      .bk {
        fill: url(#aj);
      }

      .bl {
        fill: url(#ak);
      }

      .bm {
        opacity: 0.26;
        fill: url(#al);
      }

      .bn {
        fill: #faf4dd;
      }
    </style>
    <radialGradient id="a" cx="237.2" cy="201.89" r="290.02" gradientTransform="translate(22.29 21.39) rotate(7.72) scale(1 0.74)" gradientUnits="userSpaceOnUse">
      <stop offset="0.63" stop-color="#fff"/>
      <stop offset="0.72" stop-color="#fdfcfc"/>
      <stop offset="0.77" stop-color="#f4f4f4"/>
      <stop offset="0.81" stop-color="#e6e6e6"/>
      <stop offset="0.85" stop-color="#d2d2d2"/>
      <stop offset="0.89" stop-color="#b9b7b8"/>
      <stop offset="0.92" stop-color="#999798"/>
      <stop offset="0.95" stop-color="#747172"/>
      <stop offset="0.98" stop-color="#494647"/>
      <stop offset="1" stop-color="#231f20"/>
    </radialGradient>
    <radialGradient id="b" cx="221.68" cy="218.94" r="301.16" gradientTransform="translate(13.23 54.42) rotate(4.87) scale(1 0.67)" gradientUnits="userSpaceOnUse">
      <stop offset="0.49" stop-color="#fff"/>
      <stop offset="0.62" stop-color="#fdfdfd"/>
      <stop offset="0.69" stop-color="#f4f4f4"/>
      <stop offset="0.75" stop-color="#e7e6e6"/>
      <stop offset="0.8" stop-color="#d3d2d2"/>
      <stop offset="0.85" stop-color="#b9b8b8"/>
      <stop offset="0.89" stop-color="#9a9899"/>
      <stop offset="0.93" stop-color="#757273"/>
      <stop offset="0.97" stop-color="#4a4748"/>
      <stop offset="1" stop-color="#231f20"/>
    </radialGradient>
    <radialGradient id="c" cx="249.02" cy="232.54" r="241.16" gradientTransform="matrix(0.99, 0.13, -0.1, 0.72, 24.76, 32.45)" gradientUnits="userSpaceOnUse">
      <stop offset="0.55" stop-color="#fff"/>
      <stop offset="0.64" stop-color="#fcfcfc"/>
      <stop offset="0.7" stop-color="#f3f3f3"/>
      <stop offset="0.76" stop-color="#e5e4e4"/>
      <stop offset="0.81" stop-color="#cfcfcf"/>
      <stop offset="0.85" stop-color="#b4b3b3"/>
      <stop offset="0.9" stop-color="#929091"/>
      <stop offset="0.94" stop-color="#6a6868"/>
      <stop offset="0.98" stop-color="#3d3a3b"/>
      <stop offset="1" stop-color="#231f20"/>
    </radialGradient>
    <clipPath id="d">
      <path class="a" d="M382.79,315.88c-66.74-52-102.45-21.69-136,20.12C201.09,392.84,72.4,351.33,98.27,307.26s36.4-54.61-6.71-126.45A75,75,0,0,1,81.2,133.05c55.85-10.34,74.15,94.21,71-80.94,14.63-2.62,29.13.58,40.91,11.82,60.07,57.33,128.05,5.11,208.53,66.42S433.47,355.4,382.79,315.88Z"/>
    </clipPath>
    <linearGradient id="e" x1="231.27" y1="299.68" x2="231.27" y2="368.87" gradientUnits="userSpaceOnUse">
      <stop offset="0" stop-color="#ff5985"/>
      <stop offset="1" stop-color="#fb4161"/>
    </linearGradient>
    <linearGradient id="f" x1="367.46" y1="346.82" x2="92.9" y2="346.82" gradientUnits="userSpaceOnUse">
      <stop offset="0" stop-color="#231f20" stop-opacity="0.2"/>
      <stop offset="1" stop-opacity="0.7"/>
    </linearGradient>
    <linearGradient id="g" x1="367.46" y1="363.63" x2="92.83" y2="363.63" xlink:href="#f"/>
    <radialGradient id="h" cx="98.68" cy="191.35" r="70.57" gradientTransform="translate(63.2 -9.77) rotate(18.89) scale(1 0.93)" xlink:href="#b"/>
    <linearGradient id="i" x1="366.36" y1="110.29" x2="440.12" y2="154.68" xlink:href="#f"/>
    <linearGradient id="j" x1="397.16" y1="59.1" x2="470.92" y2="103.49" xlink:href="#f"/>
    <linearGradient id="k" x1="381.17" y1="85.67" x2="454.94" y2="130.06" xlink:href="#f"/>
    <radialGradient id="l" cx="387.22" cy="64.89" r="101.98" gradientTransform="matrix(0.62, 0.78, -0.89, 0.71, 218.9, -290.79)" gradientUnits="userSpaceOnUse">
      <stop offset="0.41" stop-color="#fff" stop-opacity="0.5"/>
      <stop offset="0.57" stop-color="#f8f8f8" stop-opacity="0.51"/>
      <stop offset="0.68" stop-color="#e3e3e3" stop-opacity="0.56"/>
      <stop offset="0.78" stop-color="#bfbebf" stop-opacity="0.64"/>
      <stop offset="0.87" stop-color="#8d8b8b" stop-opacity="0.76"/>
      <stop offset="0.96" stop-color="#4c494a" stop-opacity="0.91"/>
      <stop offset="1" stop-color="#231f20"/>
    </radialGradient>
    <clipPath id="m">
      <path class="a" d="M216.52,81a105.07,105.07,0,0,1-23.41-17.06C181.34,52.7,166.83,49.49,152.2,52.11c3.14,175.15-15.16,70.6-71,80.94a75,75,0,0,0,10.37,47.76c15.27,25.45,23.8,43.2,27.31,57.48h97.64Z"/>
    </clipPath>
    <linearGradient id="n" x1="124.24" y1="-5.9" x2="163.87" y2="35.65" gradientTransform="translate(3.97 155.04)" xlink:href="#e"/>
    <linearGradient id="o" x1="129.41" y1="-2.17" x2="160.39" y2="36.98" gradientTransform="matrix(0.99, -0.13, 0.13, 0.99, 3.38, 173.96)" xlink:href="#f"/>
    <linearGradient id="p" x1="131.06" y1="-3.47" x2="162.04" y2="35.68" gradientTransform="matrix(0.99, -0.13, 0.13, 0.99, 3.38, 173.96)" xlink:href="#f"/>
    <linearGradient id="q" x1="130" y1="-2.64" x2="160.99" y2="36.52" gradientTransform="matrix(0.99, -0.13, 0.13, 0.99, 3.38, 173.96)" xlink:href="#f"/>
    <radialGradient id="r" cx="184.73" cy="155.46" r="73.94" gradientTransform="matrix(-0.85, 0.52, -0.65, -1.06, 444.66, 218.98)" gradientUnits="userSpaceOnUse">
      <stop offset="0.13" stop-color="#fff" stop-opacity="0.5"/>
      <stop offset="0.34" stop-color="#f7f7f7" stop-opacity="0.52"/>
      <stop offset="0.51" stop-color="#e0dfdf" stop-opacity="0.57"/>
      <stop offset="0.67" stop-color="#b8b6b7" stop-opacity="0.66"/>
      <stop offset="0.82" stop-color="#807d7e" stop-opacity="0.79"/>
      <stop offset="0.96" stop-color="#383435" stop-opacity="0.95"/>
      <stop offset="1" stop-color="#231f20"/>
    </radialGradient>
    <linearGradient id="s" x1="100.95" y1="171.65" x2="188.66" y2="171.65" gradientTransform="matrix(0.98, -0.2, 0.2, 0.98, -28.74, 29.87)" gradientUnits="userSpaceOnUse">
      <stop offset="0" stop-color="#ff96b2"/>
      <stop offset="1" stop-color="#fb7d93"/>
    </linearGradient>
    <linearGradient id="t" x1="371.91" y1="279.3" x2="390.55" y2="274.73" gradientTransform="translate(60.49 669.52) rotate(-81.77)" gradientUnits="userSpaceOnUse">
      <stop offset="0.26" stop-color="#fff" stop-opacity="0.5"/>
      <stop offset="0.4" stop-color="#f5f5f5" stop-opacity="0.52"/>
      <stop offset="0.56" stop-color="#d8d7d8" stop-opacity="0.59"/>
      <stop offset="0.71" stop-color="#a8a6a7" stop-opacity="0.7"/>
      <stop offset="0.87" stop-color="#646262" stop-opacity="0.85"/>
      <stop offset="1" stop-color="#231f20"/>
    </linearGradient>
    <linearGradient id="u" x1="492.44" y1="279.62" x2="511.08" y2="275.06" gradientTransform="matrix(-0.14, 0.99, 0.99, 0.14, 193.76, -253.85)" gradientUnits="userSpaceOnUse">
      <stop offset="0.26" stop-color="#fff" stop-opacity="0.5"/>
      <stop offset="0.46" stop-color="#cecdcd" stop-opacity="0.61"/>
      <stop offset="0.87" stop-color="#4f4c4d" stop-opacity="0.9"/>
      <stop offset="1" stop-color="#231f20"/>
    </linearGradient>
    <linearGradient id="v" x1="379.52" y1="243.89" x2="432.88" y2="243.89" gradientTransform="translate(60.49 669.52) rotate(-81.77)" xlink:href="#e"/>
    <linearGradient id="w" x1="358.62" y1="278.69" x2="369.64" y2="278.69" gradientTransform="translate(60.49 669.52) rotate(-81.77)" xlink:href="#e"/>
    <linearGradient id="x" x1="358.62" y1="287.27" x2="369.64" y2="287.27" gradientTransform="translate(60.49 669.52) rotate(-81.77)" xlink:href="#e"/>
    <radialGradient id="y" cx="406.74" cy="227.63" r="27.69" gradientTransform="matrix(0.15, -0.99, 4.46, 0.66, -729.76, 552.72)" gradientUnits="userSpaceOnUse">
      <stop offset="0.37" stop-color="#fff" stop-opacity="0.5"/>
      <stop offset="0.49" stop-color="#f5f5f5" stop-opacity="0.52"/>
      <stop offset="0.62" stop-color="#d8d7d8" stop-opacity="0.59"/>
      <stop offset="0.76" stop-color="#a8a6a7" stop-opacity="0.7"/>
      <stop offset="0.89" stop-color="#646262" stop-opacity="0.85"/>
      <stop offset="1" stop-color="#231f20"/>
    </radialGradient>
    <radialGradient id="z" cx="645.15" cy="227.96" r="32.9" gradientTransform="matrix(-0.17, 0.99, 4.44, 0.76, -559.78, -508.31)" gradientUnits="userSpaceOnUse">
      <stop offset="0.59" stop-color="#231f20"/>
      <stop offset="0.86" stop-color="#bab9b9" stop-opacity="0.66"/>
      <stop offset="1" stop-color="#fff" stop-opacity="0.5"/>
    </radialGradient>
    <linearGradient id="aa" data-name="White, Black" x1="409.48" y1="218.33" x2="401.67" y2="203.67" gradientTransform="translate(60.49 669.52) rotate(-81.77)" gradientUnits="userSpaceOnUse">
      <stop offset="0" stop-color="#fff"/>
      <stop offset="1" stop-color="#231f20"/>
    </linearGradient>
    <linearGradient id="ab" x1="404.14" y1="221.18" x2="396.33" y2="206.51" xlink:href="#aa"/>
    <linearGradient id="ac" x1="412.12" y1="216.92" x2="404.31" y2="202.26" xlink:href="#aa"/>
    <linearGradient id="ad" x1="370.52" y1="296.3" x2="358.07" y2="296.3" gradientTransform="translate(60.49 669.52) rotate(-81.77)" gradientUnits="userSpaceOnUse">
      <stop offset="0.25" stop-color="#fff" stop-opacity="0.5"/>
      <stop offset="0.39" stop-color="#f5f5f5" stop-opacity="0.52"/>
      <stop offset="0.55" stop-color="#d8d7d8" stop-opacity="0.59"/>
      <stop offset="0.71" stop-color="#a8a6a7" stop-opacity="0.7"/>
      <stop offset="0.87" stop-color="#646262" stop-opacity="0.85"/>
      <stop offset="1" stop-color="#231f20"/>
    </linearGradient>
    <linearGradient id="ae" x1="442.76" y1="278.69" x2="453.78" y2="278.69" gradientTransform="translate(60.49 669.52) rotate(-81.77)" xlink:href="#e"/>
    <linearGradient id="af" x1="442.76" y1="287.27" x2="453.78" y2="287.27" gradientTransform="translate(60.49 669.52) rotate(-81.77)" xlink:href="#e"/>
    <linearGradient id="ag" x1="454.66" y1="296.3" x2="442.21" y2="296.3" gradientTransform="translate(60.49 669.52) rotate(-81.77)" gradientUnits="userSpaceOnUse">
      <stop offset="0.31" stop-color="#fff" stop-opacity="0.5"/>
      <stop offset="0.45" stop-color="#f5f5f5" stop-opacity="0.52"/>
      <stop offset="0.59" stop-color="#d8d7d8" stop-opacity="0.59"/>
      <stop offset="0.74" stop-color="#a8a6a7" stop-opacity="0.7"/>
      <stop offset="0.88" stop-color="#646262" stop-opacity="0.85"/>
      <stop offset="1" stop-color="#231f20"/>
    </linearGradient>
    <linearGradient id="ah" x1="246.01" y1="131.93" x2="251.53" y2="131.93" xlink:href="#e"/>
    <linearGradient id="ai" x1="247.59" y1="135.24" x2="249.95" y2="135.24" xlink:href="#e"/>
    <linearGradient id="aj" x1="247.59" y1="135.95" x2="249.95" y2="135.95" xlink:href="#e"/>
    <linearGradient id="ak" x1="247.59" y1="136.66" x2="249.95" y2="136.66" xlink:href="#e"/>
    <linearGradient id="al" x1="230.77" y1="154.64" x2="251.32" y2="145.46" gradientUnits="userSpaceOnUse">
      <stop offset="0" stop-color="#fff"/>
      <stop offset="0.09" stop-color="#f8f7f8"/>
      <stop offset="0.24" stop-color="#e3e3e3"/>
      <stop offset="0.41" stop-color="#c2c1c1"/>
      <stop offset="0.61" stop-color="#939192"/>
      <stop offset="0.82" stop-color="#595657"/>
      <stop offset="1" stop-color="#231f20"/>
    </linearGradient>
  </defs>
  <title>404</title>
  <g class="b">
    <g>
      <path class="c" d="M46.81,152.55C129.81,75.16,156,259.85,152.18,51c-1.59-86.61,158.76-28.59,253.87,53.65,115.34,99.72,135.06,201.4-86.22,270.15C122.49,436.12-80.61,271.34,46.81,152.55Z"/>
      <path class="d" d="M46.81,152.55C129.81,75.16,156,259.85,152.18,51c-1.59-86.61,158.76-28.59,253.87,53.65,115.34,99.72,135.06,201.4-86.22,270.15C122.49,436.12-80.61,271.34,46.81,152.55Z"/>
      <path class="e" d="M382.79,315.88c-66.74-52-102.45-21.69-136,20.12C201.09,392.84,72.4,351.33,98.27,307.26s36.4-54.61-6.71-126.45A75,75,0,0,1,81.2,133.05c55.85-10.34,74.15,94.21,71-80.94,14.63-2.62,29.13.58,40.91,11.82,60.07,57.33,128.05,5.11,208.53,66.42S433.47,355.4,382.79,315.88Z"/>
      <path class="f" d="M382.79,315.88c-66.74-52-102.45-21.69-136,20.12C201.09,392.84,72.4,351.33,98.27,307.26s36.4-54.61-6.71-126.45A75,75,0,0,1,81.2,133.05c55.85-10.34,74.15,94.21,71-80.94,14.63-2.62,29.13.58,40.91,11.82,60.07,57.33,128.05,5.11,208.53,66.42S433.47,355.4,382.79,315.88Z"/>
      <path class="g" d="M375.44,298.32c-4.84,1-9.42,2.12-13.75,3.19-53.54-30.8-85.08-2.68-114.94,34.49a61.59,61.59,0,0,1-5.26,5.77c-13.24.81-29.8,0-52.54-3.21-49.78-6.93-73.74-22.44-85.17-40.64,20.26-34.33,26.85-48.78-5.25-105.19,3.63-16.84,9.75-34.9,19.64-50.93.62.38,1.24.78,1.85,1.17.44.28.87.57,1.3.85,2.78,1.83,5.36,3.65,7.73,5.26l1.19.8,1,.64c.71.46,1.4.89,2.07,1.3l.79.45.59.34c.78.42,1.53.8,2.25,1.1.18.08.36.15.54.21s.35.13.53.19a9.59,9.59,0,0,0,1,.31,3,3,0,0,0,.49.11,6.38,6.38,0,0,0,2.92,0,4.34,4.34,0,0,0,1.1-.44,6.22,6.22,0,0,0,1.77-1.43c.1-.11.2-.22.3-.34a16.79,16.79,0,0,0,2.67-5.55c.11-.34.22-.71.33-1.09s.13-.51.21-.78c.14-.53.28-1.08.4-1.66.06-.3.12-.59.19-.89.12-.56.23-1.13.34-1.73l.06-.3c.11-.6.21-1.24.32-1.89a0,0,0,0,1,0,0c0-.34.11-.67.15-1l.14-1.05c.17-1.24.33-2.53.47-3.91,0-.4.09-.82.12-1.25.19-1.88.35-3.89.51-6,.07-.9.12-1.83.18-2.78a.82.82,0,0,1,0-.15c.27-4.39.47-9.29.6-14.79A96.28,96.28,0,0,1,186.4,95.23C265,82.45,208.75,147.59,332,163.56S452.08,281.71,375.44,298.32Z"/>
      <path class="h" d="M376.11,298.32c-4.84,1-9.42,2.12-13.75,3.19-53.54-30.8-85.08-2.68-114.94,34.49a61.59,61.59,0,0,1-5.26,5.77c-13.24.81-29.8,0-52.54-3.21-49.78-6.93-73.74-22.44-85.17-40.64,20.26-34.33,26.85-48.78-5.25-105.19,3.63-16.84,9.75-34.9,19.64-50.93.62.38,1.24.78,1.85,1.17.44.28.87.57,1.3.85,2.78,1.83,5.36,3.65,7.73,5.26l1.19.8,1,.64c.71.46,1.4.89,2.07,1.3l.79.45.59.34c.78.42,1.53.8,2.25,1.1.18.08.36.15.54.21s.35.13.53.19a9.59,9.59,0,0,0,1,.31,3,3,0,0,0,.49.11,6.38,6.38,0,0,0,2.92,0,4.34,4.34,0,0,0,1.1-.44,6.22,6.22,0,0,0,1.77-1.43c.1-.11.2-.22.3-.34a16.79,16.79,0,0,0,2.67-5.55c.11-.34.22-.71.33-1.09s.13-.51.21-.78c.14-.53.28-1.08.4-1.66.06-.3.12-.59.19-.89.12-.56.23-1.13.34-1.73l.06-.3c.11-.6.21-1.24.32-1.89a0,0,0,0,1,0,0c0-.34.11-.67.15-1l.14-1.05c.17-1.24.33-2.53.47-3.91,0-.4.09-.82.12-1.25.19-1.88.35-3.89.51-6,.07-.9.12-1.83.18-2.78a.82.82,0,0,1,0-.15c.27-4.39.47-9.29.6-14.79a96.28,96.28,0,0,1,34.09-12.16c78.55-12.78,22.35,52.36,145.61,68.33S452.75,281.71,376.11,298.32Z"/>
      <g class="i">
        <g>
          <g>
            <path class="j" d="M337.48,318.59a3,3,0,0,0-1.87-2.49q-9-3.55-18.3-6.51a3,3,0,0,0-1.9,0l-4,1.4v4.88l26.19,4.34Z"/>
            <path class="j" d="M134.93,313.08q-9.67,3.48-19,7.64a2.89,2.89,0,0,0-1.71,2.64v1.53l3.94,2.73,21.78-11.53-1.84-2.16A2.89,2.89,0,0,0,134.93,313.08Z"/>
          </g>
          <path class="k" d="M368.56,335.17v33.45H94V335.17a281.55,281.55,0,0,1,274.57,0Z"/>
          <g class="l">
            <path class="m" d="M360.08,330.61c-53.39,9.82-112.16,23.65-166,6.44-34.17-10.92-68.28-9.44-97.86-3.12L94,335.17V351c26.48-4.16,55.85-3.95,85.27,5.45,61.8,19.75,130.1-1.39,189.3-10.43V335.17Q364.36,332.82,360.08,330.61Z"/>
            <path class="n" d="M94,364.55v4.07H205q-7.55-1.39-15-3.51C156.23,355.47,122.92,357.69,94,364.55Z"/>
          </g>
          <path class="o" d="M368.56,350.84V368l-3.53.63H279.69C310.1,364.4,340.22,356.58,368.56,350.84Z"/>
          <path class="p" d="M360.94,368.62H299.68c3.78-8.74,16.06-15.14,30.63-15.14S357.17,359.89,360.94,368.62Z"/>
          <ellipse class="p" cx="252.51" cy="333.16" rx="18.77" ry="7.88"/>
          <ellipse class="p" cx="195.77" cy="356.46" rx="9.94" ry="4.91"/>
          <ellipse class="p" cx="133.82" cy="346.9" rx="17.11" ry="7.57" transform="translate(-67.03 34) rotate(-11.6)"/>
          <ellipse class="p" cx="179.2" cy="313.93" rx="20.32" ry="4.21" transform="translate(-42.38 28.33) rotate(-8.09)"/>
          <ellipse class="p" cx="288.67" cy="312.23" rx="2.65" ry="12.79" transform="translate(-61.68 553.21) rotate(-81.77)"/>
          <path class="q" d="M199.37,311.45a1.06,1.06,0,0,0,0-.19c-.14,2.28-8.71,5.31-19.53,6.84s-19.89,1-20.66-1.13a1.08,1.08,0,0,0,0,.2c.36,2.51,9.65,3.26,20.76,1.69S199.73,314,199.37,311.45Z"/>
          <path class="q" d="M288.29,314.85c-6.83-1-12.23-2.91-12.28-4.35a.67.67,0,0,0,0,.11c-.23,1.56,5.26,3.65,12.25,4.66s12.84.57,13.07-1a.65.65,0,0,0,0-.11C300.85,315.52,295.12,315.84,288.29,314.85Z"/>
          <path class="q" d="M150.73,344.18c0-.13-.06-.25-.1-.38.4,4-6.3,8.66-15.29,10.5s-17,.22-18.2-3.63c0,.13,0,.26.06.38.92,4.49,9.18,6.6,18.44,4.7S151.65,348.67,150.73,344.18Z"/>
          <path class="q" d="M252.51,341c-10.14,0-18.4-3.38-18.75-7.61,0,.1,0,.2,0,.3,0,4.67,8.4,8.45,18.77,8.45s18.77-3.79,18.77-8.45c0-.1,0-.2,0-.3C270.91,337.66,262.65,341,252.51,341Z"/>
          <path class="r" d="M178.61,310c10.5-1.49,19.39-.78,20.66,1.56a1,1,0,0,0,.05-.46c-.33-2.3-9.6-2.89-20.71-1.31s-19.85,4.72-19.52,7a1,1,0,0,0,.14.36C159.93,314.56,168.21,311.45,178.61,310Z"/>
          <path class="r" d="M252.51,325.82c10.15,0,18.4,3.38,18.75,7.61,0-.09,0-.18,0-.27,0-4.35-8.4-7.88-18.77-7.88s-18.77,3.53-18.77,7.88c0,.09,0,.18,0,.27C234.1,329.21,242.36,325.82,252.51,325.82Z"/>
          <path class="r" d="M289.05,310c6.55.95,11.79,2.76,12.25,4.18a.58.58,0,0,0,0-.1c.21-1.45-5.29-3.44-12.28-4.45s-12.83-.66-13,.79a.61.61,0,0,0,0,.28C276.5,309.31,282.22,309,289.05,310Z"/>
          <path class="r" d="M117.54,350.83c-.84-4.09,6-9,15.24-10.85,7.4-1.52,14.11-.69,16.94,1.8-2.47-2.86-9.56-3.9-17.43-2.29-9.26,1.9-16.08,6.76-15.24,10.85a4,4,0,0,0,1.35,2.17A3.71,3.71,0,0,1,117.54,350.83Z"/>
          <path class="r" d="M360.94,368.62h-1.4c-4.88-7.4-16.13-12.58-29.23-12.58s-24.36,5.18-29.23,12.58h-1.4c3.78-8.74,16.06-15.14,30.63-15.14S357.17,359.89,360.94,368.62Z"/>
        </g>
      </g>
      <path class="s" d="M118.17,141.81c-9.86-6.1-22.08-11.52-37-8.76a75,75,0,0,0,10.37,47.76c2.51,4.18,4.82,8.14,7,11.92C102.17,175.89,108.29,157.83,118.17,141.81Z"/>
      <circle class="t" cx="417.46" cy="111.68" r="42.93" transform="translate(-14.34 128.92) rotate(-17.26)"/>
      <path class="u" d="M374.71,107.67a101.35,101.35,0,0,1,23.56,10.84,79.79,79.79,0,0,1,7.4,5.33,225.92,225.92,0,0,0,35.88,23.38,43,43,0,0,1-20.16,7.21,228.36,228.36,0,0,1-25.92-18,73.22,73.22,0,0,0-18.62-10.77A43.07,43.07,0,0,1,374.71,107.67Z"/>
      <path class="v" d="M401.89,71.68a42.91,42.91,0,0,1,58,33.77c-5.45-4.14-10.85-8.62-16-13.42C432.23,81.19,416.37,75.1,401.89,71.68Z"/>
      <path class="w" d="M384.59,84.07a42.37,42.37,0,0,1,14.57-11.23,98.2,98.2,0,0,1,9.33,5.24,83.15,83.15,0,0,1,11.89,9.14c12.61,11.7,26.91,21.48,39.75,29a43,43,0,0,1-13.81,27.17,233.29,233.29,0,0,1-29.62-20.22c-12-9.72-27.55-14.74-41.81-17.26a42.61,42.61,0,0,1,5.21-15.48,122.18,122.18,0,0,1,31,10.13c-.57-.51-1.14-1-1.69-1.54A78.47,78.47,0,0,0,384.59,84.07Z"/>
      <g>
        <path class="x" d="M409.28,75.94c1.45,1.81-1.45,5.32-6.49,7.84s-10.3,3.1-11.76,1.29,1.45-5.32,6.49-7.84S407.83,74.13,409.28,75.94Z"/>
        <path class="x" d="M409.52,76.23l-.13-.15c1.2,1.85-1.69,5.24-6.59,7.7s-10,3.07-11.63,1.43l.11.16c1.59,2,7,1.53,12-1S411.11,78.21,409.52,76.23Z"/>
        <path class="x" d="M397.64,77.4c4.76-2.38,9.89-2.82,11.87-1.08a1.69,1.69,0,0,0-.23-.37c-1.45-1.81-6.72-1.23-11.76,1.29s-7.94,6-6.49,7.84a2,2,0,0,0,.27.27C390.25,83.19,392.93,79.76,397.64,77.4Z"/>
      </g>
      <g>
        <path class="x" d="M392.84,89.11c.81,1-.66,2.58-3.28,3.6s-5.4,1.06-6.21.09.66-2.58,3.28-3.6S392,88.14,392.84,89.11Z"/>
        <path class="x" d="M393,89.27l-.07-.08c.67,1-.79,2.53-3.34,3.53s-5.25,1.05-6.14.16l.06.08c.88,1.06,3.72,1.09,6.34.07S393.85,90.33,393,89.27Z"/>
        <path class="x" d="M386.69,89.28c2.48-1,5.19-.94,6.27,0a1,1,0,0,0-.13-.2c-.81-1-3.59-.93-6.21.09s-4.09,2.63-3.28,3.6l.15.15C382.89,91.82,384.24,90.24,386.69,89.28Z"/>
      </g>
      <g>
        <path class="x" d="M401.79,89.39c.72.63,0,1.69-1.6,2.35s-3.49.69-4.21.06,0-1.69,1.6-2.35S401.07,88.75,401.79,89.39Z"/>
        <path class="x" d="M401.91,89.49l-.06-.05c.63.64-.09,1.65-1.66,2.3s-3.39.69-4.15.1l.06.06c.79.69,2.72.71,4.33,0S402.7,90.18,401.91,89.49Z"/>
        <path class="x" d="M397.64,89.5a5,5,0,0,1,4.28,0l-.12-.13c-.72-.63-2.61-.61-4.21.06s-2.32,1.72-1.6,2.35l.13.1C395.5,91.15,396.14,90.12,397.64,89.5Z"/>
      </g>
      <circle class="y" cx="417.46" cy="111.69" r="42.93" transform="translate(-14.34 128.92) rotate(-17.26)"/>
      <g>
        <path class="z" d="M151.32,229.06V214.67l28.71-68H197.3v68h7.23v14.39H197.3v18.25H181.5V229.06Zm14.25-14.39H181.5V176.84Z"/>
        <path class="z" d="M224.73,223.17V170.8q0-12.07,6.22-18.67t17.82-6.6q11.6,0,17.79,6.6t6.19,18.67v52.37q0,12.07-6.19,18.67t-17.79,6.6q-11.6,0-17.82-6.6T224.73,223.17Zm15.79,1q0,10,8.25,10t8.18-10V169.82q0-9.9-8.18-9.9t-8.25,9.9Z"/>
        <path class="z" d="M293.92,229.06V214.67l28.71-68H339.9v68h7.23v14.39H339.9v18.25H324.11V229.06Zm14.25-14.39h15.93V176.84Z"/>
      </g>
      <g class="aa">
        <g>
          <g>
            <circle class="ab" cx="147.19" cy="169.03" r="28.57" transform="translate(-20.91 20.78) rotate(-7.54)"/>
            <path class="ac" d="M154.63,141.44a67.45,67.45,0,0,1-9.76,14.24,53.1,53.1,0,0,1-4.33,4.26,150.35,150.35,0,0,0-19.37,20.91,28.63,28.63,0,0,1-2.47-14,152,152,0,0,1,14.75-15,48.73,48.73,0,0,0,9.16-11A28.66,28.66,0,0,1,154.63,141.44Z"/>
            <path class="ad" d="M175.18,163.31a28.56,28.56,0,0,1-28.67,34.28c3.33-3.11,6.87-6.15,10.6-9C165.54,182.15,171.31,172.43,175.18,163.31Z"/>
            <path class="ae" d="M169,150.58a28.2,28.2,0,0,1,5.73,10.82,65.36,65.36,0,0,1-4.49,5.53,55.34,55.34,0,0,1-7.33,6.78,155.08,155.08,0,0,0-23.52,22.81,28.65,28.65,0,0,1-16.27-12.11,155.29,155.29,0,0,1,16.59-17.16c7.72-6.78,12.77-16.42,16-25.49a28.36,28.36,0,0,1,9.57,5.16,81.32,81.32,0,0,1-10.12,19.17l1.2-.94A52.23,52.23,0,0,0,169,150.58Z"/>
          </g>
          <circle class="af" cx="147.19" cy="169.03" r="28.57" transform="translate(-20.91 20.78) rotate(-7.54)"/>
          <path class="ag" d="M173.62,158.2q.46,1.12.83,2.29c2.85.64,4.57,1.6,4.73,2.84.5,3.78-13.5,8.75-31.27,11.1s-32.58,1.2-33.08-2.58c-.16-1.24,1.24-2.61,3.83-4,0-.82.1-1.63.2-2.43-9.64,3-15.62,6.44-15.23,9.35.68,5.12,20.73,6.68,44.8,3.49s43-9.92,42.34-15C190.38,160.36,183.72,158.6,173.62,158.2Z"/>
        </g>
      </g>
      <path class="z" d="M292.91,128.86a9,9,0,0,1-6-6,.41.41,0,0,0-.79,0,9.05,9.05,0,0,1-6,6,.41.41,0,0,0,0,.79,9,9,0,0,1,6,6,.41.41,0,0,0,.79,0,9,9,0,0,1,6-5.95A.41.41,0,0,0,292.91,128.86Z"/>
      <path class="z" d="M207.11,72.45a9,9,0,0,1-6-6,.41.41,0,0,0-.79,0,9.05,9.05,0,0,1-6,6,.41.41,0,0,0,0,.79,9,9,0,0,1,6,6,.41.41,0,0,0,.79,0,9,9,0,0,1,6-5.95A.41.41,0,0,0,207.11,72.45Z"/>
      <path class="ah" d="M77.21,137.44A20,20,0,0,1,64,124.23a.91.91,0,0,0-1.76,0,20.07,20.07,0,0,1-13.21,13.2.91.91,0,0,0,0,1.76,20,20,0,0,1,13.2,13.19.91.91,0,0,0,1.76,0A20,20,0,0,1,77.21,139.2.91.91,0,0,0,77.21,137.44Z"/>
      <path class="ah" d="M485.29,176.4a20,20,0,0,1-13.19-13.2.91.91,0,0,0-1.76,0,20.07,20.07,0,0,1-13.21,13.2.91.91,0,0,0,0,1.76,20,20,0,0,1,13.2,13.19.91.91,0,0,0,1.76,0,20,20,0,0,1,13.19-13.19A.91.91,0,0,0,485.29,176.4Z"/>
      <g>
        <circle class="ai" cx="408.04" cy="249.5" r="3.16"/>
        <circle class="ai" cx="368.9" cy="267.78" r="3.16"/>
        <circle class="ai" cx="362.58" cy="197.09" r="3.16"/>
        <circle class="aj" cx="216.52" cy="128.12" r="1.14"/>
        <circle class="aj" cx="298.2" cy="261.73" r="1.14"/>
        <circle class="aj" cx="372.05" cy="227.53" r="1.14"/>
        <path class="z" d="M402.43,222.92a5.91,5.91,0,0,1-3.89-3.9.27.27,0,0,0-.52,0,5.92,5.92,0,0,1-3.9,3.9.27.27,0,0,0,0,.52,5.91,5.91,0,0,1,3.9,3.89.27.27,0,0,0,.52,0,5.89,5.89,0,0,1,3.89-3.89A.27.27,0,0,0,402.43,222.92Z"/>
        <circle class="ai" cx="172.13" cy="261.73" r="3.16"/>
        <circle class="ai" cx="216.52" cy="284.91" r="3.16"/>
        <circle class="ai" cx="181.71" cy="124.96" r="3.16"/>
        <circle class="aj" cx="122.52" cy="219.79" r="1.14"/>
        <circle class="aj" cx="136.92" cy="262.87" r="1.14"/>
        <circle class="aj" cx="116.95" cy="294.49" r="1.14"/>
        <path class="z" d="M259.31,267.52a5.91,5.91,0,0,1-3.89-3.9.27.27,0,0,0-.52,0,5.92,5.92,0,0,1-3.9,3.9.27.27,0,0,0,0,.52,5.91,5.91,0,0,1,3.9,3.89.27.27,0,0,0,.52,0,5.9,5.9,0,0,1,3.89-3.89A.27.27,0,0,0,259.31,267.52Z"/>
        <path class="z" d="M144.29,244.62a5.91,5.91,0,0,1-3.89-3.9.27.27,0,0,0-.52,0,5.92,5.92,0,0,1-3.9,3.9.27.27,0,0,0,0,.52,5.91,5.91,0,0,1,3.9,3.89.27.27,0,0,0,.52,0,5.9,5.9,0,0,1,3.89-3.89A.27.27,0,0,0,144.29,244.62Z"/>
        <path class="z" d="M164.53,289a5.91,5.91,0,0,1-3.89-3.9.27.27,0,0,0-.52,0,5.92,5.92,0,0,1-3.9,3.9.27.27,0,0,0,0,.52,5.91,5.91,0,0,1,3.9,3.89.27.27,0,0,0,.52,0,5.9,5.9,0,0,1,3.89-3.89A.27.27,0,0,0,164.53,289Z"/>
      </g>
      <circle class="ak" cx="330.72" cy="115.61" r="3.93"/>
      <circle class="ak" cx="172.13" cy="84.61" r="3.93"/>
      <circle class="z" cx="274.4" cy="59.47" r="3.93"/>
      <circle class="z" cx="48.38" cy="211.37" r="3.93"/>
      <circle class="z" cx="285.71" cy="342.17" r="3.93"/>
      <circle class="z" cx="329.45" cy="311.59" r="3.93"/>
      <circle class="z" cx="94.61" cy="246.34" r="3.93"/>
      <g>
        <polygon class="al" points="404.81 271.05 378.33 288.63 393.52 294.88 426.85 274.24 404.81 271.05"/>
        <polygon class="am" points="394.09 345.2 373.67 320.83 390 319.15 416.13 348.39 394.09 345.2"/>
        <polygon class="an" points="384.3 333.51 400.88 331.32 390 319.15 376.83 324.61 384.3 333.51"/>
        <polygon class="ao" points="392.11 279.48 407.4 286.29 393.52 294.88 382.43 285.91 392.11 279.48"/>
        <path class="ap" d="M329.44,271c36.49,5.28,96.07,26,94,40.57s-65.11,17.56-101.6,12.28S274.4,290,274.4,290,293,265.74,329.44,271Z"/>
        <path class="ap" d="M373.61,346.9a5.51,5.51,0,0,0,4.66,6.24l57.41,8.31A1.7,1.7,0,0,0,437.6,360l1.09-7.54a1.7,1.7,0,0,0-1.44-1.92l-57.41-8.31A5.51,5.51,0,0,0,373.61,346.9Z"/>
        <path class="aq" d="M331.82,271.39a296.31,296.31,0,0,1,62.82,17.95l-5.13,35.43a295.55,295.55,0,0,1-65.33-.58Z"/>
        <path class="am" d="M299,293.59c1-7.13,1.79-14,2.34-20.73C283.47,278.22,274.4,290,274.4,290s5.35,13.9,21,24.1C296.73,307.57,298,300.72,299,293.59Z"/>
        <path class="p" d="M373.61,346.9a5.51,5.51,0,0,0,4.66,6.24l2.77.4a43.4,43.4,0,0,0,1.58-10.91l-2.77-.4A5.51,5.51,0,0,0,373.61,346.9Z"/>
        <path class="ar" d="M385.44,354.18l4.09.59a43.4,43.4,0,0,0,1.58-10.91l-4.09-.59a43.39,43.39,0,0,1-1.58,10.91Z"/>
        <path class="as" d="M393.93,355.4,398,356a43.4,43.4,0,0,0,1.58-10.91l-4.09-.59a43.39,43.39,0,0,1-1.58,10.91Z"/>
        <path class="p" d="M284.21,281.25c-.35,3.31-.77,6.67-1.26,10.07s-1,6.74-1.65,10A48.13,48.13,0,0,1,274.4,290a47.6,47.6,0,0,1,9.31-8.5Z"/>
        <path class="at" d="M321.8,323.87c36.49,5.28,99.49,2.31,101.6-12.28L274.4,290S285.31,318.59,321.8,323.87Z"/>
        <path class="au" d="M329.44,271c36.49,5.28,96.07,26,94,40.57L274.4,290S293,265.74,329.44,271Z"/>
        <circle class="av" cx="328.01" cy="297.79" r="12.35" transform="translate(-13.68 579.78) rotate(-81.77)"/>
        <circle class="aw" cx="328.01" cy="297.79" r="7.86" transform="translate(-13.68 579.78) rotate(-81.77)"/>
        <path class="ax" d="M340.23,299.56a12.35,12.35,0,0,1-14,10.45c6.75,1,15.61-3.33,16.58-10.08s-6.3-13.39-13-14.37A12.35,12.35,0,0,1,340.23,299.56Z"/>
        <circle class="al" cx="318.01" cy="296.34" r="0.95" transform="translate(-20.83 568.63) rotate(-81.77)"/>
        <circle class="al" cx="321.96" cy="289.69" r="0.95" transform="translate(-109.36 250.35) rotate(-36.77)"/>
        <circle class="al" cx="329.45" cy="287.79" r="0.95" transform="matrix(0.14, -0.99, 0.99, 0.14, -2.53, 572.65)"/>
        <circle class="al" cx="336.1" cy="291.74" r="0.95" transform="translate(-107.77 259.22) rotate(-36.77)"/>
        <circle class="al" cx="338.01" cy="299.24" r="0.95" transform="translate(-6.55 590.9) rotate(-81.77)"/>
        <circle class="al" cx="334.06" cy="305.88" r="0.95" transform="translate(-116.64 260.81) rotate(-36.77)"/>
        <circle class="al" cx="326.56" cy="307.79" r="0.95" transform="translate(-24.81 586.92) rotate(-81.77)"/>
        <circle class="al" cx="319.91" cy="303.84" r="0.95" transform="translate(-118.23 251.94) rotate(-36.77)"/>
        <g class="ay">
          <path class="az" d="M334.73,293.72a7.85,7.85,0,0,1,1,2.51l-14.08,6.15a7.67,7.67,0,0,1-1.19-2.43Z"/>
          <path class="ba" d="M335.47,300.26a7.86,7.86,0,0,1-8.59,5.3,7.23,7.23,0,0,1-2.11-.63Z"/>
          <path class="bb" d="M333.16,291.87a7,7,0,0,1,1,1l-13.9,6.07a2.53,2.53,0,0,1,0-.34Z"/>
        </g>
        <path class="ax" d="M321.17,296.8a7.86,7.86,0,0,1,8.43-6.7l-.47-.09a7.86,7.86,0,1,0-2.25,15.56l.48,0A7.86,7.86,0,0,1,321.17,296.8Z"/>
        <path class="bc" d="M373.61,346.9a5.51,5.51,0,0,0,4.66,6.24l57.41,8.31A1.7,1.7,0,0,0,437.6,360l1.09-7.54a1.7,1.7,0,0,0-1.44-1.92l-57.41-8.31A5.51,5.51,0,0,0,373.61,346.9Z"/>
        <path class="ap" d="M385.65,263.62a5.51,5.51,0,0,0,4.66,6.24l57.41,8.31a1.7,1.7,0,0,0,1.92-1.44l1.09-7.54a1.7,1.7,0,0,0-1.44-1.92L391.9,259A5.51,5.51,0,0,0,385.65,263.62Z"/>
        <path class="p" d="M385.65,263.62a5.51,5.51,0,0,0,4.66,6.24l2.77.4a43.41,43.41,0,0,0,1.58-10.91l-2.77-.4A5.51,5.51,0,0,0,385.65,263.62Z"/>
        <path class="bd" d="M397.49,270.9l4.09.59a43.4,43.4,0,0,0,1.58-10.91l-4.09-.59a43.39,43.39,0,0,1-1.58,10.91Z"/>
        <path class="be" d="M406,272.13l4.09.59a43.4,43.4,0,0,0,1.58-10.91l-4.09-.59A43.39,43.39,0,0,1,406,272.13Z"/>
        <path class="bf" d="M385.65,263.62a5.51,5.51,0,0,0,4.66,6.24l57.41,8.31a1.7,1.7,0,0,0,1.92-1.44l1.09-7.54a1.7,1.7,0,0,0-1.44-1.92L391.9,259A5.51,5.51,0,0,0,385.65,263.62Z"/>
        <polygon class="al" points="403.67 293.45 399.33 323.39 425.3 331.17 425.3 331.17 430.77 293.35 403.67 293.45"/>
        <path class="am" d="M429.89,328.15l4.43-30.6a3.67,3.67,0,0,0-3.54-4.2l-6.68,0-5.19,35.88,6.4,1.92A3.67,3.67,0,0,0,429.89,328.15Z"/>
        <polygon class="bg" points="428.31 293.36 422.94 330.46 421.08 329.91 426.37 293.37 428.31 293.36"/>
      </g>
      <g>
        <circle class="bh" cx="248.77" cy="126.97" r="4.38"/>
        <path class="am" d="M243.29,125h.11a0,0,0,0,1,0,0v.64a0,0,0,0,1,0,0h-.31a0,0,0,0,1,0,0v-.45A.19.19,0,0,1,243.29,125Z"/>
        <g>
          <path class="al" d="M254.44,125.65h-.87V128h.87a.35.35,0,0,0,.35-.35V126A.35.35,0,0,0,254.44,125.65Z"/>
          <path class="al" d="M242.75,126v1.63a.35.35,0,0,0,.35.35H244v-2.34h-.87A.35.35,0,0,0,242.75,126Z"/>
        </g>
        <rect class="bg" x="243.1" y="125.56" width="0.52" height="0.09"/>
        <rect class="av" x="243.26" y="121.29" width="0.2" height="3.72"/>
        <circle class="z" cx="245.42" cy="133.85" r="1.7"/>
        <rect class="z" x="243.71" y="133.85" width="1.7" height="3.61"/>
        <path class="z" d="M243.71,137.46v3.38a.85.85,0,0,0,1.7,0v-3.38Z"/>
        <circle class="z" cx="252.12" cy="133.85" r="1.7"/>
        <rect class="z" x="252.12" y="133.85" width="1.7" height="3.61" transform="translate(505.95 271.31) rotate(180)"/>
        <path class="z" d="M248.77,120.88a5.54,5.54,0,1,0,5.54,5.54A5.54,5.54,0,0,0,248.77,120.88Zm0,10.47a4.09,4.09,0,1,1,4.09-4.09A4.09,4.09,0,0,1,248.77,131.35Z"/>
        <polygon class="z" points="251.36 131.97 246.18 131.97 246.18 130.85 248.76 131.69 251.36 130.85 251.36 131.97"/>
        <rect class="bi" x="246.01" y="131.72" width="5.52" height="0.43" rx="0.14" ry="0.14"/>
        <g>
          <path class="z" d="M247,124c-1.05.51-1.31,1.5-1,1.64s.84-.26,1.53-.58,1.4-.5,1.46-.82S248.07,123.46,247,124Z"/>
          <path class="z" d="M245.23,126.3c-.12.37,0,.71.25.72s.41-.21.5-.49a.57.57,0,0,0-.14-.67C245.65,125.76,245.34,125.93,245.23,126.3Z"/>
        </g>
        <rect class="ap" x="246.77" y="134.44" width="4" height="3.02" rx="0.24" ry="0.24"/>
        <path class="z" d="M245.42,132.15v15h2.45v-6.23a.29.29,0,0,1,.34-.29,3.43,3.43,0,0,0,1.13,0,.29.29,0,0,1,.34.29v6.23h2.45v-15Z"/>
        <circle class="z" cx="244.56" cy="137.46" r="0.85"/>
        <path class="z" d="M252.12,137.46v3.38a.85.85,0,0,0,1.7,0v-3.38Z"/>
        <circle class="z" cx="252.97" cy="137.46" r="0.85"/>
        <rect class="al" x="245.15" y="142.29" width="2.4" height="1.65" rx="0.23" ry="0.23"/>
        <rect class="al" x="249.98" y="142.29" width="2.4" height="1.65" rx="0.23" ry="0.23"/>
        <rect class="bj" x="247.59" y="135.05" width="2.36" height="0.38"/>
        <rect class="bk" x="247.59" y="135.76" width="2.36" height="0.38"/>
        <rect class="bl" x="247.59" y="136.47" width="2.36" height="0.38"/>
        <path class="al" d="M249.81,146.41a1.49,1.49,0,0,1,1.5-.75c.91,0,1.64.36,1.64,1.51h-3.28v-.75Z"/>
        <path class="al" d="M247.72,146.41a1.49,1.49,0,0,0-1.5-.75c-.91,0-1.64.36-1.64,1.51h3.28v-.75Z"/>
      </g>
      <path class="bm" d="M252.95,147.16h-3.28l-.58.22-4.18,1.55a1.82,1.82,0,0,1-.57.09h-1.12c-.2,0-.25,0-.12-.09l4.76-1.77h-3.28c-.59.22-.57.34-.22.39l-1.41.53h0a1.49,1.49,0,0,0-.41.06l-.91.34c-.09,0-.07.07.06.07h0l-1,.37c.24-.12.13-.2-.3-.2a5,5,0,0,0-1.5.24l-2.58,1-2.75,1c-.72.27-.53.49.41.49h.74a.83.83,0,0,0-.25,0l-.12,0c-.06,0,0,0,0,0h0l-.32.12c-1,.12-2.12.27-3.11.46a21.08,21.08,0,0,0-2,2.49,34.59,34.59,0,0,0,8.84-1.34h.2a2.16,2.16,0,0,0,.64-.1l1.24-.46c.15-.06.12-.1-.08-.1h-.35c.67-.41.6-.75-.19-.95l.3-.1h0a.83.83,0,0,0,.25,0l.12,0c.06,0,0,0,0,0h.73a10.37,10.37,0,0,0,3-.49l2.75-1,2.58-1c.36-.14.27-.24-.2-.24a5,5,0,0,0-1.5.24l-2.58,1,2.06-.78,1.62-.6h0a1.1,1.1,0,0,0,.41-.07l.91-.34c.09,0,.07-.06-.06-.06h0l1.44-.53A7.14,7.14,0,0,0,252.95,147.16Z"/>
      <path class="bn" d="M41.84,152.31C129.33,70.74,157,265.4,152.91,45.27,151.24-46,320.25,15.14,420.5,101.82c121.57,105.11,142.37,212.29-90.88,284.76C121.61,451.2-92.46,277.52,41.84,152.31Z"/>
    </g>
  </g>
</svg>
