<svg xmlns="http://www.w3.org/2000/svg" xmlns:xlink="http://www.w3.org/1999/xlink" width="746.76" height="208.68" viewBox="0 0 746.76 208.68">
  <defs>
    <style>
      .a {
        fill: url(#a);
      }

      .b {
        fill: #1e2838;
      }
    </style>
    <linearGradient id="a" data-name="Безымянный градиент 6" y1="104.34" x2="159.67" y2="104.34" gradientUnits="userSpaceOnUse">
      <stop offset="0" stop-color="#fa5663"/>
      <stop offset="0.14" stop-color="#f87861"/>
      <stop offset="0.3" stop-color="#f79a5f"/>
      <stop offset="0.47" stop-color="#f6b55e"/>
      <stop offset="0.64" stop-color="#f5c85d"/>
      <stop offset="0.81" stop-color="#f4d35c"/>
      <stop offset="1" stop-color="#f4d75c"/>
    </linearGradient>
  </defs>
  <title>logo</title>
  <g>
    <path class="a" d="M159.67,70v42.67h-31v60s-3.17,36.5-43,36h0v-96H73.33C62.65,112.67,43,125.67,43,143v29.66s-3.17,36.5-43,36H0V71.33A71.32,71.32,0,0,1,71.33,0V41.81A31.34,31.34,0,0,0,43,73v4.47A26.87,26.87,0,0,1,62.5,70H85.68A71.33,71.33,0,0,1,157,0V41.81A31.35,31.35,0,0,0,128.81,70Z"/>
    <g>
      <path class="b" d="M221.31,145.23v-47h-4.58a8.45,8.45,0,1,1,0-16.89h4.58V65.62a20,20,0,0,1,5.58-14,17.86,17.86,0,0,1,13.6-6h6.73a8.5,8.5,0,0,1,6,14.46,8.17,8.17,0,0,1-6,2.43H242.5a2.93,2.93,0,0,0-2.22,1,3.27,3.27,0,0,0-.93,2.29V81.37h10a8.45,8.45,0,1,1,0,16.89h-10v47a8.92,8.92,0,0,1-2.65,6.44,8.82,8.82,0,0,1-12.74,0A8.91,8.91,0,0,1,221.31,145.23Z"/>
      <path class="b" d="M334.85,89.53V144.8a9.11,9.11,0,0,1-2.94,6.73,9.29,9.29,0,0,1-6.66,2.86,8.12,8.12,0,0,1-5.94-2.51,7.27,7.27,0,0,1-2.51-5.08,28.72,28.72,0,0,1-8.52,5.23,29.31,29.31,0,0,1-11.67,2.36A34.45,34.45,0,0,1,271,143.51,36.54,36.54,0,0,1,260.4,117,36.13,36.13,0,0,1,271,90.75a34.57,34.57,0,0,1,25.63-10.81,29.31,29.31,0,0,1,11.67,2.36,28.75,28.75,0,0,1,8.52,5.23,7.27,7.27,0,0,1,2.51-5.08,8.12,8.12,0,0,1,5.94-2.51,9.29,9.29,0,0,1,6.66,2.86A9.11,9.11,0,0,1,334.85,89.53Zm-22.62,42.31A20.8,20.8,0,0,0,317.81,117a20.3,20.3,0,0,0-5.58-14.68,18.83,18.83,0,0,0-14.17-5.8,19.14,19.14,0,0,0-14.32,6.08A20,20,0,0,0,277.87,117a20.57,20.57,0,0,0,5.8,14.6,19,19,0,0,0,14.39,6.16A18.61,18.61,0,0,0,312.23,131.84Z"/>
      <path class="b" d="M383.1,139.07a19.36,19.36,0,0,0,9.09-1.86q3.51-1.86,3.51-4.87t-4.29-4.72a63.94,63.94,0,0,0-10.38-3,114.36,114.36,0,0,1-12.17-3.29,23.12,23.12,0,0,1-10.38-6.94,18.4,18.4,0,0,1-4.29-12.53q0-9,8.16-15.39T383,80.08q12.74,0,20.55,4.51t7.8,9.81a8.36,8.36,0,0,1-2.08,5.58,7.21,7.21,0,0,1-5.8,2.43,6.92,6.92,0,0,1-2.86-.64,19.15,19.15,0,0,1-3.15-1.86q-1.72-1.22-2-1.36a24.53,24.53,0,0,0-12.6-3.44q-5.58,0-8.59,2t-3,4.72q0,3,4.37,4.8a60.46,60.46,0,0,0,10.59,3.08A120.05,120.05,0,0,1,398.63,113a24.65,24.65,0,0,1,10.59,6.66,16.77,16.77,0,0,1,4.37,12q0,10.31-9,16.54T383,154.39q-12.46,0-21-4.58t-8.52-10a8.19,8.19,0,0,1,8.3-8.45,9.66,9.66,0,0,1,5.3,1.93,57.5,57.5,0,0,0,6.8,3.87A20.74,20.74,0,0,0,383.1,139.07Z"/>
      <path class="b" d="M469,138.5A8.45,8.45,0,0,1,463,153h-6.87a19.53,19.53,0,0,1-14.1-5.44,18.42,18.42,0,0,1-5.66-13.89V98.27h-5a8.45,8.45,0,0,1,0-16.89h5v-10A8.58,8.58,0,0,1,439.08,65a8.92,8.92,0,0,1,6.44-2.65,8.76,8.76,0,0,1,6.3,2.65,8.58,8.58,0,0,1,2.72,6.37v10h10.17a8.24,8.24,0,0,1,5.94,2.43,8.47,8.47,0,0,1,0,12,8.24,8.24,0,0,1-5.94,2.43H454.54v35.08a3,3,0,0,0,2.72,2.72H463A8.18,8.18,0,0,1,469,138.5Z"/>
      <path class="b" d="M560.35,90.54v54.69a9.16,9.16,0,0,1-18.33,0v-47H512.81v47a8.92,8.92,0,0,1-2.65,6.44,8.82,8.82,0,0,1-12.74,0,8.91,8.91,0,0,1-2.65-6.44v-47h-4.58a8.45,8.45,0,1,1,0-16.89h4.58V65.62a20,20,0,0,1,5.58-14,17.86,17.86,0,0,1,13.6-6h6.73a8.5,8.5,0,0,1,6,14.46,8.17,8.17,0,0,1-6,2.43H516a2.93,2.93,0,0,0-2.22,1,3.27,3.27,0,0,0-.93,2.29V81.37h38.37a9.29,9.29,0,0,1,9.16,9.16Zm-17-20.19a11.06,11.06,0,1,1,7.87,3.29A10.74,10.74,0,0,1,543.31,70.35Z"/>
      <path class="b" d="M639.38,145.23V117a20.41,20.41,0,0,0-5.51-14.39,19,19,0,0,0-27.63,0A20.4,20.4,0,0,0,600.72,117v28.21a9.16,9.16,0,0,1-18.33,0V117a35.46,35.46,0,0,1,11-26.34,38.39,38.39,0,0,1,53.33.07,35.42,35.42,0,0,1,11,26.27v28.21a9.16,9.16,0,0,1-18.33,0Z"/>
      <path class="b" d="M736,124H693.21q1,5.73,6.59,9.88a19.76,19.76,0,0,0,12,4.15q8.59,0,13-3a12,12,0,0,1,6.59-2.15,8.45,8.45,0,0,1,6,2.29,7.54,7.54,0,0,1,2.43,5.73q0,4.87-4.87,8.16-8.73,5.3-23.19,5.3A37.16,37.16,0,0,1,674.17,117a35.37,35.37,0,0,1,11-26.13,35.91,35.91,0,0,1,26.13-10.81,34.35,34.35,0,0,1,25.13,10.31q10.38,10.31,10.38,23.34a9.81,9.81,0,0,1-3,7.44A10.75,10.75,0,0,1,736,124ZM711.25,96.12a18,18,0,0,0-12,4.44q-5.23,4.44-6.08,9.88h36.22q-.43-5.3-5.73-9.81A18.61,18.61,0,0,0,711.25,96.12Z"/>
    </g>
  </g>
</svg>
