<svg xmlns="http://www.w3.org/2000/svg" xmlns:xlink="http://www.w3.org/1999/xlink" width="509.44" height="400.54"><defs><linearGradient id="e" x1="231.27" y1="299.68" x2="231.27" y2="368.87" gradientUnits="userSpaceOnUse"><stop offset="0" stop-color="#ff5985"/><stop offset="1" stop-color="#fb4161"/></linearGradient><linearGradient id="f" x1="367.46" y1="346.82" x2="92.9" y2="346.82" gradientUnits="userSpaceOnUse"><stop offset="0" stop-color="#231f20" stop-opacity=".2"/><stop offset="1" stop-opacity=".7"/></linearGradient><linearGradient id="g" x1="367.46" y1="363.63" x2="92.83" y2="363.63" xlink:href="#f"/><linearGradient id="i" x1="366.36" y1="110.29" x2="440.12" y2="154.68" xlink:href="#f"/><linearGradient id="j" x1="397.16" y1="59.1" x2="470.92" y2="103.49" xlink:href="#f"/><linearGradient id="k" x1="381.17" y1="85.67" x2="454.94" y2="130.06" xlink:href="#f"/><linearGradient id="n" x1="124.24" y1="-5.9" x2="163.87" y2="35.65" gradientTransform="translate(3.97 155.04)" xlink:href="#e"/><linearGradient id="o" x1="129.41" y1="-2.17" x2="160.39" y2="36.98" gradientTransform="rotate(-8.1 1332.27 76.482)" xlink:href="#f"/><linearGradient id="p" x1="131.06" y1="-3.47" x2="162.04" y2="35.68" gradientTransform="rotate(-8.1 1332.27 76.482)" xlink:href="#f"/><linearGradient id="q" x1="130" y1="-2.64" x2="160.99" y2="36.52" gradientTransform="rotate(-8.1 1332.27 76.482)" xlink:href="#f"/><linearGradient id="s" x1="100.95" y1="171.65" x2="188.66" y2="171.65" gradientTransform="rotate(-11.5 133.644 157.064)" gradientUnits="userSpaceOnUse"><stop offset="0" stop-color="#ff96b2"/><stop offset="1" stop-color="#fb7d93"/></linearGradient><linearGradient id="t" x1="371.91" y1="279.3" x2="390.55" y2="274.73" gradientTransform="rotate(-81.77 416.907 299.826)" gradientUnits="userSpaceOnUse"><stop offset=".26" stop-color="#fff" stop-opacity=".5"/><stop offset=".4" stop-color="#f5f5f5" stop-opacity=".52"/><stop offset=".56" stop-color="#d8d7d8" stop-opacity=".59"/><stop offset=".71" stop-color="#a8a6a7" stop-opacity=".7"/><stop offset=".87" stop-color="#646262" stop-opacity=".85"/><stop offset="1" stop-color="#231f20"/></linearGradient><linearGradient id="u" x1="492.44" y1="279.62" x2="511.08" y2="275.06" gradientTransform="scale(-1 1) rotate(82 49.264 -238.505)" gradientUnits="userSpaceOnUse"><stop offset=".26" stop-color="#fff" stop-opacity=".5"/><stop offset=".46" stop-color="#cecdcd" stop-opacity=".61"/><stop offset=".87" stop-color="#4f4c4d" stop-opacity=".9"/><stop offset="1" stop-color="#231f20"/></linearGradient><linearGradient id="v" x1="379.52" y1="243.89" x2="432.88" y2="243.89" gradientTransform="rotate(-81.77 416.907 299.826)" xlink:href="#e"/><linearGradient id="w" x1="358.62" y1="278.69" x2="369.64" y2="278.69" gradientTransform="rotate(-81.77 416.907 299.826)" xlink:href="#e"/><linearGradient id="x" x1="358.62" y1="287.27" x2="369.64" y2="287.27" gradientTransform="rotate(-81.77 416.907 299.826)" xlink:href="#e"/><linearGradient id="aa" data-name="White, Black" x1="409.48" y1="218.33" x2="401.67" y2="203.67" gradientTransform="rotate(-81.77 416.907 299.826)" gradientUnits="userSpaceOnUse"><stop offset="0" stop-color="#fff"/><stop offset="1" stop-color="#231f20"/></linearGradient><linearGradient id="ab" x1="404.14" y1="221.18" x2="396.33" y2="206.51" xlink:href="#aa"/><linearGradient id="ac" x1="412.12" y1="216.92" x2="404.31" y2="202.26" xlink:href="#aa"/><linearGradient id="ad" x1="370.52" y1="296.3" x2="358.07" y2="296.3" gradientTransform="rotate(-81.77 416.907 299.826)" gradientUnits="userSpaceOnUse"><stop offset=".25" stop-color="#fff" stop-opacity=".5"/><stop offset=".39" stop-color="#f5f5f5" stop-opacity=".52"/><stop offset=".55" stop-color="#d8d7d8" stop-opacity=".59"/><stop offset=".71" stop-color="#a8a6a7" stop-opacity=".7"/><stop offset=".87" stop-color="#646262" stop-opacity=".85"/><stop offset="1" stop-color="#231f20"/></linearGradient><linearGradient id="ae" x1="442.76" y1="278.69" x2="453.78" y2="278.69" gradientTransform="rotate(-81.77 416.907 299.826)" xlink:href="#e"/><linearGradient id="af" x1="442.76" y1="287.27" x2="453.78" y2="287.27" gradientTransform="rotate(-81.77 416.907 299.826)" xlink:href="#e"/><linearGradient id="ag" x1="454.66" y1="296.3" x2="442.21" y2="296.3" gradientTransform="rotate(-81.77 416.907 299.826)" gradientUnits="userSpaceOnUse"><stop offset=".31" stop-color="#fff" stop-opacity=".5"/><stop offset=".45" stop-color="#f5f5f5" stop-opacity=".52"/><stop offset=".59" stop-color="#d8d7d8" stop-opacity=".59"/><stop offset=".74" stop-color="#a8a6a7" stop-opacity=".7"/><stop offset=".88" stop-color="#646262" stop-opacity=".85"/><stop offset="1" stop-color="#231f20"/></linearGradient><linearGradient id="ah" x1="246.01" y1="131.93" x2="251.53" y2="131.93" xlink:href="#e"/><linearGradient id="ai" x1="247.59" y1="135.24" x2="249.95" y2="135.24" xlink:href="#e"/><linearGradient id="aj" x1="247.59" y1="135.95" x2="249.95" y2="135.95" xlink:href="#e"/><linearGradient id="ak" x1="247.59" y1="136.66" x2="249.95" y2="136.66" xlink:href="#e"/><linearGradient id="al" x1="230.77" y1="154.64" x2="251.32" y2="145.46" gradientUnits="userSpaceOnUse"><stop offset="0" stop-color="#fff"/><stop offset=".09" stop-color="#f8f7f8"/><stop offset=".24" stop-color="#e3e3e3"/><stop offset=".41" stop-color="#c2c1c1"/><stop offset=".61" stop-color="#939192"/><stop offset=".82" stop-color="#595657"/><stop offset="1" stop-color="#231f20"/></linearGradient><radialGradient id="a" cx="237.2" cy="201.89" r="290.02" gradientTransform="matrix(.99094 .13433 -.0994 .7333 22.29 21.39)" gradientUnits="userSpaceOnUse"><stop offset=".63" stop-color="#fff"/><stop offset=".72" stop-color="#fdfcfc"/><stop offset=".77" stop-color="#f4f4f4"/><stop offset=".81" stop-color="#e6e6e6"/><stop offset=".85" stop-color="#d2d2d2"/><stop offset=".89" stop-color="#b9b7b8"/><stop offset=".92" stop-color="#999798"/><stop offset=".95" stop-color="#747172"/><stop offset=".98" stop-color="#494647"/><stop offset="1" stop-color="#231f20"/></radialGradient><radialGradient id="b" cx="221.68" cy="218.94" r="301.16" gradientTransform="rotate(4.87 -633.253 182.768) scale(1 .67)" gradientUnits="userSpaceOnUse"><stop offset=".49" stop-color="#fff"/><stop offset=".62" stop-color="#fdfdfd"/><stop offset=".69" stop-color="#f4f4f4"/><stop offset=".75" stop-color="#e7e6e6"/><stop offset=".8" stop-color="#d3d2d2"/><stop offset=".85" stop-color="#b9b8b8"/><stop offset=".89" stop-color="#9a9899"/><stop offset=".93" stop-color="#757273"/><stop offset=".97" stop-color="#4a4748"/><stop offset="1" stop-color="#231f20"/></radialGradient><radialGradient id="c" cx="249.02" cy="232.54" r="241.16" gradientTransform="matrix(.99 .13 -.1 .72 24.76 32.45)" gradientUnits="userSpaceOnUse"><stop offset=".55" stop-color="#fff"/><stop offset=".64" stop-color="#fcfcfc"/><stop offset=".7" stop-color="#f3f3f3"/><stop offset=".76" stop-color="#e5e4e4"/><stop offset=".81" stop-color="#cfcfcf"/><stop offset=".85" stop-color="#b4b3b3"/><stop offset=".9" stop-color="#929091"/><stop offset=".94" stop-color="#6a6868"/><stop offset=".98" stop-color="#3d3a3b"/><stop offset="1" stop-color="#231f20"/></radialGradient><radialGradient id="h" cx="98.68" cy="191.35" r="70.57" gradientTransform="rotate(18.89 60.965 185.07) scale(1 .93)" xlink:href="#b"/><radialGradient id="l" cx="387.22" cy="64.89" r="101.98" gradientTransform="matrix(.62 .78 -.89 .71 218.9 -290.79)" gradientUnits="userSpaceOnUse"><stop offset=".41" stop-color="#fff" stop-opacity=".5"/><stop offset=".57" stop-color="#f8f8f8" stop-opacity=".51"/><stop offset=".68" stop-color="#e3e3e3" stop-opacity=".56"/><stop offset=".78" stop-color="#bfbebf" stop-opacity=".64"/><stop offset=".87" stop-color="#8d8b8b" stop-opacity=".76"/><stop offset=".96" stop-color="#4c494a" stop-opacity=".91"/><stop offset="1" stop-color="#231f20"/></radialGradient><radialGradient id="r" cx="184.73" cy="155.46" r="73.94" gradientTransform="matrix(-.85 .52 -.65 -1.06 444.66 218.98)" gradientUnits="userSpaceOnUse"><stop offset=".13" stop-color="#fff" stop-opacity=".5"/><stop offset=".34" stop-color="#f7f7f7" stop-opacity=".52"/><stop offset=".51" stop-color="#e0dfdf" stop-opacity=".57"/><stop offset=".67" stop-color="#b8b6b7" stop-opacity=".66"/><stop offset=".82" stop-color="#807d7e" stop-opacity=".79"/><stop offset=".96" stop-color="#383435" stop-opacity=".95"/><stop offset="1" stop-color="#231f20"/></radialGradient><radialGradient id="y" cx="406.74" cy="227.63" r="27.69" gradientTransform="matrix(.15 -.99 4.46 .66 -729.76 552.72)" gradientUnits="userSpaceOnUse"><stop offset=".37" stop-color="#fff" stop-opacity=".5"/><stop offset=".49" stop-color="#f5f5f5" stop-opacity=".52"/><stop offset=".62" stop-color="#d8d7d8" stop-opacity=".59"/><stop offset=".76" stop-color="#a8a6a7" stop-opacity=".7"/><stop offset=".89" stop-color="#646262" stop-opacity=".85"/><stop offset="1" stop-color="#231f20"/></radialGradient><radialGradient id="z" cx="645.15" cy="227.96" r="32.9" gradientTransform="matrix(-.17 .99 4.44 .76 -559.78 -508.31)" gradientUnits="userSpaceOnUse"><stop offset=".59" stop-color="#231f20"/><stop offset=".86" stop-color="#bab9b9" stop-opacity=".66"/><stop offset="1" stop-color="#fff" stop-opacity=".5"/></radialGradient><clipPath id="d"><path class="a" d="M382.79 315.88c-66.74-52-102.45-21.69-136 20.12-45.7 56.84-174.39 15.33-148.52-28.74s36.4-54.61-6.71-126.45a75 75 0 01-10.36-47.76c55.85-10.34 74.15 94.21 71-80.94 14.63-2.62 29.13.58 40.91 11.82 60.07 57.33 128.05 5.11 208.53 66.42s31.83 225.05-18.85 185.53z"/></clipPath><clipPath id="m"><path class="a" d="M216.52 81a105.07 105.07 0 01-23.41-17.06c-11.77-11.24-26.28-14.45-40.91-11.83 3.14 175.15-15.16 70.6-71 80.94a75 75 0 0010.37 47.76c15.27 25.45 23.8 43.2 27.31 57.48h97.64z"/></clipPath><style>.a{fill:none}.ax{mix-blend-mode:multiply}.p{fill:#e5355b}.x{fill:#e0700b}.z{fill:#fff}.ai{fill:#1c61bf}.aj{fill:#164b94}.ak{fill:#2a7ae8}.al{fill:#e0e0e0}.am{fill:#bdbdbd}.ap{fill:#eee}.av,.ax{fill:#616161}.ax{opacity:.2}.bg{fill:#757575}</style></defs><g style="isolation:isolate"><path d="M46.81 152.55C129.81 75.16 156 259.85 152.18 51c-1.59-86.61 158.76-28.59 253.87 53.65 115.34 99.72 135.06 201.4-86.22 270.15C122.49 436.12-80.61 271.34 46.81 152.55z" fill="#2b2a7b"/><path d="M46.81 152.55C129.81 75.16 156 259.85 152.18 51c-1.59-86.61 158.76-28.59 253.87 53.65 115.34 99.72 135.06 201.4-86.22 270.15C122.49 436.12-80.61 271.34 46.81 152.55z" style="mix-blend-mode:color-burn" fill="url(#a)" opacity=".4"/><path d="M382.79 315.88c-66.74-52-102.45-21.69-136 20.12-45.7 56.84-174.39 15.33-148.52-28.74s36.4-54.61-6.71-126.45a75 75 0 01-10.36-47.76c55.85-10.34 74.15 94.21 71-80.94 14.63-2.62 29.13.58 40.91 11.82 60.07 57.33 128.05 5.11 208.53 66.42s31.83 225.05-18.85 185.53z" fill="#1b1b63"/><path d="M382.79 315.88c-66.74-52-102.45-21.69-136 20.12-45.7 56.84-174.39 15.33-148.52-28.74s36.4-54.61-6.71-126.45a75 75 0 01-10.36-47.76c55.85-10.34 74.15 94.21 71-80.94 14.63-2.62 29.13.58 40.91 11.82 60.07 57.33 128.05 5.11 208.53 66.42s31.83 225.05-18.85 185.53z" style="mix-blend-mode:color-burn" fill="url(#b)" opacity=".5"/><path d="M375.44 298.32c-4.84 1-9.42 2.12-13.75 3.19-53.54-30.8-85.08-2.68-114.94 34.49a61.59 61.59 0 01-5.26 5.77c-13.24.81-29.8 0-52.54-3.21-49.78-6.93-73.74-22.44-85.17-40.64 20.26-34.33 26.85-48.78-5.25-105.19 3.63-16.84 9.75-34.9 19.64-50.93.62.38 1.24.78 1.85 1.17.44.28.87.57 1.3.85 2.78 1.83 5.36 3.65 7.73 5.26l1.19.8 1 .64c.71.46 1.4.89 2.07 1.3l.79.45.59.34c.78.42 1.53.8 2.25 1.1.18.08.36.15.54.21s.35.13.53.19a9.59 9.59 0 001 .31 3 3 0 00.49.11 6.38 6.38 0 002.92 0 4.34 4.34 0 001.1-.44 6.22 6.22 0 001.77-1.43c.1-.11.2-.22.3-.34a16.79 16.79 0 002.67-5.55c.11-.34.22-.71.33-1.09s.13-.51.21-.78c.14-.53.28-1.08.4-1.66.06-.3.12-.59.19-.89.12-.56.23-1.13.34-1.73l.06-.3c.11-.6.21-1.24.32-1.89 0-.34.11-.67.15-1l.14-1.05c.17-1.24.33-2.53.47-3.91 0-.4.09-.82.12-1.25.19-1.88.35-3.89.51-6 .07-.9.12-1.83.18-2.78a.82.82 0 010-.15c.27-4.39.47-9.29.6-14.79a96.28 96.28 0 0134.12-12.27c78.6-12.78 22.35 52.36 145.6 68.33s120.08 118.15 43.44 134.76z" fill="#2d2d91"/><path d="M376.11 298.32c-4.84 1-9.42 2.12-13.75 3.19-53.54-30.8-85.08-2.68-114.94 34.49a61.59 61.59 0 01-5.26 5.77c-13.24.81-29.8 0-52.54-3.21-49.78-6.93-73.74-22.44-85.17-40.64 20.26-34.33 26.85-48.78-5.25-105.19 3.63-16.84 9.75-34.9 19.64-50.93.62.38 1.24.78 1.85 1.17.44.28.87.57 1.3.85 2.78 1.83 5.36 3.65 7.73 5.26l1.19.8 1 .64c.71.46 1.4.89 2.07 1.3l.79.45.59.34c.78.42 1.53.8 2.25 1.1.18.08.36.15.54.21s.35.13.53.19a9.59 9.59 0 001 .31 3 3 0 00.49.11 6.38 6.38 0 002.92 0 4.34 4.34 0 001.1-.44 6.22 6.22 0 001.77-1.43c.1-.11.2-.22.3-.34a16.79 16.79 0 002.67-5.55c.11-.34.22-.71.33-1.09s.13-.51.21-.78c.14-.53.28-1.08.4-1.66.06-.3.12-.59.19-.89.12-.56.23-1.13.34-1.73l.06-.3c.11-.6.21-1.24.32-1.89 0-.34.11-.67.15-1l.14-1.05c.17-1.24.33-2.53.47-3.91 0-.4.09-.82.12-1.25.19-1.88.35-3.89.51-6 .07-.9.12-1.83.18-2.78a.82.82 0 010-.15c.27-4.39.47-9.29.6-14.79a96.28 96.28 0 0134.09-12.16c78.55-12.78 22.35 52.36 145.61 68.33s120.1 118.04 43.46 134.65z" style="mix-blend-mode:color-burn" fill="url(#c)" opacity=".5"/><g clip-path="url(#d)"><path d="M337.48 318.59a3 3 0 00-1.87-2.49q-9-3.55-18.3-6.51a3 3 0 00-1.9 0l-4 1.4v4.88l26.19 4.34zm-202.55-5.51q-9.67 3.48-19 7.64a2.89 2.89 0 00-1.71 2.64v1.53l3.94 2.73 21.78-11.53-1.84-2.16a2.89 2.89 0 00-3.17-.85z" fill="#fb4161"/><path d="M368.56 335.17v33.45H94v-33.45a281.55 281.55 0 01274.57 0z" fill="url(#e)"/><g style="mix-blend-mode:multiply" opacity=".1"><path d="M360.08 330.61c-53.39 9.82-112.16 23.65-166 6.44-34.17-10.92-68.28-9.44-97.86-3.12L94 335.17V351c26.48-4.16 55.85-3.95 85.27 5.45 61.8 19.75 130.1-1.39 189.3-10.43v-10.85q-4.21-2.35-8.49-4.56z" fill="url(#f)"/><path d="M94 364.55v4.07h111q-7.55-1.39-15-3.51c-33.77-9.64-67.08-7.42-96-.56z" fill="url(#g)"/></g><path d="M368.56 350.84V368l-3.53.63h-85.34c30.41-4.23 60.53-12.05 88.87-17.79z" fill="#f24167"/><path class="p" d="M360.94 368.62h-61.26c3.78-8.74 16.06-15.14 30.63-15.14s26.86 6.41 30.63 15.14z"/><ellipse class="p" cx="252.51" cy="333.16" rx="18.77" ry="7.88"/><ellipse class="p" cx="195.77" cy="356.46" rx="9.94" ry="4.91"/><ellipse class="p" cx="133.82" cy="346.9" rx="17.11" ry="7.57" transform="rotate(-11.6 133.847 346.949)"/><ellipse class="p" cx="179.2" cy="313.93" rx="20.32" ry="4.21" transform="rotate(-8.09 179.118 313.814)"/><ellipse class="p" cx="288.67" cy="312.23" rx="2.65" ry="12.79" transform="rotate(-81.77 288.65 312.227)"/><path d="M199.37 311.45a1.06 1.06 0 000-.19c-.14 2.28-8.71 5.31-19.53 6.84s-19.89 1-20.66-1.13a1.08 1.08 0 000 .2c.36 2.51 9.65 3.26 20.76 1.69s19.79-4.86 19.43-7.41zm88.92 3.4c-6.83-1-12.23-2.91-12.28-4.35a.67.67 0 000 .11c-.23 1.56 5.26 3.65 12.25 4.66s12.84.57 13.07-1a.65.65 0 000-.11c-.48 1.36-6.21 1.68-13.04.69zm-137.56 29.33c0-.13-.06-.25-.1-.38.4 4-6.3 8.66-15.29 10.5s-17 .22-18.2-3.63c0 .13 0 .26.06.38.92 4.49 9.18 6.6 18.44 4.7s16.01-7.08 15.09-11.57zM252.51 341c-10.14 0-18.4-3.38-18.75-7.61v.3c0 4.67 8.4 8.45 18.77 8.45s18.77-3.79 18.77-8.45v-.3c-.39 4.27-8.65 7.61-18.79 7.61z" fill="#ff5c7f"/><path d="M178.61 310c10.5-1.49 19.39-.78 20.66 1.56a1 1 0 00.05-.46c-.33-2.3-9.6-2.89-20.71-1.31s-19.85 4.72-19.52 7a1 1 0 00.14.36c.7-2.59 8.98-5.7 19.38-7.15zm73.9 15.82c10.15 0 18.4 3.38 18.75 7.61v-.27c0-4.35-8.4-7.88-18.77-7.88s-18.77 3.53-18.77 7.88v.27c.38-4.22 8.64-7.61 18.79-7.61zM289.05 310c6.55.95 11.79 2.76 12.25 4.18a.58.58 0 000-.1c.21-1.45-5.29-3.44-12.28-4.45s-12.83-.66-13 .79a.61.61 0 000 .28c.48-1.39 6.2-1.7 13.03-.7zm-171.51 40.83c-.84-4.09 6-9 15.24-10.85 7.4-1.52 14.11-.69 16.94 1.8-2.47-2.86-9.56-3.9-17.43-2.29-9.26 1.9-16.08 6.76-15.24 10.85a4 4 0 001.35 2.17 3.71 3.71 0 01-.86-1.68zm243.4 17.79h-1.4c-4.88-7.4-16.13-12.58-29.23-12.58s-24.36 5.18-29.23 12.58h-1.4c3.78-8.74 16.06-15.14 30.63-15.14s26.86 6.41 30.63 15.14z" fill="#d62b58"/></g><path d="M118.17 141.81c-9.86-6.1-22.08-11.52-37-8.76a75 75 0 0010.37 47.76c2.51 4.18 4.82 8.14 7 11.92 3.63-16.84 9.75-34.9 19.63-50.92z" style="mix-blend-mode:color-burn" fill="url(#h)" opacity=".5"/><circle cx="417.46" cy="111.68" r="42.93" transform="rotate(-17.26 417.548 111.702)" fill="#e5cb0e"/><path d="M374.71 107.67a101.35 101.35 0 0123.56 10.84 79.79 79.79 0 017.4 5.33 225.92 225.92 0 0035.88 23.38 43 43 0 01-20.16 7.21 228.36 228.36 0 01-25.92-18 73.22 73.22 0 00-18.62-10.77 43.07 43.07 0 01-2.14-17.99z" style="mix-blend-mode:multiply" fill="url(#i)" opacity=".1"/><path d="M401.89 71.68a42.91 42.91 0 0158 33.77c-5.45-4.14-10.85-8.62-16-13.42-11.66-10.84-27.52-16.93-42-20.35z" style="mix-blend-mode:multiply" fill="url(#j)" opacity=".1"/><path d="M384.59 84.07a42.37 42.37 0 0114.57-11.23 98.2 98.2 0 019.33 5.24 83.15 83.15 0 0111.89 9.14c12.61 11.7 26.91 21.48 39.75 29a43 43 0 01-13.81 27.17 233.29 233.29 0 01-29.62-20.22c-12-9.72-27.55-14.74-41.81-17.26a42.61 42.61 0 015.21-15.48 122.18 122.18 0 0131 10.13c-.57-.51-1.14-1-1.69-1.54a78.47 78.47 0 00-24.82-14.95z" style="mix-blend-mode:multiply" fill="url(#k)" opacity=".1"/><path class="x" d="M409.28 75.94c1.45 1.81-1.45 5.32-6.49 7.84s-10.3 3.1-11.76 1.29 1.45-5.32 6.49-7.84 10.31-3.1 11.76-1.29z"/><path class="x" d="M409.52 76.23l-.13-.15c1.2 1.85-1.69 5.24-6.59 7.7s-10 3.07-11.63 1.43l.11.16c1.59 2 7 1.53 12-1s7.83-6.16 6.24-8.14z"/><path class="x" d="M397.64 77.4c4.76-2.38 9.89-2.82 11.87-1.08a1.69 1.69 0 00-.23-.37c-1.45-1.81-6.72-1.23-11.76 1.29s-7.94 6-6.49 7.84a2 2 0 00.27.27c-1.05-2.16 1.63-5.59 6.34-7.95zm-4.8 11.71c.81 1-.66 2.58-3.28 3.6s-5.4 1.06-6.21.09.66-2.58 3.28-3.6 5.37-1.06 6.21-.09z"/><path class="x" d="M393 89.27l-.07-.08c.67 1-.79 2.53-3.34 3.53s-5.25 1.05-6.14.16l.06.08c.88 1.06 3.72 1.09 6.34.07s4-2.7 3.15-3.76z"/><path class="x" d="M386.69 89.28c2.48-1 5.19-.94 6.27 0a1 1 0 00-.13-.2c-.81-1-3.59-.93-6.21.09s-4.09 2.63-3.28 3.6l.15.15c-.6-1.1.75-2.68 3.2-3.64zm15.1.11c.72.63 0 1.69-1.6 2.35s-3.49.69-4.21.06 0-1.69 1.6-2.35 3.49-.7 4.21-.06z"/><path class="x" d="M401.91 89.49l-.06-.05c.63.64-.09 1.65-1.66 2.3s-3.39.69-4.15.1l.06.06c.79.69 2.72.71 4.33 0s2.27-1.72 1.48-2.41z"/><path class="x" d="M397.64 89.5a5 5 0 014.28 0l-.12-.13c-.72-.63-2.61-.61-4.21.06s-2.32 1.72-1.6 2.35l.13.1c-.62-.73.02-1.76 1.52-2.38z"/><circle cx="417.46" cy="111.69" r="42.93" transform="rotate(-17.26 417.548 111.702)" style="mix-blend-mode:color-burn" opacity=".35" fill="url(#l)"/><path class="z" d="M151.32 229.06v-14.39l28.71-68h17.27v68h7.23v14.39h-7.23v18.25h-15.8v-18.25zm14.25-14.39h15.93v-37.83zm59.16 8.5V170.8q0-12.07 6.22-18.67t17.82-6.6q11.6 0 17.79 6.6t6.19 18.67v52.37q0 12.07-6.19 18.67t-17.79 6.6q-11.6 0-17.82-6.6t-6.22-18.67zm15.79 1q0 10 8.25 10t8.18-10v-54.35q0-9.9-8.18-9.9t-8.25 9.9zm53.4 4.89v-14.39l28.71-68h17.27v68h7.23v14.39h-7.23v18.25h-15.79v-18.25zm14.25-14.39h15.93v-37.83z"/><g clip-path="url(#m)"><circle cx="147.19" cy="169.03" r="28.57" transform="rotate(-7.54 147.222 169.054)" fill="url(#n)"/><path d="M154.63 141.44a67.45 67.45 0 01-9.76 14.24 53.1 53.1 0 01-4.33 4.26 150.35 150.35 0 00-19.37 20.91 28.63 28.63 0 01-2.47-14 152 152 0 0114.75-15 48.73 48.73 0 009.16-11 28.66 28.66 0 0112.02.59z" style="mix-blend-mode:multiply" fill="url(#o)" opacity=".22"/><path d="M175.18 163.31a28.56 28.56 0 01-28.67 34.28c3.33-3.11 6.87-6.15 10.6-9 8.43-6.44 14.2-16.16 18.07-25.28z" style="mix-blend-mode:multiply" fill="url(#p)" opacity=".22"/><path d="M169 150.58a28.2 28.2 0 015.73 10.82 65.36 65.36 0 01-4.49 5.53 55.34 55.34 0 01-7.33 6.78 155.08 155.08 0 00-23.52 22.81 28.65 28.65 0 01-16.27-12.11 155.29 155.29 0 0116.59-17.16c7.72-6.78 12.77-16.42 16-25.49a28.36 28.36 0 019.57 5.16 81.32 81.32 0 01-10.12 19.17l1.2-.94A52.23 52.23 0 00169 150.58z" style="mix-blend-mode:multiply" fill="url(#q)" opacity=".22"/><circle cx="147.19" cy="169.03" r="28.57" transform="rotate(-7.54 147.222 169.054)" style="mix-blend-mode:color-burn" opacity=".38" fill="url(#r)"/><path d="M173.62 158.2q.46 1.12.83 2.29c2.85.64 4.57 1.6 4.73 2.84.5 3.78-13.5 8.75-31.27 11.1s-32.58 1.2-33.08-2.58c-.16-1.24 1.24-2.61 3.83-4 0-.82.1-1.63.2-2.43-9.64 3-15.62 6.44-15.23 9.35.68 5.12 20.73 6.68 44.8 3.49s43-9.92 42.34-15c-.39-2.9-7.05-4.66-17.15-5.06z" fill="url(#s)"/></g><path class="z" d="M292.91 128.86a9 9 0 01-6-6 .41.41 0 00-.79 0 9.05 9.05 0 01-6 6 .41.41 0 000 .79 9 9 0 016 6 .41.41 0 00.79 0 9 9 0 016-5.95.41.41 0 000-.84zm-85.8-56.41a9 9 0 01-6-6 .41.41 0 00-.79 0 9.05 9.05 0 01-6 6 .41.41 0 000 .79 9 9 0 016 6 .41.41 0 00.79 0 9 9 0 016-5.95.41.41 0 000-.84z"/><path d="M77.21 137.44A20 20 0 0164 124.23a.91.91 0 00-1.76 0 20.07 20.07 0 01-13.21 13.2.91.91 0 000 1.76 20 20 0 0113.2 13.19.91.91 0 001.76 0 20 20 0 0113.22-13.18.91.91 0 000-1.76zm408.08 38.96a20 20 0 01-13.19-13.2.91.91 0 00-1.76 0 20.07 20.07 0 01-13.21 13.2.91.91 0 000 1.76 20 20 0 0113.2 13.19.91.91 0 001.76 0 20 20 0 0113.19-13.19.91.91 0 00.01-1.76z" fill="#abe5ff"/><circle class="ai" cx="408.04" cy="249.5" r="3.16"/><circle class="ai" cx="368.9" cy="267.78" r="3.16"/><circle class="ai" cx="362.58" cy="197.09" r="3.16"/><circle class="aj" cx="216.52" cy="128.12" r="1.14"/><circle class="aj" cx="298.2" cy="261.73" r="1.14"/><circle class="aj" cx="372.05" cy="227.53" r="1.14"/><path class="z" d="M402.43 222.92a5.91 5.91 0 01-3.89-3.9.27.27 0 00-.52 0 5.92 5.92 0 01-3.9 3.9.27.27 0 000 .52 5.91 5.91 0 013.9 3.89.27.27 0 00.52 0 5.89 5.89 0 013.89-3.89.27.27 0 000-.52z"/><circle class="ai" cx="172.13" cy="261.73" r="3.16"/><circle class="ai" cx="216.52" cy="284.91" r="3.16"/><circle class="ai" cx="181.71" cy="124.96" r="3.16"/><circle class="aj" cx="122.52" cy="219.79" r="1.14"/><circle class="aj" cx="136.92" cy="262.87" r="1.14"/><circle class="aj" cx="116.95" cy="294.49" r="1.14"/><path class="z" d="M259.31 267.52a5.91 5.91 0 01-3.89-3.9.27.27 0 00-.52 0 5.92 5.92 0 01-3.9 3.9.27.27 0 000 .52 5.91 5.91 0 013.9 3.89.27.27 0 00.52 0 5.9 5.9 0 013.89-3.89.27.27 0 000-.52zm-115.02-22.9a5.91 5.91 0 01-3.89-3.9.27.27 0 00-.52 0 5.92 5.92 0 01-3.9 3.9.27.27 0 000 .52 5.91 5.91 0 013.9 3.89.27.27 0 00.52 0 5.9 5.9 0 013.89-3.89.27.27 0 000-.52zM164.53 289a5.91 5.91 0 01-3.89-3.9.27.27 0 00-.52 0 5.92 5.92 0 01-3.9 3.9.27.27 0 000 .52 5.91 5.91 0 013.9 3.89.27.27 0 00.52 0 5.9 5.9 0 013.89-3.89.27.27 0 000-.52z"/><circle class="ak" cx="330.72" cy="115.61" r="3.93"/><circle class="ak" cx="172.13" cy="84.61" r="3.93"/><circle class="z" cx="274.4" cy="59.47" r="3.93"/><circle class="z" cx="48.38" cy="211.37" r="3.93"/><circle class="z" cx="285.71" cy="342.17" r="3.93"/><circle class="z" cx="329.45" cy="311.59" r="3.93"/><circle class="z" cx="94.61" cy="246.34" r="3.93"/><path class="al" d="M404.81 271.05l-26.48 17.58 15.19 6.25 33.33-20.64-22.04-3.19z"/><path class="am" d="M394.09 345.2l-20.42-24.37 16.33-1.68 26.13 29.24-22.04-3.19z"/><path style="mix-blend-mode:color-burn" fill="url(#t)" d="M384.3 333.51l16.58-2.19L390 319.15l-13.17 5.46 7.47 8.9z"/><path style="mix-blend-mode:color-burn" fill="url(#u)" d="M392.11 279.48l15.29 6.81-13.88 8.59-11.09-8.97 9.68-6.43z"/><path class="ap" d="M329.44 271c36.49 5.28 96.07 26 94 40.57s-65.11 17.56-101.6 12.28S274.4 290 274.4 290s18.6-24.26 55.04-19zm44.17 75.9a5.51 5.51 0 004.66 6.24l57.41 8.31a1.7 1.7 0 001.92-1.45l1.09-7.54a1.7 1.7 0 00-1.44-1.92l-57.41-8.31a5.51 5.51 0 00-6.23 4.67z"/><path d="M331.82 271.39a296.31 296.31 0 0162.82 17.95l-5.13 35.43a295.55 295.55 0 01-65.33-.58z" fill="url(#v)"/><path class="am" d="M299 293.59c1-7.13 1.79-14 2.34-20.73C283.47 278.22 274.4 290 274.4 290s5.35 13.9 21 24.1c1.33-6.53 2.6-13.38 3.6-20.51z"/><path class="p" d="M373.61 346.9a5.51 5.51 0 004.66 6.24l2.77.4a43.4 43.4 0 001.58-10.91l-2.77-.4a5.51 5.51 0 00-6.24 4.67z"/><path d="M385.44 354.18l4.09.59a43.4 43.4 0 001.58-10.91l-4.09-.59a43.39 43.39 0 01-1.58 10.91z" fill="url(#w)"/><path d="M393.93 355.4l4.07.6a43.4 43.4 0 001.58-10.91l-4.09-.59a43.39 43.39 0 01-1.58 10.91z" fill="url(#x)"/><path class="p" d="M284.21 281.25c-.35 3.31-.77 6.67-1.26 10.07s-1 6.74-1.65 10a48.13 48.13 0 01-6.9-11.32 47.6 47.6 0 019.31-8.5z"/><path d="M321.8 323.87c36.49 5.28 99.49 2.31 101.6-12.28L274.4 290s10.91 28.59 47.4 33.87z" style="mix-blend-mode:color-burn" opacity=".41" fill="url(#y)"/><path d="M329.44 271c36.49 5.28 96.07 26 94 40.57L274.4 290s18.6-24.26 55.04-19z" style="mix-blend-mode:color-dodge" fill="url(#z)"/><circle class="av" cx="328.01" cy="297.79" r="12.35" transform="rotate(-81.77 327.995 297.79)"/><circle cx="328.01" cy="297.79" r="7.86" transform="rotate(-81.77 327.995 297.79)" fill="#b2ebf2"/><path class="ax" d="M340.23 299.56a12.35 12.35 0 01-14 10.45c6.75 1 15.61-3.33 16.58-10.08s-6.3-13.39-13-14.37a12.35 12.35 0 0110.42 14z"/><circle class="al" cx="318.01" cy="296.34" r=".95" transform="rotate(-81.77 317.98 296.345)"/><circle class="al" cx="321.96" cy="289.69" r=".95" transform="rotate(-36.77 321.94 289.693)"/><circle class="al" cx="329.45" cy="287.79" r=".95" transform="rotate(-82 328.399 287.831)"/><circle class="al" cx="336.1" cy="291.74" r=".95" transform="rotate(-36.77 336.078 291.736)"/><circle class="al" cx="338.01" cy="299.24" r=".95" transform="rotate(-81.77 337.982 299.233)"/><circle class="al" cx="334.06" cy="305.88" r=".95" transform="rotate(-36.77 334.035 305.875)"/><circle class="al" cx="326.56" cy="307.79" r=".95" transform="rotate(-81.77 326.554 307.788)"/><circle class="al" cx="319.91" cy="303.84" r=".95" transform="rotate(-36.77 319.896 303.832)"/><g style="mix-blend-mode:color-burn"><path d="M334.73 293.72a7.85 7.85 0 011 2.51l-14.08 6.15a7.67 7.67 0 01-1.19-2.43z" fill="url(#aa)"/><path d="M335.47 300.26a7.86 7.86 0 01-8.59 5.3 7.23 7.23 0 01-2.11-.63z" fill="url(#ab)"/><path d="M333.16 291.87a7 7 0 011 1l-13.9 6.07a2.53 2.53 0 010-.34z" fill="url(#ac)"/></g><path class="ax" d="M321.17 296.8a7.86 7.86 0 018.43-6.7l-.47-.09a7.86 7.86 0 10-2.25 15.56h.48a7.86 7.86 0 01-6.19-8.77z"/><path d="M373.61 346.9a5.51 5.51 0 004.66 6.24l57.41 8.31a1.7 1.7 0 001.92-1.45l1.09-7.54a1.7 1.7 0 00-1.44-1.92l-57.41-8.31a5.51 5.51 0 00-6.23 4.67z" style="mix-blend-mode:color-burn" fill="url(#ad)" opacity=".54"/><path class="ap" d="M385.65 263.62a5.51 5.51 0 004.66 6.24l57.41 8.31a1.7 1.7 0 001.92-1.44l1.09-7.54a1.7 1.7 0 00-1.44-1.92L391.9 259a5.51 5.51 0 00-6.25 4.62z"/><path class="p" d="M385.65 263.62a5.51 5.51 0 004.66 6.24l2.77.4a43.41 43.41 0 001.58-10.91l-2.77-.4a5.51 5.51 0 00-6.24 4.67z"/><path d="M397.49 270.9l4.09.59a43.4 43.4 0 001.58-10.91l-4.09-.59a43.39 43.39 0 01-1.58 10.91z" fill="url(#ae)"/><path d="M406 272.13l4.09.59a43.4 43.4 0 001.58-10.91l-4.09-.59a43.39 43.39 0 01-1.58 10.91z" fill="url(#af)"/><path d="M385.65 263.62a5.51 5.51 0 004.66 6.24l57.41 8.31a1.7 1.7 0 001.92-1.44l1.09-7.54a1.7 1.7 0 00-1.44-1.92L391.9 259a5.51 5.51 0 00-6.25 4.62z" style="mix-blend-mode:color-burn" fill="url(#ag)" opacity=".54"/><path class="al" d="M403.67 293.45l-4.34 29.94 25.97 7.78 5.47-37.82-27.1.1z"/><path class="am" d="M429.89 328.15l4.43-30.6a3.67 3.67 0 00-3.54-4.2h-6.68l-5.19 35.88 6.4 1.92a3.67 3.67 0 004.58-3z"/><path class="bg" d="M428.31 293.36l-5.37 37.1-1.86-.55 5.29-36.54 1.94-.01z"/><circle cx="248.77" cy="126.97" r="4.38" fill="#424242"/><path class="am" d="M243.29 125h.11v.64h-.31v-.45a.19.19 0 01.2-.19z"/><path class="al" d="M254.44 125.65h-.87V128h.87a.35.35 0 00.35-.35V126a.35.35 0 00-.35-.35zm-11.69.35v1.63a.35.35 0 00.35.35h.9v-2.34h-.87a.35.35 0 00-.38.36z"/><path class="bg" d="M243.1 125.56h.52v.09h-.52z"/><path class="av" d="M243.26 121.29h.2v3.72h-.2z"/><circle class="z" cx="245.42" cy="133.85" r="1.7"/><path class="z" d="M243.71 133.85h1.7v3.61h-1.7zm0 3.61v3.38a.85.85 0 001.7 0v-3.38z"/><circle class="z" cx="252.12" cy="133.85" r="1.7"/><path class="z" d="M253.83 137.46h-1.7v-3.61h1.7zm-5.06-16.58a5.54 5.54 0 105.54 5.54 5.54 5.54 0 00-5.54-5.54zm0 10.47a4.09 4.09 0 114.09-4.09 4.09 4.09 0 01-4.09 4.09z"/><path class="z" d="M251.36 131.97h-5.18v-1.12l2.58.84 2.6-.84v1.12z"/><rect x="246.01" y="131.72" width="5.52" height=".43" rx=".14" ry=".14" fill="url(#ah)"/><path class="z" d="M247 124c-1.05.51-1.31 1.5-1 1.64s.84-.26 1.53-.58 1.4-.5 1.46-.82-.92-.78-1.99-.24zm-1.77 2.3c-.12.37 0 .71.25.72s.41-.21.5-.49a.57.57 0 00-.14-.67c-.19-.1-.5.07-.61.44z"/><rect class="ap" x="246.77" y="134.44" width="4" height="3.02" rx=".24" ry=".24"/><path class="z" d="M245.42 132.15v15h2.45v-6.23a.29.29 0 01.34-.29 3.43 3.43 0 001.13 0 .29.29 0 01.34.29v6.23h2.45v-15z"/><circle class="z" cx="244.56" cy="137.46" r=".85"/><path class="z" d="M252.12 137.46v3.38a.85.85 0 001.7 0v-3.38z"/><circle class="z" cx="252.97" cy="137.46" r=".85"/><rect class="al" x="245.15" y="142.29" width="2.4" height="1.65" rx=".23" ry=".23"/><rect class="al" x="249.98" y="142.29" width="2.4" height="1.65" rx=".23" ry=".23"/><path fill="url(#ai)" d="M247.59 135.05h2.36v.38h-2.36z"/><path fill="url(#aj)" d="M247.59 135.76h2.36v.38h-2.36z"/><path fill="url(#ak)" d="M247.59 136.47h2.36v.38h-2.36z"/><path class="al" d="M249.81 146.41a1.49 1.49 0 011.5-.75c.91 0 1.64.36 1.64 1.51h-3.28v-.75zm-2.09 0a1.49 1.49 0 00-1.5-.75c-.91 0-1.64.36-1.64 1.51h3.28v-.75z"/><path d="M252.95 147.16h-3.28l-.58.22-4.18 1.55a1.82 1.82 0 01-.57.09h-1.12c-.2 0-.25 0-.12-.09l4.76-1.77h-3.28c-.59.22-.57.34-.22.39l-1.41.53a1.49 1.49 0 00-.41.06l-.91.34c-.09 0-.07.07.06.07l-1 .37c.24-.12.13-.2-.3-.2a5 5 0 00-1.5.24l-2.58 1-2.75 1c-.72.27-.53.49.41.49h.74a.83.83 0 00-.25 0h-.12c-.06 0 0 0 0 0l-.32.12c-1 .12-2.12.27-3.11.46a21.08 21.08 0 00-2 2.49 34.59 34.59 0 008.84-1.34h.2a2.16 2.16 0 00.64-.1l1.24-.46c.15-.06.12-.1-.08-.1h-.35c.67-.41.6-.75-.19-.95l.3-.1a.83.83 0 00.25 0h.12c.06 0 0 0 0 0h.73a10.37 10.37 0 003-.49l2.75-1 2.58-1c.36-.14.27-.24-.2-.24a5 5 0 00-1.5.24l-2.58 1 2.06-.78 1.62-.6a1.1 1.1 0 00.41-.07l.91-.34c.09 0 .07-.06-.06-.06l1.44-.53a7.14 7.14 0 001.91-.44z" opacity=".26" fill="url(#al)"/><path d="M41.84 152.31C129.33 70.74 157 265.4 152.91 45.27 151.24-46 320.25 15.14 420.5 101.82c121.57 105.11 142.37 212.29-90.88 284.76C121.61 451.2-92.46 277.52 41.84 152.31z" style="mix-blend-mode:color-burn" fill="#faf4dd" opacity=".4"/></g></svg>