<?xml version="1.0" encoding="utf-8"?>
<!-- Generator: Adobe Illustrator 23.0.6, SVG Export Plug-In . SVG Version: 6.00 Build 0)  -->
<svg version="1.1" id="Слой_1" xmlns="http://www.w3.org/2000/svg" xmlns:xlink="http://www.w3.org/1999/xlink" x="0px" y="0px"
	 viewBox="0 0 1560.4 1608.3" style="enable-background:new 0 0 1560.4 1608.3;" xml:space="preserve">
<style type="text/css">
	.st0{fill:#7291CB;}
	.st1{clip-path:url(#SVGID_2_);}
	.st2{fill:#12242D;}
	.st3{fill:#E8A789;}
	.st4{opacity:0.7;fill:#E5AD97;enable-background:new    ;}
	.st5{fill:#E2E2E2;}
	.st6{fill:#586589;}
	.st7{fill:#FFFFFF;}
	.st8{fill:#4E5878;}
	.st9{fill:#EFEFEF;}
	.st10{fill:#C9C8C8;}
	.st11{fill:#D79C7F;}
	.st12{opacity:0.5;fill:#E5AD97;enable-background:new    ;}
	.st13{fill:#21313B;}
	.st14{opacity:0.5;fill:#12242D;enable-background:new    ;}
	.st15{fill:#E08773;}
	.st16{opacity:0.7;}
	.st17{fill:#E5AD97;}
	.st18{fill:#924A5A;}
	.st19{fill:#D57085;}
	.st20{fill:#291D11;}
	.st21{opacity:0.5;fill:#B97443;enable-background:new    ;}
	.st22{opacity:0.4;fill:#BEE2FA;enable-background:new    ;}
	.st23{fill:none;stroke:#542C0F;stroke-width:18.3;stroke-miterlimit:10;}
	.st24{fill:none;stroke:#542C0F;stroke-width:14.64;stroke-linecap:round;stroke-linejoin:round;}
	.st25{fill:#542C0F;}
	.st26{fill:#FAFADF;}
	.st27{fill:#D6D5D5;}
	.st28{fill:#87C8E4;}
	.st29{opacity:0.5;fill:#76ACC2;enable-background:new    ;}
	.st30{opacity:0.5;fill:#5AA2CB;enable-background:new    ;}
	.st31{opacity:0.2;fill:#FFFFFF;enable-background:new    ;}
	.st32{fill:#92CFF6;}
	.st33{fill:#A5D7F8;}
</style>
<title>boy</title>
<g>
	<g>
		<path class="st0" d="M581.5,368.3c159.3-45.1,332.2-52.7,489.7,2c297.7,103.3,506,374.9,488.2,644.5
			c-9.3,139.9-71.1,296.9-154,412.4c-223.4,311.3-838.3,156.2-1145.1-23.5c-347.9-203.7-322.1-605.9-70-827.1
			C291.9,487.5,430.5,411,581.5,368.3z"/>
		<g>
			<defs>
				<path id="SVGID_1_" d="M644.5-57c165.7-70,367.1-6.4,523.6,52.3c295.8,110.9,487.8,445.4,449.5,794.2
					c-19.9,181-63.9,422.6-157,577.7c-250.9,417.8-936.5,208.6-1235.8,0c-339.4-236.5-243.4-736.4,30-1040.2
					C365,204.5,487.5,9.4,644.5-57z"/>
			</defs>
			<clipPath id="SVGID_2_">
				<use xlink:href="#SVGID_1_"  style="overflow:visible;"/>
			</clipPath>
			<g class="st1">
				<g>
					<path class="st2" d="M1123.5,482.6c-6.6,33.6-54.3,79.4-88.4,53.7c-35.1-26.4-18-156.5,13.4-185.5
						C1113.1,291.2,1133.1,433.3,1123.5,482.6z"/>
					<g>
						<path class="st3" d="M831.1,1137.6c0,0-30.4-54.9,17.5-101.9c35.9-35.3,72-3.4,88,14.4c42.9,47.7,110,108.5,154.3,170.5
							c45.5,63.7,67.4,85,57.6,96.3c-11,12.8-57.2,56.6-75.3,49.1C1001.9,1336.6,897.9,1253.6,831.1,1137.6z"/>
						<path class="st4" d="M848.6,1035.7c-47.9,47-17.5,101.9-17.5,101.9c41.9,72.8,98.5,132.5,152.4,174.3
							c44-20.7,75.8-59.6,98.6-103.2c-44-57.9-105.3-114-145.5-158.6C920.6,1032.3,884.5,1000.4,848.6,1035.7z"/>
						<path class="st5" d="M833.7,1018.4c-55.6,54.6-20.3,118.3-20.3,118.3c37.6,65.3,87.7,121.5,138.6,166
							c70.7,1.6,121.9-104.4,129.1-112.8c-47.8-56.6-105.5-110.6-145.2-154.8C917.3,1014.5,875.4,977.5,833.7,1018.4z"/>
						<path class="st6" d="M1068,1174.7c-5.9-6.7-11.9-13.4-18-20c-38.7,66.9-83.3,108.8-127.8,120.4c7.1,6.9,14.2,13.6,21.4,20.1
							C988.2,1278.3,1030.4,1237.4,1068,1174.7z"/>
						<path class="st3" d="M1124,1358.4c0,0-31.8,24.9-67.2-1.1c-26.5-19.5-3.5-54.6,9.4-70.9c34.5-43.8,112.4-154.3,163.4-202.5
							c22-20.8,56.2,14.9,50.9,30.6C1260,1175.8,1208.6,1280.6,1124,1358.4z"/>
						<path class="st3" d="M1229.6,1098.1c-13.9-7.5-14.2-52.2-15.2-57.8c-0.9-5.1-0.2-19.6,0.8-24.4c0.4-1.8,2.6-3.2,6-1.9
							c13.5,5,16.5,30.5,17.4,31c5-5.3,7.7-16.9,8.1-17.2c4.7-16.6,13.7-47.8,16.6-60.8c1.2-5.3,5.4-10.9,9.6-9.9
							c3,0.7,6.9,5,5.5,11.3c-5.2,22.9-10.7,58-10.1,58.2c7.3-15.5,21.4-45.1,26.4-57.4c2.1-5.1,7.2-9.9,11.2-8.3
							c2.9,1.1,6.1,5.8,3.7,11.8c-5.3,13.9-20.1,61.6-18.8,62.3c10.2-14.9,24.9-36.5,30.9-46.5c2.8-4.7,8.7-8.8,12.5-6.7
							c2.7,1.5,5.2,6.5,1.9,12c-6.8,11.8-18.9,34.6-29.1,51.7c0.7,0.6,27.5-23.6,37.2-33.7c3.8-4,8.8-3.4,10.8-1.7
							c2.7,2.3,0.8,8-2.4,11.4c-8.2,8.6-27.7,31.4-37,42.4c-2.8,9.1-12.8,27.1-17,33.5c-6.8,10.3-11.1,14.1-16.8,15.6l-11.2,3.6
							C1270.4,1116.3,1245.8,1117.3,1229.6,1098.1z"/>
					</g>
					<g>
						<path class="st3" d="M474,1982.5c-27.3,48.2-62.7,252.5-47.4,264.6c13.1,10.4,81.7,27.5,86.5,19.9
							c17.8-28.3,95.7-233.7,95.7-233.7s9.9-40.3-33.7-60.2C511.1,1944.1,485.3,1962.6,474,1982.5z"/>
						<path class="st7" d="M438,2108.3c-12.8,65.8-20,132.1-11.5,138.9c13.1,10.4,81.7,27.5,86.5,19.9c9-14.3,33.2-73.6,55.1-128.9
							c0,0-23.1,6.4-45.7,2C462.1,2125.1,438,2108.3,438,2108.3z"/>
						<path class="st3" d="M608.1,2033.4c25.6-49.1,100-256.6,84.3-268.3c-13.4-10-185-52.5-189.5-44.8
							c-16.8,28.9-31.2,266.9-31.2,266.9s-8.6,40.6,35.8,59C572.3,2073,597.5,2053.6,608.1,2033.4z"/>
					</g>
					<g>
						<path class="st3" d="M858.6,2022.1c-8.4,54.7,30.9,258.3,49.5,264.2c15.9,5.1,86.2-3.3,88-12c6.6-32.8,6.6-252.5,6.6-252.5
							s-5-41.2-52.9-44.3C879.7,1973,862.1,1999.4,858.6,2022.1z"/>
						<path class="st7" d="M869.6,2152.4c11.4,66,28.2,130.6,38.5,133.9c15.9,5.1,86.2-3.3,88-12c3.3-16.5,5-80.6,5.8-140.1
							c0,0-19.4,14.2-42,18.1C898.1,2159.6,869.6,2152.4,869.6,2152.4z"/>
						<path class="st3" d="M1002,2022.1c6.5-55,2.5-275.4-16.3-280.7c-16.1-4.6-191.6,16.5-193.1,25.3
							c-5.4,33,65.5,260.6,65.5,260.6s6.4,41,54.3,42.5C982.6,2071.8,999.3,2044.8,1002,2022.1z"/>
					</g>
					<path class="st8" d="M1031.2,1944.4c0,0-42.8,31.7-106.6,49.7c-69.2,19.5-103.2,9.3-103.2,9.3l-88.3-246.9
						c0,0-92.7-64.4-43.4-136.9c31.5-46.3,310-66.5,310-66.5L1031.2,1944.4z"/>
					<path class="st6" d="M650.3,2016.8c0,0-52.7,7.4-117.4-7.5c-70.1-16.1-95-41.3-95-41.3l40.9-259c0,0-50.5-100.9,27.5-141
						c49.9-25.6,303.9,90.3,303.9,90.3L650.3,2016.8z"/>
					<path class="st9" d="M1026.4,1648.3c-76.7-259.7,13.3-567.2-144.5-647.5c-30.8-15.6-85.8-17.5-141.1-17.5
						c-58,0-130.3-3.4-166.4,14.8c-161.3,81.3-33.9,390.5-119.2,650.3C441.2,1690.6,1038.9,1690.9,1026.4,1648.3z"/>
					<g>
						<path class="st3" d="M497.6,1039.8c0,0,50.7-37.1,103.3,4.5c39.5,31.2,12.4,71-3.2,89.2c-41.9,48.5-93.8,122.7-149.8,174.5
							c-57.5,53.1-75.8,77.5-88.3,69.3c-14.1-9.3-63.3-49.6-58.2-68.6C321.6,1234.2,391,1120.6,497.6,1039.8z"/>
						<path class="st4" d="M600.9,1044.3c-52.7-41.6-103.3-4.5-103.3-4.5c-66.9,50.7-119.1,114.4-153.8,173.1
							c26,41.1,68.6,67.7,114.8,84.8c51.9-50.9,99.9-118.8,139.1-164.2C613.3,1115.3,640.4,1075.5,600.9,1044.3z"/>
						<path class="st7" d="M616.2,1027.4c-61.1-48.3-119.9-5.3-119.9-5.3c-60.1,45.5-109.5,102.2-147.3,158.3
							c7.3,70.3,118.9,107.8,128.1,113.9c50.2-54.6,96.4-118.5,135.3-163.5C630.6,1109.8,662,1063.6,616.2,1027.4z"/>
						<path class="st6" d="M490.6,1279.4c5.9-6.7,11.8-13.5,17.6-20.4c-71.2-30-118.3-68.9-135.5-111.7c-6,7.9-11.8,15.8-17.3,23.8
							C377.8,1213.2,423.6,1250.1,490.6,1279.4z"/>
					</g>
					<polygon class="st6" points="727,1050.1 777.8,1098.7 791.5,1036.6 					"/>
					<g>
						<path class="st10" d="M884.1,2321.3c0,0-1.8,40.7,11.3,44.4l166.8,5.2l27.5-5.5l-13.6-23.5L884.1,2321.3z"/>
						<path class="st8" d="M884.1,2298.7c0-21.2-1.5-43.1,3.7-50.4c5.5-7.7,10.8,23.1,53.3,18.5c38.2-4.2,55.8-17.4,55.8-17.4v-13.2
							c0,0,3.4,8.1,45.2,8.1c13.5,0,32.7-8.1,32.7-8.1l10.2,113.9l-130.7-2.7c-3.8,0.3-7.9,0.5-12.4,0.5
							C876,2347.6,884.1,2325.9,884.1,2298.7z"/>
						<path class="st7" d="M1072.3,2236.3c0.2,0,4.8-3.8,6.6-4c62.1-5.1,100.8,35.8,100.8,79.9c0,8.2-1.6,16.3-4.6,23.9
							c0,0-31.6,14-96.2,14.1h-0.7L1072.3,2236.3z"/>
						<path class="st10" d="M1078.2,2350.2h0.7c64.5-0.1,96.1-14,96.2-14.1c-0.6,6.1-2,15-4.1,20.6c0,0-30.2,13.9-92.1,14.1h-16.7
							L1078.2,2350.2z"/>
						<path class="st7" d="M1055.8,2266.8c-0.8-0.1-1.6-0.2-2.4-0.5c-4.5-1.4-8.2-4.5-10.3-8.6c-0.8-1.4-1.3-3-1.7-4.6
							c-0.4-1.8-0.5-3.7-0.4-5.5c0.4-2,0.6-4,1.8-5.9c0.9-1.9,2.2-3.5,3.8-4.8c1.3-1.2,2.9-2,4.5-2.6c1.3-0.5,2.8-0.7,4.2-0.7
							c2,0,4.1,0.4,5.9,1.3c0.7,0.3,1.4,0.7,2.1,1.2c0,0-0.5,0.9-1.2,2.1c-0.4,0.6-0.8,1.3-1.3,2c-0.5,0.7-0.9,1.5-1.3,2.3
							c-0.4,0.7-0.8,1.5-1,2.3c-0.1,0.8-0.5,1.3-0.4,1.9c0,0.2,0,0.5-0.1,0.7c0.1,0.2,0.1,0.4,0.1,0.6c-0.1,0.3,0.1,0.8-0.1,1.2
							c0,0.6-0.2,1.1-0.2,1.9s-0.1,1.6-0.2,2.4c-0.1,1.8-0.3,3.8-0.6,5.8s-0.5,3.8-0.8,5.2S1055.8,2266.8,1055.8,2266.8z"/>
						<polygon class="st6" points="984.4,2257.3 1027.4,2252.3 1000.5,2201.6 992.4,2213 						"/>
						<path class="st7" d="M1028.5,2266.8c-0.8-0.1-1.6-0.2-2.4-0.5c-4.5-1.4-8.2-4.5-10.3-8.6c-0.8-1.4-1.3-3-1.7-4.6
							c-0.4-1.8-0.5-3.7-0.4-5.5c0.4-2,0.6-4,1.8-5.9c0.9-1.9,2.2-3.5,3.8-4.8c1.3-1.2,2.9-2,4.5-2.6c1.3-0.5,2.8-0.7,4.2-0.7
							c2,0,4.1,0.4,5.9,1.3c0.7,0.3,1.5,0.7,2.1,1.2c0,0-0.5,0.9-1.2,2.1c-0.4,0.6-0.8,1.3-1.3,2c-0.5,0.7-0.9,1.5-1.3,2.3
							c-0.4,0.7-0.8,1.5-1,2.3c-0.1,0.8-0.5,1.3-0.4,1.9c0,0.2,0,0.5-0.1,0.7c0.1,0.2,0.1,0.4,0.1,0.6c-0.1,0.3,0.1,0.8-0.1,1.2
							c0,0.6-0.2,1.1-0.2,1.9s-0.1,1.6-0.2,2.4c-0.1,1.8-0.3,3.8-0.6,5.8s-0.5,3.8-0.8,5.2S1028.5,2266.8,1028.5,2266.8z"/>
					</g>
					<g>
						<path class="st10" d="M386.9,2282.6c0,0-17.5,36.8-6.8,45.3l151.9,69.3l27.5,5.6l-3.5-27L386.9,2282.6z"/>
						<path class="st8" d="M395.6,2261.8c8.2-19.6,15.3-40.4,22.9-45c8.1-5,1,25.5,42,37.7c36.9,10.9,58.2,5.6,58.2,5.6l5.1-12.1
							c0,0,0,8.8,38.6,25c12.5,5.2,33.3,5.1,33.3,5.1l-34.7,109l-119.5-53c-3.7-1.2-7.5-2.6-11.7-4.3
							C369.2,2303.8,385,2286.9,395.6,2261.8z"/>
						<path class="st7" d="M593.3,2277c0.2,0.1,5.9-1.7,7.6-1.1c59.2,19.3,79.1,72,62.1,112.7c-3.2,7.6-7.8,14.4-13.5,20.3
							c0,0-34.5,0.7-94.2-24.2l-0.6-0.3L593.3,2277z"/>
						<path class="st10" d="M554.7,2384.4l0.6,0.3c59.6,24.9,94,24.2,94.2,24.2c-2.9,5.4-7.6,13.1-11.8,17.4c0,0-33.2,1.2-90.4-22.7
							l-15.3-6.5L554.7,2384.4z"/>
						<path class="st7" d="M566.3,2298.8c-0.7-0.4-1.4-0.8-2-1.4c-3.6-3-5.8-7.3-6.2-12c-0.2-1.6-0.1-3.2,0.2-4.8
							c0.3-1.8,0.9-3.6,1.8-5.2c1.2-1.7,2.1-3.5,3.9-4.8c1.5-1.4,3.3-2.4,5.3-2.9c1.7-0.6,3.4-0.8,5.2-0.6c1.4,0.1,2.8,0.4,4.1,1
							c1.9,0.8,3.6,2,4.9,3.5c0.6,0.6,1,1.2,1.5,1.9c0,0-0.8,0.7-1.9,1.5c-0.6,0.4-1.2,0.9-1.9,1.3c-0.7,0.5-1.4,1.1-2.1,1.7
							c-0.6,0.6-1.4,1-1.8,1.7s-1,1-1.1,1.6c-0.1,0.2-0.2,0.4-0.3,0.6c0,0.2-0.1,0.4-0.2,0.6c-0.2,0.2-0.2,0.8-0.5,1.1
							c-0.2,0.5-0.6,0.9-0.9,1.6s-0.7,1.4-1.2,2.1c-0.8,1.6-1.8,3.4-2.7,5.1s-2,3.3-2.8,4.5S566.3,2298.8,566.3,2298.8z"/>
						<polygon class="st6" points="504.1,2262.4 545.7,2274.5 540.5,2217.3 528.6,2224.7 						"/>
						<path class="st7" d="M541.1,2288.3c-0.7-0.4-1.4-0.8-2-1.4c-3.6-3-5.8-7.3-6.2-12c-0.2-1.6-0.1-3.2,0.2-4.8
							c0.3-1.8,0.9-3.6,1.8-5.2c1.2-1.7,2.1-3.5,3.9-4.8c1.5-1.4,3.3-2.4,5.3-2.9c1.7-0.5,3.4-0.8,5.2-0.6c1.4,0.1,2.8,0.4,4.1,1
							c1.9,0.8,3.6,2,4.9,3.5c0.6,0.6,1,1.2,1.5,1.9c0,0-0.8,0.7-1.9,1.5c-0.6,0.4-1.2,0.9-1.9,1.3c-0.7,0.5-1.4,1.1-2.1,1.7
							c-0.6,0.6-1.4,1-1.8,1.7s-1,1-1.1,1.6c-0.1,0.2-0.2,0.4-0.3,0.6c0,0.2-0.1,0.4-0.2,0.6c-0.2,0.2-0.2,0.8-0.5,1.1
							c-0.2,0.5-0.6,0.9-0.9,1.6s-0.7,1.4-1.2,2.1c-0.8,1.6-1.8,3.4-2.7,5.1s-2,3.3-2.8,4.5S541.1,2288.3,541.1,2288.3z"/>
					</g>
					<path class="st8" d="M881.8,1000.8c-30.8-15.6-85.8-17.5-141.1-17.5c-58,0-130.3-3.4-166.4,14.8c-18.6,9.3,41.5,113.1,84.3,113
						c37.8-0.1,72.7-54.6,108.3-61c36.5-6.6,74.2,44.8,115.2,37.2C907.9,1082.5,897.3,1008.6,881.8,1000.8z"/>
					<g>
						<polygon class="st6" points="751.1,1360.7 816.7,1397.2 855.7,1347.2 777.3,1077.4 766.9,1077.4 						"/>
						<polygon class="st7" points="751.8,1347.6 816.6,1381 850.5,1329.3 843.8,1306.1 810.3,1357.2 753,1327.6 						"/>
					</g>
					<path class="st7" d="M448.1,1902.9l-4.3,27.5c39.2,22,104.4,42.5,211.4,42.5c4.8,0,9.7,0,14.7-0.1l11.6-25.9
						C553.2,1950.8,484.2,1925.9,448.1,1902.9z"/>
					<path class="st5" d="M1027.6,1899.8l-2.2-27.8c-105.6,57-178,72.9-224.5,74.1l9.2,25.8c47.2-3,113.5-19.2,203.5-64.7
						C1018.2,1904.7,1022.9,1902.3,1027.6,1899.8z"/>
					<polygon class="st11" points="779.7,996.9 766.9,1050.1 665,996.9 665,804.1 779.7,804.1 					"/>
					<path class="st4" d="M779.7,910.7l-97.6-48.6c-2.8,1.8-5.6,3.7-8.4,5.5s-5.7,3.6-8.7,5.6v118.3c9.2-17.3,12.3-52.2,27-49.7
						c41.9,7,68.9,5.3,87.7,1.4L779.7,910.7z"/>
					<g>
						<path class="st3" d="M1112.1,489.1c0-219.3-148.6-378.9-367.8-378.9S473.7,281.6,473.7,500.9c0,61.1,10.7,116.1,35.3,167.8
							c-9.2,20.4-18,214.2,174.5,256.8c264.4,58.6,431.6-42.1,444.9-171.1c4.9-47.2-25-82.7-24.8-105.1
							C1104.3,592.1,1112.1,550.2,1112.1,489.1z"/>
						<path class="st12" d="M744.2,110.2c-86.2,0-146.4,26.5-187.8,72c-0.4,12.1,0.6,21.4,4.3,22.5c-6.3-1.9-12.9-3.2-19.5-3.7
							c-51.7,71.1-67.5,178.1-67.5,300c0,40.3,4.7,78,14.9,113.8c16.6,25.2,36.2,52.1,56.3,48.8c-5-20.4,97.5-118.7,90.8-350.5
							c4.7,13.6,132.6,137.2,266.3,99.3c-26.5,1.7-83-17.2-113-44.9c72.7,33,178.2,47.9,222.1,32.3c-22.4-12-77.3-38.1-84-64.9
							c28.2,25.8,109.5,77.3,181.1,95.4C1084.2,241.9,943.4,110.2,744.2,110.2z"/>
						<path class="st12" d="M715.9,912.8c-192.4-42.6-183.7-236.4-174.5-256.8c-24.6-51.7-29.4-125.6-29.4-186.6
							c0-135.1,19.5-252.1,85.7-321.9c-97.4,61.9-124.1,195.2-124.1,353.6c0,61.1,10.7,116.1,35.3,167.8
							c-9.2,20.4-18,214.2,174.5,256.8c187.6,41.6,326.2,3,395.7-69C1002.7,907.2,873.7,947.7,715.9,912.8z"/>
						<g>
							<path class="st13" d="M625.4,288.2c-5,5,127.5,139.7,266.4,100.4c-26.5,1.8-83-17.2-113-44.8c72.7,33,178.2,47.9,222.1,32.3
								c-22.4-12-77.3-38.1-84-64.9c29.1,26.6,114.5,80.5,187.7,96.9c44,9.9,114.7-4,142.8-30.5c-90.3-26.9-104-45.1-114.9-78.1
								c-15.5-46.6-26.6-137.9-68.1-184.3C1030.9,77.9,937.6,16.6,839.7,3c-99.1-13.8-206,23.7-229.9,35.5
								c-22,10.9-45.7,34.2-54.7,57.7c-3.5,9.1-15.5,81.5-4.8,84.7c-43.9-13-64,7-92,39.6c-69.2,80.8-56.5,264.1,1.7,343.1
								c19.4,26.3,46.5,80.7,74.6,76.1C529.6,619.3,632.5,520.7,625.4,288.2z"/>
							<path class="st13" d="M565.2,196c-27.4-21.3-35.5-96.5-23.4-124.8c-26.9,15.9-33.3,47.1-28.6,78c4.6,30.4,18,40.9,46.3,49.3
								L565.2,196z"/>
						</g>
						<path class="st14" d="M615,421c-11.5,25.1-30.2,48.2-60.2,49.4c-28.4,1.1-63.4-17.8-93-42.1c-14-11.5-33.8-33.9-50.3-59.6
							c-2.4,73.5,15.9,150.7,48.5,195c19.4,26.3,46.5,80.7,74.6,76.1c-4-16.3,60.5-82.3,83.2-226.1C617,416.1,616.1,418.6,615,421z"
							/>
						<g>
							<path class="st3" d="M578,660.7c0,45.6-33.6,82.6-75,82.6s-75-37-75-82.6s33.6-82.6,75-82.6S578,615.1,578,660.7z"/>
							<path class="st15" d="M508.4,707.3l-1.7,0.4c-1.6,0.4-3.2,0.7-4.8,0.8l-3.6,0.2c-1.3,0-2.7-0.2-4.2-0.3
								c-3.4-0.4-6.8-1.2-10-2.4c-3.9-1.5-7.6-3.5-10.9-5.9c-3.8-2.8-7.2-6.2-10-10c-3.1-4.1-5.5-8.7-7.1-13.6
								c-1.6-5.1-2.5-10.4-2.6-15.8c0.1-2.6,0.3-5.2,0.7-7.8c0.4-2.7,1-5.4,1.9-8c1.6-4.9,4-9.5,7.1-13.6c2.8-3.8,6.2-7.2,10-10
								c3.4-2.5,7-4.5,10.9-6c3.2-1.2,6.6-2,10-2.4c1.5-0.1,2.9-0.3,4.2-0.3l3.5,0.2c1.6,0.1,3.2,0.4,4.8,0.8l1.7,0.4l-1.6,0.6
								c-1,0.4-2.6,0.8-4.4,1.5c-4.9,1.8-9.5,4.4-13.6,7.6c-2.6,2-5,4.3-7.1,6.8c-2.3,2.7-4.3,5.6-6,8.7c-1.7,3.3-3,6.7-4,10.3
								c-0.4,1.7-0.8,3.5-1,5.3c-0.3,1.9-0.4,3.9-0.4,5.9c0,3.8,0.5,7.5,1.4,11.1c0.9,3.6,2.3,7,4,10.3c1.7,3.1,3.7,6,6,8.7
								c2.2,2.5,4.5,4.8,7.1,6.8c2.3,1.7,4.8,3.3,7.3,4.7c1.2,0.6,2.3,1.1,3.4,1.7l3,1.2c1.8,0.8,3.5,1.2,4.5,1.5L508.4,707.3z"/>
							<path class="st15" d="M465.4,655.9c-0.1,0,1,0,2.9,0.1s4.2,0.4,7.1,0.8c3.3,0.5,6.6,1.1,9.8,2c3.7,1,7.4,2.2,10.9,3.8
								c3.5,1.6,6.8,3.5,9.9,5.9c1.3,1.1,2.6,2.3,3.9,3.6c1,1.3,2.1,2.4,2.9,3.6l1.9,3.3c0.4,0.9,0.8,1.8,1.1,2.7l0.8,2.4l-1.5-2
								c-0.5-0.8-1.1-1.5-1.7-2.2l-2.6-2.5c-1-0.9-2.2-1.6-3.4-2.4c-1.2-0.8-2.7-1.3-4.1-2.1c-3.1-1.2-6.3-2-9.6-2.5
								c-3.3-0.5-6.6-0.6-9.9-0.5c-2.9,0.1-5.8,0.3-8.6,0.7c-2.5,0.4-4.5,0.8-5.9,1.1c-1.4,0.3-2,0.5-2.1,0.5
								c-4.5,0.5-8.6-2.8-9.1-7.3C457.6,660.5,460.8,656.4,465.4,655.9L465.4,655.9z"/>
						</g>
						<g class="st16">
							<path class="st17" d="M896.1,639.8c3.5,3,6.8,6.3,9.7,9.9c3,3.6,5.8,7.5,8.2,11.5c1.4,2.4,2.7,4.8,3.8,7.3
								c0.6,1.4,1.1,2.9,1.5,4.4c0.6,2.2,0.7,4.4,0.2,6.6c-0.3,1-0.9,2-1.5,2.8c-0.4,0.5-0.9,1-1.4,1.4c-0.8,0.7-1.7,1.3-2.6,1.8
								c-1.5,0.8-3,1.4-4.6,1.8c-2.7,0.8-5.5,1.4-8.3,1.7c-4.7,0.6-9.5,0.7-14.2,0.5c-4.6-0.2-9.2-0.8-13.7-1.9c0,0,1.3-0.6,3.6-1.3
								c2.3-0.8,5.5-1.9,9.4-3l13-3.8c2.3-0.7,4.6-1.4,6.8-2.3c0.9-0.4,1.9-0.8,2.8-1.3c0.2-0.1,0.5-0.3,0.7-0.5c0.1-0.1,0,0,0,0
								c-0.1,0-0.6,1.1-0.5,1.1c0-0.4-0.1-0.9-0.2-1.3c-0.2-1.1-0.5-2.1-0.9-3.2c-0.8-2.3-1.6-4.6-2.5-6.8
								c-1.7-4.6-3.5-8.9-4.9-12.7c-1.4-3.8-2.5-7-3.2-9.3S896.1,639.8,896.1,639.8z"/>
						</g>
						<g>
							<path class="st18" d="M758.7,734.1c-2.8,50.2,46.2,100.5,101.9,100.5s101.9-52.8,101.9-100.5H758.7z"/>
							<path class="st7" d="M758.7,734.1c-0.3,6.6,0.2,13.3,1.6,19.8c5.4,3.6,11.3,6.5,17.4,8.7c1.5,0.6,4.8-5.3,6.4-4.8
								c1.8,0.6,1.9,7.6,3.8,8.1c17.9,5.2,41,8.4,66.3,9c2.3,0,10.7,0.1,12.5,0c27-0.4,51.5-4,70.2-9.7c6.7-9.1,10.5-19.9,11.1-31.1
								L758.7,734.1z"/>
						</g>
						<path class="st19" d="M860.6,834.6c18.9,0,36.7-6.1,51.9-15.9c-5.8-5.6-12.2-10.5-19.2-14.5c-33.7-18.5-84.5-32.6-126.4-30.2
							C782.9,807.9,819.9,834.6,860.6,834.6z"/>
						<ellipse class="st12" cx="867.7" cy="866.2" rx="14.4" ry="6.9"/>
						<path class="st4" d="M661.4,548.9c0,0,27.8-47.7,78.1-35.8c0,0-15.8,10.1-36.5,22.1C686.3,544.9,661.4,548.9,661.4,548.9z"/>
						<path class="st4" d="M1041.8,550c0,0-27.8-47.7-78.1-35.8c0,0,15.8,10.1,36.4,22.1C1016.9,546.1,1041.8,550,1041.8,550z"/>
						<g>
							<path class="st13" d="M962.5,511.6c1.1-1.1,2.4-2.1,3.8-2.9c3.4-2.2,7.2-3.9,11.1-5c2.6-0.8,5.3-1.3,8-1.7
								c3-0.4,6.1-0.5,9.2-0.4c1.6,0.1,3.3,0.2,4.9,0.5c1.7,0.2,3.4,0.5,5,0.9c3.4,0.8,6.7,1.9,9.9,3.4c1.6,0.8,3.2,1.5,4.7,2.3
								s3,1.9,4.4,2.9c3,1.8,5.3,4.5,7.6,6.7c2.3,2.3,4,5.1,5.7,7.5c1.5,2.3,2.7,4.8,3.6,7.5c0.8,2.4,1.8,4.5,2,6.6s0.5,3.9,0.6,5.4
								c0.1,1.6,0.2,3.1,0.1,4.7c0,0-1.6-0.9-3.9-2.6c-1.2-0.8-2.6-1.8-4-3c-1.4-1.2-3.3-2.2-5-3.5c-1.8-1.4-3.6-2.7-5.6-3.9
								c-2.1-1.2-3.8-2.8-6-3.8s-4.1-2.6-6.4-3.6c-1.1-0.6-2.2-1.1-3.3-1.7c-1-0.7-2.3-1-3.4-1.5c-2.2-1.2-4.7-2-7-3l-7.1-2.7
								c-2.4-0.7-4.7-1.7-7-2.3c-2.3-0.8-4.5-1.4-6.6-2.1l-10.7-3.3C964.2,512.1,962.5,511.6,962.5,511.6z"/>
							<path class="st13" d="M740.7,511.6c0,0-1.7,0.6-4.4,1.4l-10.7,3.3c-2.1,0.7-4.3,1.3-6.6,2.1c-2.3,0.6-4.6,1.6-7,2.3l-7.1,2.7
								c-2.3,1-4.8,1.8-7,3c-1.1,0.5-2.3,0.9-3.4,1.5c-1.1,0.6-2.2,1.2-3.3,1.7c-2.3,1-4.3,2.5-6.4,3.6c-2.2,1.1-4,2.7-6,3.8
								c-1.9,1.2-3.8,2.5-5.6,3.9c-1.7,1.3-3.7,2.3-5,3.5c-1.3,1.2-2.8,2.1-4,3c-2.3,1.7-3.9,2.6-3.9,2.6c-0.1-1.6-0.1-3.1,0.1-4.7
								c0.1-1.5,0.3-3.3,0.6-5.4c0.3-2.1,1.2-4.2,2-6.6c0.9-2.6,2.1-5.1,3.6-7.5c1.7-2.4,3.2-5.3,5.7-7.5c2.4-2.2,4.7-4.9,7.6-6.7
								c1.4-1,2.9-2,4.4-2.9s3.1-1.6,4.7-2.3c3.2-1.5,6.5-2.6,9.9-3.4c1.6-0.4,3.3-0.7,5-0.9c1.6-0.3,3.2-0.4,4.9-0.5
								c3.1-0.1,6.1,0,9.2,0.4c2.7,0.3,5.4,0.9,8,1.7c3.9,1.1,7.7,2.8,11.1,5C738.3,509.5,739.6,510.5,740.7,511.6z"/>
						</g>
						<g>
							<ellipse class="st20" cx="991.1" cy="614.1" rx="22.1" ry="31.6"/>
							<ellipse class="st20" cx="722.3" cy="614.1" rx="22.1" ry="31.6"/>
							<ellipse class="st7" cx="1000.9" cy="601" rx="5.5" ry="9.2"/>
							<ellipse class="st7" cx="730.3" cy="601" rx="5.5" ry="9.2"/>
						</g>
					</g>
					<g>
						<path class="st21" d="M998.9,368.7l1.2-0.1C999.7,368.6,999.3,368.6,998.9,368.7z"/>
						<path class="st21" d="M1001.7,368.4l2.3-0.3C1003.2,368.2,1002.4,368.3,1001.7,368.4z"/>
					</g>
					<g>
						<g>
							<circle class="st22" cx="721.8" cy="591.8" r="122.4"/>
							<circle class="st23" cx="721.8" cy="591.8" r="122.4"/>
						</g>
						<g>
							<path class="st22" d="M1152.5,591.8c0,67.6-54.8,122.4-122.4,122.4c-67.6,0-122.4-54.8-122.4-122.4
								c0-67.6,54.8-122.4,122.4-122.4c0,0,0,0,0,0C1097.7,469.4,1152.5,524.2,1152.5,591.8z"/>
							<path class="st23" d="M1152.5,591.8c0,67.6-54.8,122.4-122.4,122.4c-67.6,0-122.4-54.8-122.4-122.4
								c0-67.6,54.8-122.4,122.4-122.4c0,0,0,0,0,0C1097.7,469.4,1152.5,524.2,1152.5,591.8z"/>
						</g>
						<path class="st24" d="M908.7,611.8c-0.6-15.7-62.4-23.3-67.5,7.7"/>
					</g>
					<path class="st25" d="M594.7,589.7l-72.8-9l72.8-9c4.9-0.6,9.4,2.9,10.1,7.9s-2.9,9.4-7.9,10.1
						C596.2,589.8,595.4,589.8,594.7,589.7z"/>
					<g>
						<path class="st14" d="M1245.3,377c-47.3,18.3-149.6,43.1-264.5-21.2c36.9,21.6,82.3,43,123.8,52.3c44,9.9,114.7-4,142.8-30.5
							L1245.3,377z"/>
						<path class="st14" d="M941.7,330.8c-8.3-6-16.5-12.5-24.8-19.5C924.8,318.2,933.1,324.7,941.7,330.8z"/>
					</g>
					<path class="st14" d="M1000.9,376.1l-0.4-0.2c-30.1-1.2-167.2-8-221.7-32.1C851.5,376.8,957,391.7,1000.9,376.1z"/>
					<path class="st14" d="M555.2,96.2c-2.2,5.7-7.7,35.9-8.9,58.7c2.5,18.4,7.8,37.6,18.9,47.4c20.2,17.7-43.6-54.9,50.6-166.4
						c-2.3,1-4.3,1.9-5.9,2.7C587.8,49.4,564.2,72.7,555.2,96.2z"/>
					<g>
						<path class="st26" d="M1076.1,1353.4c-2.4-20.4,8.2-110.6,67.9-139.6c24.5-11.9,49.2-23.6,72.6-37.7
							c21-12.7,43.9-26.8,53-49.3c2.6-6.5-0.2-22.8-0.2-22.8s45.1,24.3,37,109.2c-1.8,19-4.1,38.5-9.5,56.9
							c-7.3,24.8-23.6,41.9-42.5,58.6c-11,9.7-20.2,20.1-32.3,28.7c-12.5,8.7-25.5,16.6-38.9,23.7c-19.8,10.7-40.1,19.8-63,18.5
							c-8.7-0.5-16.2-4.2-23.8-8c-6.8-3.4-12.4-7.6-13.6-15.1C1081.3,1366.9,1077.2,1363,1076.1,1353.4z"/>
						<path class="st27" d="M1306.3,1213.1c2.2-23.2,0.5-41.8-3.3-56.6c-3-2.4-2.1,12.8-4.8,19.3c-9.1,22.5-32,36.6-53,49.3
							c-23.4,14.1-48,25.8-72.6,37.7c-54.4,26.4-68,103.4-68.2,132.4c4.9,2.3,10.2,3.8,15.6,4.2c22.9,1.2,43.2-7.8,63-18.5
							c13.4-7.1,26.4-15,38.9-23.7c12.1-8.6,21.3-18.9,32.3-28.7c18.9-16.7,35.2-33.8,42.5-58.6
							C1302.2,1251.6,1304.5,1232.1,1306.3,1213.1z"/>
						<g>
							<path class="st26" d="M1085,1355.7c0,0-78-172.7-314.2-195.4c0,0-83.6-0.5-102.9-29.6l-26.5,92.2
								c0,0,147.2,171.8,157.6,178.1s268.2,85.7,268.2,85.7L1085,1355.7z"/>
							<path class="st27" d="M1070.6,1394c0,0-77.9-172.6-314.1-195.4c0,0-83.6-0.5-102.9-29.6l-26.5,92.2
								c0,0,147.2,171.8,157.6,178.1s268.2,85.7,268.2,85.7L1070.6,1394z"/>
							<g>
								<g>
									<path class="st28" d="M979,1863.6L658.9,1689c0,0-6.9-3.8-11-8.8c-3.4-4.2-3.6-12.2-3.6-12.2l-46.6-524.1
										c0,0-1.6-7.1,6.2-12.7c5.1-3.7,14.2-1.1,14.2-1.1l420.5,201.9L979,1863.6z"/>
									<path class="st28" d="M1026.8,1870l159.9-282.4l183.6-493.1c0,0,3.4-6.5-2.6-13.9c-3.9-4.9-231.4,264.4-231.4,264.4
										L1026.8,1870z"/>
									<path class="st29" d="M603.9,1131.1c5.1-3.7,14.2-1.1,14.2-1.1l8.5,4.1l51.7,497.8c0,0,0.2,8,3.6,12.2
										c4.1,5.1,11,8.8,11,8.8l287.2,200.4l-1.1,10.3L658.9,1689c0,0-6.9-3.8-11-8.8c-3.4-4.2-3.6-12.2-3.6-12.2l-46.6-524.1
										C597.7,1143.8,596.1,1136.7,603.9,1131.1z"/>
									<path class="st29" d="M603.9,1131.1c5.1-3.7,60.1,519.2,60.1,519.2s0.2,8,3.6,12.2c4.1,5.1,11,8.8,11,8.8L979,1863.6
										L658.9,1689c0,0-6.9-3.8-11-8.8c-3.4-4.2-3.6-12.2-3.6-12.2l-46.6-524.1C597.7,1143.8,596.1,1136.7,603.9,1131.1z"/>
									<polygon class="st30" points="949.4,1780.7 691.9,1640.1 662.5,1225.2 978.8,1377 									"/>
									<polygon class="st31" points="973.5,1735.4 1007.2,1351.3 770.4,1239.8 									"/>
								</g>
								<polygon class="st32" points="1026.8,1870 978.7,1863.5 1038.3,1331.8 1136.3,1345 								"/>
								<polygon class="st33" points="1015.3,1855.7 993.6,1852.7 1055.7,1334.1 1118.9,1342.6 								"/>
							</g>
						</g>
						<path class="st29" d="M1136.3,1345l-109.5,525l62.6-110.6c4.3-16.2,15.2-96.1,18.8-123.2c12.1-89.4,23.7-181.2,62.4-263.7
							c29.7-63.2,74.8-114,119.6-166.7c24.5-28.7,47-59.1,71.3-88l8.7-23.4c0,0,3.4-6.5-2.6-13.9
							C1363.8,1075.7,1136.3,1345,1136.3,1345z"/>
					</g>
					<g>
						<path class="st3" d="M315.4,1358.1c0,0-28.7-28.4-7.3-66.8c16.1-28.7,53.7-10.3,71.5,0.4c47.8,28.8,167.2,92.1,221.4,136.7
							c23.4,19.2-7.8,57.6-24,54.4C513.6,1470,403.1,1432.2,315.4,1358.1z"/>
						<path class="st3" d="M586.9,1430.2c5.7-14.7,50-20.7,55.5-22.3c4.9-1.5,19.4-2.7,24.3-2.2c1.8,0.2,3.5,2.1,2.7,5.7
							c-3.2,14-28.2,20.2-28.6,21.1c5.9,4.3,17.8,5.5,18.1,5.8c17.1,2.6,49.1,7.6,62.4,8.9c5.5,0.5,11.5,4,11,8.3
							c-0.3,3-4.1,7.4-10.5,6.8c-23.3-2.3-58.9-3.3-59-2.7c16.3,5.3,47.4,15.6,60.3,19c5.3,1.4,10.7,5.9,9.7,10
							c-0.7,3-5,6.8-11.2,5.1c-14.4-3.5-63.6-12.2-64.1-10.8c16,8.2,39.4,20.1,50,24.8c5,2.2,9.8,7.5,8.2,11.5
							c-1.1,2.9-5.8,6-11.7,3.4c-12.6-5.2-36.7-14.4-54.9-22.4c-0.5,0.8,26.8,24.4,38.1,32.7c4.5,3.3,4.5,8.3,3.1,10.4
							c-2,3-7.8,1.8-11.6-1c-9.6-7-34.7-23.5-46.8-31.4c-9.4-1.6-28.5-9.3-35.4-12.7c-11.1-5.4-15.4-9.3-17.6-14.7l-5-10.7
							C573.8,1472.8,569.8,1448.6,586.9,1430.2z"/>
					</g>
				</g>
			</g>
		</g>
	</g>
</g>
</svg>
