<svg xmlns="http://www.w3.org/2000/svg" xmlns:xlink="http://www.w3.org/1999/xlink" width="550.49mm" height="855.96mm" viewBox="0 0 1560.45 2426.35">
  <defs>
    <style>
      .a, .aa, .z {
        fill: none;
      }

      .b {
        isolation: isolate;
      }

      .c {
        fill: #7291cb;
      }

      .d {
        clip-path: url(#a);
      }

      .e, .q {
        fill: #12242d;
      }

      .f {
        fill: #e8a789;
      }

      .g, .o, .t {
        fill: #e5ad97;
      }

      .g, .s {
        opacity: 0.7;
      }

      .af, .g, .o, .q, .s, .x {
        mix-blend-mode: multiply;
      }

      .h {
        fill: #e2e2e2;
      }

      .i {
        fill: #586589;
      }

      .ah, .j {
        fill: #fff;
      }

      .k {
        fill: #4e5878;
      }

      .l {
        fill: #efefef;
      }

      .m {
        fill: #c9c8c8;
      }

      .n {
        fill: #d79c7f;
      }

      .af, .ag, .o, .q, .x {
        opacity: 0.5;
      }

      .p {
        fill: #21313b;
      }

      .r {
        fill: #e08773;
      }

      .u {
        fill: #924a5a;
      }

      .v {
        fill: #d57085;
      }

      .w {
        fill: #291d11;
      }

      .x {
        fill: #b97443;
      }

      .y {
        fill: #bee2fa;
        opacity: 0.4;
      }

      .aa, .z {
        stroke: #542c0f;
      }

      .z {
        stroke-miterlimit: 10;
        stroke-width: 18.3px;
      }

      .aa {
        stroke-linecap: round;
        stroke-linejoin: round;
        stroke-width: 14.64px;
      }

      .ab {
        fill: #542c0f;
      }

      .ac {
        fill: #fafadf;
      }

      .ad {
        fill: #d6d5d5;
      }

      .ae {
        fill: #87c8e4;
      }

      .af {
        fill: #76acc2;
      }

      .ag {
        fill: #5aa2cb;
      }

      .ah {
        opacity: 0.2;
      }

      .ai {
        fill: #92cff6;
      }

      .aj {
        fill: #a5d7f8;
      }
    </style>
    <clipPath id="a" transform="translate(0 -87.72)">
      <path class="a" d="M644.51,30.72c165.7-70,367.13-6.39,523.6,52.28,295.76,110.91,487.8,445.36,449.51,794.15-19.87,181-63.91,422.63-157,577.71-250.89,417.77-936.45,208.63-1235.8,0-339.44-236.53-243.36-736.4,30-1040.2C365,292.22,487.46,97.07,644.51,30.72Z"/>
    </clipPath>
  </defs>
  <title>boy</title>
  <g class="b">
    <g>
      <path class="c" d="M581.49,456c159.27-45.11,332.22-52.68,489.73,2,297.72,103.3,506,374.89,488.17,644.53-9.25,139.92-71.06,296.89-154,412.44-223.37,311.27-838.27,156.18-1145.1-23.46-347.93-203.69-322.07-605.94-70-827.1C291.88,575.19,430.54,498.72,581.49,456Z" transform="translate(0 -87.72)"/>
      <g class="d">
        <g>
          <path class="e" d="M1123.47,570.32c-6.56,33.6-54.29,79.4-88.4,53.69-35.07-26.43-18-156.48,13.43-185.49C1113.12,378.9,1133.09,521,1123.47,570.32Z" transform="translate(0 -87.72)"/>
          <g>
            <path class="f" d="M831.09,1225.35s-30.41-54.9,17.47-101.93c35.9-35.26,72-3.4,88,14.41,42.89,47.66,110,108.47,154.28,170.52,45.46,63.7,67.38,85,57.62,96.32-11,12.83-57.19,56.58-75.34,49.09C1001.91,1424.35,897.93,1341.28,831.09,1225.35Z" transform="translate(0 -87.72)"/>
            <path class="g" d="M848.56,1123.42c-47.88,47-17.47,101.93-17.47,101.93,41.94,72.75,98.51,132.53,152.43,174.26,44-20.69,75.77-59.59,98.55-103.2-44-57.87-105.33-114-145.46-158.58C920.57,1120,884.47,1088.16,848.56,1123.42Z" transform="translate(0 -87.72)"/>
            <path class="h" d="M833.73,1106.15c-55.57,54.56-20.28,118.27-20.28,118.27,37.64,65.31,87.66,121.49,138.61,166,70.7,1.55,121.9-104.42,129.08-112.82-47.81-56.62-105.48-110.56-145.24-154.75C917.29,1102.19,875.39,1065.22,833.73,1106.15Z" transform="translate(0 -87.72)"/>
            <path class="i" d="M1068,1262.38q-8.87-10.08-18-20c-38.69,66.91-83.25,108.75-127.84,120.37q10.63,10.4,21.42,20.11C988.16,1366,1030.45,1325.13,1068,1262.38Z" transform="translate(0 -87.72)"/>
            <path class="f" d="M1124,1446.09s-31.82,24.9-67.17-1.14c-26.49-19.53-3.48-54.55,9.43-70.92,34.53-43.76,112.38-154.3,163.45-202.53,22-20.8,56.19,14.95,50.93,30.6C1260,1263.48,1208.59,1368.35,1124,1446.09Z" transform="translate(0 -87.72)"/>
            <path class="f" d="M1229.6,1185.79c-13.9-7.49-14.2-52.23-15.16-57.83-.88-5.05-.23-19.62.84-24.4.42-1.82,2.55-3.18,6-1.92,13.49,5,16.46,30.5,17.36,31,5-5.29,7.69-16.92,8.08-17.21,4.73-16.6,13.7-47.77,16.64-60.78,1.2-5.34,5.41-10.9,9.58-9.89,3,.7,6.88,5,5.46,11.28-5.17,22.86-10.72,58-10.12,58.16,7.34-15.53,21.38-45.06,26.39-57.45,2.07-5.07,7.16-9.9,11.16-8.35,2.87,1.1,6.12,5.8,3.67,11.78-5.26,13.89-20.05,61.61-18.8,62.25,10.15-14.88,24.91-36.54,30.89-46.47,2.85-4.7,8.69-8.76,12.46-6.72,2.7,1.46,5.2,6.51,1.87,12-6.78,11.81-18.89,34.63-29.07,51.65.72.63,27.53-23.55,37.17-33.73,3.84-4,8.79-3.43,10.75-1.74,2.73,2.35.82,8-2.44,11.39-8.18,8.62-27.68,31.45-37,42.45-2.8,9.08-12.83,27.14-17,33.54-6.79,10.31-11.13,14.13-16.77,15.64l-11.19,3.61S1245.75,1205.06,1229.6,1185.79Z" transform="translate(0 -87.72)"/>
          </g>
          <g>
            <path class="f" d="M474,2070.21c-27.27,48.17-62.67,252.47-47.38,264.64,13.06,10.4,81.73,27.51,86.51,19.94,17.78-28.32,95.73-233.73,95.73-233.73s9.94-40.32-33.72-60.17C511.15,2031.81,485.25,2050.28,474,2070.21Z" transform="translate(0 -87.72)"/>
            <path class="j" d="M438,2196c-12.76,65.77-20,132.08-11.45,138.86,13.06,10.4,81.73,27.51,86.51,19.94,9-14.28,33.24-73.61,55.1-128.91,0,0-23.13,6.41-45.7,2C462.14,2212.8,438,2196,438,2196Z" transform="translate(0 -87.72)"/>
            <path class="f" d="M608.09,2121.07c25.61-49.08,100-256.64,84.26-268.28-13.41-10-185-52.54-189.54-44.82-16.79,28.91-31.24,266.87-31.24,266.87s-8.56,40.64,35.75,59C572.25,2160.71,597.5,2141.36,608.09,2121.07Z" transform="translate(0 -87.72)"/>
          </g>
          <g>
            <path class="f" d="M858.59,2109.79c-8.41,54.72,30.94,258.29,49.54,264.24,15.9,5.1,86.17-3.26,88-12,6.58-32.78,6.63-252.48,6.63-252.48s-5-41.23-52.86-44.3C879.73,2060.7,862.07,2087.16,858.59,2109.79Z" transform="translate(0 -87.72)"/>
            <path class="j" d="M869.6,2240.14c11.4,66,28.18,130.58,38.54,133.89,15.9,5.1,86.17-3.26,88-12,3.32-16.54,5-80.62,5.81-140.07,0,0-19.36,14.19-42,18.1C898.08,2247.31,869.6,2240.14,869.6,2240.14Z" transform="translate(0 -87.72)"/>
            <path class="f" d="M1002,2109.79c6.54-55,2.46-275.41-16.34-280.73-16.07-4.55-191.64,16.49-193.12,25.31C787.1,1887.36,858,2115,858,2115s6.41,41,54.35,42.46C982.57,2159.56,999.32,2132.52,1002,2109.79Z" transform="translate(0 -87.72)"/>
          </g>
          <path class="k" d="M1031.24,2032.1s-42.76,31.74-106.62,49.7c-69.19,19.46-103.2,9.31-103.2,9.31l-88.29-246.88s-92.71-64.37-43.4-136.92c31.51-46.34,310-66.46,310-66.46Z" transform="translate(0 -87.72)"/>
          <path class="i" d="M650.31,2104.52s-52.74,7.36-117.39-7.48c-70.06-16.09-95-41.3-95-41.3l40.85-259s-50.51-100.93,27.54-141c49.86-25.57,303.89,90.25,303.89,90.25Z" transform="translate(0 -87.72)"/>
          <path class="l" d="M1026.36,1736c-76.66-259.74,13.35-567.22-144.53-647.51C851.06,1072.86,796,1071,740.72,1071c-58,0-130.34-3.41-166.42,14.75C413,1167,540.4,1476.28,455.07,1736,441.19,1778.27,1038.94,1778.65,1026.36,1736Z" transform="translate(0 -87.72)"/>
          <g>
            <path class="f" d="M497.61,1127.47s50.65-37.06,103.31,4.54c39.49,31.2,12.41,71-3.24,89.16-41.9,48.53-93.8,122.72-149.8,174.46-57.49,53.1-75.83,77.52-88.32,69.25-14.11-9.31-63.31-49.63-58.16-68.58C321.63,1321.92,391,1208.34,497.61,1127.47Z" transform="translate(0 -87.72)"/>
            <path class="g" d="M600.92,1132c-52.66-41.6-103.31-4.54-103.31-4.54-66.91,50.74-119.12,114.36-153.75,173.1,26.05,41.07,68.63,67.69,114.76,84.82,51.88-50.92,99.86-118.81,139.06-164.22C613.33,1203,640.41,1163.2,600.92,1132Z" transform="translate(0 -87.72)"/>
            <path class="j" d="M616.2,1115.12c-61.11-48.28-119.89-5.26-119.89-5.26-60.06,45.54-109.52,102.22-147.3,158.35,7.34,70.34,118.9,107.84,128.14,113.9,50.17-54.55,96.44-118.52,135.3-163.52C630.62,1197.53,662,1151.31,616.2,1115.12Z" transform="translate(0 -87.72)"/>
            <path class="i" d="M490.61,1367.13q8.88-10.06,17.57-20.36c-71.23-30-118.34-68.94-135.46-111.72q-9,11.85-17.27,23.77C377.8,1300.95,423.64,1337.78,490.61,1367.13Z" transform="translate(0 -87.72)"/>
          </g>
          <polygon class="i" points="726.97 1050.09 777.76 1098.7 791.49 1036.62 726.97 1050.09"/>
          <g>
            <path class="m" d="M884.13,2409s-1.85,40.72,11.26,44.4l166.85,5.16,27.53-5.53-13.61-23.54Z" transform="translate(0 -87.72)"/>
            <path class="k" d="M884.1,2386.43c0-21.23-1.47-43.15,3.73-50.39,5.55-7.74,10.76,23.13,53.3,18.5,38.22-4.16,55.83-17.39,55.83-17.39V2324s3.38,8.15,45.23,8.15c13.5,0,32.72-8.15,32.72-8.15l10.15,113.91-130.73-2.67c-3.85.33-7.92.54-12.44.52C876,2435.36,884.1,2413.66,884.1,2386.43Z" transform="translate(0 -87.72)"/>
            <path class="j" d="M1072.31,2324c.22,0,4.76-3.81,6.58-4,62.09-5.12,100.82,35.79,100.83,79.93a64.84,64.84,0,0,1-4.6,23.91s-31.56,14-96.21,14.08h-.67Z" transform="translate(0 -87.72)"/>
            <path class="m" d="M1078.24,2437.92h.67c64.53-.12,96.08-14,96.2-14.07-.58,6.09-2,15-4.1,20.62,0,0-30.2,13.95-92.09,14.05h-16.67Z" transform="translate(0 -87.72)"/>
            <path class="j" d="M1055.82,2354.53a10.29,10.29,0,0,1-2.37-.51,17.63,17.63,0,0,1-10.34-8.64,16.19,16.19,0,0,1-1.65-4.55,19.24,19.24,0,0,1-.39-5.51c.42-2,.62-4,1.78-5.91a13.2,13.2,0,0,1,3.76-4.75,13,13,0,0,1,4.54-2.56,11.13,11.13,0,0,1,4.18-.66,12.71,12.71,0,0,1,5.89,1.34,11.29,11.29,0,0,1,2.08,1.18s-.46.91-1.19,2.11c-.37.59-.77,1.34-1.26,2a15.29,15.29,0,0,0-1.26,2.34,8.71,8.71,0,0,0-1,2.25c-.14.75-.54,1.3-.41,1.87a1.7,1.7,0,0,1-.07.67,1.56,1.56,0,0,1,.09.61c-.09.27.08.81-.08,1.19,0,.58-.17,1.06-.18,1.85s-.14,1.55-.24,2.44c-.14,1.79-.33,3.81-.55,5.75s-.53,3.79-.81,5.19S1055.82,2354.53,1055.82,2354.53Z" transform="translate(0 -87.72)"/>
            <polygon class="i" points="984.42 2257.25 1027.43 2252.34 1000.54 2201.56 992.39 2213.01 984.42 2257.25"/>
            <path class="j" d="M1028.5,2354.53a10.29,10.29,0,0,1-2.37-.51,17.6,17.6,0,0,1-10.35-8.64,16.18,16.18,0,0,1-1.65-4.55,19.25,19.25,0,0,1-.39-5.51c.42-2,.62-4,1.78-5.91a13.16,13.16,0,0,1,3.76-4.75,12.92,12.92,0,0,1,4.54-2.56,11.13,11.13,0,0,1,4.18-.66,12.71,12.71,0,0,1,5.89,1.34A11.28,11.28,0,0,1,1036,2324s-.46.91-1.19,2.11c-.37.59-.77,1.34-1.26,2a15.13,15.13,0,0,0-1.26,2.34,8.64,8.64,0,0,0-1,2.25c-.14.75-.54,1.3-.41,1.87a1.71,1.71,0,0,1-.07.67,1.56,1.56,0,0,1,.09.61c-.09.27.08.81-.07,1.19,0,.58-.17,1.06-.18,1.85s-.13,1.55-.24,2.44c-.14,1.79-.33,3.81-.55,5.75s-.53,3.8-.8,5.19S1028.5,2354.53,1028.5,2354.53Z" transform="translate(0 -87.72)"/>
          </g>
          <g>
            <path class="m" d="M386.88,2370.33s-17.46,36.84-6.78,45.31L532,2484.94l27.53,5.55-3.45-27Z" transform="translate(0 -87.72)"/>
            <path class="k" d="M395.57,2349.55c8.21-19.58,15.34-40.36,22.94-45,8.11-5,1,25.49,42,37.67,36.85,10.95,58.21,5.56,58.21,5.56l5.09-12.15s0,8.83,38.56,25c12.45,5.22,33.32,5.14,33.32,5.14l-34.71,109-119.52-53c-3.68-1.19-7.51-2.56-11.68-4.34C369.16,2391.53,385,2374.66,395.57,2349.55Z" transform="translate(0 -87.72)"/>
            <path class="j" d="M593.29,2364.75c.2.09,5.86-1.67,7.6-1.1,59.24,19.3,79.12,72,62.06,112.7a64.87,64.87,0,0,1-13.49,20.28s-34.5.67-94.17-24.23l-.61-.27Z" transform="translate(0 -87.72)"/>
            <path class="m" d="M554.67,2472.13l.61.27c59.56,24.85,94,24.24,94.15,24.24-2.89,5.39-7.61,13.07-11.76,17.43,0,0-33.24,1.18-90.36-22.67L532,2484.94Z" transform="translate(0 -87.72)"/>
            <path class="j" d="M566.26,2386.56a10.25,10.25,0,0,1-2-1.39,17.61,17.61,0,0,1-6.19-12,16.16,16.16,0,0,1,.24-4.84,19.32,19.32,0,0,1,1.77-5.23c1.16-1.68,2.14-3.49,3.92-4.76a13.19,13.19,0,0,1,5.31-2.92,12.85,12.85,0,0,1,5.17-.6,11.08,11.08,0,0,1,4.11,1,12.68,12.68,0,0,1,4.91,3.52,11.13,11.13,0,0,1,1.46,1.89s-.77.66-1.91,1.48c-.57.4-1.24.93-1.93,1.34a15.12,15.12,0,0,0-2.07,1.67c-.63.61-1.43,1-1.81,1.68s-1,1-1.1,1.57a1.67,1.67,0,0,1-.32.59,1.52,1.52,0,0,1-.15.6c-.18.21-.24.78-.53,1.06-.2.54-.57.91-.88,1.64s-.73,1.38-1.17,2.15c-.82,1.59-1.78,3.39-2.73,5.09s-2,3.29-2.75,4.48S566.26,2386.56,566.26,2386.56Z" transform="translate(0 -87.72)"/>
            <polygon class="i" points="504.11 2262.4 545.67 2274.51 540.51 2217.28 528.57 2224.69 504.11 2262.4"/>
            <path class="j" d="M541.06,2376a10.25,10.25,0,0,1-2-1.39,17.6,17.6,0,0,1-6.19-12,16.15,16.15,0,0,1,.24-4.84,19.21,19.21,0,0,1,1.77-5.23c1.16-1.68,2.13-3.49,3.92-4.76a13.2,13.2,0,0,1,5.31-2.93,12.89,12.89,0,0,1,5.17-.6,11.12,11.12,0,0,1,4.11,1,12.72,12.72,0,0,1,4.91,3.52,11.19,11.19,0,0,1,1.46,1.89s-.77.66-1.91,1.48c-.57.4-1.23.93-1.93,1.34a15.07,15.07,0,0,0-2.07,1.67c-.63.61-1.43,1-1.81,1.68s-1,1-1.1,1.57a1.69,1.69,0,0,1-.32.59,1.58,1.58,0,0,1-.15.6c-.19.21-.24.78-.53,1.06-.2.54-.57.91-.88,1.64s-.73,1.38-1.16,2.15c-.82,1.59-1.78,3.39-2.73,5.09s-2,3.29-2.75,4.47S541.06,2376,541.06,2376Z" transform="translate(0 -87.72)"/>
          </g>
          <path class="k" d="M881.83,1088.5C851.06,1072.86,796,1071,740.72,1071c-58,0-130.34-3.41-166.42,14.75-18.56,9.34,41.48,113.09,84.33,113,37.78-.05,72.66-54.57,108.3-61,36.54-6.56,74.2,44.78,115.18,37.17C907.91,1170.2,897.27,1096.36,881.83,1088.5Z" transform="translate(0 -87.72)"/>
          <g>
            <polygon class="i" points="751.1 1360.66 816.66 1397.23 855.71 1347.19 777.3 1077.43 766.93 1077.43 751.1 1360.66"/>
            <polygon class="j" points="751.83 1347.61 816.59 1381.01 850.5 1329.28 843.78 1306.14 810.32 1357.19 752.95 1327.6 751.83 1347.61"/>
          </g>
          <path class="j" d="M448.15,1990.65l-4.34,27.49c39.18,22,104.38,42.53,211.41,42.53q7.21,0,14.69-.13l11.56-25.91C553.23,2038.53,484.18,2013.59,448.15,1990.65Z" transform="translate(0 -87.72)"/>
          <path class="h" d="M1027.64,1987.53l-2.24-27.85c-105.61,57-178,72.86-224.49,74.06l9.22,25.77c47.17-3,113.5-19.18,203.45-64.73Q1020.52,1991.28,1027.64,1987.53Z" transform="translate(0 -87.72)"/>
          <polygon class="n" points="779.69 996.93 766.93 1050.09 664.98 996.93 664.98 804.11 779.69 804.11 779.69 996.93"/>
          <path class="g" d="M779.69,998.4l-97.57-48.56c-2.79,1.83-5.57,3.73-8.42,5.49s-5.73,3.6-8.72,5.6v118.28c9.17-17.27,12.26-52.17,27-49.69,41.87,7,68.91,5.27,87.68,1.4Z" transform="translate(0 -87.72)"/>
          <g>
            <path class="f" d="M1112.08,576.85c0-219.29-148.56-378.92-367.85-378.92S473.74,369.33,473.74,588.62c0,61.08,10.7,116.14,35.33,167.84-9.22,20.43-18,214.21,174.46,256.84,264.42,58.57,431.61-42.05,444.93-171.08,4.87-47.17-25-82.71-24.75-105.11C1104.3,679.84,1112.08,637.92,1112.08,576.85Z" transform="translate(0 -87.72)"/>
            <path class="o" d="M744.23,197.93c-86.22,0-146.43,26.5-187.79,72-.42,12.08.58,21.36,4.27,22.46a93.8,93.8,0,0,0-19.48-3.73c-51.67,71.09-67.5,178.14-67.5,300,0,40.3,4.7,78,14.94,113.79C505.3,727.62,524.9,754.5,545,751.25c-5-20.44,97.49-118.72,90.77-350.45,4.73,13.65,132.62,137.2,266.35,99.32-26.49,1.74-83-17.22-112.95-44.85,72.71,33,178.16,47.88,222.09,32.34-22.36-12-77.31-38.08-84-64.91,28.21,25.8,109.46,77.27,181.14,95.36C1084.21,329.61,943.4,197.93,744.23,197.93Z" transform="translate(0 -87.72)"/>
            <path class="o" d="M715.93,1000.48C523.52,957.85,532.26,764.07,541.48,743.64,516.85,691.94,512.08,618.06,512.08,557c0-135.15,19.46-252.08,85.71-321.94C500.43,297,473.74,430.3,473.74,588.62c0,61.08,10.7,116.14,35.33,167.84-9.22,20.43-18,214.21,174.46,256.84,187.58,41.55,326.2,3,395.7-69C1002.71,994.88,873.66,1035.42,715.93,1000.48Z" transform="translate(0 -87.72)"/>
            <g>
              <path class="p" d="M625.42,375.94c-5,5,127.53,139.74,266.37,100.41-26.49,1.75-83-17.22-113-44.84,72.71,33,178.16,47.88,222.09,32.34-22.36-12-77.31-38.08-84-64.91,29.08,26.59,114.52,80.47,187.74,96.94,44,9.91,114.7-4,142.78-30.51-90.3-26.85-104-45.1-114.94-78.08C1117,340.66,1105.84,249.37,1064.35,203c-33.43-37.37-126.78-98.64-224.65-112.27-99.1-13.8-206,23.67-229.87,35.5-22,10.93-45.69,34.22-54.69,57.65-3.49,9.1-15.54,81.52-4.79,84.72-43.9-13-64,7-92,39.64C389.19,389,401.89,572.38,460,651.36c19.39,26.33,46.48,80.66,74.62,76.12C529.62,707,632.5,608.46,625.42,375.94Z" transform="translate(0 -87.72)"/>
              <path class="p" d="M565.18,283.71c-27.43-21.34-35.52-96.54-23.41-124.83-26.9,15.87-33.28,47.1-28.62,78,4.58,30.44,18,40.89,46.29,49.28Z" transform="translate(0 -87.72)"/>
            </g>
            <path class="q" d="M615,508.67c-11.54,25.09-30.19,48.24-60.18,49.44-28.36,1.14-63.41-17.79-93-42.1-14-11.51-33.8-33.87-50.26-59.64-2.42,73.48,15.9,150.67,48.53,195,19.39,26.33,46.48,80.66,74.62,76.12-4-16.32,60.46-82.31,83.24-226.09C617,503.85,616.09,506.29,615,508.67Z" transform="translate(0 -87.72)"/>
            <g>
              <path class="f" d="M578,748.45c0,45.62-33.6,82.6-75,82.6s-75-37-75-82.6,33.59-82.59,75-82.59S578,702.84,578,748.45Z" transform="translate(0 -87.72)"/>
              <path class="r" d="M508.37,795.05l-1.67.39a26.17,26.17,0,0,1-4.76.77l-3.6.19c-1.29,0-2.68-.17-4.2-.28a45.48,45.48,0,0,1-10-2.36,46.16,46.16,0,0,1-10.91-5.94,46.91,46.91,0,0,1-10-10,49.69,49.69,0,0,1-7.11-13.63,54.18,54.18,0,0,1-2.59-15.77,59.47,59.47,0,0,1,.68-7.79,47.26,47.26,0,0,1,1.9-8A49.75,49.75,0,0,1,463.17,719a47,47,0,0,1,10-10,46.29,46.29,0,0,1,10.92-5.95,45.26,45.26,0,0,1,10-2.36c1.52-.11,2.91-.26,4.2-.28l3.54.2a27.13,27.13,0,0,1,4.83.77l1.66.39-1.62.56c-1,.37-2.58.75-4.42,1.54a51.94,51.94,0,0,0-13.65,7.64,50.6,50.6,0,0,0-7.14,6.78,47,47,0,0,0-6,8.69,50.13,50.13,0,0,0-4,10.25,51,51,0,0,0-1,5.28,47,47,0,0,0-.43,5.86,50.29,50.29,0,0,0,1.39,11.14,49.77,49.77,0,0,0,4,10.26,47,47,0,0,0,6,8.7,50.61,50.61,0,0,0,7.14,6.79,62.76,62.76,0,0,0,7.29,4.74c1.18.58,2.32,1.08,3.37,1.66l2.95,1.22c1.8.79,3.46,1.18,4.48,1.54Z" transform="translate(0 -87.72)"/>
              <path class="r" d="M465.38,743.61c-.1,0,1.05,0,2.86.12s4.23.36,7.14.77a88.67,88.67,0,0,1,9.84,2,67.72,67.72,0,0,1,10.86,3.82,48.49,48.49,0,0,1,9.86,5.9,50.08,50.08,0,0,1,3.85,3.59c1,1.31,2.13,2.43,2.9,3.64l1.94,3.35a24,24,0,0,1,1.07,2.74l.84,2.36-1.47-2a22.35,22.35,0,0,0-1.71-2.22l-2.6-2.48c-1-.86-2.24-1.56-3.41-2.4s-2.72-1.35-4.1-2.06a41.77,41.77,0,0,0-9.57-2.47,58,58,0,0,0-9.88-.51,76.88,76.88,0,0,0-8.61.72c-2.49.37-4.55.75-5.93,1.07s-2,.52-2.08.52a8.28,8.28,0,1,1-1.79-16.47Z" transform="translate(0 -87.72)"/>
            </g>
            <g class="s">
              <path class="t" d="M896.09,727.48a71.48,71.48,0,0,1,9.69,9.9A93.55,93.55,0,0,1,914,748.9a58,58,0,0,1,3.77,7.34,29.89,29.89,0,0,1,1.54,4.43,13.08,13.08,0,0,1,.23,6.63,9.81,9.81,0,0,1-1.52,2.85,12.12,12.12,0,0,1-1.42,1.44,16.51,16.51,0,0,1-2.6,1.76,26.43,26.43,0,0,1-4.56,1.84,49.23,49.23,0,0,1-8.25,1.71,81.79,81.79,0,0,1-14.22.48,66.75,66.75,0,0,1-13.74-1.94s1.31-.55,3.6-1.35,5.54-1.88,9.41-3l13-3.75c2.29-.68,4.63-1.43,6.76-2.25a26,26,0,0,0,2.77-1.3,5.51,5.51,0,0,0,.71-.5c.11-.07,0,0,0,0-.13,0-.61,1.07-.5,1.13a6.26,6.26,0,0,0-.2-1.29,32.48,32.48,0,0,0-.9-3.16c-.76-2.25-1.64-4.57-2.54-6.83-1.74-4.56-3.54-8.86-4.91-12.67s-2.5-7-3.22-9.35S896.09,727.48,896.09,727.48Z" transform="translate(0 -87.72)"/>
            </g>
            <g>
              <path class="u" d="M758.68,821.81c-2.79,50.24,46.16,100.49,101.89,100.49s101.86-52.76,101.92-100.49Z" transform="translate(0 -87.72)"/>
              <path class="j" d="M758.68,821.81a77.27,77.27,0,0,0,1.56,19.81,78.71,78.71,0,0,0,17.43,8.68c1.51.56,4.8-5.32,6.4-4.79,1.77.58,1.88,7.57,3.77,8.11,17.94,5.15,41,8.45,66.32,9,2.32.05,10.68.06,12.51,0,27-.43,51.53-4,70.15-9.66a57.65,57.65,0,0,0,11.14-31.14Z" transform="translate(0 -87.72)"/>
            </g>
            <path class="v" d="M860.56,922.3c18.89,0,36.66-6.07,51.92-15.94a97.38,97.38,0,0,0-19.16-14.5c-33.69-18.48-84.47-32.62-126.4-30.23C782.93,895.58,819.93,922.3,860.56,922.3Z" transform="translate(0 -87.72)"/>
            <ellipse class="o" cx="867.68" cy="866.23" rx="14.43" ry="6.86"/>
            <path class="g" d="M661.36,636.58s27.79-47.74,78.13-35.84c0,0-15.78,10.09-36.45,22.11C686.26,632.61,661.36,636.58,661.36,636.58Z" transform="translate(0 -87.72)"/>
            <path class="g" d="M1041.82,637.74S1014,590,963.69,601.9c0,0,15.78,10.09,36.44,22.11C1016.91,633.77,1041.82,637.74,1041.82,637.74Z" transform="translate(0 -87.72)"/>
            <g>
              <path class="p" d="M962.48,599.3a21.27,21.27,0,0,1,3.77-2.89,41.85,41.85,0,0,1,11.13-5,47.74,47.74,0,0,1,8-1.67,54.68,54.68,0,0,1,9.19-.4,44.09,44.09,0,0,1,4.88.5,28.63,28.63,0,0,1,5,.9,51.16,51.16,0,0,1,9.89,3.36c1.59.77,3.21,1.46,4.73,2.35s2.95,1.94,4.38,2.92c3,1.81,5.29,4.45,7.62,6.73s4,5.12,5.65,7.52a33.93,33.93,0,0,1,3.63,7.47c.83,2.44,1.77,4.51,2,6.64s.48,3.89.61,5.36a31.69,31.69,0,0,1,.08,4.67s-1.6-.93-3.93-2.6c-1.15-.84-2.56-1.82-4-3s-3.3-2.23-5-3.53a56.06,56.06,0,0,0-5.58-3.86c-2.07-1.16-3.8-2.79-6.05-3.83s-4.12-2.59-6.43-3.59c-1.1-.57-2.24-1.08-3.29-1.74s-2.31-1-3.44-1.52c-2.2-1.22-4.65-2-7-3l-7.1-2.65c-2.4-.69-4.71-1.68-7-2.3-2.29-.78-4.52-1.45-6.63-2.1l-10.68-3.33C964.18,599.86,962.48,599.3,962.48,599.3Z" transform="translate(0 -87.72)"/>
              <path class="p" d="M740.69,599.3s-1.7.56-4.41,1.41L725.6,604c-2.11.65-4.34,1.31-6.63,2.1-2.31.62-4.62,1.62-7,2.3l-7.1,2.65c-2.31,1-4.75,1.77-7,3-1.13.53-2.35.92-3.44,1.52s-2.19,1.17-3.29,1.74c-2.3,1-4.25,2.47-6.43,3.59s-4,2.67-6.05,3.83a56,56,0,0,0-5.58,3.86c-1.72,1.3-3.67,2.3-5,3.53s-2.84,2.14-4,3c-2.32,1.67-3.93,2.6-3.93,2.6a31.69,31.69,0,0,1,.08-4.67c.13-1.47.26-3.31.61-5.36s1.17-4.19,2-6.64a33.93,33.93,0,0,1,3.62-7.47c1.7-2.4,3.23-5.3,5.65-7.52s4.65-4.93,7.62-6.73c1.44-1,2.87-2,4.39-2.92s3.14-1.58,4.73-2.35a51.18,51.18,0,0,1,9.89-3.36,28.64,28.64,0,0,1,5-.9,44.11,44.11,0,0,1,4.88-.5,54.68,54.68,0,0,1,9.19.4,47.72,47.72,0,0,1,8,1.67,41.86,41.86,0,0,1,11.13,5A21.28,21.28,0,0,1,740.69,599.3Z" transform="translate(0 -87.72)"/>
            </g>
            <g>
              <ellipse class="w" cx="991.14" cy="614.13" rx="22.09" ry="31.62"/>
              <ellipse class="w" cx="722.33" cy="614.13" rx="22.09" ry="31.62"/>
              <ellipse class="j" cx="1000.93" cy="600.97" rx="5.49" ry="9.15"/>
              <ellipse class="j" cx="730.33" cy="600.97" rx="5.49" ry="9.15"/>
            </g>
          </g>
          <g>
            <path class="x" d="M998.91,456.37l1.23-.13C999.71,456.28,999.28,456.32,998.91,456.37Z" transform="translate(0 -87.72)"/>
            <path class="x" d="M1001.66,456.08l2.31-.26C1003.2,455.9,1002.42,456,1001.66,456.08Z" transform="translate(0 -87.72)"/>
          </g>
          <g>
            <g>
              <circle class="y" cx="721.82" cy="591.82" r="122.41"/>
              <circle class="z" cx="721.82" cy="591.82" r="122.41"/>
            </g>
            <g>
              <path class="y" d="M1152.53,679.54a122.41,122.41,0,1,1-122.39-122.41A122.41,122.41,0,0,1,1152.53,679.54Z" transform="translate(0 -87.72)"/>
              <path class="z" d="M1152.53,679.54a122.41,122.41,0,1,1-122.39-122.41A122.41,122.41,0,0,1,1152.53,679.54Z" transform="translate(0 -87.72)"/>
            </g>
            <path class="aa" d="M908.73,699.52c-.58-15.67-62.42-23.34-67.53,7.69" transform="translate(0 -87.72)"/>
          </g>
          <path class="ab" d="M594.69,677.45l-72.81-9,72.81-9a9,9,0,1,1,2.2,17.91A9.42,9.42,0,0,1,594.69,677.45Z" transform="translate(0 -87.72)"/>
          <g>
            <path class="q" d="M1245.33,464.75c-47.26,18.3-149.62,43.08-264.53-21.17,36.87,21.6,82.31,43,123.82,52.31,44,9.91,114.7-4,142.78-30.51Z" transform="translate(0 -87.72)"/>
            <path class="q" d="M941.74,418.48c-8.25-6-16.54-12.51-24.85-19.55A267.48,267.48,0,0,0,941.74,418.48Z" transform="translate(0 -87.72)"/>
          </g>
          <path class="q" d="M1000.93,463.84l-.42-.22c-30.08-1.22-167.2-8-221.68-32.12C851.55,464.49,957,479.39,1000.93,463.84Z" transform="translate(0 -87.72)"/>
          <path class="q" d="M555.15,183.88c-2.18,5.67-7.66,35.89-8.9,58.67,2.48,18.38,7.8,37.64,18.94,47.4,20.17,17.67-43.57-54.9,50.6-166.44-2.33,1-4.34,1.92-5.94,2.72C587.81,137.15,564.15,160.45,555.15,183.88Z" transform="translate(0 -87.72)"/>
          <g>
            <path class="ac" d="M1076.06,1441.11c-2.42-20.44,8.2-110.6,67.91-139.56,24.53-11.9,49.16-23.6,72.55-37.73,21-12.68,43.92-26.79,53-49.31,2.62-6.5-.21-22.82-.21-22.82s45.12,24.34,37,109.15c-1.83,19-4.14,38.49-9.52,56.87-7.31,24.84-23.6,41.9-42.47,58.63-11,9.72-20.15,20.11-32.26,28.66a382.65,382.65,0,0,1-38.91,23.68c-19.78,10.68-40.08,19.78-63,18.53-8.71-.47-16.16-4.21-23.77-8-6.76-3.39-12.39-7.56-13.57-15.05C1081.29,1454.58,1077.19,1450.68,1076.06,1441.11Z" transform="translate(0 -87.72)"/>
            <path class="ad" d="M1306.29,1300.83c2.23-23.15.46-41.76-3.25-56.64-3-2.43-2.14,12.83-4.77,19.32-9.09,22.52-32,36.62-53,49.31-23.38,14.12-48,25.83-72.55,37.73-54.36,26.37-68,103.43-68.22,132.45a44.58,44.58,0,0,0,15.64,4.2c22.92,1.24,43.21-7.85,63-18.53A382.65,382.65,0,0,0,1222,1445c12.12-8.56,21.3-18.94,32.26-28.66,18.87-16.73,35.16-33.79,42.47-58.63C1302.15,1339.32,1304.46,1319.83,1306.29,1300.83Z" transform="translate(0 -87.72)"/>
            <g>
              <path class="ac" d="M1085,1443.41S1007,1270.76,770.84,1248c0,0-83.56-.52-102.88-29.55l-26.48,92.22s147.17,171.77,157.61,178.14,268.22,85.68,268.22,85.68Z" transform="translate(0 -87.72)"/>
              <path class="ad" d="M1070.58,1481.76s-77.94-172.64-314.13-195.37c0,0-83.56-.52-102.88-29.55l-26.48,92.22S774.26,1520.84,784.7,1527.2s268.22,85.68,268.22,85.68Z" transform="translate(0 -87.72)"/>
              <g>
                <g>
                  <path class="ae" d="M979,1951.29,658.92,1776.67s-6.93-3.78-11-8.85c-3.42-4.24-3.62-12.21-3.62-12.21L597.71,1231.5s-1.59-7.13,6.2-12.73c5.08-3.65,14.15-1.14,14.15-1.14l420.53,201.92Z" transform="translate(0 -87.72)"/>
                  <path class="ae" d="M1026.82,1957.74l159.87-282.45,183.6-493.1s3.42-6.46-2.61-13.92c-3.94-4.86-231.37,264.44-231.37,264.44Z" transform="translate(0 -87.72)"/>
                  <path class="af" d="M603.91,1218.77c5.08-3.65,14.15-1.14,14.15-1.14l8.52,4.09,51.72,497.84s.2,8,3.62,12.21c4.09,5.07,11,8.85,11,8.85L980.14,1941,979,1951.29,658.92,1776.67s-6.93-3.78-11-8.85c-3.42-4.24-3.62-12.21-3.62-12.21L597.71,1231.5S596.13,1224.37,603.91,1218.77Z" transform="translate(0 -87.72)"/>
                  <path class="af" d="M603.91,1218.77C609,1215.12,664,1738,664,1738s.2,8,3.63,12.21c4.09,5.06,11,8.85,11,8.85L979,1951.29,658.92,1776.67s-6.93-3.78-11-8.85c-3.42-4.24-3.62-12.21-3.62-12.21L597.71,1231.5S596.13,1224.37,603.91,1218.77Z" transform="translate(0 -87.72)"/>
                  <polygon class="ag" points="949.37 1780.65 691.88 1640.14 662.53 1225.21 978.75 1377.04 949.37 1780.65"/>
                  <polygon class="ah" points="973.52 1735.43 1007.21 1351.32 770.44 1239.75 973.52 1735.43"/>
                </g>
                <polygon class="ai" points="1026.82 1870.01 978.69 1863.53 1038.3 1331.78 1136.31 1344.99 1026.82 1870.01"/>
                <polygon class="aj" points="1015.3 1855.67 993.59 1852.74 1055.7 1334.13 1118.92 1342.64 1015.3 1855.67"/>
              </g>
            </g>
            <path class="af" d="M1136.31,1432.71l-109.5,525,62.6-110.58c4.31-16.22,15.18-96.1,18.85-123.24,12.1-89.41,23.66-181.18,62.39-263.72,29.65-63.2,74.83-114,119.64-166.65,24.47-28.73,47-59.12,71.3-88l8.71-23.39s3.42-6.46-2.61-13.92C1363.75,1163.41,1136.31,1432.71,1136.31,1432.71Z" transform="translate(0 -87.72)"/>
          </g>
          <g>
            <path class="f" d="M315.39,1445.8s-28.69-28.45-7.3-66.78c16.06-28.73,53.68-10.3,71.54.45,47.75,28.76,167.18,92.12,221.45,136.73,23.39,19.21-7.78,57.62-24,54.36C513.62,1557.76,403.13,1519.93,315.39,1445.8Z" transform="translate(0 -87.72)"/>
            <path class="f" d="M586.88,1517.87c5.69-14.73,50-20.65,55.47-22.3,4.9-1.51,19.44-2.69,24.31-2.22,1.85.18,3.48,2.13,2.66,5.7-3.24,14-28.19,20.15-28.56,21.12,5.88,4.28,17.75,5.51,18.09,5.85,17.07,2.61,49.12,7.6,62.39,8.88,5.45.52,11.49,4,11,8.26-.32,3-4.08,7.45-10.5,6.84-23.33-2.26-58.92-3.35-59-2.74,16.32,5.34,47.39,15.55,60.3,19,5.29,1.41,10.72,5.86,9.69,10-.73,3-5,6.8-11.23,5.12-14.44-3.47-63.63-12.16-64.12-10.84,16,8.2,39.38,20.12,50,24.82,5,2.24,9.78,7.52,8.23,11.52-1.11,2.86-5.8,6-11.7,3.36-12.57-5.24-36.73-14.4-54.9-22.36-.53.79,26.82,24.36,38.13,32.65,4.49,3.3,4.5,8.29,3.07,10.45-2,3-7.79,1.82-11.6-1-9.58-7-34.68-23.51-46.76-31.41-9.36-1.64-28.54-9.32-35.41-12.69-11.08-5.44-15.41-9.26-17.62-14.67l-5-10.65S569.79,1536.3,586.88,1517.87Z" transform="translate(0 -87.72)"/>
          </g>
        </g>
      </g>
    </g>
  </g>
</svg>
