<svg xmlns="http://www.w3.org/2000/svg" xmlns:xlink="http://www.w3.org/1999/xlink" width="2629.56" height="851.22" viewBox="0 0 2629.56 851.22">
  <defs>
    <style>
      .a {
        isolation: isolate;
      }

      .b {
        fill: url(#a);
      }

      .c {
        fill: url(#b);
      }

      .d {
        fill: #ff9f55;
      }

      .e {
        fill: #eff7fe;
      }

      .f {
        fill: url(#c);
      }

      .g {
        fill: #5284fc;
      }

      .h {
        fill: url(#d);
      }

      .i {
        fill: url(#e);
      }

      .j {
        fill: url(#f);
      }

      .k {
        fill: url(#g);
      }

      .l {
        fill: url(#h);
      }

      .m {
        fill: #f08533;
      }

      .n {
        fill: #fae6de;
      }

      .o {
        fill: url(#i);
      }

      .p {
        fill: #495da1;
      }

      .q {
        fill: #deccc5;
      }

      .r {
        fill: #eea886;
      }

      .s {
        fill: #fff;
        mix-blend-mode: hard-light;
      }

      .t {
        fill: #e8e8e8;
      }

      .u {
        fill: #c1dbd1;
      }

      .v {
        fill: #152b3d;
      }

      .w {
        fill: #323657;
      }

      .x {
        fill: #254380;
      }

      .y {
        fill: #353a3d;
      }

      .z {
        fill: #e55353;
      }

      .aa {
        fill: #fb5;
      }

      .ab {
        fill: #4373cf;
      }

      .ac {
        fill: #213a70;
      }

      .ad {
        fill: #ffca55;
      }

      .ae {
        fill: #3a3f47;
      }

      .af {
        fill: #a77860;
      }

      .ag {
        fill: #c9a043;
      }

      .ah {
        fill: #444c94;
      }

      .ai {
        fill: #303669;
      }

      .aj {
        fill: #518afa;
      }

      .ak {
        fill: #de9673;
      }

      .al {
        fill: #2f4563;
      }

      .am {
        fill: #1e2d40;
      }

      .an {
        fill: #eea987;
      }

      .ao {
        fill: #23344a;
      }

      .ap {
        fill: #464240;
      }

      .aq {
        fill: #6e6760;
      }

      .ar {
        fill: #292929;
      }

      .as {
        fill: #434975;
      }

      .at {
        fill: #ffc955;
      }

      .au {
        fill: #1d3b54;
      }

      .av {
        fill: #cfa345;
      }
    </style>
    <linearGradient id="a" x1="728.21" y1="385.37" x2="2629.56" y2="385.37" gradientUnits="userSpaceOnUse">
      <stop offset="0" stop-color="#40d5e6"/>
      <stop offset="1" stop-color="#57f"/>
    </linearGradient>
    <linearGradient id="b" x1="302.79" y1="797.03" x2="302.79" y2="654.7" gradientUnits="userSpaceOnUse">
      <stop offset="0" stop-color="#ff9f55"/>
      <stop offset="1" stop-color="#ffd255"/>
    </linearGradient>
    <linearGradient id="c" x1="297.76" y1="476.11" x2="297.76" y2="673.14" xlink:href="#a"/>
    <linearGradient id="d" x1="433.36" y1="485.56" x2="433.36" y2="338.26" gradientTransform="translate(866.72 854.23) rotate(-180)" xlink:href="#b"/>
    <linearGradient id="e" x1="264.77" y1="89.52" x2="264.77" y2="255" xlink:href="#a"/>
    <linearGradient id="f" x1="389.68" y1="7.92" x2="389.68" y2="140.28" xlink:href="#a"/>
    <linearGradient id="g" x1="-9741.64" y1="544.13" x2="-10023.95" y2="544.13" gradientTransform="matrix(1, 0, 0, -1, 11967.37, 1088.25)" xlink:href="#b"/>
    <linearGradient id="h" x1="-9609.02" y1="779.23" x2="-9888.6" y2="779.23" gradientTransform="matrix(1, 0, 0, -1, 11794.84, 1558.47)" xlink:href="#b"/>
    <linearGradient id="i" x1="2196.62" y1="632.09" x2="2196.62" y2="746.83" gradientTransform="translate(4393.23 1345.77) rotate(-180)" gradientUnits="userSpaceOnUse">
      <stop offset="0" stop-color="#609ff0"/>
      <stop offset="1" stop-color="#5a3f9e"/>
    </linearGradient>
  </defs>
  <title>for_authors_image_2</title>
  <g class="a">
    <g>
      <path class="b" d="M2250.8,253.32a377,377,0,0,0-177,43.87C1970.66,156.75,1804.41,65.56,1616.85,65.56c-223.91,0-417.48,129.94-509.45,318.5A269.65,269.65,0,0,0,998.94,361.4c-149.52,0-270.72,121.2-270.72,270.69a269.47,269.47,0,0,0,10,73.1H2622.47a376.43,376.43,0,0,0,7.09-73.1C2629.56,422.91,2460,253.32,2250.8,253.32Z"/>
      <g>
        <path class="c" d="M70.12,676.09h502a0,0,0,0,1,0,0V808.8a0,0,0,0,1,0,0h-502A36.63,36.63,0,0,1,33.5,772.17V712.72A36.63,36.63,0,0,1,70.12,676.09Z"/>
        <path class="d" d="M658.28,689.75V795.15h8.8v13.66H303.25a36.63,36.63,0,0,1-36.63-36.63V712.72a36.63,36.63,0,0,1,36.63-36.63H667.09v13.66Z"/>
        <path class="e" d="M330.11,689.75H658.27a0,0,0,0,1,0,0V795.14a0,0,0,0,1,0,0H330.11a36.63,36.63,0,0,1-36.63-36.63V726.38A36.63,36.63,0,0,1,330.11,689.75Z"/>
        <path class="f" d="M46,521.75h549.5a0,0,0,0,1,0,0V676.08a0,0,0,0,1,0,0H46a46,46,0,0,1-46-46V567.77A46,46,0,0,1,46,521.75Z"/>
        <path class="g" d="M693,537.64V660.21h7.58v15.89H401.71a46,46,0,0,1-46-46v-62.3a46,46,0,0,1,46-46H700.58v15.89Z"/>
        <path class="e" d="M424.84,537.63H693a0,0,0,0,1,0,0V660.2a0,0,0,0,1,0,0H424.84a46,46,0,0,1-46-46V583.66A46,46,0,0,1,424.84,537.63Z"/>
        <path class="h" d="M249.44,332.5H667.09a0,0,0,0,1,0,0V521.72a0,0,0,0,1,0,0H249.44a49.8,49.8,0,0,1-49.8-49.8V382.31A49.8,49.8,0,0,1,249.44,332.5Z" transform="translate(866.72 854.23) rotate(180)"/>
        <path class="d" d="M124.81,352V502.25h-7.64v19.48H414.94a49.81,49.81,0,0,0,49.8-49.8V382.32a49.81,49.81,0,0,0-49.8-49.8H117.17V352Z"/>
        <path class="e" d="M174.32,352H437.64a0,0,0,0,1,0,0V502.25a0,0,0,0,1,0,0H174.32a49.5,49.5,0,0,1-49.5-49.5V401.49A49.51,49.51,0,0,1,174.32,352Z" transform="translate(562.46 854.23) rotate(180)"/>
        <path class="i" d="M69.52,143.25H512.38a0,0,0,0,1,0,0V332.46a0,0,0,0,1,0,0H69.52A52.36,52.36,0,0,1,17.17,280.1V195.6A52.36,52.36,0,0,1,69.52,143.25Z"/>
        <path class="g" d="M591.64,162.73V313h8.09v19.48H283.88a52.36,52.36,0,0,1-52.36-52.36v-84.5a52.36,52.36,0,0,1,52.36-52.36H599.74v19.48Z"/>
        <path class="e" d="M311.15,162.72H591.64a0,0,0,0,1,0,0V313a0,0,0,0,1,0,0H311.15A52.14,52.14,0,0,1,259,260.85v-46A52.14,52.14,0,0,1,311.15,162.72Z"/>
        <path class="j" d="M174.57,0H637.29a0,0,0,0,1,0,0V143.19a0,0,0,0,1,0,0H174.57a32.5,32.5,0,0,1-32.5-32.5V32.5A32.5,32.5,0,0,1,174.57,0Z"/>
        <path class="g" d="M716.55,14.74V128.46h8.09V143.2H388.93a32.5,32.5,0,0,1-32.5-32.5V32.5A32.5,32.5,0,0,1,388.93,0H724.65V14.74Z"/>
        <path class="e" d="M413.62,14.74H716.54a0,0,0,0,1,0,0V128.45a0,0,0,0,1,0,0H413.62A32.5,32.5,0,0,1,381.12,96V47.24A32.5,32.5,0,0,1,413.62,14.74Z"/>
      </g>
      <g>
        <path class="k" d="M1922.88,473.14h400.6a0,0,0,0,1,0,0v142a0,0,0,0,1,0,0h-400.6a26.18,26.18,0,0,1-26.18-26.18V499.32A26.18,26.18,0,0,1,1922.88,473.14Z" transform="translate(4220.19 1088.25) rotate(180)"/>
        <path class="l" d="M1789.13,730.65h488.21a0,0,0,0,1,0,0v97.16a0,0,0,0,1,0,0H1789.13A18.81,18.81,0,0,1,1770.32,809V749.47A18.81,18.81,0,0,1,1789.13,730.65Z" transform="translate(4047.66 1558.47) rotate(180)"/>
        <path class="m" d="M1718.31,741.27v75.92h-12.89v10.61h229.05a13,13,0,0,0,13-13V743.66a13,13,0,0,0-13-13H1705.42v10.62Z"/>
        <path class="n" d="M1730.81,741.28h205.05a0,0,0,0,1,0,0v75.92a0,0,0,0,1,0,0H1730.81a12.5,12.5,0,0,1-12.5-12.5V753.77A12.5,12.5,0,0,1,1730.81,741.28Z" transform="translate(3654.18 1558.47) rotate(180)"/>
        <path class="m" d="M1828.39,487.76V600.5h-7v14.62h290.27a27.06,27.06,0,0,0,27.06-27.06V500.21a27.06,27.06,0,0,0-27.06-27.06H1821.41v14.61Z"/>
        <path class="n" d="M1855.46,487.75H2123.9a0,0,0,0,1,0,0V600.5a0,0,0,0,1,0,0H1855.46a27.06,27.06,0,0,1-27.06-27.06V514.81A27.06,27.06,0,0,1,1855.46,487.75Z" transform="translate(3952.29 1088.25) rotate(180)"/>
        <path class="o" d="M2016.67,615.12H2410a0,0,0,0,1,0,0V730.65a0,0,0,0,1,0,0H2016.67a33.45,33.45,0,0,1-33.45-33.45V648.57A33.45,33.45,0,0,1,2016.67,615.12Z" transform="translate(4393.23 1345.77) rotate(180)"/>
        <path class="p" d="M1914.91,627v91.75h-7v11.89h283.88a33.45,33.45,0,0,0,33.45-33.45V648.57a33.45,33.45,0,0,0-33.45-33.45H1907.94V627Z"/>
        <path class="n" d="M1948.37,627h263a0,0,0,0,1,0,0v91.75a0,0,0,0,1,0,0h-263a33.45,33.45,0,0,1-33.45-33.45V660.46A33.45,33.45,0,0,1,1948.37,627Z" transform="translate(4126.24 1345.77) rotate(180)"/>
        <rect class="q" x="1961.3" y="656.26" width="112.64" height="2.9" transform="translate(4035.24 1315.43) rotate(180)"/>
        <rect class="q" x="2006.46" y="665.08" width="120.28" height="2.9" transform="translate(4133.2 1333.07) rotate(180)"/>
        <rect class="q" x="1745.41" y="760.91" width="112.64" height="2.9" transform="translate(3603.45 1524.73) rotate(180)"/>
        <rect class="q" x="1790.57" y="769.73" width="120.28" height="2.9" transform="translate(3701.41 1542.36) rotate(180)"/>
        <rect class="q" x="1873.11" y="777.78" width="49.76" height="2.9" transform="translate(3795.99 1558.47) rotate(180)"/>
        <rect class="q" x="1960.08" y="563.99" width="120.28" height="2.9" transform="translate(4040.44 1130.88) rotate(180)"/>
        <rect class="q" x="1950.18" y="572.04" width="49.76" height="2.9" transform="translate(3950.11 1146.98) rotate(180)"/>
        <path class="r" d="M1968,583.11c0-1.45,1.55-3.67,4-1.76s-.57,8.9-2.54,8.28S1968,584.61,1968,583.11Z"/>
      </g>
      <rect class="s" x="801.99" y="49.8" width="903.96" height="625.73" rx="53.24" ry="53.24"/>
      <rect class="t" x="1250.28" y="42.83" width="7.39" height="639.98"/>
      <g>
        <rect class="u" x="863.02" y="115.74" width="332.14" height="12.55"/>
        <rect class="u" x="863.02" y="161.75" width="332.14" height="12.55"/>
        <rect class="u" x="863.02" y="207.77" width="332.14" height="12.55"/>
        <rect class="u" x="863.02" y="253.79" width="332.14" height="12.55"/>
        <rect class="u" x="863.02" y="299.81" width="332.14" height="12.56"/>
        <rect class="u" x="863.02" y="345.83" width="332.14" height="12.56"/>
        <rect class="u" x="863.02" y="391.85" width="332.14" height="12.55"/>
        <rect class="u" x="863.02" y="437.87" width="332.14" height="12.55"/>
        <rect class="u" x="863.02" y="483.89" width="332.14" height="12.55"/>
        <rect class="u" x="863.02" y="529.9" width="332.14" height="12.56"/>
        <rect class="u" x="863.02" y="575.92" width="332.14" height="12.56"/>
      </g>
      <g>
        <rect class="u" x="1310.92" y="115.74" width="332.14" height="12.55"/>
        <rect class="u" x="1310.92" y="161.75" width="332.14" height="12.55"/>
        <rect class="u" x="1310.92" y="207.77" width="332.14" height="12.55"/>
        <rect class="u" x="1310.92" y="253.79" width="332.14" height="12.55"/>
        <rect class="u" x="1310.92" y="299.81" width="332.14" height="12.56"/>
        <rect class="u" x="1310.92" y="345.83" width="332.14" height="12.56"/>
        <rect class="u" x="1310.92" y="391.85" width="332.14" height="12.55"/>
        <rect class="u" x="1310.92" y="437.87" width="332.14" height="12.55"/>
        <rect class="u" x="1310.92" y="483.89" width="332.14" height="12.55"/>
        <rect class="u" x="1310.92" y="529.9" width="332.14" height="12.56"/>
        <rect class="u" x="1310.92" y="575.92" width="332.14" height="12.56"/>
      </g>
      <g>
        <path class="r" d="M994.79,225.09s5-8.83-3-32.51c-7.74-22.9-34.54-20.82-43.06-6.15s-5.64,23.78,6.9,40.34S989.58,232.66,994.79,225.09Z"/>
        <path class="r" d="M932.54,632.41s-1.33,9.72-1.49,11.18-14.75-.86-14.75-.86l-1.18-11.58S930.72,631,932.54,632.41Z"/>
        <path class="v" d="M931.2,642.35s4.62,5.86,9.09,8.41,11.5,3.57,14.14,6.21c1.91,1.91,7,10.12-11.62,10s-27.52,1.16-29.51-2,2.88-23.25,2.88-23.25S920.73,643,931.2,642.35Z"/>
        <path class="r" d="M1033.54,632.41s-1.33,9.72-1.49,11.18-14.75-.86-14.75-.86l-1.18-11.58S1031.72,631,1033.54,632.41Z"/>
        <path class="v" d="M1032.2,642.35s4.62,5.86,9.09,8.41,20.92,4.65,23.56,7.29c1.91,1.91,5.08,9.59-21,8.87-18.56-.51-27.52,1.16-29.51-2s2.88-23.25,2.88-23.25A76.94,76.94,0,0,0,1032.2,642.35Z"/>
        <path class="w" d="M937.45,390.31S930,413.56,931,433.58s-3.87,41.95-5.85,62.87c-2.21,23.33-11.26,78.55-11.59,91s1.4,52.32,1.4,52.32l18.12.44s15.21-96.54,19.15-106.39,23.48-80.08,24.14-88S937.45,390.31,937.45,390.31Z"/>
        <path class="w" d="M1012.56,387.89s11,61.45,12.31,73.71,2.19,59.32,2.85,67,4.38,100.26,7.88,111.64h-20.2s-20.74-67.32-20.74-99.17-13.73-69.24-22.6-90.25-29.16-21.51-34.61-60.5C937.45,390.31,1005.18,375.53,1012.56,387.89Z"/>
        <path class="r" d="M987.46,231.34s-2.28,6.63,0,11.36-29.11,1.89-29.11,1.89,1.42-9.78-2.68-17.82S987.46,231.34,987.46,231.34Z"/>
        <path class="w" d="M936,395.38s11.29,11.6,77.57-1.81l-1-5.68-75.35,2.84Z"/>
        <path class="r" d="M992.21,244.24s11.59,1.18,14.91,1.81,25.61-4,30.18-4.46,24.08-13.84,24.71-15.42,11.87-30,12.5-36.18,10.94-3,10.06,1.26c-1.65,7.93-3.78,27.18-4.94,32.76-1.26,6-4.63,19.67-6.52,21.35s-19.45,15-36.65,20.72a146.19,146.19,0,0,0-30.13,14H921.59s-33-47.11-33.67-54.21,23-54.27,27.75-60.19,11.58,1.93,11.58,1.93-14.18,41.6-16.07,47.52,16.49,31.9,21.54,32,18-1.58,23.77-1.81a40.34,40.34,0,0,0,11.83-2.76Z"/>
        <path class="x" d="M1028.73,275.71s-10.37,6.9-11.32,18.73a245.33,245.33,0,0,1-6.62,36.91c-1.89,6.39,1.66,52.76,2.13,56.07s-65.57,11.18-75.71,3.31c0,0-2.84-43.3-4-55.6S926.32,293,924.43,289s-24.84-36.21-25.79-40.46c0,0,11.87-18.93,20.39-19.17,0,0,13.53,15.85,17.94,16.56s31.45-4.25,31.45-4.29,3,4,18.64-.71c0,0,18.68,2.11,21.72,2.5,3.68.47,29.26-3.21,29.26-3.21s10.26,17.33,8.46,26.08Z"/>
        <path class="r" d="M1073.92,193.7s2.32-11-.47-14.11c-1.59-1.79-5.4-6.54-5.75-7.23s-4.45-3.05-4.45-4.18,4-2.53,7.5.7,5.67,3.92,7.06,3.57,3.4-11.94,3.57-14.82,1.28-10.46,3.08-9.94,1.71,3.84,1.71,3.84,2.09-5.75,3.49-4.62,1.22,3.92,1.22,3.92,2.61-3.23,3.31-.87a8.14,8.14,0,0,1,0,4.45s2.7-1.48,2.88,2.18-.79,14.38-2.7,18.21-9.09,13.87-10,17.78S1073.92,193.7,1073.92,193.7Z"/>
        <path class="r" d="M924.94,174.44s7.88-13.25,10.57-14.43,6.47-1.85,9.78-4.22,7.69-4.34,7.45-5.13-4.14-.47-8.32,1.34-6,.94-6.41,0,2.23-7.63,3.49-9.21,10.25-10.62,8.75-12-7.33,3.63-8.28,4.65c0,0,4.65-9.78,2.84-10.25s-5.21,3-5.21,3,.39-8.36-8.6,5.21c0,0,1.89-4.5-.87-3s-5.44,9.94-6.31,14.2-4.8,17.83-8.16,21.1S924.94,174.44,924.94,174.44Z"/>
        <path class="y" d="M955.67,226.77s4.15.37,13-2.68,9.49-18.5,11.4-16.67c3.9,3.73,7.58,1.16,9.05-1.05,0,0-4.31-5.68-2.31-8.41a21.17,21.17,0,0,1,5.25-4.73s-6.21-29.95-34.49-16.3C924.44,192.91,955.67,226.77,955.67,226.77Z"/>
        <path class="x" d="M987.46,242.71l-1-4.33s-18-.37-27.89,1.06l-1,5.17S970.15,250.33,987.46,242.71Z"/>
        <path class="r" d="M983,203.64c-1.64-2.72-7.7-4.56-8.41,3.15-.55,6,10.83,12.51,10.94,6.94S984.1,205.45,983,203.64Z"/>
        <path class="z" d="M1074.34,191.21s6.51.16,9.67,3a6.49,6.49,0,0,1-.53,3.24s-5.64-2.63-10-3.13C1073.52,194.34,1073.59,192,1074.34,191.21Z"/>
        <circle class="y" cx="1079.44" cy="193.92" r="2.8" transform="translate(9.55 435.05) rotate(-22.89)"/>
        <polygon class="aa" points="896.81 669.71 1073.66 669.71 1017.92 840.89 1023.14 842.59 1081.21 664.23 892.83 664.23 835.3 840.89 840.52 842.59 896.81 669.71"/>
        <polygon class="aa" points="957 840.89 901.26 669.71 1078.12 669.71 1134.41 842.59 1139.62 840.89 1082.1 664.23 893.71 664.23 951.79 842.59 957 840.89"/>
        <rect class="aa" x="880.35" y="718.13" width="216.46" height="5.48"/>
        <rect class="aa" x="858.05" y="777.65" width="258.98" height="5.48"/>
      </g>
      <g>
        <path class="ab" d="M1642.69,584.22c-.06,145.64-4.14,174.15-40.71,206.79-14.32,12.78-40.66,39.33-116.66,52.54-22.82,4-50.1,6.74-82.87,7.57a276.22,276.22,0,0,1-36.87-1.37,192.46,192.46,0,0,1-26.07-4.56c-83.53-20.93-89.77-92.5-53.23-152.71a347.08,347.08,0,0,1,32.32-44.26c17.89-21.1,37.08-39.85,54.45-57.35,16-16.12,30.49-31.19,41-46.06a115.66,115.66,0,0,0,11-18.76q1-2.23,2-4.4c2.25-4.74,4.56-9.28,6.9-13.63,4.39-8.18,8.85-15.65,13.16-22.33,3.44-5.34,6.77-10.18,9.88-14.47a239.28,239.28,0,0,1,18.59-23s1-.47,2.81-1.22c1-.4,2.19-.89,3.61-1.44l1.82-.69,2-.73,2-.69,2.53-.84,1.58-.5,1-.3.37-.11a165.71,165.71,0,0,1,41.91-7.37C1583.23,432.59,1642.75,456.26,1642.69,584.22Z"/>
        <path class="ac" d="M1448.37,803.48s1.2,9.76,2.78,14.07,10.2,14.25,6.56,23.8c-3.95,10.36-21.17.37-28.19-2.79s-5.42-8.89-6.17-15.91-4.18-7.21-2.91-12.15,8.95-14.39,8.95-14.39Z"/>
        <path class="r" d="M1432.71,791s-4.41,6.17-4.29,6.34,18.88,11.59,20.19,7.89a38.17,38.17,0,0,0,1.47-7.21Z"/>
        <path class="ac" d="M1369.1,810.38a71,71,0,0,0-10.87,12.73c-5.14,7.71-18.78,8.12-19.37,18.64s18.55,10.85,28.6,7.42,11.57-13.71,17.64-16.28,9.23-4.65,8.76-9.67-3.83-13.16-3.83-13.16a41.4,41.4,0,0,1-6,1.45A49.66,49.66,0,0,1,1369.1,810.38Z"/>
        <path class="ad" d="M1438,525.24s-3.85,22.9-7,38h0c-1.26,6.13-2.4,11-3.1,12.52-.89,1.92-8.12,9.68-17,18.79-15.52,16-36,36.1-36,36.1l-8-15.22s18.21-21.35,30.56-35.6c5.72-6.59,10.17-11.66,11-12.4,2.58-2.31,5.58-25.06,9.79-43.81s12.65-29.11,12.65-29.11Z"/>
        <path class="r" d="M1411,594.57c-15.52,16-36,36.1-36,36.1l-8-15.22s18.21-21.35,30.56-35.6C1401.25,581.7,1408.2,586.13,1411,594.57Z"/>
        <path class="r" d="M1370,803.37l-.9,7a34.56,34.56,0,0,0,20.94-.31l.22-6.23Z"/>
        <path class="ad" d="M1511.42,627.57c.57,2-105.51,0-105.51,0s29.35-21.36,31.25-27.07-7.47-39.94-8.7-51.08c-1-8.91-3.43-48.8,2.45-54.89,6.14-6.37,28.26-13,28.26-13l32.24,1.2a50.7,50.7,0,0,1,9.13,2.88c3.8,1.77,25.56,9.51,29.09,20.38s-21.71,45.82-21.71,45.82,0,1.57-.12,4.14h0c-.1,3.43-.24,8.65-.37,14.3-.17,7.33-.32,15.39-.32,21.29C1507.1,605.36,1510.84,625.53,1511.42,627.57Z"/>
        <path class="t" d="M1511.42,627.57s14.43,21.19,14.63,35.66-25.61,62.93-29.51,69.86c-11.74,20.84-43.95,65.79-43.95,65.79s-5.55-.14-22.87-6.87c0,0,21.42-59.38,24.14-65.54,11.52-26.14,17.95-44.69,14.07-49.17s-14.43-9-17.48-11.63-56.31,10.06-61.89,11.51c-14.45,3.75-7.86,28.89-4.67,40.16,5.35,18.86,10,87,10,87s-10.29,4.38-27.53.68c0,0-33.85-123-34.94-135.18s-1.62-32.39,81.79-47.71Z"/>
        <path class="r" d="M1468,411.43s-28-6.31-21.6,28.91,13.12,38,30,30.7,15.38-29.86,16.22-40.92S1476.94,411.82,1468,411.43Z"/>
        <path class="r" d="M1460.6,490.53s12.4,13.14,32,1.2c0,0-4.38-28.48-2.08-42.35S1465,470.87,1465,470.87c.37.19.61,1.52.66,3.4a38.08,38.08,0,0,1-.29,5.64C1464.75,484.53,1463.31,489.4,1460.6,490.53Z"/>
        <path class="ae" d="M1491.28,448.2s-.72-11.1-4.78-11.45-4.68,4.12-4.68,4.12l-4.09.77s1.29-9.73-2.75-11.43-26.22,5.36-29.47,2.5-1.72-22.59,4.16-25.29,22.1-8.75,34-.7c0,0,9.27-1.06,10.64,6.42S1493.8,442.63,1491.28,448.2Z"/>
        <path class="af" d="M1465.32,479.91c20.21-6.23,21.73-18.4,21.75-18.59-6.66,11.44-21.46,12.95-21.46,12.95A38.08,38.08,0,0,1,1465.32,479.91Z"/>
        <path class="r" d="M1500.86,485.72s-14.8,29.46-38.71,27.56-4.08-31.52-3-31.79S1483.68,475.37,1500.86,485.72Z"/>
        <path class="ad" d="M1393.77,626.08s73.26,9,117.65,1.49L1426.6,617S1426.1,619.13,1393.77,626.08Z"/>
        <path class="r" d="M1448.56,613.64l-5.46,2.76s1.24,8.67,4.23,11.3l6.12-1.56S1452.19,616.63,1448.56,613.64Z"/>
        <path class="ad" d="M1533.34,595.88c-1.09,1.26-15.5,7.06-31.77,13.32h0c-22.23,8.56-47.3,16.66-47.3,16.66l-5.71-12.24s26.26-14.27,44-24.27c8.38-4.73,14.86-8.5,15.78-9.37,2.85-2.72,3.59-7.07,1.5-14.67s-6.93-42.52-7.47-46.6,1.36-14.95,11.55-15.49,15.38,2.33,15.38,2.33,2.56,1.06,4.46,25.79S1535.92,592.89,1533.34,595.88Z"/>
        <path class="ag" d="M1507.79,555.91h0c-.1,3.43-.24,8.65-.37,14.3-9.95-24.38-4.2-43.83-4.1-44.16C1502.24,532.67,1507.71,555.58,1507.79,555.91Z"/>
        <path class="ag" d="M1431,563.26h0c-1.26,6.13-2.4,11-3.1,12.52-3.4-16.44-.34-37.49-.34-37.49C1428,548.34,1431,563.26,1431,563.26Z"/>
        <path class="r" d="M1501.57,609.21h0c-22.23,8.56-48.11,16.93-48.11,16.93l-4.9-12.5s26.26-14.27,44-24.27C1492.56,589.36,1499,592.51,1501.57,609.21Z"/>
        <polygon class="ah" points="1446.98 626.86 1342.85 625.33 1395.42 652.02 1446.98 626.86"/>
        <polygon class="ai" points="1395.42 652.02 1446.98 632.05 1446.98 626.86 1391.35 646.93 1395.42 652.02"/>
        <path class="r" d="M1444.28,616.59s-6.5-1-11-2.06c-3.48-.81-12.13.31-14.33,2.54s-9.21,17.79-10.54,18.74.68,3.15,3,2c0,0,2.14,6.81,7.41,4.26s8.85-8.11,11.62-9.09,18.84-5.92,18.84-5.92S1448.43,614.93,1444.28,616.59Z"/>
        <path class="r" d="M1420.54,616a45.45,45.45,0,0,0-5.27,2.92c-1.09.9-5.51,4.21-6.58,5s1.62,3,9.52-.43S1420.54,616,1420.54,616Z"/>
        <polygon class="ai" points="1395.42 652.02 1364.45 567.45 1264.6 569.08 1294.12 647.02 1395.42 652.02"/>
        <ellipse class="aj" cx="1324.93" cy="608.65" rx="8.47" ry="12.33" transform="translate(-132.31 657.04) rotate(-26.58)"/>
        <path class="r" d="M1481.92,436.17c.37-3.11,6.51-4.25,7,.41s-2.79,12.84-5.12,12S1481.41,440.46,1481.92,436.17Z"/>
        <ellipse class="ad" cx="1485.31" cy="441.07" rx="8.02" ry="11.44"/>
        <path class="ad" d="M1488.28,434.08l-3.56-.57c0-.18,2.74-17.7-4-25.39-2.15-2.46-6.66-5.5-10.39-5.4h4.11c4.8-.12,7.42,1.45,9,3C1491.86,414.2,1488.41,433.3,1488.28,434.08Z"/>
        <path class="ad" d="M1467.48,465l-.71-1.44c13.56-6.72,17.74-20.36,17.78-20.49l1.54.46A38,38,0,0,1,1467.48,465Z"/>
        <circle class="ad" cx="1467.12" cy="464.27" r="2.67"/>
      </g>
      <g>
        <path class="ak" d="M768,519.23s12,.73,15.42,2.61,26.16-5.3,26.58-7a3.75,3.75,0,0,0,0-2.47H765.31Z"/>
        <path class="ak" d="M713.94,466.09s-3.84,30.21,0,34.16C728.62,515.38,783,514.18,783,514.18l0,6.15s-82.72,10.32-90.41-5.73c-9.24-19.28-5.65-50.72-5.65-50.72Z"/>
        <polygon class="al" points="686.64 784.4 691.55 778.8 682.68 769.52 675.19 774.77 686.64 784.4"/>
        <path class="am" d="M675.19,774.77s10.13,7.63,12.94,7.93,4.15,1.56,3.81,5.85,4.12,22.36,7.22,22.65,13.66.35,15.57,7.31S681.24,824,679,818.3s-17.43-33.37-15.63-35.59S670,775.48,675.19,774.77Z"/>
        <path class="w" d="M740.16,558.58s66.15,115.23,39.3,139.07c-10.53,9.35-20.67,17.8-35.24,30.32-7.75,6.65-17.1,14.35-28.18,25.89l-.46.48c-7.91,8.24-14.43,15.21-16.44,17.36l-.19.2-.22.24-7.36,7-10.8-9.5s12.24-16.94,19.15-30c9.69-18.26,26-39.73,33.5-45.72,12.91-10.26,16.45-12.27,16.45-22.08,0-10.52-60.63-69.3-60.63-69.3s-8.8-36.79,12.21-46.41C721.72,546.82,740.16,558.58,740.16,558.58Z"/>
        <path class="an" d="M689.71,802.25s-.42-5.31.48-8.7-13.69-1.45-13.69-1.45-1.88,14.17-1.34,17.42S689.71,802.25,689.71,802.25Z"/>
        <path class="w" d="M692.44,793.57l-19.67,3.54s-1.42-25.11-1.16-44.34c.28-20.67-.77-36.93,5.55-53.38,5.91-15.39,4.56-21.26,5.08-31.76s-5-64.62-5-64.62-6.72-24.23,8.84-41.32c15.16-16.66,54.37-.07,54.37-.07s-8.17,73.92-27.78,119.64c-5.55,12.94-2.55,20.8-9.63,40.8C703,722.07,692.23,765.67,692.44,793.57Z"/>
        <path class="an" d="M709.56,415.48a22.67,22.67,0,0,0-2.33,6.33,53.93,53.93,0,0,0-1.08,6.75,78.88,78.88,0,0,0-.4,8.59s-26.24-5.71-21.94-11.83,1.77-24.67,1.77-24.67S713,409.75,709.56,415.48Z"/>
        <path class="r" d="M724.33,364.92s6.72,5.84,3.71,22.64c0,0,1.49,13.39,3.54,15.72s-5.5,3.2-6.3,4.88-2.3,9.55-7.56,14.29-31.33-9.56-32.6-17.63-19.33-42.7,9.26-44.29S724.33,364.92,724.33,364.92Z"/>
        <path class="ad" d="M742.31,488.94c-.53,1.69,1.47,27.55,1.29,29.78-1,12.23,2.16,30.82,3.4,37.48.3,1.57.46,2.38.46,2.38-28.34,13.86-67.75,12.65-67.75,12.65.14-1.07,5.64-14.39,5.78-15.41,2.33-16.64,5.78-24.23,4.84-35.48h0c-.52-6.32-2.13-12.93-5.46-21.12-9.62-23.64-9.1-39.39-7.53-52.38s5.46-20.4,5.46-20.4L706.75,429c5.08,5.63,9.6,8.63,24,21.45C746.16,464.1,748.85,468.24,742.31,488.94Z"/>
        <path class="ao" d="M674.28,805.84s13.85-3.94,14.26-4.32.5-1.23,2.41-.46,2.7,3.66,4.58,4.58,13.3,4.26,19.56,7.34c2.26,1.11,11.84,4.76,13.22,7.81s1,7.63-15.5,6.54-34.44,1.23-38-.57S673.34,810.6,674.28,805.84Z"/>
        <path class="ap" d="M728.76,381.52s3.21-34.9-30.63-28.67-16.4,44.38-11.84,56.81c0,0-.55-19.31,15.74-19.94S721.69,385.32,728.76,381.52Z"/>
        <path class="an" d="M699.39,384.82c-2-3.54-9-1.65-8.23,3.74s6.4,10.79,8.25,8.17S702.38,390,699.39,384.82Z"/>
        <path class="an" d="M700.16,453.4s-2.79,29.9,1.05,33.86c14.68,15.12,72.62,15.41,72.62,15.41l2.77,8.69s-86.12,5.86-93.81-10.18c-9.24-19.28-5.65-50.72-5.65-50.72Z"/>
        <path class="ap" d="M687.41,361.44s-13-12.5-22.3,1.66,11,33.92,19.22,22.19A26.12,26.12,0,0,0,687.41,361.44Z"/>
        <path class="af" d="M707.23,421.8a53.93,53.93,0,0,0-1.08,6.75c-8.72-4-15.24-16.11-15.24-16.11,6.31,5.44,16.32,9.36,16.32,9.36Z"/>
        <rect class="aq" x="749.67" y="511.36" width="82.14" height="4.59"/>
        <rect class="aq" x="807.19" y="475.95" width="82.14" height="4.59" transform="translate(39.16 1020.12) rotate(-63.23)"/>
        <path class="an" d="M761.74,502.67s12-.92,15.42-3.32,26.16,6.75,26.58,8.86a6,6,0,0,1,0,3.15H759Z"/>
        <polygon class="ad" points="682.81 426.44 684.49 421.86 707.49 426.44 707.49 430.51 682.81 426.44"/>
        <path class="an" d="M700.12,453.79s2.47-17.33-9.6-18.85-13.39,15.58-13.39,15.58Z"/>
      </g>
      <g>
        <path class="ar" d="M1922.72,645.93s-.59,7.65-2.36,10.62-7.54,20.55-10,25-12.37,7.65-11.9,15.52,18.69,9.11,23.75,5.34,21.49-27.37,23.37-30.79,2.59-15.07-.82-18.38-7.14-10.16-7.07-11.76S1924.72,642.73,1922.72,645.93Z"/>
        <path class="as" d="M1943.88,411.82s-32.83,43.22-38.49,56-15.39,31-15.39,37,5,30.13,7.54,34.7S1917.34,622,1918.28,627s4.44,18.91,4.44,18.91l15-4.45s1.55-69-1.12-82.71-10.74-33.57-9.49-39.81,21.36-23.59,35.19-32.87,30.16-23.89,31.1-39-6.68-32.11-6.68-32.11S1971.06,403.91,1943.88,411.82Z"/>
        <path class="as" d="M1907,407.94s-9.42,13.92-14.14,17.35-37.46,34.7-46.89,50-12.64,17.58-10.68,24.2,4.79,24.43,6.91,29S1871.79,642,1871.79,642s11.29,2.86,14.59-2.16c0,0-6.44-47.25-4.79-64.37s-1.69-42-8.9-54.6-2.16-21,6.08-26.67,53.82-31.5,53.82-31.5S1987.87,386.25,1907,407.94Z"/>
        <path class="ar" d="M1872.17,641.48s-.24,2.74-1.06,3.08-13.78,19.52-16.26,22.26-18,7.19-18.26,9,2.12,12.1,14.84,12.33,23.33-10.73,28.51-14.84,20.19-8.62,14.26-18.72-7.83-14.73-7.83-14.73Z"/>
        <path class="as" d="M1942.75,651a66.39,66.39,0,0,0-6.61,15.27c-2.59,8.9-12.72,20.43-19.67,20.09s-5.79-5.43-5.79-5.43,7.38-20.25,10.48-26.76c.51-1.08,1.21-6.13,1.56-8.22.19-1.12,10.37-5.25,15-4.45C1937.68,641.48,1941.72,649.57,1942.75,651Z"/>
        <path class="as" d="M1854.28,667.32s2.34,6.2,8.23,5.07,12.49-7.75,15.91-11.51,13.26-10.68,13.26-10.68l-5.3-10.33-14.14.86Z"/>
        <path class="at" d="M1907.37,406.82s-10.14,13.38-13.44,16-32.17,26.08-49.78,55.5c0,0,56.63-1.92,88.16,32.93,0,0,30.58-25.37,34-27.91s25.37-15.47,27.1-36.17-6.68-32.11-6.68-32.11S1924.73,400.74,1907.37,406.82Z"/>
        <path class="at" d="M1900.21,346.94c7.47,12.63,8.72,57.12,6.83,61.4,0,0,42.93,13.2,80.16,7.92,0,0-1.86-4-3.7-9.35-.74-2.12-1.56-4.47-2.4-6.88-2.65-7.55-5.59-15.68-7.15-19.37-3.3-7.8-2.12-20.89.47-25.42s17.91-38.5,17.91-38.5,8.25-24.16-5.89-31.71a109,109,0,0,0-27.29-10.11l-24.89-1.72s-5.43,1-12.73,1.63-14.85,1.89-16.38,14-3,18.45-4.6,21.64S1891.73,332.6,1900.21,346.94Z"/>
        <path class="at" d="M1977.31,280.72s14.6,2,21,13.25,6,26.38,7.42,32.42,10.05,62.4,8.48,67.27-7.7,13.08-17,12.08-46.65-20.47-46.65-20.47,5-14.59,5-17.61l36,12.58s-8.64-58.88-9.74-65.42S1973.73,286.52,1977.31,280.72Z"/>
        <path class="at" d="M1914.81,275.94s-11.16,2.27-17.42,11.5c-4.36,6.42-4.71,20.67-5.34,23.36s-9,33.07-9,33.07l23.25,15.58Z"/>
        <polygon class="au" points="1904.14 334.61 1985.67 310.46 1988.97 313.14 1995.72 377.22 1904.14 411.61 1904.14 334.61"/>
        <path class="au" d="M1913.09,231.44s7.73,37.32,2.23,47.61c0,0,16.86-6.19,20.17-13S1913.09,231.44,1913.09,231.44Z"/>
        <path class="r" d="M1931.65,259.91s.38,3.74.8,8.68c.14,1.69.29,3.51.43,5.38a146.63,146.63,0,0,1,.59,16s12,12.86,25.69-15c0,0-5.75-11.49-1.42-27.14S1931.65,259.91,1931.65,259.91Z"/>
        <path class="r" d="M1931.88,186s-21.21,2.06-22.17,29.28,10.61,49.59,14.55,52.91,24.77-2.18,28.23-16.69,9.64-25.55,7.24-37.35S1957.84,182.29,1931.88,186Z"/>
        <path class="au" d="M1909.92,225.51s-9.32-32.64,18.1-42.12,39.51,9.79,43.53,21.66,4.62,46.66,4.62,46.66-16.79,19.86-27.48,25.8c0,0,5.35-37.77-1.05-63.55,0,0-22.39,6.68-38,4.58C1909.66,218.54,1909.8,224.07,1909.92,225.51Z"/>
        <path class="af" d="M1932.45,268.6c.14,1.69.29,3.51.43,5.38,12.33-6.53,15.12-14.15,15.12-14.15C1939.79,267.92,1932.45,268.6,1932.45,268.6Z"/>
        <path class="av" d="M1900.3,311s-13,22.15-10.14,36.59,12.73,6,12.73,6S1889.71,337.22,1900.3,311Z"/>
        <polygon class="au" points="1898.95 411.61 1846.02 365.64 1831.25 290.33 1895.42 334.68 1898.95 411.61"/>
        <polygon class="au" points="1904.14 411.61 1898.95 411.61 1895.42 334.68 1904.14 334.61 1904.14 411.61"/>
        <path class="r" d="M1955.27,370.11s-6.87-2.46-7.59-2.95-1.71-7.71-5.1-10.47-7.83-5.71-8.68-7-2.77,2.52.23,5.81,3,5.88-4.37,4.24c-4.11-.91-17.57-9-17.41-5.94.09,1.81,13.29,9.08,13.29,9.08s-14.67-6.76-15.55-6c-1.73,1.42,12.75,8.79,13.39,9,0,0-12.94-5-13.53-3.81-.74,1.44,12.31,6.62,12.1,6.82,0,0-10.34-3.83-10.6-2.87-.35,1.26,8.43,5.42,10.23,6s20.59,7.28,23.79,7.63,5.86,3.72,5.86,3.72Z"/>
        <path class="at" d="M1952.72,367.36s-4.16,9.65-4.87,16.61c0,0,23.43,12.22,38.62,18.29l11.77-25.51-2.51.46-4,1.48S1961.53,370,1952.72,367.36Z"/>
        <path class="as" d="M1870.73,637.86s-1,9.55-2.57,10.35S1883.78,645,1870.73,637.86Z"/>
        <path class="av" d="M1964.53,392.34c.38.31,12.74,10.09,19,14.56-.74-2.12-1.56-4.47-2.4-6.88Z"/>
        <polygon class="au" points="1846.02 365.64 1826.04 292.66 1831.25 290.33 1846.02 365.64"/>
        <path class="r" d="M1845.38,363.31a55.91,55.91,0,0,1-3.41-7.39c-1.54-4.13-6.11-19.59-5.18-20.26s12.77,2,14.42,4.42-2.76,2.15-2.76,2.15,6.26,2.26,5.35,4-4.66.24-4.66.24,4.93,2.28,3.75,3.68-3.67.76-3.67.76,4.44,1.71,3.44,3.32-8.66,1.44-8.05,3.13A29.45,29.45,0,0,1,1845.38,363.31Z"/>
      </g>
    </g>
  </g>
</svg>
