<svg xmlns="http://www.w3.org/2000/svg" xmlns:xlink="http://www.w3.org/1999/xlink" width="2827.73" height="1734.73" viewBox="0 0 2827.73 1734.73">
  <defs>
    <style>
      .a {
        fill: url(#a);
      }

      .b {
        fill: url(#b);
      }

      .c {
        fill: url(#c);
      }

      .d {
        fill: url(#d);
      }

      .e {
        fill: url(#e);
      }

      .f {
        fill: url(#f);
      }

      .g {
        fill: url(#g);
      }

      .h {
        fill: url(#h);
      }

      .i {
        fill: url(#i);
      }

      .j {
        fill: #fafafa;
      }

      .k {
        fill: url(#j);
      }

      .l {
        fill: #e7e7e7;
      }

      .m {
        fill: #fff;
      }

      .n {
        fill: #eef6fa;
      }

      .o {
        fill: url(#k);
      }

      .p {
        fill: #ff9f55;
      }

      .q {
        fill: #eff7fe;
      }

      .r {
        fill: url(#l);
      }

      .s {
        fill: #5284fc;
      }

      .t {
        fill: url(#m);
      }

      .u {
        fill: url(#n);
      }

      .v {
        fill: url(#o);
      }

      .w {
        fill: url(#p);
      }

      .x {
        fill: #ebdddd;
      }

      .y {
        fill: #eea987;
      }

      .z {
        fill: #eb4747;
      }

      .aa {
        fill: #e8734d;
      }

      .ab {
        fill: #eea886;
      }

      .ac {
        fill: #a77860;
      }

      .ad {
        fill: #214361;
      }

      .ae {
        fill: #1b374f;
      }

      .af {
        fill: #ab3434;
      }

      .ag {
        fill: #323657;
      }

      .ah {
        fill: #918783;
      }

      .ai {
        fill: #706865;
      }

      .aj {
        fill: #b59074;
      }

      .ak {
        fill: #bfb2ac;
      }

      .al {
        fill: #36572b;
      }

      .am {
        fill: #45613c;
      }

      .an {
        fill: #925e2e;
      }

      .ao {
        fill: #48753a;
      }

      .ap {
        fill: #538742;
      }

      .aq {
        fill: #877670;
      }

      .ar {
        fill: #876455;
      }

      .as {
        fill: #715346;
      }

      .at {
        fill: #9e633a;
      }

      .au {
        fill: #97a43c;
      }

      .av {
        fill: #82522f;
      }

      .aw {
        fill: #c67b47;
      }

      .ax {
        fill: url(#q);
      }

      .ay {
        fill: url(#r);
      }

      .az {
        fill: url(#s);
      }

      .ba {
        fill: #ffa855;
      }

      .bb {
        fill: #ffa555;
      }

      .bc {
        fill: url(#t);
      }

      .bd {
        fill: url(#u);
      }

      .be {
        fill: #f08533;
      }

      .bf {
        fill: #fae6de;
      }

      .bg {
        fill: url(#v);
      }

      .bh {
        fill: #495da1;
      }

      .bi {
        fill: #deccc5;
      }

      .bj {
        fill: url(#w);
      }

      .bk {
        fill: url(#x);
      }
    </style>
    <linearGradient id="a" x1="1274.74" y1="610.76" x2="1274.74" y2="1354.51" gradientUnits="userSpaceOnUse">
      <stop offset="0" stop-color="#dbdbe6"/>
      <stop offset="1" stop-color="#fff"/>
    </linearGradient>
    <linearGradient id="b" x1="926.33" y1="1315.08" x2="926.33" y2="548.92" gradientUnits="userSpaceOnUse">
      <stop offset="0" stop-color="#fcfcfc"/>
      <stop offset="1" stop-color="#fdfdfd"/>
    </linearGradient>
    <linearGradient id="c" x1="1023.72" y1="1565.45" x2="1023.72" y2="677.37" xlink:href="#b"/>
    <linearGradient id="d" x1="1181.17" y1="1565.45" x2="1181.17" y2="677.37" xlink:href="#b"/>
    <linearGradient id="e" x1="1338.81" y1="1565.45" x2="1338.81" y2="677.37" xlink:href="#b"/>
    <linearGradient id="f" x1="1497.39" y1="1565.45" x2="1497.39" y2="677.37" xlink:href="#b"/>
    <linearGradient id="g" x1="1625.16" y1="1565.45" x2="1625.16" y2="677.37" xlink:href="#b"/>
    <linearGradient id="h" x1="1536.93" y1="1565.45" x2="1536.93" y2="677.37" xlink:href="#b"/>
    <linearGradient id="i" x1="855.54" y1="1315.08" x2="855.54" y2="548.92" xlink:href="#b"/>
    <linearGradient id="j" x1="940.08" y1="1213.93" x2="1638.4" y2="1213.93" xlink:href="#a"/>
    <linearGradient id="k" x1="486.82" y1="1620.88" x2="486.82" y2="1464.67" gradientUnits="userSpaceOnUse">
      <stop offset="0" stop-color="#ff9f55"/>
      <stop offset="1" stop-color="#ffd255"/>
    </linearGradient>
    <linearGradient id="l" x1="481.31" y1="1268.67" x2="481.31" y2="1484.91" gradientUnits="userSpaceOnUse">
      <stop offset="0" stop-color="#40d5e6"/>
      <stop offset="1" stop-color="#57f"/>
    </linearGradient>
    <linearGradient id="m" x1="630.13" y1="1279.05" x2="630.13" y2="1117.38" gradientTransform="translate(1260.25 2429.8) rotate(-180)" xlink:href="#k"/>
    <linearGradient id="n" x1="445.1" y1="844.39" x2="445.1" y2="1026.01" xlink:href="#l"/>
    <linearGradient id="o" x1="582.19" y1="754.83" x2="582.19" y2="900.1" xlink:href="#l"/>
    <linearGradient id="p" x1="1258.54" y1="762.34" x2="1280.08" y2="828.7" xlink:href="#k"/>
    <linearGradient id="q" x1="1427.12" y1="1122.31" x2="1427.12" y2="1031.93" xlink:href="#k"/>
    <linearGradient id="r" x1="-9400.51" y1="1165.91" x2="-9352.43" y2="1165.91" gradientTransform="matrix(-1, 0, 0, 1, -7958.95, 0)" xlink:href="#k"/>
    <linearGradient id="s" x1="-9349.46" y1="962.93" x2="-9303.58" y2="962.93" gradientTransform="matrix(-1, 0, 0, 1, -7958.95, 0)" xlink:href="#k"/>
    <linearGradient id="t" x1="-9259.21" y1="1409.51" x2="-9503.08" y2="1409.51" gradientTransform="matrix(1, 0, 0, -1, 11266.4, 2819.03)" xlink:href="#k"/>
    <linearGradient id="u" x1="-9144.65" y1="1612.6" x2="-9386.16" y2="1612.6" gradientTransform="matrix(1, 0, 0, -1, 11117.37, 3225.2)" xlink:href="#k"/>
    <linearGradient id="v" x1="-9680.57" y1="1520.74" x2="-9219.94" y2="1520.74" gradientTransform="matrix(1, 0, 0, -1, 11415.88, 3041.47)" gradientUnits="userSpaceOnUse">
      <stop offset="0" stop-color="#609ff0"/>
      <stop offset="1" stop-color="#5a3f9e"/>
    </linearGradient>
    <linearGradient id="w" x1="1449.64" y1="662.05" x2="1490.25" y2="787.17" xlink:href="#k"/>
    <linearGradient id="x" x1="1461.54" y1="698.73" x2="1478.34" y2="750.49" xlink:href="#k"/>
  </defs>
  <title>for_authors_image_1</title>
  <g>
    <polygon class="a" points="809.36 1142.38 809.36 987.75 869.6 987.75 869.6 884.33 939.88 884.33 939.88 970.68 994.1 970.68 994.1 847.18 983.06 847.18 983.06 827.1 1107.56 827.1 1107.56 848.18 1095.52 848.18 1095.52 966.66 1124.63 966.66 1124.63 994.78 1177.85 994.78 1177.85 777.9 1231.07 724.68 1249.14 742.76 1266.82 742.76 1266.82 1043.98 1327.46 1043.98 1327.46 1019.88 1373.64 973.69 1410.79 973.69 1410.79 1043.98 1448.95 1043.98 1448.95 863.24 1510.2 863.24 1510.2 993.77 1560.4 993.77 1560.4 1092.17 1626.67 1092.17 1626.67 983.73 1740.13 983.73 1740.13 1142.38 809.36 1142.38"/>
    <g>
      <rect class="b" x="912.77" y="884.33" width="27.11" height="258.05"/>
      <polygon class="c" points="1051.67 827.1 1051.67 1053.35 992.1 1053.35 992.1 1107.57 939.88 1107.57 939.88 1142.38 1095.52 1142.38 1095.52 848.18 1107.56 848.18 1107.56 827.1 1051.67 827.1"/>
      <polygon class="d" points="1231.07 724.68 1231.07 1081.13 1178.85 1081.13 1178.85 994.78 1149.73 994.78 1149.73 1071.09 1095.52 1071.09 1095.52 1142.38 1266.82 1142.38 1266.82 742.76 1249.14 742.76 1231.07 724.68"/>
      <polygon class="e" points="1373.64 973.69 1373.64 1069.08 1340.26 1102.46 1314.4 1102.46 1314.4 1119.78 1266.82 1119.78 1266.82 1142.38 1410.79 1142.38 1410.79 973.69 1373.64 973.69"/>
      <rect class="f" x="1484.59" y="863.24" width="25.6" height="279.13"/>
      <polygon class="g" points="1740.13 983.73 1676.94 983.73 1676.94 1102.21 1658.8 1102.21 1658.8 1125.64 1510.2 1125.64 1510.2 1142.38 1740.13 1142.38 1740.13 983.73"/>
      <polygon class="h" points="1560.4 993.77 1540.82 993.77 1540.82 1105.73 1513.46 1133.09 1560.4 1133.09 1560.4 993.77"/>
      <rect class="i" x="841.48" y="987.75" width="28.11" height="154.63"/>
    </g>
    <path class="j" d="M1074.66,1133.32s79.68-36.22,96-25.35,90.54-13.12,143.06-2,83.3,36.83,134,12.19,110.46-15.19,119.51,0,21.73,8.35,79.68,0,54.32-4.72,130.38,15.19,126.05,19.92,126.05,19.92H1074.66Z"/>
    <path class="k" d="M964.22,1176.18s18.11-66.4,112.27-33.8,114.69,72.43,251.1,67.6,196.78,60.36,252.31,59.15,58.5,25.35,58.5,25.35H940.08Z"/>
    <path class="l" d="M1696.92,1724.34h-714V1645.5s34.16-62.21,90.17-75.69a91.48,91.48,0,0,1,43,0,117.36,117.36,0,0,1,32.2,13.25c99.27,58.08,184.5-13.14,251.87,71.35s138.35-26.9,257.68,42.38A246.38,246.38,0,0,1,1696.92,1724.34Z"/>
    <circle class="m" cx="2018.84" cy="470.32" r="6.32"/>
    <circle class="m" cx="2305.31" cy="827.1" r="6.32"/>
    <circle class="m" cx="1882.04" cy="316.86" r="6.32"/>
    <circle class="m" cx="1921.91" cy="627.13" r="11.94"/>
    <circle class="m" cx="1328.32" cy="129.11" r="9.88"/>
    <circle class="m" cx="1979.14" cy="243.24" r="4.54" transform="translate(1280.52 2110.89) rotate(-76.5)"/>
    <circle class="m" cx="1828.98" cy="424.74" r="9.66" transform="translate(989 2104.03) rotate(-76.5)"/>
    <circle class="m" cx="1921.91" cy="129.11" r="6.32"/>
    <circle class="m" cx="2002.8" cy="9.66" r="4.54" transform="translate(1525.92 1954.89) rotate(-76.5)"/>
    <circle class="m" cx="1828.98" cy="760.84" r="4.54" transform="translate(662.28 2361.74) rotate(-76.5)"/>
    <circle class="m" cx="1756.65" cy="9.66" r="9.66" transform="translate(1337.18 1715.52) rotate(-76.5)"/>
    <circle class="m" cx="2202.62" cy="651.01" r="11.94"/>
    <circle class="m" cx="1646.9" cy="201.45" r="11.94"/>
    <circle class="m" cx="2156.66" cy="21.6" r="11.94"/>
    <circle class="m" cx="2129.22" cy="310.54" r="4.54" transform="translate(1330.15 2308.42) rotate(-76.5)"/>
    <circle class="m" cx="2431.45" cy="760.84" r="4.54" transform="translate(1124.2 2947.6) rotate(-76.5)"/>
    <circle class="m" cx="1304.39" cy="564.28" r="4.54" transform="translate(451.26 1700.95) rotate(-76.5)"/>
    <circle class="m" cx="2655.48" cy="718.36" r="4.54" transform="translate(1337.03 3132.76) rotate(-76.5)"/>
    <circle class="m" cx="1607.05" cy="378.28" r="4.54" transform="translate(864.16 1852.68) rotate(-76.5)"/>
    <rect class="n" y="1525.41" width="2827.73" height="209.32"/>
    <g>
      <path class="o" d="M231.48,1488.15H782.37a0,0,0,0,1,0,0V1633.8a0,0,0,0,1,0,0H231.48a40.2,40.2,0,0,1-40.2-40.2v-65.25A40.2,40.2,0,0,1,231.48,1488.15Z"/>
      <path class="p" d="M877,1503.15v115.67h9.66v15H487.34a40.2,40.2,0,0,1-40.2-40.2v-65.26a40.2,40.2,0,0,1,40.2-40.2h399.3v15Z"/>
      <path class="q" d="M516.81,1503.14H877a0,0,0,0,1,0,0v115.67a0,0,0,0,1,0,0H516.81a40.2,40.2,0,0,1-40.2-40.2v-35.27A40.2,40.2,0,0,1,516.81,1503.14Z"/>
      <path class="r" d="M205,1318.76H808.1a0,0,0,0,1,0,0v169.38a0,0,0,0,1,0,0H205a50.51,50.51,0,0,1-50.51-50.51v-68.37A50.51,50.51,0,0,1,205,1318.76Z"/>
      <path class="s" d="M915.08,1336.2v134.52h8.32v17.44h-328a50.51,50.51,0,0,1-50.51-50.51v-68.37a50.51,50.51,0,0,1,50.51-50.51h328v17.44Z"/>
      <path class="q" d="M620.78,1336.19H915.07a0,0,0,0,1,0,0v134.51a0,0,0,0,1,0,0H620.78a50.51,50.51,0,0,1-50.51-50.51v-33.5A50.51,50.51,0,0,1,620.78,1336.19Z"/>
      <path class="t" d="M428.27,1111.07H886.64a0,0,0,0,1,0,0v207.66a0,0,0,0,1,0,0H428.27a54.66,54.66,0,0,1-54.66-54.66v-98.34A54.66,54.66,0,0,1,428.27,1111.07Z" transform="translate(1260.25 2429.8) rotate(180)"/>
      <path class="p" d="M291.5,1132.45v164.92h-8.39v21.38h326.8a54.66,54.66,0,0,0,54.66-54.66v-98.35a54.66,54.66,0,0,0-54.66-54.66H283.11v21.38Z"/>
      <path class="q" d="M345.84,1132.44h289a0,0,0,0,1,0,0v164.92a0,0,0,0,1,0,0h-289A54.33,54.33,0,0,1,291.51,1243v-56.25A54.33,54.33,0,0,1,345.84,1132.44Z" transform="translate(926.33 2429.8) rotate(180)"/>
      <path class="u" d="M230.82,903.35h486a0,0,0,0,1,0,0V1111a0,0,0,0,1,0,0h-486a57.46,57.46,0,0,1-57.46-57.46V960.82A57.46,57.46,0,0,1,230.82,903.35Z"/>
      <path class="s" d="M803.84,924.74v164.92h8.88V1111H466.08a57.46,57.46,0,0,1-57.46-57.46V960.82a57.46,57.46,0,0,1,57.46-57.46H812.73v21.38Z"/>
      <path class="q" d="M496,924.73H803.84a0,0,0,0,1,0,0v164.91a0,0,0,0,1,0,0H496a57.22,57.22,0,0,1-57.22-57.22V982A57.22,57.22,0,0,1,496,924.73Z"/>
      <path class="v" d="M346.11,746.15H853.94a0,0,0,0,1,0,0V903.3a0,0,0,0,1,0,0H346.11a35.67,35.67,0,0,1-35.67-35.67V781.81A35.67,35.67,0,0,1,346.11,746.15Z"/>
      <path class="s" d="M940.93,762.33v124.8h8.88v16.18H581.37a35.67,35.67,0,0,1-35.67-35.67V781.82a35.67,35.67,0,0,1,35.67-35.67H949.81v16.18Z"/>
      <path class="q" d="M608.47,762.32H940.92a0,0,0,0,1,0,0v124.8a0,0,0,0,1,0,0H608.47a35.67,35.67,0,0,1-35.67-35.67V798A35.67,35.67,0,0,1,608.47,762.32Z"/>
    </g>
    <path class="w" d="M1256.27,836.43l-48.58-42.35a9.57,9.57,0,1,1,12.58-14.43l34.35,29.95,49-54.64a9.57,9.57,0,1,1,14.25,12.78Z"/>
    <g>
      <path class="x" d="M1294.24,1563.93s7.52,11.37,13.07,15.34,34.92,20.1,39.94,20.9,33.49,5.66,33.41,10.15c-.16,9.13-20.57,10-47,8.68s-63.9,2.24-67.34-.9-4.22-16.34-1.31-29.3a82,82,0,0,0,1.59-24.47Z"/>
      <path class="x" d="M1213.4,1619.75c-1.35,6.78-49.17,6.95-54.32-2.32s-45.36-37.69-47.21-48.54c-.81-4.73.87-9.93,3.95-16.43,4-8.4,10.69-16.66,18.74-20.54,14.79-7.13,24.49,23.67,24.49,23.67s2.25,10.71,4.36,14.42,18,31.74,24.34,33.85S1215.68,1608.3,1213.4,1619.75Z"/>
      <path class="y" d="M1089,1231.4s27.62,3.82,36.4.08,55.67,28,55.59,33-1.54,7.1-1.54,7.1l-100.83-21.92Z"/>
      <path class="z" d="M1251.44,1341.56l-41.91,94.28c-2.93,6.61-5.67,12.77-8.06,18.14l-6.72,15.12c-11.11,25-31.15,86.5-31.15,86.5s-30.95-5.75-32.14-23.21c0,0,22.82-38.29,22.82-64.87s3.57-104.89,29-121.82C1214.22,1325.06,1234.33,1321.15,1251.44,1341.56Z"/>
      <path class="z" d="M1025.33,1237s5.16,5.16,9.52,6.35,77.37,6.75,111.1,17.86,78.56,18.25,86.9,27.78,22.22,61.9,21.82,71.82,38.05,190.11,41.79,203.15c2,6.92-31.74,4.89-31.74,4.89s-45.25-112.43-54.09-130.67c-16.25-33.53-17.06-74.6-23-80.95s-72.22-20.63-110.31-20.63-123.4,3.17-132.53-2-66.26-42.85-42.46-93.25S1025.33,1237,1025.33,1237Z"/>
      <path class="aa" d="M1114.35,934.2s-32.17,87.65-53.38,114.23-12.56-72-12.56-72S1085.21,919,1114.35,934.2Z"/>
      <path class="aa" d="M1128.6,928.39s19.36-65.25-54.69-69.48c-73.32-4.2-19.83,80.65-62.59,117.49-18.57,16-33.92,32.87-39.86,53.15,0,0-10.49,29.84,2,65.44C990.23,1143.06,1075.63,901.41,1128.6,928.39Z"/>
      <path class="ab" d="M1089.86,875.63c14.13,3.38,43,19.38,37,57.7a119.77,119.77,0,0,1-8.7,16.75c-4.69,7.12-4.39,32.23-6.55,32.83s-10.14-.14-10.14-.14-15.46,22.84-24.24,20-40.26-19.44-46.92-55.38S1032.79,862,1089.86,875.63Z"/>
      <path class="ab" d="M1068.64,987.86s-2.12,3.21-4.88,8.1c-1.41,2.49-3,5.42-4.54,8.57-4.28,8.73-8.35,19.2-8,27.05,0,0-21.53,1.09-28.94-31,0,0,15.3-27.85,11.93-48.42S1068.64,987.86,1068.64,987.86Z"/>
      <path class="aa" d="M1126.89,933.33s-27.11,8.84-50.47,5.43S1032,954.35,1032,954.35s-21.71-52.85,15.94-79.52S1144.29,891.7,1126.89,933.33Z"/>
      <path class="ab" d="M1067.38,935c1.14-4.38-1.8-12.31-10.65-8.44s-5.28,27.32,1.14,27S1066.2,939.55,1067.38,935Z"/>
      <path class="ac" d="M1063.76,996c-1.41,2.49-3,5.42-4.54,8.57-14.81-16.82-19.88-33.48-19.88-33.48C1047,983.46,1063.76,996,1063.76,996Z"/>
      <path class="ad" d="M1086.49,1117.07c-9.67,17.88-21.22,15.69-24.66,30s.41,16.72-13.34,36.82a113.81,113.81,0,0,0-7.16,12.2c-.26.51-.53,1-.78,1.54-1.22,2.43-2.38,4.89-3.47,7.34-2,4.53-3.83,9-5.37,13.11-4,10.72-6.39,18.93-6.39,18.93s-75.79,24.6-123,4.36c0,0,28.17-49.59,40.47-65.86s30.15-109.12,32.93-128.56,29-57.27,51.25-56.47l29.28,20.56s19.59,51.65,25.15,59.59S1096.3,1098.93,1086.49,1117.07Z"/>
      <path class="ae" d="M1040.74,1197.24l-.18.36c-1.22,2.43-2.38,4.89-3.47,7.34-2,4.53-3.83,9-5.37,13.11-18.66-2.76-53.78-28.76-53.78-28.76l44-72.75-18.67,59.55c5.68,1.61,20.48,9.25,22.33,12.46S1040.74,1197.24,1040.74,1197.24Z"/>
      <path class="ad" d="M1025.73,1007.82c11.57,4.13,32.07,21.51,19.27,52.2s-20.2,51.89-24.7,59.54-30.68,60.61-30.68,60.61,25.92,7.62,37.83,15.55,67.59,32.07,67.59,32.07l-13.76,22.89S964,1226.84,955,1217.76s.26-54.84,3.7-72.83,21.69-88.35,22-96.29S995.56,997,1025.73,1007.82Z"/>
      <path class="ad" d="M1032.44,1238.35s-7.93,124.82-15.27,128.34c-9.69,4.64-87.34,3.45-108.07-22.7s-23.49-74-6.78-102.65S1032.44,1238.35,1032.44,1238.35Z"/>
      <path class="af" d="M1209.53,1435.84c-2.93,6.61-5.67,12.77-8.06,18.14-9-28.92-8.25-77.25-8.25-77.25A274.59,274.59,0,0,0,1209.53,1435.84Z"/>
    </g>
    <polygon class="ag" points="1354.68 1176.26 1185.95 1176.26 1185.83 1162.08 1354.56 1160.8 1354.68 1176.26"/>
    <rect class="ag" x="1289.35" y="1089.74" width="160.21" height="14.67" transform="translate(-80.16 2085.82) rotate(-73)"/>
    <g>
      <polygon class="ah" points="1128.39 1614.47 1124.79 1624.6 972.54 1577.43 979.24 1555.62 1128.39 1614.47"/>
      <rect class="ai" x="1652.81" y="1201.47" width="14.39" height="443.48"/>
      <rect class="aj" x="1174.22" y="1176.26" width="581.64" height="25.22" transform="translate(2930.08 2377.73) rotate(180)"/>
      <rect class="ai" x="1255.16" y="1201.47" width="14.4" height="443.48" transform="translate(2524.72 2846.43) rotate(180)"/>
      <rect class="ah" x="965.99" y="1353.76" width="17.3" height="218.42"/>
      <path class="ag" d="M836.45,1330.12H1086a22.58,22.58,0,0,1,22.58,22.58v7.37a0,0,0,0,1,0,0H836.45a0,0,0,0,1,0,0v-30A0,0,0,0,1,836.45,1330.12Z"/>
      <path class="ag" d="M978.07,1234.58s-6.86,27.75,25.45,34.05,72,14.35,72,64.19h-112Z"/>
      <path class="ag" d="M836.45,1360.07,741.3,960.19s172-26.87,192.5,50.37S988,1317.24,1029,1331.43,836.45,1360.07,836.45,1360.07Z"/>
      <circle class="ak" cx="1128.39" cy="1628.57" r="14.23"/>
      <polygon class="ah" points="822.22 1614.47 825.83 1624.6 978.07 1577.43 970.77 1556.91 822.22 1614.47"/>
      <polygon class="ah" points="1021.13 1623.52 1021.13 1635.31 972.54 1577.43 979.24 1555.62 1021.13 1623.52"/>
      <circle class="ak" cx="1008.11" cy="1628.57" r="14.23"/>
      <circle class="ak" cx="822.22" cy="1628.57" r="14.23"/>
      <g>
        <path class="al" d="M1583.66,1001a50.89,50.89,0,1,0-43.55-24.53A50.91,50.91,0,0,0,1583.66,1001Z"/>
        <path class="am" d="M1635.36,996.46A35.62,35.62,0,0,0,1671,960.83q0-1.7-.16-3.37a35.63,35.63,0,1,0-35.46,39Z"/>
        <path class="an" d="M1582.83,952.79s-2.84,23.64-3.78,55.79,24.59,32.15,24.59,32.15v117.77h17.72s-.42-120.13,8.41-129.8,8.83-55.48,8.83-55.48l-5-2.94s7.57,54.22-26.9,62.21-21.44-77.34-21.44-77.34Z"/>
        <path class="ao" d="M1571.05,958.31c29.22-5.46,48.47-18.09,58.87-29.45a50.91,50.91,0,1,0-89.81,47.63C1541.52,969.57,1549.09,962.41,1571.05,958.31Z"/>
        <path class="ap" d="M1645.76,970.61c11.81-3.4,19.81-8.08,25.06-13.14a35.62,35.62,0,1,0-55,33.17C1619.47,983.82,1627.64,975.83,1645.76,970.61Z"/>
        <polygon class="aq" points="1665.82 1103.76 1546.03 1103.76 1552.21 1125.99 1658.41 1125.99 1665.82 1103.76"/>
        <polygon class="ar" points="1650.85 1125.99 1561.95 1125.99 1574.3 1176.28 1642.21 1176.28 1650.85 1125.99"/>
        <path class="ap" d="M1638.59,929.68l3.07.95s4.84-13.14,5.15-14.92S1638.59,929.68,1638.59,929.68Z"/>
        <path class="ap" d="M1667.62,930.63l-15.24,4.62s.1,1.37,2.1,1.37S1667.62,930.63,1667.62,930.63Z"/>
        <path class="ap" d="M1662.37,962.57h-3.89s.73,5.78,3.89,9.46S1662.37,962.57,1662.37,962.57Z"/>
        <path class="ao" d="M1568.85,889.65c-1.58,1.16,5.57,18.6,5.57,18.6H1578S1570.42,888.49,1568.85,889.65Z"/>
        <path class="ao" d="M1585.45,903.94c.63-4.73-3-12.71-3-12.71v12S1584.82,908.67,1585.45,903.94Z"/>
        <path class="ao" d="M1557.29,972.68c2.21-1.81,2.31-17.67,2.31-17.67l-3.47,1.26S1555.08,974.49,1557.29,972.68Z"/>
        <path class="as" d="M1621.4,1126h-59.45l12.35,50.29h19.47C1582.76,1135.81,1621.4,1126,1621.4,1126Z"/>
      </g>
      <g>
        <path class="at" d="M1577.42,1176.28c4.88-2,12.76-25.07,16.55-37,1.34-4.23,2.17-7.07,2.17-7.07h-44.61c3.85,27.53,13.22,44.06,13.22,44.06Z"/>
        <path class="au" d="M1581,1118.51c0-1.6,7.16-8.31,10.74-12.69s-1.38-12.69-1.38-12.69c-16,6.61-13.22,25.38-13.22,25.38S1581,1120.11,1581,1118.51Z"/>
        <path class="au" d="M1571.92,1119.22h1.93s1.38-32.43-10.46-36.83-11.84-13.22-11.84-13.22-3.58,12.12,2.2,18.45,12.39,13.77,11.29,19.82S1571.92,1119.22,1571.92,1119.22Z"/>
        <path class="av" d="M1594,1139.29c1.34-4.23,2.17-7.07,2.17-7.07h-44.61c3.85,27.53,13.22,44.06,13.22,44.06h2.91C1567.13,1150.5,1584.1,1142,1594,1139.29Z"/>
        <polygon class="aw" points="1596.14 1118.51 1551.2 1118.51 1548.64 1132.22 1597.96 1132.22 1596.14 1118.51"/>
      </g>
      <g>
        <path class="ax" d="M1473.44,1036.77l-51.89,116.89-1.39,3.14a14,14,0,0,1-5.77-.6l1.15-2.58,51.39-115.76L1392,957.34l-11.24-2.44,1.17-5.39,12.93,2.81Z"/>
        <path class="ay" d="M1393.53,1176.26h48a18.55,18.55,0,0,0-.53-2.92c-1.44-5.7-6.71-17.77-25.4-17.77s-21.72,12.07-22.11,17.77A17.71,17.71,0,0,0,1393.53,1176.26Z"/>
        <path class="az" d="M1344.62,931.46l3.25,9.19,19.66,55.72a34.42,34.42,0,0,0-22.91-64.91Z"/>
        <path class="ba" d="M1422.76,1153.67v2.56a12.73,12.73,0,0,1-2.61.57,14,14,0,0,1-5.77-.6l-.34-.12v-2.47h1.48l6,0Z"/>
        <path class="bb" d="M1393.53,1176.26h48a18.55,18.55,0,0,0-.53-2.92h-47.51A17.71,17.71,0,0,0,1393.53,1176.26Z"/>
        <path class="ba" d="M1344.62,931.46l3.25,9.19c11.47,9,29.28,24.69,37.92,40.62a34.42,34.42,0,0,0-41.17-49.82Z"/>
      </g>
    </g>
    <g>
      <path class="bc" d="M1745.59,1348.2h346a0,0,0,0,1,0,0v122.63a0,0,0,0,1,0,0h-346a22.62,22.62,0,0,1-22.62-22.62v-77.4A22.62,22.62,0,0,1,1745.59,1348.2Z" transform="translate(3814.61 2819.03) rotate(180)"/>
      <path class="bd" d="M1630.05,1570.64h421.72a0,0,0,0,1,0,0v83.93a0,0,0,0,1,0,0H1630.05a16.25,16.25,0,0,1-16.25-16.25v-51.42A16.25,16.25,0,0,1,1630.05,1570.64Z" transform="translate(3665.57 3225.2) rotate(180)"/>
      <path class="be" d="M1568.87,1579.81v65.58h-11.13v9.17H1755.6a11.23,11.23,0,0,0,11.23-11.23v-61.46a11.23,11.23,0,0,0-11.23-11.23H1557.74v9.17Z"/>
      <path class="bf" d="M1579.67,1579.81H1756.8a0,0,0,0,1,0,0v65.58a0,0,0,0,1,0,0H1579.67a10.79,10.79,0,0,1-10.79-10.79v-44A10.79,10.79,0,0,1,1579.67,1579.81Z" transform="translate(3325.68 3225.21) rotate(180)"/>
      <path class="be" d="M1664,1360.82v97.39h-6v12.62h250.74a23.37,23.37,0,0,0,23.38-23.37v-75.89a23.37,23.37,0,0,0-23.37-23.37H1657.94v12.62Z"/>
      <path class="bf" d="M1687.35,1360.82h231.88a0,0,0,0,1,0,0v97.39a0,0,0,0,1,0,0H1687.34a23.37,23.37,0,0,1-23.37-23.37v-50.64A23.38,23.38,0,0,1,1687.35,1360.82Z" transform="translate(3583.2 2819.03) rotate(180)"/>
      <path class="bg" d="M1826.61,1470.84h339.77a0,0,0,0,1,0,0v99.8a0,0,0,0,1,0,0H1826.61a28.9,28.9,0,0,1-28.9-28.9v-42A28.9,28.9,0,0,1,1826.61,1470.84Z" transform="translate(3964.08 3041.47) rotate(180)"/>
      <path class="bh" d="M1738.7,1481.11v79.26h-6v10.27H1977.9a28.9,28.9,0,0,0,28.89-28.9v-42a28.9,28.9,0,0,0-28.89-28.9H1732.67v10.27Z"/>
      <path class="bf" d="M1767.6,1481.11h227.15a0,0,0,0,1,0,0v79.26a0,0,0,0,1,0,0H1767.6a28.9,28.9,0,0,1-28.9-28.9V1510A28.9,28.9,0,0,1,1767.6,1481.11Z" transform="translate(3733.46 3041.47) rotate(180)"/>
      <rect class="bi" x="1778.77" y="1506.38" width="97.3" height="2.51" transform="translate(3654.84 3015.27) rotate(180)"/>
      <rect class="bi" x="1817.79" y="1514" width="103.9" height="2.51" transform="translate(3739.47 3030.5) rotate(180)"/>
      <rect class="bi" x="1592.28" y="1596.78" width="97.3" height="2.51" transform="translate(3281.85 3196.06) rotate(180)"/>
      <rect class="bi" x="1631.29" y="1604.4" width="103.9" height="2.51" transform="translate(3366.48 3211.3) rotate(180)"/>
      <rect class="bi" x="1702.6" y="1611.35" width="42.98" height="2.51" transform="translate(3448.18 3225.21) rotate(180)"/>
      <rect class="bi" x="1777.72" y="1426.67" width="103.9" height="2.51" transform="translate(3659.33 2855.85) rotate(180)"/>
      <rect class="bi" x="1769.16" y="1433.63" width="42.98" height="2.51" transform="translate(3581.31 2869.76) rotate(180)"/>
    </g>
    <g>
      <path class="bj" d="M1469.94,793.31a8.68,8.68,0,0,1-8.68-8.68v-120a8.68,8.68,0,1,1,17.36,0v120A8.68,8.68,0,0,1,1469.94,793.31Z"/>
      <path class="bk" d="M1530,733.29h-120a8.68,8.68,0,1,1,0-17.36h120a8.68,8.68,0,1,1,0,17.36Z"/>
    </g>
  </g>
</svg>
